<svg xmlns="http://www.w3.org/2000/svg" viewBox="0 0 200 200" preserveAspectRatio="xMinYMin"><desc>Families All Types 1 Streamline Illustration: https://streamlinehq.com</desc><g fill="#fdeaa9"><path d="M175.28 92.05a39 39 0 0 1-8.68 4.6c-4.3 1.85-8.85 3-13.3 4.39-.93.3-1.88.59-2.83.84.54 4.08 1 7.76 1.62 14.15a29 29 0 0 0 4.84-1.82 5.7 5.7 0 0 0 1-.6c-1.14-.62-1.63-.8-1.63-2a1.21 1.21 0 0 1 .19-1.63.38.38 0 0 1 .4-.24 2.05 2.05 0 0 1 1.26.22 11.6 11.6 0 0 1 1.66.9c.89.56 1.75.92 2.71.1s6.2-1.73 15.9-7.65a.77.77 0 0 0 .49-.79c-.93-3.59-2-7.16-3-10.73-.11-.02-.34.04-.63.26M169.28 121.29c.77-.73 1.58-1.4 2.41-2.05a2.35 2.35 0 0 1 .78-1.13c5.12-4.55 6.61-4.53 8-5.86.3-.29.53-.58.35-1a18.5 18.5 0 0 1-1.12-5.08c-.11-1-.4-1-1.18-.61-2.13 1-4 2.41-6.17 3.31-2.86 1.2-5.52 2.82-8.66 3.7a5 5 0 0 1 .56.52 4.2 4.2 0 0 1 1.54 1.24c.24.36 0 .65-.23.5-.8-.49-.66.25-.73.59-.25 1.21-.35 1.29-1.47.79s-2.3-1-3.44-1.56c-3.71 2-2.19 1.41-7.68 3.07.13 1.56.26 3.14.36 4.71.08 1.11.33 2.2.49 3.3.1.64 0 1-.81 1.21l-.81.14c5.81-.27 12.25-3 17.18-4.87-.16-.4.35-.68.63-.92M143.1 118.77c-7.37-.23-4.83-.08-9.28-.8-.26 0-.59-.17-.52-.53s.37-.27.6-.27c3 0 6-.09 9 .07-.62-5.23-.37-4.34-1.43-14.07a51.4 51.4 0 0 1-7.5-.85c-4.91-.75-9.79-1.62-14.63-2.73-.75 2-1.47 3.9-2.08 5.9a2 2 0 0 1 .32.18c10.09 6.13 11.05 6.57 13.22 8.4.39.33.67.44 1.05.05a11.6 11.6 0 0 1 1.4-1.11c.62-.56.89-.78 1-1 .51-.64 1.29-.72 1.88.2.77.8.9 1.28.11 1.94a68 68 0 0 0-6.74 6.87c-.38.44-.68.45-.87-.18-1.07-3.53-1.3-2.61.74-4.33a2.5 2.5 0 0 0 .32-.33c.49-.56.42-.73-.14-1.16a109 109 0 0 0-11.07-7.32 3.45 3.45 0 0 1-1.58-1.42c-.76 1.92-2.08 2.32-1.89 2.9a43 43 0 0 1 3.84 3.48c2.19 2 4.31 4.1 6.47 6.15a1.23 1.23 0 0 1 .37 1.12 27.5 27.5 0 0 0 .27 4.4 1.27 1.27 0 0 0 .65.77 13 13 0 0 0 3.39.9 78 78 0 0 0 8.87 1.23 32.7 32.7 0 0 0 8 0 28 28 0 0 1-3.08-2.66c-.48-.64-.1-.45-.69-5.8"/><path d="M146.22 102.75a2.47 2.47 0 0 1-.07 3.68 1.39 1.39 0 0 1-1.92-.41 1.9 1.9 0 0 1-.3-.72 2.1 2.1 0 0 1-.39-1.12.65.65 0 0 1 0-.31c.25-.65-.05-.77-.63-.74a9 9 0 0 1-.88 0q.75 7.05 1.48 14.11a19.7 19.7 0 0 0 8-1.07C150.32 103.11 150 102.66 150 102a26 26 0 0 1-3.86.68ZM148.44 119a3 3 0 0 1 .15 1.39c-.08.77-.14 1.59-1.1 1.77-.61.12-1.34-.84-1.43-1.79a1.8 1.8 0 0 1 0-.56c.08-.68-.18-.89-.88-.91h-1.48a26 26 0 0 1 .34 3.29c-.09 1.82 1.12 2.7 2.29 3.78a4.3 4.3 0 0 0 2 1.21h.81a3 3 0 0 0 1.05-.46 1.3 1.3 0 0 1 .4-.13c1.86-.53 1.84-.53 1.67-2.41q-.27-3.09-.56-6.18c-.62.19-1.23.37-1.85.54a3.1 3.1 0 0 0-1.41.46M119 42.93c-.21.31-.69.59-.28 1.08 0 0 .06.17 0 .19-1.64 1.37-1.38 3.47-2 5.23a19.2 19.2 0 0 0-.81 5.06 3 3 0 0 0 .41 1.79 40.6 40.6 0 0 0 7 9.08 28 28 0 0 0 2.73 1.94c.38.28 1.2.43.9 1s-.71-.33-1.23-.21a10.4 10.4 0 0 0 2.58 2.45c1.61 0 3.22.25 5.08.24a15.4 15.4 0 0 0 4.82-.78l-.09-.89a1.4 1.4 0 0 1 .37-1.35c1.13-1 2.29-1.94 3.44-2.91.14-.11.3-.18.6 0a23 23 0 0 1-2.83 2.65 2.05 2.05 0 0 0-.89 2.25c4.84-1.68 1.9-.58 6.29-1.84v-.06c-.51-3.58-.91-3.73-.48-4.12.36.17.32.51.39.83.21 1.06.41 2.13.59 3.2a51.3 51.3 0 0 0 13.64-6.57A18.5 18.5 0 0 0 157 57a2 2 0 0 0-.24-.32c-.19.07-.57.47-1 .26a1.2 1.2 0 0 1-.25.31c-.2.2-.42.45-.71.22s0-.45.07-.65c1.33-2.26 1.34-2.24 2.49-4.1a98 98 0 0 0 4.92-11 2.21 2.21 0 0 0-.35-2.5 10.3 10.3 0 0 0-1.85-1.7c-6.2-4.34-14.93-6.92-22.44-7.57-2.17-.18-4.37-.34-6.41.89-1.51.92-3 1.86-4.43 2.88a58 58 0 0 0-7.8 9.21m8.43-5.19a70.4 70.4 0 0 1 10.9 5.75 70.4 70.4 0 0 1 11.47 9.76c1.36 1.38 1.4 3.18 1.25 5 0 .17-.07.36-.29.37-.39 0-.16-.3-.2-.45-.19-.94.1-3-1.31-4.4a8.7 8.7 0 0 1 .39 2c0 .67-.13 1.29 0 1.28.23.5-.09.9-.34 1.22-3.13 4.1-7 7-12.38 7.21a22.6 22.6 0 0 1-5.21-.36 8.17 8.17 0 0 1-5.4-4.17c-.16-.26-.33-.51-.51-.76l-.11-.08a7.44 7.44 0 0 1-3.61-5.11c-.16-.79-.28-.58-.83-1.71a4.4 4.4 0 0 1-.76-2.22 17.7 17.7 0 0 1 0-5.49c-.42.84-1.6 2.24-1.93 3.85 0 .24-.14.41-.4.37a.41.41 0 0 1-.33-.55 5 5 0 0 1 .24-.8 30 30 0 0 1 6.51-9.45 3.4 3.4 0 0 1 .55-.44c.65-.63 1.1-.92 1.64-.88.23-.26.43-.03.64.06ZM80.43 122.77c.4.8.91 1.11 1.73.52s1.56-.39 1.26-1.27a35 35 0 0 1-1.86-10.85 22.5 22.5 0 0 1-.28-3 1.4 1.4 0 0 0-.66.12c-1.83 1.38-2.66 1.66-3 2a.32.32 0 0 1 .29.34c-.12 2.85.67 5.56 1.18 8.32a14.9 14.9 0 0 0 1.34 3.82M68.12 122.85c-.27-1-.47-1.83-1.61-1.44-1.84-.09-1.86-.21-1.4 1 .61 1.66 1.25 3.32 1.86 5 .82 2.22.15 1.73 2.57 1.47 1.46-.15-.11-.88-1.42-6.03M84.15 126.91c-.19-.49-.36-.84-1.06-.6a72 72 0 0 0-8.91 3.61c-.54.27-.62.48-.33 1a53 53 0 0 1 2.54 5.39c.6 1.56.62 1.55 2.28 1.44.69 0 1.39-.12 2.08-.12a4.86 4.86 0 0 0 4.72-2.37 3 3 0 0 0 .49-2.91c-.7-1.76-1.1-3.65-1.81-5.44M91.27 127.87a66.5 66.5 0 0 1 3 9.68c1.36 5.28-.5 9-2.07 16-.24 1 .12 1 .84 1a.92.92 0 0 0 1.11-.81c.31-1.11 2.14-5.91 2.52-10.1.46-5.22-1.52-9.81-4.15-14.17-.3-.47-.39-1.24-1.25-1.6"/><path d="M81 155.18a58 58 0 0 1 9.66-.65.81.81 0 0 0 1-.74c.68-3 1.68-5.95 2.2-9a15.2 15.2 0 0 0 .48-3.82c-.22-3.16-1.29-6.11-2.08-9.13s-2.1-5.72-4.9-7.45c-.59-.37-1.44-2.06-3.59-.94s-2.88 2-3.94.05c-.46-.82-.89-.77-1.58-.42a29.8 29.8 0 0 1-6.62 2.23c-1.78.45-1.79.4-1.12 2.08.52 1.31.2 1.91-1.2 2.2a4.6 4.6 0 0 1-.73.09c-.65 0-.83.22-.58.89.49 1.26 1 2.53 1.43 3.8 4.42 8.78 6.33 10.47 7.24 13.78.57 2.05 1.33 4 1.93 6.08a1.8 1.8 0 0 0 .18.42c.5-1.84.92-3.5 1.43-5.12a17.8 17.8 0 0 1 1-3.33 13.3 13.3 0 0 1 4-4.19c.46-.31.46-.3 1.1-.05-2.1 1.46-3.81 3.08-4.51 5.72-.56 2.18-1.41 4.3-2 6.47-.18.62-.2.91 0 1a10 10 0 0 0 1.2.03m-1.21-16.57c-3.23.17-3.24.21-4-1.63-.85-2-1.71-4-2.66-6-.36-.74-.25-1.14.43-1.52a71.4 71.4 0 0 1 9.94-4.14c.73-.27.94.25 1.17.7.78 1.49 1.15 3.17 2.56 7.62.19.6 0 .79-.32 1.24-2.51 3.46-2.57 3.49-7.13 3.73ZM140.91 92.84c.19 1.52.84 7.64 1 9.19 2.25-.15 4.09-.67 6-.9a16 16 0 0 0 1.93-.37c-.39-2.94-.82-5.87-1.25-8.8a33.5 33.5 0 0 1-7.68.88M135.71 92.4a43.7 43.7 0 0 0-8.71-1.49 10.9 10.9 0 0 1-4.12-.73c-.66 1.84-2.73 7.42-3.1 8.36 3.67.81 17.88 3.68 21.61 3.51-.07-.64-.73-6.77-1-9.2a16 16 0 0 1-4.68-.45M167.46 94c2.47-1.24 4.7-2.9 7.25-4a.63.63 0 0 0 .41-.9c-.62-1.89-1.23-3.79-1.82-5.68-.39-1.26-.84-.16-5.72 1.82-5.43 2.22-11 3.92-16.53 6-.66.24-1.31.44-2 .62q.63 4.39 1.23 8.79c1.92-.53 3.78-1.29 5.72-1.77 4.11-1.03 7.76-3.03 11.46-4.88M171.73 81a.82.82 0 0 0 .44-1.11c-2.91-8.86-2.68-9.6-3.84-8.87-2.45 1.54-5.05 2.82-7.64 4.12a65.6 65.6 0 0 1-13.3 5c.11.89 1.09 7.64 1.46 10.13 3-.9 5.91-2 8.9-2.93A61.2 61.2 0 0 0 171.73 81M128.44 80.69a6.8 6.8 0 0 1-2.14-.38q-1.55 4.6-3.18 9.18c1.21 0 2.42.17 3.64.24a44.3 44.3 0 0 1 7.33.88c1.55.36 3.07 1 4.38.79l1.73-.07c-.5-4.53-.63-6-1-10-1.58-.05-2.2-.25-10.76-.64M139.81 81.31c.39 4.92.41 5.5.93 10 .93 0 1.8-.08 2.66-.19a27.6 27.6 0 0 0 4-.51c.31-.08.61-.18.91-.27-1.61-10.91-1.31-10.19-1.51-10.14a32.2 32.2 0 0 1-6.99 1.11m5.13 8c-.33.57-.74 1.08-1.48 1a1.6 1.6 0 0 1-1.36-1.4 4 4 0 0 1 .36-2.75c.33-.92 1-1.06 1.77-.44a2.76 2.76 0 0 1 .71 3.64ZM136.86 128.23c-9.81-.78-10.6-2.67-10.53-1 .07 1.28.14 2.57.2 3.86a32 32 0 0 0 .18 4.29 1 1 0 0 0 .68.91 48.4 48.4 0 0 0 15.08 3c3.36.14 6.55-.75 9.78-1.47 7.65-1.71 14.93-4.3 21.38-8.89.61-.42.89-.75.5-1.51a24 24 0 0 1-1.07-2.72c-.53-1.5-.49-1.43-2-1-3 .93-5.92 1.86-8.92 2.61-3.71.92-7.41 2-11.3 1.81-3.47-.12-3.84.93-13.98.11M129 71.54a2.36 2.36 0 0 1-.13 1.14q-1.11 3.43-2.26 6.84c1.75.35 7.73.23 10.89.54a9.5 9.5 0 0 0 1.69 0c-.09-1.17-.61-7-.79-8.68-3.61.82-5.59.52-9.4.16M145.8 69c.52 3.16.94 6.34 1.37 9.51 10.83-2.51 13.43-6.13 20.1-9.19a1.25 1.25 0 0 0 .66-.54 56 56 0 0 0-7-6.76c-.12.07 0 0-.44.3a1 1 0 0 1 .06.28c0 .36 0 .75-.45.83s-.45-.26-.47-.52c-4.88 3.32-8.36 5.73-13.83 6.09M138.93 71.18c.28 2.92.53 5.85.77 8.78 1.09-.14 4.34-.7 6.94-1.29l-1.38-9.57a13.6 13.6 0 0 0-4.6 1.41 8.4 8.4 0 0 1-1.73.67m1.85 2.18a3.3 3.3 0 0 0 0-.53v-.51a1.2 1.2 0 0 1 2.29-.67 2.83 2.83 0 0 1-.37 3.68c-.69.52-1.19.18-1.59-.37a2.24 2.24 0 0 1-.33-1.6"/><path d="M150.39 146.94a30.3 30.3 0 0 0 6.72-.94c2.1-1.6 4.23-3.14 6.35-4.72 3.62-3.17 6.62-5.17 8.54-7a13.5 13.5 0 0 1 2.15-1.61c.4-.32.8-.65 1.21-1s.59-.42.29-.83-.52 0-.77.13c-.48.17-6.93 5-14.94 6.58-3.85.75-7.72 1.44-11.6 2a34 34 0 0 1-8.51.5 52.5 52.5 0 0 1-12.36-2.37c-1.35-.47-.41 1-.41 3.86a1.8 1.8 0 0 0 .49 1.35 16.2 16.2 0 0 1 3.48 1c7.97 3.11 13.51 2.74 19.36 3.05M159.51 185.29c-.22.35-.52.72-.28 1.16s.75.43 1.21.41a12 12 0 0 0 2.85-.64 64 64 0 0 0 8.12-3 125 125 0 0 0 12.7-6.2c1.9-1 1.77-1 1.62-2.18-.15-.55-.39-1.13-.41-1.23-.27-1.31-.17-.67-2.31-7.4-.26-.83-.54-.85-1.18-.28a85 85 0 0 1-10.22 7.66c-.54.35-1.24.31-1.67.81-2.86 3.29-8.04 7.16-10.43 10.89M129.25 186.15c2.11-.41 4.15-1.18 6.26-1.6a54.4 54.4 0 0 0 11.62-3.66 14 14 0 0 1 .4-2.21c.11-.73-.18-.84-.84-.84a17.74 17.74 0 0 1-9.8-2.84 2.58 2.58 0 0 0-3.24-.1c-.32.22-.67.39-1 .61a128 128 0 0 0-10.85 8.59 10.9 10.9 0 0 0-2.49 2.67c-.2.33-.59.71-.5 1.07.45 0 7.71-1.17 10.44-1.69M35.11 38.29c1.11.12 2.2.33 3.31.39a1 1 0 0 1 1.08.89c.32 1.11.72 2.18 1.07 3.28.19.6.43 1.17 1.12 1.23s.81-.57 1-1c.63-1.33 1.28-2.64 1.85-4a1.16 1.16 0 0 1 1-.81c1.4-.22 2.8-.53 4.2-.82.5-.11 1-.33 1-.88s-.27-.81-.66-1.07c-1-.72-2-1.47-3.07-2.18a.7.7 0 0 1-.33-1c.43-1.09.74-2.23 1-3.12 0-1.07-.44-1.37-1.36-1.07a28 28 0 0 0-2.92 1.14 1.94 1.94 0 0 1-1.88-.08c-1.36-.7-2.77-1.33-4.15-2a1.32 1.32 0 0 0-1.39-.07c-.49.37-.23.89-.06 1.35.47 1.3 1 2.61 1.45 3.91a1 1 0 0 1-.32 1.42 37 37 0 0 0-2.7 2.62c-.29.29-.62.58-.39 1.09a1.22 1.22 0 0 0 1.15.78M18 29.45a7.63 7.63 0 0 0 7.78-7.83c.11-3.81-3.57-7.62-8.08-7.7-4.35-.07-8 4.24-7.81 8A7.81 7.81 0 0 0 18 29.45m-4.65-12a6.88 6.88 0 0 1 8.43 0A5.78 5.78 0 0 1 18 27.82a6.32 6.32 0 0 1-6.5-6.38 5 5 0 0 1 1.88-3.96Z"/><path d="M14.66 24.09c.35-.23.2-.53.06-.83s-.21-.59-.33-.88a1.21 1.21 0 0 1 .24-1.27c.35-.41.77 0 1.14.14.1 0 .84.54 1.14.09.16-.26 0-.46-.21-.64-1-1.18-2.72-1.31-3.39.08a2.71 2.71 0 0 0 .69 3.06c.16.16.34.46.66.25M20.34 22c-.07 1-.14 1.81-1.52 1.63-.24 0-.47-.12-.71-.16-.62-.1-.92.59-.28.88a3.08 3.08 0 0 0 2.71.14 1.87 1.87 0 0 0 1.07-2c0-.8.06-1.57-.72-1.53s-.52.55-.55 1.04M18 20.16c.57-.17-.06-.68-.08-1s-.12-.64.17-.86c.55-.4 1 .16 1.79.73.44.35.7.12.7-.39 0-.79-1.12-1.56-2.18-1.53s-1.4.46-1.4 1.6c.05.69.33 1.63 1 1.45"/></g><g fill="#f8cdb0"><path d="M54.91 49.22c0-.22 0-.55-.36-.51s-.24.31-.24.51c0 .55-.18 4.7-.14 5 0 .5-.39 1.4.3 1.41s.38-.92.42-1.41a28 28 0 0 0 .02-5M28.15 81.66c2.8-2 5.66-3.77 9.18-4a8.85 8.85 0 0 1 4.74 1.49c.58.31.78.21.88-.4a46.5 46.5 0 0 1 5.52-15.28c1.06-1.93 2.25-3.77 3.42-5.63a1.17 1.17 0 0 1 .72-.61c.23.34 0 .57-.19.81-4.35 6.6-7.8 13.13-9 21.21a1.1 1.1 0 0 0 .07.73 33 33 0 0 1 8.38-2.46c2.21-.6 4.33-1.17 6.7 0 2.31.63 2.52 1.64 4.2 1a25.5 25.5 0 0 1 6.84-1.64c3.94-.65 6-.83 10.64 1.16 1.16.51 1.92.53 2 1a1.6 1.6 0 0 0 1-.29 455 455 0 0 0-1-3.48A22 22 0 0 0 78 69a46.6 46.6 0 0 0-5.86-5.21A80 80 0 0 0 63 58.61a17.5 17.5 0 0 0-9.64-1.82 8.2 8.2 0 0 0-3.67 1.38 74.8 74.8 0 0 0-14.38 11.54 38.1 38.1 0 0 0-7.8 11.55 1.33 1.33 0 0 0-.14.82c.83-.39.46-.2.78-.42m30.4-23.84a54.3 54.3 0 0 1 12.07 8 55.5 55.5 0 0 1 8.2 9.06 5 5 0 0 1 .47.69c.17.35.71.82.3 1.08s-.59-.4-.78-.69a53.1 53.1 0 0 0-13.44-13.5c-2-1.41-4.16-2.68-6.31-3.89a3.36 3.36 0 0 1-1.26-.84c.34-.21.54-.01.75.09M70.24 124.78a43 43 0 0 0 7.92-2.67c.76-.37.67-.68.51-1.47a75 75 0 0 1-9.6 3c.31.8.33 1.36 1.17 1.14M93.94 116c.08-.05.2-.09.31-.16-.44-.6-.9-1.19-1.36-1.77a1.53 1.53 0 0 0-1 .14c-1.7 1-6.31 3.43-8.46 4.43.15.7.3 1.4.47 2.09 3.9-1.5 6.57-2.42 10.04-4.73M61.85 125a3.4 3.4 0 0 1-.07 1.52c1.33-.18 2.62-.41 3.89-.66l-.47-1.41c-3.11.6-2.77.41-3.35.55M144.59 175.81c2.83-10 7.24-21 9.11-27.25-.94-.13-.95-.12-1.22.75-.45 1.42-.92 2.84-1.34 4.27-1.82 6.34-4.32 12.45-6.29 18.74a17.6 17.6 0 0 1-1.19 3.18c-.23.44.28 1.28.93.31M87 109a14 14 0 0 0-2.18-.23 14 14 0 0 0-2.61 1.49c0 .93.12 1.84.21 2.76a29 29 0 0 0 2.84-1.83A4.9 4.9 0 0 0 87 109M77.62 115.42c-.12-.78-.21-1.56-.26-2.35-1.28.65-2.57 1.27-3.88 1.84a2.63 2.63 0 0 1-1.38.57c-.74.3-1.51.57-2.28.81.29.66.6 1.28.91 1.9a56 56 0 0 0 6.89-2.77M55.91 29.36c.61.3 1 0 .89-.77a5.3 5.3 0 0 1-.06-1.54c.6-4 2.55-6.22 1.39-9.13a2.12 2.12 0 0 0-3.19-1.22c-1.43.77-1.84 2.17-2.18 3.75-.27-.24-.41-.39-.57-.52-.95-.74-1.75-1.71-3.08-1.87-2.43-.29-2.66 2.43-1.34 4.48a19.36 19.36 0 0 0 8.14 6.82m-7.67-10.2c.47-.41 1-.15 1.48.07a9.1 9.1 0 0 1 2.82 2.6c.3.36.58.91 1.16.67s.28-.77.24-1.2A3.76 3.76 0 0 1 55 18c.92-.83 1.84-.58 2.23.61.81 2.5-1.68 5.6-1.69 9.68-3.12-2.08-6.2-3.92-7.55-7.55a1.29 1.29 0 0 1 .25-1.58M29.81 12.49A18.3 18.3 0 0 0 34 14.78c1.23.54 2.68.54 3.71 1.54.23.22.48.49.81.25s.25-.92.1-1.11c-1.93-2.45-1.74-6-3.21-8.62A1.31 1.31 0 0 0 34.28 6c-.52 0-.82.4-1.07.87a5.8 5.8 0 0 0-.45 3.22 11.5 11.5 0 0 0-2.54-1.08 1.37 1.37 0 0 0-1.5.44A1.17 1.17 0 0 0 28.6 11a4.75 4.75 0 0 0 1.21 1.49m-.14-2.37c.29-.37.74 0 1 .14.79.35 1.54.81 2.3 1.23.29.16.56.51.93.22s.29-.69.15-1.06A4 4 0 0 1 34 7.6c.23-.5.34-.74.83.33.18.38 0-.08 1.75 6 .08.29.3.75-.32.53-2.21-.79-4.52-1.46-6.26-3.27-.23-.31-.66-.65-.33-1.07M103.74 121.32a8 8 0 0 0-1.81-1.24c-.08 1.37-2.37 7.53-2.86 8.81a1.6 1.6 0 0 0-.14.72 9 9 0 0 1 2.16.37 24.1 24.1 0 0 0 2.65-8.66M143.46 54.12a1.83 1.83 0 0 0-1-.44 2.56 2.56 0 0 0-2.4 2.46 4.14 4.14 0 0 0 3.4-2.02M140 57a2.51 2.51 0 0 0 2.43 2.25 2.65 2.65 0 0 0 2.51-2.25 3.6 3.6 0 0 0-.8-2.17A5 5 0 0 1 140 57M98 121.29a18 18 0 0 0 .74-2 6.4 6.4 0 0 1-1.25-.47 1.3 1.3 0 0 0-.26.38c-1.31 2.78-4.63 7-4.91 8.29l1.17 1c.13-.09.25-.22.39-.34 1.96-1.9 2.92-4.44 4.12-6.86M127.79 60.44a2.58 2.58 0 0 0 2 1.32c2.08 0 3-3.2 1.29-4.5a4 4 0 0 1-.09.44c-.59 1.97-1.18 2.55-3.2 2.74"/><path d="M127.46 59.66a2 2 0 0 0 2.39-1.24 5.2 5.2 0 0 0 .42-1.56 2.28 2.28 0 0 0-2.81 2.8M60.19 136c.09.15.15.34.32.38.4-.44.8-.88 1.19-1.33a1.1 1.1 0 0 0 .1-.53 13.3 13.3 0 0 0-2-4.13 7.4 7.4 0 0 1-2.54.82c1.1 1.5 1.95 3.18 2.93 4.79M67.36 103.08a2.11 2.11 0 0 0 2.2 2.14 2 2 0 0 0 2-1.91 2.34 2.34 0 0 0-2.3-2.31 1.92 1.92 0 0 0-1.9 2.08M79.05 100.53a2 2 0 0 0 1.75 1.32 1.88 1.88 0 0 0 .06-3.75 2 2 0 0 0-1.79 1.24.91.91 0 0 1-.02 1.19M104.67 177.63c.59-.31.77-.67.22-1.2a3.43 3.43 0 0 0-2.54-.71 5.3 5.3 0 0 0-1.59.16 4.8 4.8 0 0 1-1.18 1.53 1.08 1.08 0 0 0 .65.19c3.83.02 3.65.4 4.44.03M104 174.23c.53 0 1.33.06 1.37-.57s-.72-.93-1.36-1a9 9 0 0 0-1-.05 2.26 2.26 0 0 0-1.41.4 17 17 0 0 1-.55 2.11c.59-.01 1.56-.96 2.95-.89M62.72 120.4a3.72 3.72 0 0 0-2.24-.51c-.61 0-1.47-.12-1.77.41-.11.2-.21.41-.31.63.1-.02-.92.17 4.32-.53M55.62 125.35a1.31 1.31 0 0 0 0 1.15.77.77 0 0 1-.07.48 8 8 0 0 0 1.12 0 9 9 0 0 0 1.86-.19h.18a2.7 2.7 0 0 0 .41-.88c.07-.27.26-.58-.1-.73-.16 0-.35 0-.48.06-1.04-.02-1.98.07-2.92.11M68.6 181.05c2.07 1.69 2.45 2.27 2.91 1.91 1-.77-.3-2.23-1.36-2.88-.58.25-1.15.52-1.72.8ZM69.66 184.12c0-.86-1.25-2.19-2.32-2.67l-.94.53c.77.88 1.58 1.72 2.39 2.57.29.3.84.35.87-.43"/></g><g fill="#bfe6c8"><path d="M59.22 118c-1-2.13-1.21-4.47-1.81-6.7a18 18 0 0 1-.51-2.2c-.22-1.67.22-.85.41-.11.63 2.59 1.29 5.18 1.94 7.78.37 1.53 1 2.7 2.88 2.71.75 0 .81 0 .66-.71-.7-3.23-2.29-10.83-1.14-13.9.32.73 0 1.44.05 2.16a59 59 0 0 0 1 8.88 18 18 0 0 0 .94 4.16c.47 1 .61.63 2.78.67.74 0 1-.15.63-1a34.8 34.8 0 0 1-2.4-6.8 2.23 2.23 0 0 1 .13-1.83 38.8 38.8 0 0 0 2.89 8.89c.26.59.54.85 1.18.61s2.15-.09 1.48-1.37c-3.6-6.87-5.63-15-5.76-19.19 0-.25-.09-.65.28-.68s.33.3.33.54v.2a3.65 3.65 0 0 0 1.27-.79c-.1.08-.19.17-.31.25 1.49-2.71 1.56-5.75 2-8.72.57.47.64 1.25.2 3.17a22 22 0 0 1-.87 3.81 2.2 2.2 0 0 1 .83-.29c.1-.56.24-.52.56-.57a45 45 0 0 0 8.17-2.54c.75-.28 1.23-1.19 2.15-1.1a1 1 0 0 1 .46-.11 2 2 0 0 0-.06-.44c-.44-2.26-.94-4.22-3.36-5.57a15.08 15.08 0 0 0-10.88-1.72 15.5 15.5 0 0 0-7.95 3.94 7.85 7.85 0 0 0-2.65 4.86c-.3 4.25-.27 8.53-.36 12.79 0 .42-.08.47.15.81a5.6 5.6 0 0 1 1.17 2.7 35 35 0 0 0 2.35 7c1.1 2.2 1.4.91 1.17.41M122.65 44.22a9.7 9.7 0 0 0-1.09 7.56c.15.63.26 1.49 1 1.31-.07-.69-.82-3.13 0-3.22.55 0 .33 2.24.81 2.89.44 0 4-1 8-1.42a26.1 26.1 0 0 1-3.37-8.72c0-.23-.25-.52.08-.62s.35.29.43.54c.79 2.59 2.12 6.54 3.8 8.69 1.37-.19 2.18-.6 3.83-.75a13 13 0 0 1 3.12-.28c-.68-.64-.23-.31-4-4.72-1.42-1.67-.26-1.21.23-.68 1.39 1.52 2.8 3 4.14 4.59a1.71 1.71 0 0 0 1.81.69 11.6 11.6 0 0 1 2-.08c.82-.22.83-.36.13-1.08a36.7 36.7 0 0 0-8.29-6.46c-1.72-1-4.65-2.17-7-3.66-1-.64-1.42-.79-2-.42a35 35 0 0 0-2.57 2.62 19 19 0 0 0-1.24 2.52.43.43 0 0 1 .18.7M15.12 49c2 .89.07 1.43 3.93 8 .42.72.24.35 3.45-2.26.53-.43.63-.8.15-1.36a6.12 6.12 0 0 1-1.47-3.73 1 1 0 0 0-.52-1 4 4 0 0 1-2.15-3.15 3.1 3.1 0 0 0-1.19-1.91 2.65 2.65 0 0 0-2.9-.61 3 3 0 0 0-1.65 2.58A4 4 0 0 0 15.12 49M22.06 41.89a2.06 2.06 0 0 1 2.05 1.86c.08.33.16.67.23 1 .1.53.22.81.93.71a4.59 4.59 0 0 1 4.05 1.26c.4.42.65.31 1 0a12.5 12.5 0 0 1 2.07-1.91c1.05-.66 1-1.39-.08-2a8.63 8.63 0 0 0-5-1.52.71.71 0 0 1-.87-.79A10 10 0 0 0 26 38c-.8-3.32-6.54-1.85-5.75 1.45.22 1.06.75 2.32 1.81 2.44"/><path d="M21 48.11c.44.2.83.39.81 1a6.12 6.12 0 0 0 1.59 3.87c.42.59.75.41 1 0a8.2 8.2 0 0 1 1.66-1.71c2.77-2.67 3.66-3 2.06-4-2.29-1.45-3.39-.22-4.22-1.82a4.12 4.12 0 0 0-2.59-2.2 2.22 2.22 0 0 0-2.23 1.41A3.34 3.34 0 0 0 21 48.11M84.89 107.54c-.35-1.13-.74-2.25-1.17-3.57a17.4 17.4 0 0 1-2.23 3.26 6.84 6.84 0 0 0 3 .64c.19.03.51.13.4-.33"/></g><g fill="#444330"><path d="M118.19 129.81a21.8 21.8 0 0 1-9.41.54 8 8 0 0 1-.94-.24c-1.67-.46-1.41.38-.41.66a20.17 20.17 0 0 0 12-.53c.38-.14.85-.41.62-.81-.43-.77.17-1 .55-1.29 1.11-1 1.12-1.74-.09-2.61a.63.63 0 0 1-.24-.94 47 47 0 0 0 1.75-5c.58-1.92.57-1.93 2.1-.62.41.35 1 .56 1 1.24.15 2.29.38 4.58.47 6.87.52 13.54.17 13.69.8 14.46.4-.2.21 0 .12-6a138 138 0 0 0-.75-13.84c-.15-1.89.23-2.26-.39-2.85-3-2.88-6.62-6.47-9.93-9.18-.56-.44-.5-.69 0-1.13a6.4 6.4 0 0 0 1.71-2.61c1.68-5.61 4.8-12.08 11.68-33.23.78-2.43-1.56-2.18-3-4.56.52-.12 1 .67 1.24.21s-.52-.76-.91-1a30 30 0 0 1-2.73-1.94 40.6 40.6 0 0 1-7.05-9.08 2.92 2.92 0 0 1-.41-1.79 19.2 19.2 0 0 1 .81-5.06c.22-.63.74-4.29 2.24-6.5 3.15-4.63 8.2-10.58 13-13.07 3-1.59 5.29-1.78 9.7-.94 6.86 1.32 10.62 4 15.77 6.37a30.5 30.5 0 0 1 4.36 2.35.22.22 0 0 0 .3-.31c-.87-1.26-3.22-2.23-4.55-2.86-16.59-7.91-24.4-11.19-36.17 3.89-1.92 2.45-3.47 4.16-4.06 6.43-.82 3.17-1.85 6.29-2 9.6-.08 1.58.49 2.67 5.41 9.13C122 65.23 124 66.21 125.2 68c1 1.6.06 1 2.45 2.89a1.09 1.09 0 0 1 .34 1.46 28.5 28.5 0 0 0-1.47 4.19c-2.24 7.27-8.29 23.63-9.31 26.92-.55 1.75-1 3.54-2.54 4.78-.78.76-1.16.88 0 1.87 2.28 1.87 4.34 4 6.5 5.95.71.65 1.37 1.24.47 2.22a62 62 0 0 1-3.07 8.1c-.14.3-.2.67-.64.82a8.26 8.26 0 0 1 .64-5.67c.14-.31.27-.65-.13-.79s-.44.23-.54.5a14 14 0 0 0-.85 2.68c0 .31-.08.85-.6.52a24 24 0 0 0-2.71-1c.92-1.16 1.8-2.24 2.65-3.35s1.67.07 3.11-1.23a.36.36 0 0 0 .08-.43.37.37 0 0 0-.4-.19 22 22 0 0 0-2.56.73c-1.7.61-2.39 2.61-3.81 3.92a20.6 20.6 0 0 1 3.24-7.23c.16-.23.57-.5.24-.79s-.52.16-.75.34a2.8 2.8 0 0 0-.48.55c-3.48 4.86-2.36 6.65-4 6.59a7.3 7.3 0 0 0-2.47.27 3.07 3.07 0 0 1-3.24-1 9.7 9.7 0 0 0-3.06-2 13.8 13.8 0 0 0-3.62-.79c-2.54-.6-2.58-2-6.1-6.62-1.6-2.06-3.25-4.1-6.22-4.12-.56 0-.43-.14-1.77-3.72-.91-2.36.64-5.6-2.35-7-.37-.18-.45-.52-.56-.84a53 53 0 0 1-1.77-5.9 5.55 5.55 0 0 0-1.72-3c-.27-.26-.63-.2-.92-.35-.58-.31-.77-1.72-4.63-2.46-5-1-9.52.58-13.91 2.74C57.57 88 57 89 54.94 91.74c0-3.31.32-10.66.4-12.57 0-.44-.4-1 0-1.26a1.72 1.72 0 0 1 1.42 0c3.32.89 3.57 2.72 5.74 1.86a38.2 38.2 0 0 1 9.65-2.34 12.26 12.26 0 0 1 6.93 1.16 9.9 9.9 0 0 0 2.48.81c.41.07.66-.05.66-.47s-.75-.46-2-1a15.15 15.15 0 0 0-7.82-1.56 39.3 39.3 0 0 0-9.88 2.28c-1.9.73-2.32-.46-4-1.24-2.31-1.09-4.39-.59-6.7.05-7.02 1.95-7.82 3.27-8.3 2.54a1 1 0 0 1-.07-.72c1.2-8.06 4.62-14.58 9-21.22.16-.23.42-.46.18-.81a1.2 1.2 0 0 0-.72.62c-1.16 1.86-2.35 3.7-3.41 5.63-6.93 12.6-4.5 16.67-6.4 15.64a8.85 8.85 0 0 0-4.74-1.49c-3.52.24-6.43 2-9.18 4-.32.25-.51.48-.23.78a.56.56 0 0 0 .84 0A13.3 13.3 0 0 1 33 79.81c2.83-1.28 5.35-1.88 8.27-.07.5.31 1.06.55 1.54.89a2.43 2.43 0 0 0 2.66.11 36 36 0 0 1 6.13-2.13c.87-.23 1.11-.14 1.12.83 0 7.41-.34 14.82-.43 22.24-.05 3.95-.06 7.9-.17 11.85 0 1.16.2 2.59-1.51 3-.14 0-.36.22-.36.33 0 1.33-.64 2.57-.55 3.92s.49 1.72 1.75 2c2.32.45 3.79-.5 3.83.46 0 .52 0 1.16-.71 1.36a4 4 0 0 1-4.14-1.6c-.11-.17-.2-.4-.46-.3a.3.3 0 0 0-.13.45c1.11 1.56 0 3.39 1.63 4a1.48 1.48 0 0 1 .9 1.06c.9 2.54 2.16 3.44 4.74 3 1.93-.24 3.64-.94 4.17-2.79.77-2.65 1.43-4.4-1.39-4.23a2.3 2.3 0 0 0-.48.16c-.42.11-1.91-.71-1.82-1 1.26-4 1.16-3.27 2.91-3.43a3.76 3.76 0 0 1 2.24.51c1.51.89 1.84 2.2 2.48 4 1.61 4.7 2.92 9.25 5 13.51 1.15 2.34 1.92 4.87 3.43 7.05a10.7 10.7 0 0 1 1.47 2.49c.79 2.35 1.61 4.68 2.58 7 .37.88.6 2.18 2.14 1.92 1.16-.18-1.17 1.19-6.59 20.53-.18.66.12 1.95-1.37 1.49-4.18 1.58-10.51 4.3-11.09 8.78a1 1 0 0 0 .82 1.21 9.2 9.2 0 0 0 2.4.14c5.1-.14 10-1.41 14.88-2.75a.84.84 0 0 0 .65-.7 13.4 13.4 0 0 0 .61-4.76c-.3-2.08.55-3.78 1.3-5.55 1.12-2.68 3.78-8.9 5.69-12.84a12.5 12.5 0 0 1 2.07 2 28.76 28.76 0 0 0 11.54 6.05c.72.2.9.44.67 1.13-.38 1.12-.72 2.25-1 3.38-.75 2.55-2.49 2.37-4.26 4.59-.7.89-1.28 1.87-.82 3s1.62 1.14 2.62 1.15a26.7 26.7 0 0 0 10.32-1.92 3.32 3.32 0 0 0 2-2.14c1.41-4.12.63-8.22 0-12.31a1.45 1.45 0 0 0-1.38-1.24 4.7 4.7 0 0 0-2 0 4.57 4.57 0 0 1-4.54-1c-7.69-6.06-9-7.13-9.74-8.52 1.91-.05 1.91-.05 2.29-1.71a43 43 0 0 0 1.91-6.49c.32-1.86.78-3.68 1-5.57 0-2.71-.21-3.12-1.33-6.38-.9-2.61-.16-1.32-2.67-6.17a4.15 4.15 0 0 0 3.32.49c2.41-.42 6.3 1 7 1.24 1.5.46 1.82.36 2.18-1.17.27-1.15.38-2.35.67-3.49s-.65-2.61.36-3.26c.79-.51 1.93-.38 4-.46.17 0 .37 0 .42.2.23.86.93.8 1.6.85a6.5 6.5 0 0 1 2.1.62c.45.2 1.09.37.91 1.06s-.75.62-1.29.62a11.6 11.6 0 0 1-2.61-.73c-.32-.08-.7-.24-.83.12-.66 1.89-2.47 3.23-2 3.64.21.18.4 0 .56-.14 2-1.74 1.36-3.17 2.75-2.54s2.78.92 4.14-.13c.34 1.93.19 1.23-3 1.27-.25 0-.63-.07-.67.32s.35.39.6.4a14 14 0 0 0 3.12.11 1.55 1.55 0 0 1 1.28.34c.24.23.33.49-.24.65m-64.78-3c-1.77-.3-2-.11-2.37-1.32-.13-.45 0-.55.47-.42 2.48.68 3.34-.17 3.26.92-.08.91-.5.8-1.36.8Zm30-4.77c.29.86-.36.64-1.26 1.27-1.09.79-1.52 0-2-1.17a15 15 0 0 1-1-3.18c-.38-2-.9-4-1.12-6.18-.22-2.53.23-2.34-.54-2.51a13.8 13.8 0 0 1 2.94-1.83c1.07-.45 1.21-.16 1.19.45A37 37 0 0 0 83.41 122Zm-14.13-7a7.1 7.1 0 0 0 2.82.47 3 3 0 0 0 2.58-2.77c.4-2.08.47-2.15 2.72-2.44-.28 4.2.52 6.64 1.31 10.57.14.67.1.94-.56 1.26a43.3 43.3 0 0 1-7.91 2.68c-.47.11-.7 0-.86-.32a19.4 19.4 0 0 1-1-3c5.1-1.09 3.16-.49.9-6.49Zm9.6-9.12c0 .32-.07.66-.08 1s.31.81-.27 1.06a1.46 1.46 0 0 1-1.57-.09 4.9 4.9 0 0 1-1.82-3.06.5.5 0 0 1 .44-.68c.27-.06.53-.17.8-.24 3.06-.72 2.41-.64 2.5 1.97Zm2.61 1.35a17.2 17.2 0 0 0 2.23-3.27c1.31 4 1.5 4 .72 3.9a6.84 6.84 0 0 1-2.95-.67ZM81 96.91a4.06 4.06 0 0 1-1.44-2.54c-.05-.18.08-.33.28-.37.31-.09.25.12 1.16 2.91m-24.43 19.23c-.75-.23-1.3-.36-1.82-.57-.8-.31-.51-1.12-.52-1.62 0-1.51.13-3 .21-4.52.94 2.1 1.17 4.39 2.13 6.71m-5 .73a8.8 8.8 0 0 1 4-.21c.59.14 1.12.48 1.12 1.07s-.67.68-1.18.76a8.4 8.4 0 0 1-2.53.11c-1.12 0-2 .15-2.1-.68a.91.91 0 0 1 .64-1.05Zm3.31 4.88c-.68.14-1.38.17-2 .25a11 11 0 0 1-1.45-.15 1.88 1.88 0 0 1-1-2.47c.16-.25.35-.15.55-.1a13.5 13.5 0 0 0 3.53.13c.46 0 1.07-.34 1.09.47s.4 1.64-.77 1.87Zm4.08 3.39c.39.2.26.36.15.76a3.13 3.13 0 0 1-3.17 2.23c-1.79 0-.1-.93-.32-1.62-.47-1.42.7-1.67 1.58-2.15.5-.36 1.11.49 1.71.78Zm-1-5.17a20 20 0 0 1-1.64 3.82 2.16 2.16 0 0 1 0-2.08 2.75 2.75 0 0 0 .1-1.84c-.06-.31-.15-.62.22-.83a.83.83 0 0 1 1 0 .78.78 0 0 1 .23.96Zm1-1.14a2.9 2.9 0 0 1-.7-1.14 35.3 35.3 0 0 1-2.35-7c-.82-3.42-1.37-2-1.31-3.51.09-4.27.05-8.55.36-12.79a7.75 7.75 0 0 1 2.65-4.86 15.37 15.37 0 0 1 7.95-3.94 15.05 15.05 0 0 1 10.87 1.72c2.43 1.35 2.93 3.31 3.37 5.57.14.81 0 .58-.4.55-.92-.09-1.4.82-2.15 1.1A45 45 0 0 1 69 97c-.3 0-.47 0-.56.56-.15 1 .36 2.75 1 3.07s.89.1 1-.54c.32-2.05-.9-2.47.15-2.67a29.4 29.4 0 0 0 6.06-2c.35-.15.61-.3.7.3s.46 1.52 1.14 1.35c.86-.21.34-1.1.31-1.72 0-.24-.3-.41-.07-.79.2.55.39 1 .54 1.47A2.21 2.21 0 0 0 81 97.75c4 .69 3.35 7-1.34 9.94v-3.67c0-1.21-.08-1.38-1.27-1.31a17 17 0 0 0-3.47.75c-.63.17-.79.56-.71 1.19a6 6 0 0 0 3.06 4.51c-1.66.91-3 .72-7.68 1.32-.3 0-.74 0-.71.45s.44.38.76.35c1.18-.07 2.37-.09 3.54-.24.59-.07.79 0 .67.61-.41 2-.91 3.28-3 2.92A3.43 3.43 0 0 1 68 112c-1.19-3.87-2.51-7.7-2.74-11.79 0-.33 0-.77-.35-.74s-.3.43-.28.68a32.5 32.5 0 0 0 1.16 7c3 11.72 6.25 13 4 13.36a6 6 0 0 0-.91.21c-.64.24-.93 0-1.18-.61a39 39 0 0 1-2.89-8.89 2.2 2.2 0 0 0-.11 1.78c1.72 6.94 3.72 7.8 1.78 7.76-2.16 0-2.31.34-2.78-.67a18 18 0 0 1-.94-4.16 59 59 0 0 1-1-8.88c0-.71.26-1.42-.05-2.16-1.16 3 .45 10.69 1.13 13.9.16.71.09.72-.66.71-1.89 0-2.5-1.18-2.88-2.71-.63-2.6-1.3-5.19-1.94-7.78a1.27 1.27 0 0 0-.46-.9 11.2 11.2 0 0 0 .56 3.21c.6 2.23.84 4.57 1.82 6.7a.77.77 0 0 1-.13.87c-.15.11-.06.11-.28-.06Zm8.1 8.59c-.21-.56-1.63-4.35-1.86-5-.47-1.26-.41-1.12 1.4-1 1.14-.39 1.34.41 1.61 1.44 1.26 5 2.9 5.87 1.42 6-2.51.29-1.85.78-2.63-1.44Zm12.86 27.76c-.62-.31 1-3.63 2-7.49a9.27 9.27 0 0 1 3.76-5.18.29.29 0 0 0 .06-.41.3.3 0 0 0-.41-.08 13.4 13.4 0 0 0-4.05 4.19 18.6 18.6 0 0 0-1 3.33c-.5 1.57-.89 3.09-1.5 5.35-1.75-4.67-2.83-8.08-4.84-11.13-2.64-4-4.14-8.66-5.87-13.17-.41-1.09.38-.79 1.3-1 1.41-.29 1.73-.89 1.2-2.21-.67-1.68-.65-1.64 1.12-2.07a29.8 29.8 0 0 0 6.63-2.24c.68-.35 1.12-.4 1.57.42 1.07 1.92 1.82 1.06 4 0s3 .58 3.59.94c2.79 1.72 4.1 4.41 4.89 7.45s1.86 6 2.09 9.13c.18 2.67-2.09 10.17-2.69 12.81-.14.62-.43.77-1 .74-4.92-.28-10.35.93-10.94.62Zm-1.11 29.2c-.08.4-.35.49-.65.58a47.8 47.8 0 0 1-14.28 2.8c-.67 0-1.67.44-2.06-.26s.23-1.39.63-2c1.66-2.48 5.06-4.24 7.79-5.42 2.39-1 2.33-1.09 2.65-.77 2.17 2.15 3.42 2.28 5.93.69.14-.09.29-.17.6-.34a20.5 20.5 0 0 1-.7 4.72Zm4.49-16.06c-1.53 3.32-3 6.67-4.32 10.1a4.12 4.12 0 0 1-3.06 1.72 3.85 3.85 0 0 1-2.07-1.09c-.22-.19-.12-.43-.05-.68 2.12-7.29 4.18-14.6 7.2-21.58.11-.24.11-.51.51-.54a63 63 0 0 1 7.42-.16c.45 0 .68.12.33.61-2.63 3.59-4.26 7.66-6.05 11.62Zm23-1.71c.91-.7 3.13.14 3.27 1.27s.42 4.35.42 6a14.6 14.6 0 0 1-.79 5.25 2.33 2.33 0 0 1-1.28 1.43 26.7 26.7 0 0 1-9.74 2c-.8 0-1.77 0-2.11-.85s.29-1.6.88-2.2a9.6 9.6 0 0 1 1.84-1.51c2.32-1.3 2.67-3.94 3.24-6.82a.78.78 0 0 1 .71-.73c3.38-.77 3.08-3.53 3.47-3.84Zm-3.89-.74c1.77 1.42 3.12.28 2.57 1.73a3.14 3.14 0 0 1-2.4 2c-4.92-1.6-10.16-3.13-14.58-7.9a.85.85 0 0 1-.2-1.16c.69-1.38 1.48-2.69 2.29-4a1.14 1.14 0 0 1 1.91-.04c2.8 3.8 6.68 6.5 10.32 9.37Zm-5.65-22.22c-.36 4.17-2.2 9-2.52 10.11a.93.93 0 0 1-1.11.81c-.72-.06-1.07 0-.84-1 1.56-6.89 3.44-10.71 2.08-16a61.6 61.6 0 0 0-3-9.68c.86.35 1 1.1 1.26 1.62 2.53 4.33 4.5 8.92 4.04 14.14Zm8.66-13.17c-.13.83-.12.46-5.14-.71a10.3 10.3 0 0 0-3.42 0c-2 .21-2.39-.52-4.49-2.21-1.78-1.44-3.58-2.87-5.24-4.48-.57-.56-1.15-1.39-2.27-1.25-.61.08-.78-.53-.91-1.07a52.7 52.7 0 0 1-1.56-10c-.1-2.52-.29-2.58 1.63-2.2a7 7 0 0 0 1.82.27A6.71 6.71 0 0 1 91 111.7c1 1.25 2.35 2.9 3.25 4.15a9.34 9.34 0 0 0 3.21 3c2.5 1.3 3.35-.11 6.29 2.45 3.33 2.91 2.52 3.38 1.58 9.18Zm14.6-4.62a3.8 3.8 0 0 1 .61.53.58.58 0 0 1-.07.77c-.42.42-.86.8-1.31 1.19s-.63-.09-.54-.24c1.14-2.49.97-2.11 1.22-2.25Z"/><path d="M187.23 123.79c.45-.06.91.39 1.22-.11 1-1.53-1.45-2.8-3-4.43-1.36-1.45-3.2-2.65-2.83-5.07C181.25 108.09 179.9 102 178 96c-1.93-6.16-3.33-12.47-5.44-18.58a3.9 3.9 0 0 1-.21-1.44 7.82 7.82 0 0 0-1.93-5.59 56.7 56.7 0 0 0-8.76-8.61c-2.59-2.16-2.65-3.42-4.53-5.73a.81.81 0 0 1-.06-1.11c3-4.62 5.45-9.07 6.81-14.07a2.6 2.6 0 0 0 .12-.78.31.31 0 0 0-.29-.3.3.3 0 0 0-.33.25 12.5 12.5 0 0 1-.52 1.76c-1.88 5.68-5.24 10.33-8 15-.11.2-.34.44-.07.65s.52 0 .71-.22a1.5 1.5 0 0 0 .25-.31c.45-.84.75-.56 1.21.07.93 1.45 2.57 4 2.57 5.9 0 .26.05.61.48.53s.44-.48.45-.84-.3-.57 0-.88a60 60 0 0 1 7.4 7.07c2.46 2.86 3.48 4.11 3.53 6 .08 3.46.62 3.13 1.5 6.26 4.22 15 6.34 22.11 8 30.24a1.25 1.25 0 0 1-.51 1.51c-1.61 1.13-3.16 2.32-4.77 3.44a63 63 0 0 0-6.45 5c-.3.28-.92.61-.53 1.07s.59 0 1.63-.8c1.77-1.38 1.18-1 1.39-1.12 1.27-1 .22 1.62 3.17 6.82a16 16 0 0 1 1.18 2.79 1.28 1.28 0 0 1-.57 1.66 34 34 0 0 0-3.57 2.58c-4.19 4.09-11.65 9.22-15.9 12.49-2.18 1.69-6.52.11-10.63 0-10.63-.29-15.24-3.75-18.47-3.86-.3 0-.71-.23-.82.16s.39.51.69.6c.49.16 1 .2 1.51.36a56.6 56.6 0 0 0 10.33 3c.8.12.7.64.59 1.15-1.58 7.59-3.38 13.25-4.43 22.79-.52 4.66-3.65 2.44-15.6 14.26a5 5 0 0 0-.9 1.21c-.7 1.32-1 2.47.48 2.52 4.81.2 7.64-1.07 11.21-1.85 5.34-1.17 10.79-1.84 16-3.74 2.15-.79 2.2-.66 2.38-3a4.8 4.8 0 0 0 0-1.46c-.26-.92 0-1.33 1-1.35a1.14 1.14 0 0 0 1.15-1c2.62-10.44 3.5-12.82 6.78-22.74 9.32 14.14 6.86 11.31 12 19.56.49.79-.11.72-4.74 5.15a34.5 34.5 0 0 0-5.46 5.92c-.5.77-1.08 1.58-.46 2.5.6.84 1.56.72 2.46.68s6.53-1.86 6.94-2c5.16-1.57 9.78-4.45 14.95-6a8.8 8.8 0 0 0 3.24-2.1 2.19 2.19 0 0 0 .77-2 9.2 9.2 0 0 0-.44-2.37c-1.24-3.48-2.31-7-3.75-10.44-2.42-5.66-4.38-11.5-7.24-17-1.4-2.66-2.91-5.25-4.38-7.88-.11-.2-.17-.51-.51-.37s-.15.4-.06.61c.21.48.42 1 .66 1.42 7.47 13.78 6.1 13.47 9.8 21.65.42.93 1.42 1.91 1.25 2.68s-1.43 1.36-2.22 2a102 102 0 0 1-9.69 7.33 13.3 13.3 0 0 1-1.42-2.06 143 143 0 0 0-10.74-17.13c-1.36-1.84.18-2.69 1.31-6.9a5.72 5.72 0 0 1 2.25-3.42c4.79-3.35 9.27-7.08 13.71-10.88 1.35-1.15 2.26-2 1.22-3.67.93.41 2.2.57 2.39-1.19a19 19 0 0 0 2.31 2.54 2 2 0 0 0 3.26-.84c1.58.85 2.87-.12 2.5-1.75 1.42.51 2.05 0 2-1.41-.14-.74-.82-1.39-1.91-2.6m-15.63 49.83c10.35-6.59 10.75-9.46 11.4-7.39 2.26 7.14 2.88 8.5 2.79 9.57a1.63 1.63 0 0 1-1.31 1.52c-2.28.7-9 5.26-21.21 8.89-1 .31-3.52 1.16-4.05.23-.25-.43.06-.81.28-1.15 2.39-3.74 7.55-7.59 10.42-10.87.44-.49 1.14-.42 1.68-.8m-24.34 7.93c.11.31-.24.41-.52.51a79 79 0 0 1-14.61 3.61c-4.28.65-6.93 2.29-12.08 2.39-.4 0-1.12.32-1.22-.21-.09-.36.31-.74.5-1.07a10.8 10.8 0 0 1 2.49-2.68 130 130 0 0 1 10.85-8.59c.31-.21.66-.38 1-.6a2.58 2.58 0 0 1 3.24.09 17.57 17.57 0 0 0 9.8 2.84c1.92-.02-.08 2.03.55 3.71m2.46-5.75c-.16.67-.39.9-1.05 1-4 .56-7.85-.69-11.41-2.61a3 3 0 0 1-1.68-3.64c.87-5 1.67-10.12 2.83-15.11 1.84-8 1.29-8.26 2.2-8.14 3.6.46 7.24.5 10.84 1.11.68.11.64.3.48.86-1.41 4.87-3.14 10.33-5.75 17.61-1 2.8-1.82 5.68-3 8.45a.24.24 0 0 0 .12.3.24.24 0 0 0 .31-.1 17.7 17.7 0 0 0 1.19-3.19c2.2-7 2-4.94 7.63-23 .27-.86.28-.88 1.22-.74.41 0-6.29 17.06-9.08 27.08a.232.232 0 0 0 .44.15 38 38 0 0 0 1.11-3.81c.68-2.54 5.36-15.58 7.79-22.62a1.37 1.37 0 0 1 1.18-1c1.28-.32 2.05-1.15 3.93-2.43-3.26 9.51-7.39 21.44-9.3 29.83m38.37-48.7c-.53.51-.94-.41-1.35-.74-1.33-1.06-2-2.36-2.58-1.8-.31.3 0 .58.12.84a16.6 16.6 0 0 1 1.76 2.72c.14.31.5.69 0 1s-.72 0-1-.3a38 38 0 0 1-3.21-3.74c-.22-.3-.46-.78-.89-.46-.77.58.68 1 2.35 4.57.12.26.4.56.15.86s-.59.16-.9.16c-1.21 0-3.14-3.42-4.76-5.42-.2-.23-.43-.57-.77-.38s-.23.61-.09.93c.69 1.56 1.91 3.38.11 2.92a1.85 1.85 0 0 1-1-.85 25.2 25.2 0 0 1-3-7.44c-.12-.44.08-.64.37-.86 2.08-1.59 4.31-3 6.31-4.68 1.09-1-.22 1.23 8.09 8.22a3.2 3.2 0 0 1-1.71-.68c-.29-.16-.6-.27-.87 0s-.08.59.08.85c1.59 2.56 3.58 3.52 2.79 4.28M26.79 80.89c-.3.64-.51 1.23.05 1.74.32.31.88.3.59-.36a1.17 1.17 0 0 1 .08-1 38.3 38.3 0 0 1 7.8-11.56 75.2 75.2 0 0 1 14.34-11.53 8.15 8.15 0 0 1 3.67-1.38A17.5 17.5 0 0 1 63 58.62a79 79 0 0 1 9.21 5.16c3.59 2.45 9.06 7.17 10.1 11.41.39 1.58 1 3.8 1.17 4.24s.2.73.67.61.41-.5.33-.85c-.9-3.77-2-7.43-4.94-10.24-2.7-2.61-5.28-5.77-15.24-10.53-2.51-1.19-5-2.56-7.88-2.65-.53 0-.6-.34-.6-.77v-2.83c0-2.67.37-4.64-1.54-4.45-.67.07-.8.53-.8 1.13 0 2.06-.07 4.12 0 6.18 0 1.36-1.21.44-3.29 1.76A78 78 0 0 0 39.1 65c-7.94 7.27-9.61 10.14-12.31 15.89m27.38-26.66c0-.4-.1-5.48.39-5.52.33 0 .33.3.36.52a29 29 0 0 1 0 5c0 .49.4 1.43-.41 1.42s-.28-.93-.34-1.42M51.54 184.29a61 61 0 0 0-8.73-.73c-8.8-.4-9.9-3-16.3-2.44-4.17.33-8.09 1.75-12.07 2.91-2.19.65-3.94 2.38-6.3 2.72a6.8 6.8 0 0 0-1.79.57c-.59.25-1.34.41-1.42 1.23s.52 1.26 1.12 1.63c6 3.75 12.08.29 21.9 2.33A66.2 66.2 0 0 0 41.41 194a25.1 25.1 0 0 0 8.75-1.64c.59-.22 1.19-.51 1.24-1.26s-.49-1-1-1.39c-2.19-1.63-2.71-1.73-2.62-2.15s.4-.23.62-.28c1-.25 2.1-.07 3.13-.23.76-.11 1.8-.09 1.92-1.09s-.95-1.52-1.91-1.67m-27.14 3.34c-.27 2.06.3 4-1.31 3.65-6.93-.63-11.51 1.53-16.64-1.49-.46-.26-1-.57-1-1.13s.68-.74 1.16-.92c2.3-.84 4.18-.91 6-2.26a5.2 5.2 0 0 1 1.79-.85c3.22-.9 6.41-1.86 9.67-2.6.9-.2.82.1.77.8-.07 1.55-.24 3.25-.44 4.8m2.86 3.54c0 .36-.11.47-.48.5-1.22.09-1.66-.29-1.66-1.5 0-4.64.43-5.34.41-7.91 0-.81.92-.43 1.41-.61s.65.13.64.55c-.06 3.43-.22 6.09-.32 8.97m25.21-5a4.1 4.1 0 0 1-1.63.27c-.84.08-1.67.18-2.51.24-.52 0-1 .13-1.18.67s.29.84.63 1.12c2.35 1.89 3 1.84 2.94 2.52s-.71.74-1.18.89a24.8 24.8 0 0 1-6.83 1.37A64.4 64.4 0 0 1 28.45 192c-.53-.1-.55-.27-.52-.93.15-3 .3-5.94.25-8.94 0-.61.28-.64.62-.58.8.13 1.95.3 2.74.45.1 0 5.9 1.85 7.75 1.92 3.79.16 7.57.54 11.35.84 1.22.08 2.97.81 1.83 1.41"/><path d="M138.21 70c0 .46 5.24 52.22 5.29 53.93a.93.93 0 0 0 .29.65 28.8 28.8 0 0 0 4.28 3.51c.1.06.5.23.58.15 1.82-1.83 4.73-.42 4.44-2.49-.86-5.84-.84-10-2.23-20.83-.12-1-5.66-39.25-5.87-40.32-.07-.32 0-.66-.4-.82a.55.55 0 0 0-.15.62c0 .1.64 3.24.64 3.55 5 35.62 5 31.56 7.15 56.14.17 1.89.19 1.89-1.66 2.42-1 .26-1.9 1.6-4.28-.61-1.17-1.09-2.38-2-2.29-3.79 0-.11-5.12-51.13-5.24-52.56-.16-1.72.7-1.49 3.37-4.26.62-.65 0-.61-.23-.44-1.15 1-2.3 1.93-3.44 2.91-.62.48-.35 1.29-.25 2.24M149.24 58.24c.25-.33.57-.72.34-1.22h-.21a40.6 40.6 0 0 1-4.57 4.4 15.45 15.45 0 0 1-10.8 3.31c-3-.19-4.93-.83-7-4.23 2.73-.13 3.35-.62 4-2.8.37-1.25-.27-3.07 2-3.47.22 0 .68.18.59-.3a.63.63 0 0 0-.74-.45 5.1 5.1 0 0 0-1.58.61c-.17-1.46-.24-2.44-1.1-2.37a36.5 36.5 0 0 0-4.94 1.06c-1.82.42-2.46.1-2.28-2.52 0-.24 0-.42-.38-.39s-.34.27-.35.55c0 1.62.51 2.4.33 3.22a2.16 2.16 0 0 1-1-1.7 16 16 0 0 1-.22-3.06c.12-4.08 2.09-4.69 1.3-5.3-1.1-.88-3.28 7.06-1.29 9.74.59.78.84.51 1.1 1.57.86 3.48 2.47 4 3.39 5.28.7.91 2.14 4.18 5.9 4.93a22 22 0 0 0 5.21.36c5.35-.21 9.16-3.12 12.3-7.22m-23.16.21c-1.57-3.76-2.89-4.48-1.5-4.76 5.41-1.07 5.69-1.54 5.69-.63v2.19c.19 2.1-.3 4.49-2.39 4.46a1.79 1.79 0 0 1-1.8-1.26"/><path d="M143.84 48.77c.24.22.57.34.4.83s-.5.39-.83.39a11.4 11.4 0 0 0-2 .08 1.72 1.72 0 0 1-1.82-.69c-1.34-1.56-2.75-3.07-4.14-4.58-.28-.31-.57-.65-1.09-.35 1.39 1.66 2.81 3.28 4.13 5 1 1.22 2 1.86 3.48 1.51a7.5 7.5 0 0 1 1.57-.08c.24 0 .45 0 .52.34A4.37 4.37 0 0 1 141 56a5.7 5.7 0 0 1-6.51-3.65c-.19-.64-.09-1.09.73-1.12s1.88-.11 2.81-.19c.26 0 .68 0 .68-.32s-.47-.38-.75-.37c-1.06 0-2.26.17-2.38.19a11.5 11.5 0 0 0-2.32.53c-.19.12-.34.34 0 .41.53.13.43.46.51.74a6.2 6.2 0 0 0 4.77 4.65c2.4.59 5.4-.56 6.09-3.12.33-1.25.12-3.15.66-3.43.29-.14.47.21.66.39a16.6 16.6 0 0 0 2.56 2.47c2.25 1.39 1.83 3.9 2 5 0 .17-.19.47.2.45.23 0 .28-.2.29-.37.15-1.8.12-3.6-1.25-5a69 69 0 0 0-11.47-9.76 65.2 65.2 0 0 0-10.9-5.76c-.27-.11-.53-.38-.68 0s.24.35.46.45c6.07 3.04 11.05 5.55 16.68 10.58M66.35 129.48c-.57-.39-.18.44-4.64 5.55-2.15 2.47-3.26 4-5.87 1.94-1-.78-3.21-4.26-4-8.74 0-.25.07-.76-.39-.69s-.19.46-.18.92c.8 6.07 5 13.25 9.39 9 .77-.74 1.19-1.69 1.91-2.44a33.7 33.7 0 0 0 3.53-4.54c.23-.31.69-.71.25-1M78.81 76c.19.28.32 1 .78.69s-.13-.73-.3-1.08a55.3 55.3 0 0 0-8.67-9.76 55.4 55.4 0 0 0-12.07-8c-.21-.1-.41-.31-.76-.07.98 1.29 11.96 5.03 21.02 18.22M136.21 112.23a5.6 5.6 0 0 0-1-.8 4 4 0 0 0-.6.38c-4.49 4-3.88 3.63-5.15 4.71-2 1.71-1.82.8-.75 4.33.19.63.48.61.87.19a66 66 0 0 1 6.74-6.87c.82-.68.68-1.17-.11-1.94m-.63 1.73a63 63 0 0 0-6.16 6.24c-1.23-2.79-1.19-1.46 5.07-7.51.56-.55.87-.38 1.34.11s.17.84-.25 1.2ZM158 113.63c1.74 1 3.14 1.59 5.4 2.57 1.12.5 1.22.42 1.47-.79.07-.34-.07-1.09.73-.59.23.15.49-.14.23-.5-1.14-1.65-5.16-2.58-7.6-3.95-.62-.35-1.42-.86-1.67-.32a6 6 0 0 0-.18 1.63c-.05 1.14.41 1.32 1.62 1.95m-1.16-2.86c0-.34.21-.42.49-.25 2.15 1.44 4.71 2 6.94 3.3.3.17.77.35.38.58s-.07 1.39-.89 1.22-5.16-2.34-6.06-2.81-.93-1.22-.9-2.04ZM136.37 63.45c2.64.7 3 .12 3.13-2.66 0-1.81-.2-2.13-1.68-1.78a31 31 0 0 0-4.22 1.78c-.46.19-.25.49-.1.75a4.44 4.44 0 0 0 2.87 1.91m1.38-3.58c.56-.15.87-.15.88.63 0 2.58-.34 2.86-2.73 1.9a5.1 5.1 0 0 1-1.72-1.07 21 21 0 0 1 3.57-1.46M55.05 57.93c3.36 6.31 4 13.43 5.87 20.17-.35-6.87-3.86-18.74-5.87-20.17M125.87 38.66a.24.24 0 0 0 0-.3.23.23 0 0 0-.28-.08 3.2 3.2 0 0 0-1 .68 30 30 0 0 0-6.55 9.51 3 3 0 0 0-.23.8.4.4 0 0 0 .32.55c.26 0 .35-.13.4-.37a13.2 13.2 0 0 1 1.91-3.81 32.6 32.6 0 0 1 5.43-6.98M110.79 121.34a48 48 0 0 1 4.7-8.94c.13-.21.51-.44.17-.7s-.54.09-.74.31a34.1 34.1 0 0 0-4.63 8.38c-.51 1.39-.05 2.19.5.95M128.45 42.54c-.08-.24 0-.64-.43-.54s-.13.39-.08.62a25.5 25.5 0 0 0 3.35 8.55c.61 1 2.06 1.59.79-.17-1.66-2.31-2.84-5.94-3.63-8.46M144.23 85.73c-.8-.61-1.44-.48-1.77.44a6.4 6.4 0 0 0-.47 1.92c.1.84.12 2 1.47 2.23s2.93-2.94.77-4.59m-.72 3.92c-.75-.13-.89-.82-.85-1.58.05-.93 0-1.91.77-2s.95.79 1.16 1.43c.24.88-.32 2.26-1.08 2.15M143.29 71.9c-.43-.69-1.06-.58-1.68-.7s-.51.63-.67 1a5.4 5.4 0 0 0-.16 1.13 2.3 2.3 0 0 0 .35 1.6c1.41 1.98 3.28-1.23 2.16-3.03M142 74.85c-.73 0-.59-.88-.64-1.48a2.6 2.6 0 0 1 .08-.61c.13-.34-.14-1 .49-1s.77.53.92 1a1.6 1.6 0 0 1 0 .62c-.02.62-.11 1.49-.85 1.47M145.13 102.83c1.56.39 1.72 2.84.4 3.17-.76.17-.93-.46-1.1-1.21s0-1.09.56-2.77a3.3 3.3 0 0 0-.75 4 1.38 1.38 0 0 0 1.92.42 2.5 2.5 0 0 0 .07-3.68c-.43-.36-.75-.45-1.1.07M146.06 120.3c0 .59.68 2 1.44 1.81 1-.19 1.05-1.08 1.12-2.09 0-.85-.47-2.18-1.17-2.22s-1.45 1.62-1.39 2.5m.79-1.46a.43.43 0 0 1 .37-.33c.26-.05.37.14.46.33a2.37 2.37 0 0 1 .24 1.71c0 .37-.13.78-.49.83s-.45-.23-.58-.5a3.4 3.4 0 0 1 0-2.04"/><path d="M136.83 51.74c-1.47 0-.14 2.93.75 2.89.65 0 .59-.56.64-.93-.01-.84-.81-1.96-1.39-1.96M132.65 55.9c0-.18.12-.46-.19-.49s-.37.17-.4.39c-.05.45-.07.9-.11 1.34-.06.6-.14 1.26.58 1.49a1.56 1.56 0 0 0 1.84-.72.74.74 0 0 0-.73 0c-1.44.56-1.03-.77-.99-2.01M61.7 119c.24-.68-2.42-6.58-3.31-11.44-.82-4.45-2-8.87-1-13.78a1.93 1.93 0 0 0-.73 1.22 19.8 19.8 0 0 0-.16 4.28 78.9 78.9 0 0 0 4.81 19.37.45.45 0 0 0 .39.35M68.47 94.07c.43-1.92.36-2.7-.2-3.17-.47 3-.55 6-2 8.72 1.8-1.37 1.73-3.42 2.2-5.55M61.75 101.32a15 15 0 0 0 3.62-6.62 71 71 0 0 0-3.62 6.62M78.45 99.82c.1.61-.61.74-1 1a4 4 0 0 0-.32.34 1.58 1.58 0 0 0 1.91-.65.92.92 0 0 0 .06-1.17 2.14 2.14 0 0 0-1.81-.75.35.35 0 0 0-.37.3c-.07.55 1.4.11 1.53.93M69.35 120c-.42-.77-.83-1.54-1.3-2.42a2.07 2.07 0 0 0 1.3 2.42M87.12 134.5a.94.94 0 0 0 .09-.89 71 71 0 0 0-2.56-7.61c-.23-.46-.44-1-1.17-.7a72 72 0 0 0-9.94 4.14c-.69.39-.79.78-.43 1.52 3.74 7.84 2.57 7.67 5 7.74 5.98-.29 6.16.04 9.01-4.2m-1.65.78c-1.11 1.88-2.73 2.39-4.72 2.37-5.54-.05-2.3 1.9-6.9-6.71-.28-.54-.21-.74.33-1a72 72 0 0 1 8.91-3.61c.7-.24.86.11 1.06.6.71 1.79 1.12 3.68 1.81 5.46a3 3 0 0 1-.49 2.89M195 32.32a.15.15 0 0 0-.18 0c-1.78 1-16.85 23.3-17 25.07a.15.15 0 0 0 .28.09c2.37-3.4 4.66-6.9 6.88-10.29C194.94 32 195.26 32.57 195 32.32M177.18 35.86c3.3-6.17 11.27-17.47 11.65-17.93s.6-2.35-.59-.65c-.39.57-1.05 1.51-2.17 3.09-3.76 5.31-7.31 10.33-9.95 16.09a.15.15 0 0 0 .17.21 1.28 1.28 0 0 0 .89-.81M91.79 32c-2.56 3.58-4.92 7.38-7.2 11-4.76 7.67-6.29 9.74-6.7 10.36-.22.34 0 .42.15.3 5.46-6.64 9.49-14.34 14-21.55.11-.11-.14-.25-.25-.11M42.73 137.84c-.61.19-.86.72-1.12 1.11-10.1 15.31-12.14 18.34-12.4 19.44-.12.51 0 1.17.53.35 4.23-7 9.1-13.62 13.17-20.68a.15.15 0 0 0-.18-.22M107.38 50.42a.14.14 0 0 0-.18 0c-1.26.88-11.51 21.71-11.42 23.22a.16.16 0 0 0 .29.06c1.74-3.43 3.43-7 5.07-10.38 6.45-13.48 6.44-12.73 6.24-12.9M30 126.45c.29 0 0-.67 6.48-11.13a80 80 0 0 1 4.93-7.94.41.41 0 0 0-.6-.56 5 5 0 0 0-.61.75c-10.85 17.87-10.75 18.06-10.33 18.8a.13.13 0 0 0 .13.08M65 157.54l-.31-.21a.16.16 0 0 0-.21 0c-4.37 6.12-8.54 12.48-12.05 17.9a.15.15 0 0 0 0 .21l.38.25c.18.12 0 .33 6.2-9s6.15-9.02 5.99-9.15M108.34 95.76l-.36-.24a.17.17 0 0 0-.21 0c-2.1 3.12-4.44 6.15-6.27 9.47a.15.15 0 0 0 0 .2c.29.2.31.24.38.24s-.13.31 3.36-4.88c3.29-4.89 3.15-4.63 3.13-4.73a.2.2 0 0 0-.03-.06M171.19 62.72c-.63 1.16.44 3.84 1.76 4.49a.16.16 0 0 0 .2-.22 5.9 5.9 0 0 1-1.29-3.7 6 6 0 0 1 1.78 2.26.15.15 0 0 0 .28-.08c.08-1.6-1.98-4.18-2.73-2.75M142.62 23.36a2.7 2.7 0 0 0-.78-.54c-.61-.32-1.91-1.15-2.19-.43s1.57 1.63 2.17 2a1.64 1.64 0 0 0 1.11.34.79.79 0 0 0 .58-.89c-.14-.34-.74-.3-.89-.48M72.86 54.45c-.61 0-1 .42-1 1.12 0 .91 1.24 2.24 2.14 2.13.72-.08.74-1.26.46-1.92s-.95-1.38-1.6-1.33M74 56.8c-.27.76-1.63-.89-1.47-1.34.33-.97 1.75.54 1.47 1.34M97 106.34c-.77.17-1 .72-.58 1.4a3.3 3.3 0 0 0 2 1.37.15.15 0 0 0 .17-.23c-.71-1-1.56-1.29-1.42-1.6 0-.11.06-.12.25 0a1 1 0 0 0 .22 0 2.59 2.59 0 0 1 1.86 1.11.16.16 0 0 0 .12.06.14.14 0 0 0 .12-.06.61.61 0 0 0 .11-.71 3.9 3.9 0 0 0-2.85-1.34M148.08 22.94l-.26.06c-.57.13-1.36.3-1.18 1.37a.15.15 0 0 0 .12.13c.43.06.45-.25.54-.35.35-.38.92-.62 1.28-.31.19.16.08.28-.16.54a2.2 2.2 0 0 0-.3.4c0 .1-.42.25-.24.63a.17.17 0 0 0 .19.08c.85-.3 1.78-1.24 1.5-1.93a1.13 1.13 0 0 0-1.49-.62M176.74 66.24a.14.14 0 0 0 .21.17c.45-.23 1.27-.38 1.3.09s-1.14.79-1.75 1.14a.15.15 0 0 0 .05.28 2.51 2.51 0 0 0 2.24-.9c1.15-1.16-1.64-2.02-2.05-.78M103.78 107.48c-.53.69-1.25 1-1.83 2a.15.15 0 0 0 .17.22 5.8 5.8 0 0 0 2.18-1.57c.5-.48-.2-1.05-.52-.65M79.38 58.69c-.35.48-1.14.6-1.5 1.39a.15.15 0 0 0 .14.21 4.2 4.2 0 0 0 1.84-1 .4.4 0 0 0 .08-.6c-.09-.06-.45-.16-.56 0M82.31 141.12c-1 1.14-1.27 2.55-1.91 3.81a.151.151 0 0 0 .25.17 8.7 8.7 0 0 0 1.92-3.85.15.15 0 0 0-.26-.13M125.87 55.13a.52.52 0 0 0-.44.72 3.23 3.23 0 0 0 1.43 1.85.41.41 0 0 0 .66-.25c.24-.6-.95-2.34-1.65-2.32"/></g></svg>