<svg xmlns="http://www.w3.org/2000/svg" fill="none" viewBox="0 0 24 24" preserveAspectRatio="xMinYMin"><path fill="#108226" d="M10.5 15.188c.834.54 1.807.822 2.8.812h.5c3.215 0 4.305-2.463 4.262-3.248a3.31 3.31 0 0 0 2.441-3c0-1.334-1.478-2.48-2.879-2.98A2.85 2.85 0 0 0 14.516 4l-.3-.25C14.211 1.955 12.439.5 10.25.5S6.289 1.955 6.289 3.75l-.3.25a2.853 2.853 0 0 0-3.1 2.77A3.3 3.3 0 0 0 .5 9.75a3.31 3.31 0 0 0 2.441 3C2.9 13.537 3.988 16 7.2 16h.5a5.06 5.06 0 0 0 2.8-.812"/><path fill="#258e33" d="M10.5 5.5c5.16 0 9.359 2.6 9.5 5.837a2.8 2.8 0 0 0 .5-1.587c0-1.334-1.478-2.481-2.879-2.981A2.853 2.853 0 0 0 14.516 4l-.3-.25C14.211 1.955 12.439.5 10.25.5S6.289 1.955 6.289 3.75l-.3.25a2.853 2.853 0 0 0-3.1 2.769A3.3 3.3 0 0 0 .5 9.75a2.8 2.8 0 0 0 .5 1.587C1.141 8.1 5.34 5.5 10.5 5.5"/><path fill="#8a633d" d="m18.336 4.091-3.5 3.109a1 1 0 0 0-.336.747V12.5a1 1 0 0 0 1 1h7a1 1 0 0 0 1-1V7.949a1 1 0 0 0-.336-.747l-3.5-3.111a1 1 0 0 0-1.328 0"/><path fill="#966f49" d="m23.164 7.2-3.5-3.111a1 1 0 0 0-1.328 0l-3.5 3.111a1 1 0 0 0-.336.747v2.5a1 1 0 0 1 .336-.747l3.5-3.111a1 1 0 0 1 1.328 0l3.5 3.111a1 1 0 0 1 .336.747v-2.5a1 1 0 0 0-.336-.747"/><g stroke="#444330" stroke-linecap="round" stroke-linejoin="round"><path d="m18.336 4.091-3.5 3.109a1 1 0 0 0-.336.747V12.5a1 1 0 0 0 1 1h7a1 1 0 0 0 1-1V7.949a1 1 0 0 0-.336-.747l-3.5-3.111a1 1 0 0 0-1.328 0M17.5 13.5v10M20.5 13.5v10M17.5 16h3M17.5 19h3M17.5 22h3"/><path fill="#fab923" d="M21.5 13.5V11a2.5 2.5 0 0 0-5 0v2.5z"/><path d="M10.5 7v16.5M10.5 12.5c.57.001 1.133-.12 1.651-.356M10.5 10.5a3 3 0 0 1-3-3"/><path d="M13.572 15.993c-.091 0-.183.007-.275.007a5.06 5.06 0 0 1-2.8-.812A5.06 5.06 0 0 1 7.7 16h-.5c-3.215 0-4.3-2.463-4.262-3.248A3.31 3.31 0 0 1 .5 9.75a3.3 3.3 0 0 1 2.379-2.98A2.853 2.853 0 0 1 5.984 4l.3-.25C6.289 1.955 8.061.5 10.25.5s3.961 1.455 3.961 3.25l.3.25q.47 0 .924.117"/></g></svg>