<svg xmlns="http://www.w3.org/2000/svg" viewBox="0 0 200 200" preserveAspectRatio="xMinYMin"><desc>Selfie Streamline Illustration: https://streamlinehq.com</desc><g fill="#fdeaa9"><path d="M161.19 70.66c4.25-4.76 4.32-5.82 4.79-5.46 1.52 1.13-16 15.88-7.61 21.26 2 1.27 2.63 1.6 2 3-.07.84-.72 1.69-.64 3.08s0 1.91 2.28 2.79a6.1 6.1 0 0 0 3.52-.91c1.29-.78 3-1.54 3.88-.37a8.34 8.34 0 0 0 3.44-1.57 4.8 4.8 0 0 1-1.54-.18c4.7-1.67 5.79-4 6.24-6.91.12-3.19-2.09-5.83-2.32-6.42-.62 1.25-1.65 4.16-3.54 4.55A18 18 0 0 0 175 77c-.2-2.79-.24-5.66-1.5-7.93-1.1-2-2.63-2-3.89-.14-.6.9-.59 1.1-.93 1s-.3-.39-.39-.63c-1.92-5-1.79-5-2.33-5-5.4-.17-7.8-2.46-8.33-1.73.26 2.78.64 5.47 2.14 7.89.65 1.06.64 1.07 1.42.2M82.48 52.8a7 7 0 0 0 4.71 2.66c1.88.38 3.62-.92 5.36-1.72-2.23-.24-4.3-.39-6.11-1.58-1.14-.74 0-1.89.16-.93.27 1.26 5.36 1.58 6.13 2.43 6.19-2.86 6.74-1.29 3-2.21-.73-.18-2.74-.88-2.43-1.56s.86 1 7.37 1.33c5.49-1 5.53 1.91 6.58 2.21-2-2.42-3.13-5.85-2.53-6 1.13-.36-.4 4.87 9.49 10.42a13.6 13.6 0 0 0 4.54 1.34 1.7 1.7 0 0 1-.76.49c4.14 1.65 3 5.52 3.34 3.64 0-.22-.13-.61.22-.64s.41.36.38.64c-.19 1.75.38 3.5.16 5.26.2.07.23-.26.27-.36a27 27 0 0 0 1.11-3.33c0-7.87-2.67-8.76-7.42-15.87-3-4.51-9.24-4.09-15.34-4-12 .09 10.5 3.21.24 2.62a9.2 9.2 0 0 1-6.84-3.23c-4.66-5.53-4.1-5.41-4.64-8a16.4 16.4 0 0 0-1.71 6.1c0 .93-.29 1.94.9 2.48-2.31-.12-3.15-2-4.36-3.52a6 6 0 0 0-.45 1.89c-.25 3.16 1.37 4.89.34 5.43s-2.63-2.14-3.19-3.12a9.27 9.27 0 0 0 1.48 7.13m32.68 2.25c.21-.27.16-.32 5.46 2.85a1.11 1.11 0 0 1 .63 1c-1.03-.51-6.74-2.97-6.09-3.85M88.3 185.17c-2.86.66-10.17 4.43-16.59 0a34.3 34.3 0 0 0-6.33-3.05.9.9 0 0 0-.14.21c-.39.86-1.06-.36-1.39.29-.23.43-.05 1.57.19 4.37 0 .25.4 1-.38.93.9 3.13 5.81 4.72 9 5.26 8.2 1.4 17.47 3.13 31.31-1.37 2-.66.76-2.44 2.12-11.32-5.87 1.85-11.81 3.31-17.79 4.68M75.26 31.11c.1 0 16.31-1.09 19.07-1.32.7-.06 1-.43.68-1.13s-.55-1.6-.94-2.35c-.62-1.18.12-.93 4.91-2.19 2-.51.43-1.32-3.24-5.58a1.67 1.67 0 0 0-2.18-.43c-1.24.56-6.56 2.89-7.92 3.49-1.57.73-1.3.64 1.65 3.46C75 30.22 73.8 29.79 74.15 30.74c.18.48.7.49 1.11.37M126.18 85.22c-1.66-6.27 2.6-12.19-.24-11.61.6.36 0 .66-.14.85-4 4.63-7.06 13.42-2.26 15.63 2.16 1 2.32.48 1.93 2.29-.33 1.54.38 1.64 1.91 1.62a7.36 7.36 0 0 0 3.49-1.3c1.65-1-3-1.09-4.69-7.48M136.84 159.15c1 .28 2 .75 3.1.26a1.64 1.64 0 0 1 1.37 0 3 3 0 0 1 1.61.68 3.82 3.82 0 0 0 2.17-1.22c-.1 0-10.61-2.32-20.61-5.69.5 1.75 1 2.26.52 2.26a116 116 0 0 0 11.84 3.71M139.79 147.5c-.94-2.11-.82-2.37-1.47-2.49-4.62-.86-9.24-1.73-13.89-2.42-.12 1.52-.29 1.79-.19 1.79 1.01.22 15.42 3.41 15.55 3.12M155.84 135.68c.15-.44-.82-2-1.28-2-3.18-.09-6.33-.61-9.51-.61-1.85 0-3.69-.17-5.53-.33.47 1.89.37 1.82.47 1.87 15.3 1.01 15.63 1.73 15.85 1.07M152.06 121.71c1 0 0-.4-1-1.72-4.93 0-2.76-.94-5.46 1.76l3.78.2c.56.05 1.62-.26 2.68-.24M141.46 120a5.8 5.8 0 0 0 .87 1.6c2.65.13 2 .44 4-1.55.42-.49.11-.13-4.87-.05M137 119.79c-.65 0-.54-.27-.15 1.53.67 0 4 .19 4.63.23-1.09-1.84-.32-1.53-1.28-1.59s-2.12-.13-3.2-.17M157 147.7c-2.74-.23-5.44-.79-8.19-.92a30 30 0 0 1-4.62-.72c.55 1 1 1.68 1.42 2.4 13.78 1.13 13 1.13 13 .67-.61-1.34-.21-1.32-1.61-1.43M135.17 134.14c.74.15.5-.15.28-1.44-.28-.33-.34-.16-4.37-.44-8-.55-11.11-2.55-11.48-2.66a19 19 0 0 0 1 2.28c2.79 1.31 12.52 2.04 14.57 2.26M133.08 120.87c-.34-1.36-.27-1.43-.74-1.48-3.61-.38-7.79-1.64-8.73-1.71a18 18 0 0 0-1.56 1.45c11.58 1.98 10.95 1.87 11.03 1.74M133.81 106.54c-.3.27-.47-.75.15 1.78.89 0 .67-.13.79-1.09.05-.43.34-.85-.94-.69"/></g><g fill="#f8cdb0"><path d="M171.74 106.44a45 45 0 0 0-4.48-2.12c-.88-.33-1.71-1.48-2.6-.91s-1.12 1.63-1.67 2.47c-.25.37 3.06-.16 2.47 1.79-2.48-2-5.59 1.12-6.66 4a2.58 2.58 0 0 0 .49 2.55c.76 1.06 2-.11 2.56-1.29.91-1.92 3.09-5.34 5.18-4.86 4.27 1 1.29 4.45 1.16 5.76-.87 8.67-1 4.8 1.42 6.24 3.57 1.59 0 2.72 1.15 4.32s.86 3.34-1 4.36c-1.41.77-2.21.55-1.7 1.56 1.88 3.75 1.89 7.75 5.36 11.19 2.88 2.85 1.56 6.07 2.35 7.11a35 35 0 0 0 .69-5.35c-.08-4.82-2.08-5.53-1.6-12.25.33-5.01 7.21-19.37-3.12-24.57"/><path d="M167.48 109c-.64-.13-1.4-.3-1.93.62-1.05 1.84-5 5.34-2.24 7.08.55.34 1-.32 1.36-.67a21.9 21.9 0 0 0 3.47-4.44c.43-.7.4-2.41-.66-2.59M128.2 68.47c-1 6.15.59 5.85-.66 8.65-2.12 4.74-1 8.9 2.34 12.63a10.8 10.8 0 0 0 4 2.5c4 1.69 5.86 1.4 7.41 4.33.53 1 1.59 2.82 1.18 3.06s-.63-.3-1.08-.68c-.18-.14-.22-.56-.57-.35s-.53.29-.58.71a71.3 71.3 0 0 0-.2 14.68c.16 1.6 6 1 7.61.88 1.92-.1-.65-2.41-1-6.45s3.15-4.73 6.87-4.64c-.6-9.31-1.22-13.33 1-13.65 4.11-.61 2.11 6 4.43 12.92a32 32 0 0 1 4.59-6.79 11.5 11.5 0 0 1-2.34-.43c-2.72-1.09-3.19-3.55-2.2-6.3.14-.38.59-.69.71-1.06-.28-.8-5.66-1.85-4.36-7.86.29-2.71 1.51-4.26 4.45-8.51.33-.49.27-.18-.45-1-2.78-3.29-2.27-9.3-2.28-9.4-.2-.39-4.54-1.66-8.8-6.08a5.5 5.5 0 0 1-1.67-2.47c-.38-.06-.53.35-1.26 1.21.19-.17.4-.37.61-.13s-.18.47-.34.63c-3 3.1-6.69 5.34-10.37 7.55-1.22.73-1.37.55 0 .65a18.6 18.6 0 0 0-5.87 4.12c-.13-.54-.13-.54 1.73-2.56-.58.1-1.08.41-1.66.51a10.2 10.2 0 0 0-1.44 2.44c.51.1.25.56.2.89m24.24 6.4c-2.71 0-2.22-4.22.22-4.25a2.06 2.06 0 0 1 2 2.07 2.47 2.47 0 0 1-2.22 2.18m4.2-7.65c-.09.53-.78.61-1 1.13 0 .12-.21-.06-.3-.13-4.64-3.42-8.54 1.17-8.31-1.27.14-1.53.22-1.63 1.76-2 4.21-1.13 7.99 1.47 7.85 2.27m-10.18-6.47a12.13 12.13 0 0 1 9.09.9 1.4 1.4 0 0 1 .85 1.28c-5-3.64-10.22-1-10.44-1.7-.1-.35.27-.42.5-.48M143 76.84c3.54 0 6.33 0 5.63 3.47-.79 3.92-3.68 5.64-4.7 7-1.15 1.54-7.34 1.44-9.83-4.43a16 16 0 0 1-.86-3 1.14 1.14 0 0 1 .67-1.46c2.52-1.42 6.09-1.6 9.09-1.58m-8.3-3c1.75-2.72 5.65-4.92 5.92-3.68.1.49-.36.28-.59.37a10.33 10.33 0 0 0-4.22 3.29.29.29 0 0 0 0 .31.28.28 0 0 0 .28.14c1.41-.14 2.63-.72 3.89-.86a.32.32 0 0 1 .33.22.32.32 0 0 1-.16.36c-4.85 2.35-6.27 1.07-5.48-.15Zm-2.18-7.46c.18-.45.41-1 1-.81s.58.71.52 1.21a7.9 7.9 0 0 1-.82 3.54c-.82 1.32-2.62.84-.73-3.94Zm-1 5.75a2.11 2.11 0 0 1 2.13 2.05 2.74 2.74 0 0 1-2.48 2.42 2.33 2.33 0 0 1-2.17-2.23 2.49 2.49 0 0 1 2.48-2.24Z"/><path d="M158.47 124.24c-3.09.19-4.53-2.29-3.05-.27.6-.12 1 1.49 1.43 1.92 1 .51 3.16-1.37 4.88-.59.2.07.46.21.65-.09 1.39-2.26 3.9-1.17 3.64-2.67-.06-.34.07-.21-.45.08-.22.12-.54.42-.79.12-.47-.61 1.84-.48 2.25-7.83-1.59 1.35-3.72 5.11-5.63.53a2.5 2.5 0 0 1-.09-.48 2.41 2.41 0 0 1-3.46-2.37c-.08-3.69 3.63-5.82 3.81-6.23 3-6.73 8.86-9.43 7.22-11.52-1.07-1.37-4.14 1.44-5.29 2.75-2.64 3-3.7 6.84-4.81 6.64s-1.57-4.24-1.69-5.3c-.85-7.11-.62-8-2.26-7.89-1 0-.8.92-.83 1.46-.3 6.41.67 7.29.23 9.82-.16 1-.13 1.62 1 2.1 1.7.7 1.66 2.17.05 3.11a22 22 0 0 1-2.07 1 4.7 4.7 0 0 1 2.51 5c0 .29 0 .71-.37.7s-.21-.46-.24-.72c-.27-2.16-1-4-3.35-4.62-3-.85 6.79-1.76 3.12-3.95-1.43-.86-2.94-.59-4.43-.24-5.32 1.26-1.94 6.59.53 13 2.1 5.3 6.19 4.97 7.49 6.54M139.49 114.23a65.5 65.5 0 0 1 .18-14.8c-1.5.65-2.15.53-2.61 2.15-1.63 5.78-3.24 11.05 2.43 12.65M174.21 151.94c1-1.94.29-2.82.22-4.95-.18-5.34-2.84-4.48-4.88-10.15-2.09-5.83-2.15-9.63-3.65-4.31-.66 2.33-1.7 2.91-4 2.12-1.33-.47-2.55-1.59-4.89-1-.44.11-.57.12-.43.63 1.33 5 .16 9.28 4.18 17.79 1 2.22 4.6 4.1 8.36 3.58a20.4 20.4 0 0 0 5.09-3.71M42.36 65.44c2.44.41 6.15 2.13 6.87.11 1-2.88 3.35-13 3.59-14.21 1.5-7.09 1.17-7.87 3.66-15.29 1.18-3.5 6.52-23.84 4.11-26.55a195 195 0 0 0-22.33-2.73c-5.18-.3-1.9.73-8.41 20.66.45.23 2.79-1.44 5-1.68 4.57-.49 9.35 1.4 10.21 2.2 1.22.82.43 3.56-.14 4.91-.4 1-1.56 1.06-2.5 1.31-4 1.09-6.82-1.43-10.42 1 14.35-1.05 15.87-1.25 17 4.47.73 3.58-3.22 2.92-17.7 4.56-2.42.27-4 1.7-5.54 3.15a2.3 2.3 0 0 0 .59 0 26 26 0 0 1 4.75-.19 4.2 4.2 0 0 1 2.38.68c10.67 6.26 10.62 5.47 9 9.55-.37 1-.57 1.85-2 1.72-5.72-.52-7.6-3-12.52-3.23 5.35 2.29 4.56 2.86 6.15 5.48 1.25 2.07 1.43 2.29 1.89 2.4 2.23.48 4.23 1.33 6.36 1.68m1.79-51.26c-7.06-1.25-7.5-1.18-8.22-1.91-1.33-1.06-.68-3 .48-4.13.84-.82 1.45-.71 8.58.86 1.86.42 2.2 1.27 2.2 2.66 0 1.91-1.14 2.86-3.04 2.52M116.86 178.54c.44-4.59 2.67-5.83 2.61-8.45 0-.84-.14-.56-.63-.94-1-.79-1-1.62-.31-2.77a8.1 8.1 0 0 1 1.49-1.73c1.71-1.37-2.88-.43-2.27-3.52a50.3 50.3 0 0 1 3.31-9.92 9 9 0 0 1 1.61-1.82c.31-1.43.33-6.56.89-8.83.1-1.9.36-2.31-.54-3.81-3.07-5.08-5.31-7.43-5-11.34-.06-2.75 1.12-4 2.33-5.36a33 33 0 0 1 5.25-4.73c2-1.4 1.28-1.61 3.28-6.8 1-2.66-.34-2.86-.39-6a10 10 0 0 0-.26-1.63 2.5 2.5 0 0 0-.54-.89 7.4 7.4 0 0 0-3.84-.43c-3.5.83-5.21 7.58-6.24 11.4-.84 3.12-1.05 5.48-1.79 20.13-.25 5 .73 4-1.52 9.88-4 10.4-8.48 36.47-7.1 37.88a.48.48 0 0 1 0 .63c-.58.58-.44 1.36-.47 2-.16 3.06-.68 8.3.18 11.15a1.34 1.34 0 0 1-.6-.05c.07.38.28.57.85.45a9.1 9.1 0 0 0 2.29-.79c3.59-1.87 7.32-6.56 7.74-7.41a11.43 11.43 0 0 1-.33-6.3M91.19 14.71a78 78 0 0 0 7.68-2.08 3.61 3.61 0 0 0 2.56-3.11c0-1.71-2-2.22-3.44-1.82-.53.14-1.13.46-1.58.32s-.1-.71-.63-1.8a1.79 1.79 0 0 0-3.08-.57C91.31 7 90.89 9.75 90 13.33c-.3 1.09.1 1.67 1.19 1.38m.5-2.48c2-8.08 3.49-5.81 2.78-2.88-.22.91.53 1.48 1.3.87a4.66 4.66 0 0 1 3-1.11c.37 0 .85-.13 1 .35.35 1.1-1.53 1.89-2.69 2.15-5.4 1.19-5.59 1.39-5.39.62"/></g><g fill="#bfe6c8"><path d="M83.63 88.36c-.49-.21-1.92.37-3.81-.47-6.27-2.82-5.72-3.78-9.64-5.63a7.65 7.65 0 0 0-3.76-1.17c-2.81.24-4.5.09-4.18.78.48.43 5.78 5.67 5.28 6.74l-.31-.3c-.16 0-.28-.2-.4-.31-5-4.92-5.62-7.24-3.67-1.55.54 1.59.57 3.37 1.64 4.79.69.92-1.13 5.33-1.59 8.89 0 .44-.5.33-.58.06-.36-.06-.21-.47-.22-.72-.13-4 2.69-7.92 1.16-9.44-1.08-1.03-3.12-11.18-7.45-16.27-1.08-.69-3.75 1.3-7.62 1.74 1.44.85 1.93 1.25 1.84.69-.23-1.24.66-.16 3.12 1a2.55 2.55 0 0 1 .93.73 2.47 2.47 0 0 1 .71 2.44c-1.13 9.42-1.92 16.83-5.38 26-.89 2.34-1.18.36-.76-.68.6-1.47-.47-1.4-.85-1.66-2.18-1.5-4.67-2.44-7-3.92.53 2.63 1.07 5.12 2.68 7.22 5.44 7.07 2.93 7.81 14.35-1 1-.78 1.36.34 1.65 1.48a.43.43 0 0 1-.68.44c-1.12-.89.32-.8-6.85 4.07.4.18.65.48 1 .65.92.45 5.6 1.58 8 4.19 2.11 2 1.33 3.44 2.51 4.29.91.64 3 .7 3.75-.11 8.6-9.3 5-5.63 20.35-24.57a.35.35 0 0 0 0-.49c-1.11-2.1-3-7.01-4.22-7.91M75 93.9a43.4 43.4 0 0 1-7.48 16.62c-3.05 3.94-4.57 2.68-3.69 2.08 5.7-3.71 8.63-14.11 10.11-18.52.91-2.67 1.44-1.62 1.06-.18M184.46 178.77a3.78 3.78 0 0 0-1.46-2.58c-.25-.15-13.8-6-14.12-5.77 3.9 8.52 4.5 15.56 7.9 18.17 1.11.7 3.17 1.09 8.19 2 1.07.2 1.55-.3 1.55-1.36 0-5.05-1.31-5.63-2.06-10.46M124.41 44.91a8.46 8.46 0 0 0-3.34-3.52c2.09 7 .48 13 1 13.77a13.2 13.2 0 0 1 2.18 6.32c1.48-1 .71-2.32 1.23-4.86a19.65 19.65 0 0 0-1.07-11.71"/><path d="M121.24 54.05a32.1 32.1 0 0 0-.3-10.62c-.19-.93-.17-2.14-1-2.65a19.5 19.5 0 0 0-6.43-2.61 22.8 22.8 0 0 1 3.25 8.17c.46 2.4-1.45-.53 4.48 7.71M135.17 117c-1.13-4.91-2.89-9.67-3.54-14.7a2.26 2.26 0 0 0-1-1.51c-.74-.17-1.34-.46-1.59.2 1.16 3.6-2.16-8.47 3.3 15.54.82 3.6 2 7.12 2.65 10.76 3.71 20 8.27 24.87 13.62 30.27.65.48 1.1-1.78.84-2.08-11.33-13.85-9.66-18.48-14.28-38.48M135.68 27.51c1.48.51 1.8.42 2.26-1.07 3.39-11 3.48-11.4 3-13.39.26-1-.34-1-7.26-4.46a1 1 0 0 0-1.5.56c-1.38 3.07.17 3-6 1.45-2.18-.6-1.85 1.4-4.69 10.14-.8 2.49-1.49 1.42 14.19 6.77m-2.24-16.64c.16-.74.25-.46 5.32 2.07.59.29.37.88-.08.83-6.82-1.77-5.68-.98-5.24-2.9m3.68 6.13c-.08.84-1.32.5-1.32-.23s1.27-.62 1.32.23M123 20.88c2.54-9.11 2.09-8.82 3-8.56l10.51 2.92c-1.8.92-2.17 1.51-1.66 2.49 1 1.88 4.32.87 2.64-2.09.47-.21.86.14 1.28.18s.35.38.26.7c-2.83 9.26-2.5 9.47-3.59 9.12-13.14-4.35-12.72-3.89-12.44-4.76M112.85 31.92a1.19 1.19 0 0 0 2.21-.54c.63-3.28.14-2.54 4.69-2.6 1.57 0 2.21-1.75.4-2.45-3.19-1.21-3.68-1.17-3.37-2.07s-.39-2.09-1.83-1.42c-1.28.6-1.67.94-2.92.38-3.09-1.38-3.56-1.46-4.11-.8-1.06 1.26 1.79 2.79.33 3.39a8.8 8.8 0 0 1-3.21 1c-.64 0-1.24.11-1.24.89s.62 1.05 1.29 1.06c7.27.32 4.72-1.28 7.76 3.16M118.79 99.81c-1.73-1.15-4.09-2-5.28-3.57-.28-.36-.12-.27-3.2 3.21-.45.52-.27.25 2.8 3.67.92 1 3.19 3.6 4.23 4.54 2.19-7.17 3.73-6.37 1.45-7.85M175.72 161.38c6.09 12.73 3.71 12.83 5.74 13 .32 0 .57.11.44-.47-1.67-7.58-5.11-12.89-7.07-17a26 26 0 0 0-1.18-2.54c-1.17 1.32-1.82-1.15 2.07 7.01M173.61 186.32c-3.11-6-3.54-14.72-6.66-17 .27 1.66.46 3.07.76 4.46.34 1.58 2.83 8.84 2.9 8.92a2.23 2.23 0 0 1 1.28 1c1.51 1.66.43 2 .21 1.55a5 5 0 0 0-1-1.54c-.82-.58-1.15.24-1.52.68-.53.63.26.3 2.94 1.86.5.29 1.09 1.08 1.67 1.29-.07-.2-.07-.09-.58-1.22"/><path d="M169.65 182c-2.46-7.37-2.55-5.23-3.62-13.15-.08-.65-.58-1.13-1-1.12-.74 0-.46.76-.42 1.24.41 4.16 1.95 11.51 4 14.86.63.03 1.24-1.19 1.04-1.83M114.2 67.34c-3.77-.06-3.64 5.94-.06 6 3.86.05 3.22-5.95.06-6M89.89 63.22c-1.78-1.34-4.45.72-3.41 4.07a2.16 2.16 0 0 0 3.14 1.28c2.21-1.1 2.38-3.8.27-5.35M155.76 160.49c-.38-.46-.23-.28-.68.36-.87 1.24-.18 1.77.17 2.33 2.25 2.5 1.61 6.38 2 7 .73.51 2-.9 1.89-1.67a14.76 14.76 0 0 0-3.38-8.02M145.58 187.08a1.61 1.61 0 0 0 3 .76c-1-.86-2-1.74-3-2.62a17 17 0 0 0 0 1.86M146.33 182.14c-.86.36-.79 1.17-.79 2.11.87.82 0 .08 3.26 2.88.58-3.55-1.36-5.44-2.47-4.99M145.73 173.38a1.78 1.78 0 0 0-1.68-1.81 1.66 1.66 0 0 0-1.6 1.56 13.5 13.5 0 0 0 .36 3.47 1.34 1.34 0 0 0 1.51 1.1c1.84-.18 1.42-2.33 1.41-4.32M171.76 168.69c1.31-.3.74-2 .64-3.52-.27-.8-.48-1.08-.09-1.24a2.8 2.8 0 0 0-.12-.81c-.43 1-.93 2.14-.55 2.84.65 1.26-1.69.74-1-1.56a13.6 13.6 0 0 1 .86-2.13c-2.14-.83-2.17 3.34-1.69 5.42a1.76 1.76 0 0 0 1.95 1M126.34 165.79c-.38-2-2.88-1.84-3.13-.51-.5 2.56.75 5.91 2.36 4.43a3 3 0 0 0 .8-2.71 7.3 7.3 0 0 0-.03-1.21M129.17 163.09c1.17.32 2.34.66 3.49 1a13 13 0 0 0-.28-1.39 1.62 1.62 0 0 0-3.21.39M132.63 165c-1.13-.35-2.27-.7-3.41-1 .49 3.72 3.17 3.05 3.41 1M154.09 182.74c.64-.21.93-.76 1-1.63-.36-.92-.7-2-1.22-3.07a1.42 1.42 0 0 0-2.61.88c.25 1.9 1.01 4.44 2.83 3.82M144.76 162.47a3.2 3.2 0 0 1-.8-.52 1.8 1.8 0 0 0-1.42 1l3 2.46a4.6 4.6 0 0 0-.78-2.94M145.44 165.91a7.94 7.94 0 0 1-3.07-2.55 3.4 3.4 0 0 0-.09 1.47 5 5 0 0 0 0 1.07 1.58 1.58 0 0 0 3.16.01M164.75 164.21a1.69 1.69 0 0 0 1.41-1.71c-.12-2.28-.29-4.07-1.81-3.89s-1.24 1.41-1.24 2.62v1.36a1.72 1.72 0 0 0 1.64 1.62M153.24 189.51a1.06 1.06 0 0 0-.88.72c.34.31 1.1.78.69 1.2s-.6 0-.85-.26a7 7 0 0 0 .12 2 21 21 0 0 0 3 .68c.05-.15.09-.32.13-.49-.32-1.56-.63-4.05-2.21-3.85M123.68 160.76c-.28-1.69-.25-3.31-1.94-3.08s-1.23 2.41-.71 4.21c.33 1.2 2.61 1.32 2.65-1.13M158.9 163.25a11.75 11.75 0 0 0 1.79 4.6c2.37 1.89 2.19 1.88 2.43.41.27-1.76 1.04-.47-4.22-5.01M153.46 164.51a1.24 1.24 0 0 0-2.45.34 8.3 8.3 0 0 0 .07 1.49c.83.08 1.67.19 2.49.34a2.87 2.87 0 0 0-.11-2.17M129 22.42a4.43 4.43 0 0 0 4.42-4.35 4.07 4.07 0 0 0-4.15-3.89c-5.27.06-5.97 8.24-.27 8.24m.63-6.62a2.47 2.47 0 0 1 2.22 2.52A3 3 0 0 1 129 21.2a2.44 2.44 0 0 1-2.36-2.39 3.13 3.13 0 0 1 3.01-3.01Z"/></g><g fill="#444330"><path d="M185.52 177.35a1.74 1.74 0 0 0-.82-1.29c-1.74-.68-1.5-2-2.39-4.95-2.64-8.91-8.37-17-7.84-17.6 1.21-1.48 1.35-3.49 2.42-5a2.6 2.6 0 0 0 .28-.93c1.91-9.47-3-10.31-.48-20.58 2.1-8.58 3.23-17.58-4.95-21.63-5.84-2.9-7-2.53-5.89-3.65 4.88-5.13 5.19-5.66 3.5-7.77-.74-.76-1.53-.54-2.43-.16-2.39 1-2.57 2.48-4.87 1.54s-3.32-2.49-1.78-5.58c1.69-3.4-4.94-2.13-4.05-8.39S167.16 66.07 166 65.2c-.49-.36-.57.73-4.8 5.46-.77.87-.77.86-1.42-.15-1.58-2.49-2-5.57-2.22-8.71 2.91 1.08 7.34 2.36 10.07 2 .24 0 .59 0 .55-.39s-.35-.22-.55-.22c-7.35 0-16.86-5-19.91-9.11-2.76-3.74-1 2.67 8.8 7.27.3.14.66.13.59.68-.34 2.9.45 7.53 2.89 9.72.46.41-3.66 4.08-4.66 8.85-1.28 6 4.07 7 4.36 7.86.16.47-.45 1.12-.88 2.53a3.71 3.71 0 0 0 2.37 4.83 10.3 10.3 0 0 0 2.34.43 32.6 32.6 0 0 0-4.59 6.8c-2.32-6.94-.3-13.53-4.43-12.93-1.07.16-1.26.93-1.37 1.83-.3 2.42-.21 2 .41 11.83-3.76-.1-7.22.66-6.87 4.64s2.92 6.35 1 6.45c-1.76.09-7.46.69-7.61-.89a71.2 71.2 0 0 1 .2-14.67.9.9 0 0 1 .58-.71c.35-.21.4.21.57.35.47.39.73.89 1.08.68s-.68-2.12-1.18-3.06c-1.56-2.94-3.28-2.61-7.41-4.34a10.5 10.5 0 0 1-4-2.5c-3.36-3.72-4.46-7.88-2.34-12.63 1.28-2.85-.4-2.5.66-8.64 0-.18.32-.92-.18-.92-.83-.19-1.24 3.61-1.27 4.53-.49-.26-.54-.72-.65-1.09-1.18-3.69-.19-7.09 1.45-10.38a1.77 1.77 0 0 1 1.68-1.15c.16 0 .38-.06.26-.26-.27-.47.14-.74.3-1 5.79-10.79 24.3-14.71 32.65-7.54A27.2 27.2 0 0 1 168.8 58c-1.84-1.18-2.35-2.3-2.67-2a.38.38 0 0 0 .07.53c.52.52 1.48 1.51 2.4 2.26a.69.69 0 0 0 1.11-.66 4.6 4.6 0 0 0-.64-1.81c-5.72-8.71-12.72-10.94-22.53-9.72-6.65.84-15.72 5.51-17.75 11.92-.21.65-1.39.17-2.6 2.7-1.53 3.21-2.61 8.42-.12 11.18 2.31 2.55-.42 4.15-.27 9.55.19 7.11 4.49 10.7 11.27 12.61a5.35 5.35 0 0 1 3.09 2.35c.57.86.35 1.15-.47 1.51-10.11 4.35-14.15-3.22-18.67 1.88-.59.67 0-.68-3.27-2.35-4.12-2.06-4.2-5.21-9.41-5.53-.21 0-.47 0-.5-.31a4.45 4.45 0 0 1 1.38-2.4c11.63-6 10.33-16.71 13.23-20a8.08 8.08 0 0 0 2-6 1.57 1.57 0 0 1 .54-1.43 3.41 3.41 0 0 0 1.17-3.76c-.31-1 .86-4.44.08-10.95a9.19 9.19 0 0 0-4.88-7.41 25.7 25.7 0 0 0-7.12-2.8c-3-.61-1.93-1.35-4.75-2.46-6.06-2.39-16.72-1.74-17.86 4.12-1.14.1-1.13-.56-1.49-3.7-.09-.78-.64-.66-.88-.3-2.44 3.72-2.21 8.35-2.31 8.3-1.6-1.32-2.39-4.32-3.38-2.22-.81 1.74-.56 4.56-.15 6.27a6.5 6.5 0 0 1-2.06-3.45c-.08-.29.06-.74-.41-.75s-.49.49-.54.8A24 24 0 0 0 80 49.2a7.51 7.51 0 0 0 5.15 6.64c.61.16 1.25.21 2 .33a25.2 25.2 0 0 0-2.43 6.94c-1.65-1.11-2.42-1-3.68.54s-1.12 3.08-1 4.73a6 6 0 0 0 3.06 5.12c1.47.8-1.34 5.45 5.62 11.48a61 61 0 0 0 7.09 4.79c4.33 2.78 7.09 1.79 11.8.74-.57 1.4-2.7 6.06-2.07 6.31.42.17.56-.34.69-.64 1.26-2.91 1.09-3.24 1.52-3.11a13.8 13.8 0 0 1 3.12 1c-3.33.43-7.66 13-14.35 6.78A31.3 31.3 0 0 1 88.25 87c-.11-.39-.31-1.07-.9-1.14a4.1 4.1 0 0 0-3.08.71c-2.63 2-7.22-.54-9.81-2.58-3.9-3.07-6.46-4.72-10.41-4-1.15.22-2.23.38-2.48 2-1-2.68-3.59-10.22-6.56-9.21-11 3.74-7.18 1.65-20.57-6-.16-.09-.36-.16-.35-.41A3.87 3.87 0 0 1 36.51 65c12.63 4.11 13.34 4.24 14.32.66.78-2.84 12.38-49.57 12.34-54.11 0-1.45-.91-2.87-2-3-2.5-.4-5-.9-7.5-1.14C37 5.79 35.06 4.66 33.91 7.92c-1.22 3.44 0 2.08-4.95 18.9-1 3.53-1.48.14-13.11 10.82-2.66 2.45-4.16 5.17-3.69 9 1.48 11.75 2.92 12.64 1.77 15.61a3.11 3.11 0 0 0 .38 3.12c11.33 16.14 14.06 23.8 24.47 32.71 2.93 2.52 1 5.81 4 9.23 4.07 4.59 3.38 7.31 6.76 6.85a8.8 8.8 0 0 1 3.38-.12 19.05 19.05 0 0 1 7.53 3.74c2.07 1.8 1.78 2.21 1.81 4.09.22 16-1.93 16.44-2.5 27.09-.61 11.47 2.25 14.52 1.79 16.71-.41 1.94 2.32 3.25 1.92 3.94-1.08 1.86-1.33 4-1.78 6-1.09 4.84 1.65 3.07 1.23 6.85-.12 1-.18 5.71 1 5.38.48-.13.19-.59.16-.91a33 33 0 0 1-.26-5.44 36.5 36.5 0 0 1 7.93 3.62c6.4 4.46 13.92.67 16.59 0 6-1.37 11.92-2.83 17.81-4.73-.28 1.86-1.23 11.49.25 12.14a1.4 1.4 0 0 0 .6 0c-.86-2.79-.34-8.17-.18-11.15 0-.66-.11-1.43.47-2a.47.47 0 0 0 0-.63c-1.33-1.34 3.12-27.39 7.11-37.87 2.27-6 1.26-5 1.51-9.89.72-13.61.88-16.7 1.8-20.12 2.85-10.59 4.76-12.66 10.25-10.92.31.09.21 0 .61 2.2 1.24 6.69 1.46 3.35 0 7.19-.83 2.25-.68 2.66-1.16 3.75-1.3 3-13.46 8.24-8 17.64 5.87 10.18 4 4.92 4.21 11.15.06 2.35-.82 4.62-.62 7 0 .43-1.49 1.39-1.87 2.28a51 51 0 0 0-3.31 9.92c-.58 2.89 3.5 2.27 2.48 3.32a7 7 0 0 0-2 2.6 1.57 1.57 0 0 0 .6 2.11c.35.26 1 .35.76 1.09-.15.48.11 1-.16 1.51a42.4 42.4 0 0 0-2.47 6.43 10.92 10.92 0 0 0 .28 6.66c1-1.7-.31-3.13.56-5.9 3.14-10 .91-4.85 5.68-6.32-3 8.83-2.68 20-1.4 19.81.38 0 .25-.6.25-.94.07-3.56-1-5.38.65-6.12a29 29 0 0 0 9.07-6.78c.34-.38 1.65-1.71 2.21-2.43a11.14 11.14 0 0 0 5.39 1.38c.5 0 .5.34.54.62a7.05 7.05 0 0 0 3.29 5.35c1.41.91-1.15 4.7-.31 6.42a.25.25 0 0 0 .28.13.26.26 0 0 0 .2-.25c0-1.87 1.1-3.45.93-5.43 8.48 7 7.88 7.63 8.46 7s-1.47-1.38-7.5-7.19c-1.48-1.42-4-2-4.48-4.93-.55-3.34 0-6.66.29-10 0-.34 0-.85.53-.94.73-.12 1.35 3.2 3.78.95.86-.79 1.94-1.56 2.76-.73 4.28 4.39 6.29 6 8 9.5a36.9 36.9 0 0 1 3.42 8.53c.07.34.26.42.56.23.33-.66-.73-1.31 2.66-3.43 1.42-1 1.49-1.34.4-2.7-1.22-1.53-2-3.31-3.29-4.91a8.5 8.5 0 0 0 4.21-1.62c2.86 8.15 3.43 11.23 5.35 11.9s3.56 2.65 5.87 2.85a9.3 9.3 0 0 0 3.31 1.33c6.15 1.15 5.84 1.86 7.76 1.45a1.42 1.42 0 0 0 1.23-1.43c.03-5.85-1.11-6.65-2.45-12.84M124.41 44.91a19.73 19.73 0 0 1 1 11.71c-.61 3.11.36 3-1.21 5.17a13 13 0 0 0-2.2-6.63c-.5-.76 1.11-6.8-1-13.77a8.5 8.5 0 0 1 3.41 3.52M120 40.78c.8.52.78 1.72 1 2.65a32.1 32.1 0 0 1 .31 10.62c-5.94-8.22-4-5.4-4.46-7.71a22.4 22.4 0 0 0-3.26-8.19 20.8 20.8 0 0 1 6.41 2.63m-26.82-3.05c3-3.8 9.69-4.06 14.59-2.4 4.66 1.58 6.94 6.54 7.92 11.38a12.5 12.5 0 0 0-5.34-2.21c-14-1.51-13.66.94-14.8-.27-.88-.92-1.78-1.8-2.61-2.76a3.24 3.24 0 0 1 .24-3.74m-9.77 25.73c2.1 1.27-.12 2.15 0 9.54-4.64-3.95-1.79-10.62 0-9.54m17 27a7.2 7.2 0 0 1-2.87-1.15c-5-2.71-8.7-4.78-11.87-8.65s-.14-17.54 1.14-22.4c.21-.78.89-1.4.69-2.35-.12-.62-.68-.25-2.4-.85a7.12 7.12 0 0 1-4.38-6.35 13.2 13.2 0 0 1 .3-3c.55 1 2.15 3.59 3.15 3.06s-.57-2.43-.34-5.43a6.1 6.1 0 0 1 .45-1.89c1.22 1.48 2 3.39 4.37 3.52-1.19-.53-1-1.55-.91-2.48a16.6 16.6 0 0 1 1.72-6.1c.52 2.48.4 2.65 1.69 4.23 2 2.51 3.77 6.62 9.79 7a5.5 5.5 0 0 0 2.74-.07c-2.12-1-4.56-.87-6.73-2.14 1.9-.69 10.21-.52 13.46.1 5.08 1 5.25 3.59 10.17 9.75a14.8 14.8 0 0 1 2.87 9.67A9.7 9.7 0 0 1 122 69.1c.43-2-.29-3.88-.08-5.8 0-.28 0-.67-.38-.64s-.18.42-.22.64c-.53 3.3 1.41 1.31-2.85 14.27a42 42 0 0 1-1.77 4.6c-3.55 3.55-7.4 8.9-16.27 8.3Zm-15.34-3c.26-.1 1.84-1.39 2.37.39 1.62 5.39 6.08 13.84 10.75 15.36s8-3.09 12.54-8.55c.62-.74.87-.27 2.22 1-4 3.3-12.21 17.23-19 8.87-5.13-6.28-6.64-11.89-8-14.19-1.14-1.94-2.18-2.34-.86-2.84ZM29.85 27.43C36.42 7.53 33 6.48 38.27 6.78a209 209 0 0 1 22.39 2.73c2.21.38 1.46 4 1 6.18-3.4 17.68-4.43 15.49-8.38 34.52-1 4.86-2.19 9.68-3.45 14.49-.5 2-1.41 2.44-3.4 1.93-8.43-2.19-10.19-2.41-10.78-3.11-2-2.32-2.14-4.93-4.34-6-4.36-2-3.64-1.7-3.22-1.68 4.92.29 6.84 2.72 12.53 3.24 1.38.12 1.59-.8 2-1.72 1.21-3.12 1.2-3.37-1.69-5.16-7.54-4.66-8.24-4.89-9.61-4.87-.1 0-5.56.08-5.46 0 3.63-3.48 3.2-3.08 18.79-4.51a10.5 10.5 0 0 0 3.21-.72 1.79 1.79 0 0 0 1.28-2.29c-.76-4.27-2-5-5.81-5-7.55-.07-10.15.78-11.6.56 3.79-2.78 6.62-.12 10.71-1.22.94-.25 2.11-.36 2.5-1.31.56-1.35 1.36-4.09.14-4.91a16.46 16.46 0 0 0-10.72-1.83 31.6 31.6 0 0 0-4.58 1.71c-.02-.11.03-.24.07-.38m-4.24 52.86c-4.69-7.78-3.26-4.51-10.6-15.75a1.94 1.94 0 0 1-.26-1.84c1.41-3.88-1-5.75-1.73-17.27a7.6 7.6 0 0 1 2.13-5.5c6.48-7.47 13.27-10.28 16.22-12 3.78-2.25 8.6-1.11 12.74.46a1.5 1.5 0 0 1 .81.51c.63 1-.42 3.86-1.55 4.22-4.46 1.41-9-1.43-13.33 2.43a2.1 2.1 0 0 1-1.34.5 21.4 21.4 0 0 0-5 1.19c-.3.08-.61.19-.52.57.19.91 1.94-.85 10-1.48a100 100 0 0 1 11.19-.46 4.13 4.13 0 0 1 3.81 4.81c-.21 1.14-3.72 1.49-5.33 1.66-7.89.81-13.56.11-15.65 2.65-1.89 2.31-4.23 2.6-4 3.25.09.29.38.32.65.29 2.36-.3 4.74 0 7.11-.31a4 4 0 0 1 2.68.66c10.64 6.61 9.25 4.32 7.9 8.6-.37 1.18-.47 1.24-1.72 1-5.49-1.12-4-2.17-13-3.84-.6-.11-1.1.39-1.71.21-.13 0-.21.13-.21.26 0 .3.24.35.43.46 4.58 2.67 6.55 2.08 7.41 4.62 1.19 3.52 3.36 4.12 1.66 4.88-1.25.55-1.7 2.22-3 .71-3.4-3.88-3.4-4.12-4.22-3.47a14 14 0 0 1-3 .93c-1.43.45-1.78 1.08.14.88 1.21-.14 2.29-.74 3.09-.79.34 0 .56-.12.8.19.79 1 3.09 3.88 4.37 3.64s6.91 5 12.52 8c10 5.4 9 4.65 8.81 6.56-1.14 9.48-1.94 15-4.25 22.45-2.41-2.51-4.54-1.81-7.92-4.8a81.8 81.8 0 0 1-16.13-19.08m34.85 36.19c-3.53-2.64-6.3-2.62-7.73-3.72-.43-.33-.65.46-1.08 0 4.63-3 6.59-5.14 7-4.91.19.1.39.51.77.83a.36.36 0 0 0 .57-.4c-.14-.39-.3-.78-.36-1-.25-.83-.56-1.33-1.35-.72-8.11 6.21-9.23 7.84-11.1 5.4-4.67-6.11-5-6.48-6.09-11.83 2.32 1.49 4.81 2.43 7 3.93a3.5 3.5 0 0 0 .74.3c.47.16.61.41.59.71 0 .52-.49 1.21-.5 1.87a.28.28 0 0 0 .19.26.27.27 0 0 0 .3-.12c1.32-2.24 3.84-12 4.78-19.54.46-3.64.84-5.79.91-7.17.06-1.15.18-2-.32-2.57a17 17 0 0 0-3.29-2c-.6-.34-.94.2-.35.6A20.3 20.3 0 0 1 54 78.32c.28.35.08.74 0 1.22a33.2 33.2 0 0 0-6.21-4c3.84-.35 7.28-2.48 8.37-1.78 3.13 2 7.14 15.86 7.41 16.22 1.88 1.88-.83 4.75-.95 9.41a4.3 4.3 0 0 0 0 .8c.09.26.52.38.58-.06.53-3.79 2.29-8 1.59-8.9-1.08-1.41-1.09-3.19-1.64-4.79-.89-2.59-1.16-3.33-1-3.35s1.48 1.78 5 5.1a.26.26 0 0 0 .34 0 .26.26 0 0 0 .08-.33 4 4 0 0 0-.33-.47c-.19-.27-1.17-1.54-2.09-2.54-3.8-4.13-4.26-3.33 1.32-3.79 2-.17 6.08 2.36 7.5 3.45a28.8 28.8 0 0 0 5.9 3.34 6.1 6.1 0 0 0 3.35.42c1.45-.18 3.26 5.11 4.94 8.17.1.19.11.3-.08.54-14.31 17.81-13.36 17.27-20.51 24.74-.54.56-3.38.67-4.17-.71-.66-1.01-.31-2.56-2.94-4.53m56.71-7.3c-1.9 7.75-2.65 22.56-2.29 25s-.86 4.83-1.84 7.49c-3.36 9.14-4.15 17.25-5 20.19-1.73 6.14-1.68 13.43-2.08 15.44-.18.92.7 1.17-.41 2-1.67 1.24-19.25 6.25-26.51 6.68-5.53.33-6.43-2.93-14.75-5a3.48 3.48 0 0 1-2-3.19 59 59 0 0 1 1.49-7.22c.24-.92 0-1.14 6.48 6.24.59.67.86 1.08 1.28.74 1-.76-6.07-7.63-8.53-10.51a2.74 2.74 0 0 1-.77-1.62c-.15-2.17-1.06-4.19-1.31-6.35-1.63-14.25 2.38-16.95 2.38-37.18a3.77 3.77 0 0 0 5.31-.33c5.29-5.55 16.89-19.9 19.82-24.15 2.71 3.9 6.94 14.34 14.54 8.9 5.93-4.24 6.15-6.85 7.11-5.7 7.53 9.02 7.36 7.39 7.08 8.57m2.4-6.59c-2.72 5.45-1.44 5.86-2.57 4.72-1.81-1.82-4-4.25-6.72-7.26-.37-.4-.29-.21 2.72-3.69.22-.26.38-.39.6-.1 1.3 1.69 3.44 2.4 5.19 3.55s1.61 1.11.78 2.78m62.6 72c-1.47 0-1.61-.09-2-1.56-1.49-6.27-6.75-16.35-7.33-17.39s.55-.87.84-1.35c3.12 6.71 7.23 12.93 8.49 20.3m-8-22.65c-3.11 5.86-11 3.89-13 .91-1.09-1.64-3.26-7-3.8-13-.57-6.46-1.42-6-.4-6.2 2.3-.54 3.55.56 4.89 1 4.17 1.46 3.61-2.46 4.69-4.23 1.45-2.39 1.53 6.86 5.76 11.24 2.12 2.19 1.94 4.54 2.35 7.91a4 4 0 0 1-.45 2.37Zm-7-47.62a42 42 0 0 1 4.48 2.12c10.13 5.12 3.72 19.64 3.19 23.78-1.07 8.38 2.86 9 1 17.64 0 .15-.21.67-.24.76-.77-1 .5-4.29-2.35-7.11-3.44-3.39-3.52-7.5-5.36-11.19-.51-1 .31-.79 1.7-1.55 1.87-1 2.27-2.63 1-4.37-1.13-1.57 2.4-2.82-1.16-4.32-2.51-1.06-2.26 1.83-1.42-6.23.13-1.28 3.1-4.79-1.16-5.76a2.28 2.28 0 0 0-2.39.89 13 13 0 0 0-2.79 4c-2.12 4.54-5.87-1.18 0-5.3a2.73 2.73 0 0 1 3.58 0c.32-1.06-.17-1.4-2.45-1.7v-.09c.55-.84.9-2 1.67-2.47s1.91.58 2.79.9Zm-3.95 12.33c-2.78-1.74 1.19-5.22 2.24-7.08.52-.91 1.28-.75 1.94-.62 1.08.23 1.06 2 .65 2.59s-3.67 5.78-4.74 5.11Zm-12.85-12c1.48-.35 3-.62 4.43.24 3.64 2.18-6.08 3.11-3.13 4 3.82 1.09 3.1 5.32 3.6 5.34.33 0 .32-.41.37-.69a4.7 4.7 0 0 0-2.51-5 21 21 0 0 0 2.06-1c1.62-1 1.65-2.4-.05-3.11-1.16-.48-1.19-1.14-1-2.09.43-2.51-.52-3.48-.22-9.83 0-.54-.22-1.41.82-1.46 1.67-.09 1.43.93 2.26 7.9.13 1 .66 5.11 1.69 5.29s2.17-3.63 4.82-6.64c1.14-1.3 4.22-4.12 5.29-2.75.41.54.62 1 .21 1.59-.3.39-.93 1.19-1.23 1.51-6.82 7.29-4.87 7.23-6.86 9-5.06 4.51-3.33 9.29.3 8a3 3 0 0 0 .1.48c1.87 4.51 3.93.91 5.62-.52-.44 8.07-2.89 7-2.24 7.82.26.33 1-.25 1.2-.4 1.21-1 .85-2.51 2.2-1.82.14.07.31.1.46.16 2 .67 2 .67 1.12 2.49-.62 1.31 2.81 3.64-1.12 5-5.35 1.93-2.15 6.85-6.31 5.55-2-.64-2.67-1.34-4.55-.72a2.92 2.92 0 0 1-4-1.9 2.41 2.41 0 0 0-2.24-1.82c-1.16-.11-2.24-.63-1.88-1.75a2.37 2.37 0 0 0-.62-2.73c-.46-.41-.35-1 .21-1.28 4.71-2.81 5.5.9 9.24.67-1.25-1.51-5.44-1.34-7.49-6.58-2.66-6.86-5.54-11.69-.46-12.9Zm-9.8 10.73c5.77 1.54 7.73-.54 8.4.38.33.44-.18.52-.32.74a30 30 0 0 1-2.45 3.49c-3.91 4.2-4.79 1.12-6-4.31.03-.25.13-.34.46-.25Zm3.58 12.63c0 .64-.31.83-.78.84s-1.17.41-1.49-.43 0-3.65.23-5.1c.09-.47.23-.46.63-.38 2.54.53 1.26.31 1.5 5.12Zm-4.57-28.64a65.6 65.6 0 0 0-.18 14.81c-5.66-1.6-4.1-6.87-2.44-12.66.56-1.58 1.19-1.44 2.71-2.1Zm-6.55 1.65c5.27.12 3-2.9 1.71 5.65-1.23 8.08 4.46 6.67 4.92 9.26a16.6 16.6 0 0 0 1.75 5.56c.4.68.29.53.15 1.09-.47 2-1.11 4-.61 6 .43 1.7 1.64 1.34 3.49 1.06 1.27-.19.39-1.4.81-5.38.07-.67.5-1.36-.1-2-.19-.22.17-.37.36-.52 6.2-6.2 2-6.4 5.46-1.76a10 10 0 0 0 1.62 1.69c-2.3.1-6 1.54-3.87 3.78 1.37 1.41-1.87 3.79 2 4.67 3 .68 1.77 2.89 3.76 3.21 2.47.41.71 7.06 3.93 15.79 2.08 5.63 4 6.42 7.79 7.49-3.56.35-6.51 1.72-9.55 2.79-1.39.49-.14-.53-.82-1.06-1.38-1.09-2.37-2.6-3.81-3.63-1.11-.79-1.11-.78-1.83.37-9-10.71-10.32-19.38-13.46-33.78-4.18-19.77-4.88-20.3-3.61-20.23Zm26 66.1a3.8 3.8 0 0 1 .07 2.28c-.27.58-.64 1.11-1.36 1.06-1.5-.1.12-4.31-2.58-7.34-.66-1-1.07-1.06.28-3.09a15.07 15.07 0 0 1 3.68 7.14Zm-.22-3.92c5.5 4.76 4.73 3.16 4.35 6.43-2.81-.99-3.58-3.41-4.26-6.38Zm-5.46-.28c-2.93-2.24-2.88-2.25-3.38-2.43-.87-.31-.16-1.14-.06-1.71a22 22 0 0 1 1.13-3.07c.17-.5.35-.43.65-.16 2.15 1.93 3.22 3.05 3.26 3.3s-.88 1.96-1.51 4.15Zm-23.8-62.42c2.13.43 2.29.43 2.31 1 .17 4.68 1.8 9 3 13.51s1.95 9.07 2.92 13.61c2.54 11.88 2.56 14.63 10.51 25.22.87 1.16 2.5 2.14.77 4.08-5.72-5.44-10.39-11-14-30.66-.68-3.64-1.83-7.16-2.65-10.76-3.96-17.11-3.6-16.15-2.86-16M124 173.26a2.32 2.32 0 0 1 2.64-.95 48 48 0 0 0 5 2.75c-2.6 3-5.33 5.79-9.36 7.11a39.3 39.3 0 0 1 1.72-8.91m-1.86 11.91c0-1.53-.17-2.69 1.38-2.81a21 21 0 0 0 7.75-6c.81-1 1.47-.89 2.45-.43-2.56 2.26-5.72 6.45-11.56 9.24ZM139.6 177c-2.59-.33-1.83-.15-12.21-5.1 4.56-1.34 8.93-2.23 13.36-3.24-1.25 7.34-.05 8.49-1.15 8.34m-16-5c-.56.12-1.14.19-1.71.33-.8.2-1.15-.2-1.28-.9a3.8 3.8 0 0 1-.1-1.16c.2-1.51-3.09-.92-1.07-4 .81-1.22 2.92-2.24 1.17-3-2.59-1.06-2.27-1.08-1.62-3.71 1.65-6.68 3.53-9 4-9.78a17 17 0 0 1 .48 3.19c.15 1.11.9 2.41 1.56 2.45 1.1 0-2.06-1.56-.79-11.11 1-7.72-1.48-8.37-3.62-12.48-2.8-5.41-2.42-8.74 1.45-12.74s6.24-3 6.74-7.3a9.8 9.8 0 0 1 1.2-3.34c5.16 20.9 3.58 13.87 5.46 24.19 3 16.12 7.35 20.92 12.62 25.68.93.84.47 1.69.59 2.53 0 .24-.23.28-.39.1a5.6 5.6 0 0 0-1.09-1.66c-.81-.6-2.75.54-2.85.61-1.76 1.33-1.29-1.73-5.51.07-.56.24-.29.69-.13 1.08a67 67 0 0 0 2.93 6.42c-14.13 3-11.35 3.04-18.09 4.53Zm21.68-3.18c-.87.86-1.22.81-1.91-.2-1.62-2.37-2.6-5.07-3.92-7.58-.21-.38 0-.43.28-.52a2.56 2.56 0 0 1 2.5.18c2.32 1.67 2.5 2 3.1 1.81-.34-1.42-2.53-1.29.84-2.31 1.11-.33 2.25 1.86 2.16 3.14a10.6 10.6 0 0 0 .82 4.31c-1.74-.65-2.85.11-3.92 1.15Zm3.43-6.6c-.11-.55.5-.9 1.05-.62 2.9 1.43 3.87 3.28 4.66 1.46a8.7 8.7 0 0 1 1.58 3.54c.27 1.22-.52.13-4.95-.26-1.67-.14-1.44.49-2.39-4.14Zm14.11 19.43c.48.79-.05.89-2.47 2.57-.32-.78-.62-1.52-.91-2.27-4.13-10.69-10.07-11.32-9.14-13.73.11-.29-.07-.69-.13-1.19a2.3 2.3 0 0 1 .61.24c9.22 8.28 9.27 9.87 11.99 14.36Zm-2.71-6.65c-.27.1-.49.17-.73-.15-6.59-8.93-11.31-7.95-3.68-6.87.78.11.44 1.34.7 2.14.73 2.28 3.44 1.55 3.86-1.66 1.2.85 2.21 1.91 3.41 2.72.49.32.36 1.25.42 1.91.04.42.2.3-3.98 1.91m-3.28-14.81c3.76-1.2 11.1-4.31 14.45-3 0-.54-.5-.61-.84-.91l1.6-.77c0 2.82 1.23 3.11.1 5.41a23 23 0 0 0-1.53 3.47c-.66 2.29 1.69 2.82 1 1.56-.74-1.42 1.89-4.56 1.9-6.7 2.21 4.72 4.56 9.37 5.88 14.64-4.3-2-4.45-1.82-4.24-2.66.42-1.66-.62-3.26-2.31-6.9-.08-.17-.23-.58-.56-.41s-.21.41.09 1.24 2.39 5.47 1.86 6c-.36.34-.87-.27-1.32-.45a40 40 0 0 1-7.07-3.69 3.8 3.8 0 0 0-1-.42c-.59-.15-.23.31-.29.5-2.55-2.21-5.21-4.44-7.72-6.91m12 23.94c-2.24-3.48-3.78-11-4.18-15.13 0-.48-.32-1.23.42-1.24a1.3 1.3 0 0 1 1.19 1.17c.47 3.3.15 4.78 3.32 12.38.51 1.22.56 2.11-.75 2.82m4.46 2.76a28 28 0 0 0-3.25-1.77c-.36-.2-.92-.26-.48-.77s.7-1.26 1.52-.68c.56.28 1.15 1.55 1.38 2 0 .1.09.23.42.19a4.3 4.3 0 0 0-2.27-3.22c-.07-.11-2.55-7.3-2.9-8.92-.39-1.81-.64-3.88-.77-4.54 3.8 3.29 4 12.14 7.23 18.28.2.4.1.18-.88-.57m9.13 3.38c-3.11-.62-4.14-.55-5.64-1.69-3.47-2.65-5.57-14.31-7.94-18.26 2 .58 14 5.76 14.16 5.86a3.65 3.65 0 0 1 1.68 2.67c.77 4.87 2 5.05 2 11.14.05 1.49-2.77.57-4.26.28"/><path d="M133.2 79.94a17 17 0 0 0 .87 3c2.48 5.84 8.67 6 9.83 4.42.93-1.24 3.93-3.18 4.7-7 .7-3.47-2.09-3.45-5.63-3.47-2.89 0-6.59.19-9.09 1.64a1.13 1.13 0 0 0-.68 1.41m1.37-.78c2.75-1.22 9-1.59 12-1.17.79.11 1.08.6 1.1 1.38-.38 3.17-3 5.56-5.22 7.55-.77.69-1.63.32-2.4.15a6.4 6.4 0 0 1-3.3-1.95 11.85 11.85 0 0 1-2.66-5c-.21-.52.02-.75.48-.96M172 64.57c-.15.47.57 0 1.54 1.14 4.16 4.85 1.78 13.27-1.8 17.78 2.11-.44 3.26-4.14 3.62-4.71a26 26 0 0 1 1.83 3.88c1.27 3.74-.24 7.63-5.83 9.61 5.4 1.42 10.51-7.09 4.84-13.44-1.24-1.39.71-2.72.38-7.28-.45-5.77-4.29-7.95-4.58-6.98M125.8 74.46c.16-.19.74-.49.14-.86-.27-.14-.47.16-.76.48-3.16 3.5-5.14 7.35-5 12a5.17 5.17 0 0 0 3.77 5.09c.73.23.93.49.71 1.23a1.88 1.88 0 0 0 1.45 2.6 5.92 5.92 0 0 0 5.25-1.34c-.45-.23-.68 0-.94.07-2.38.77-5.48 1.07-4.95-1.37.4-1.83.12-1.36-1.57-2.1-5.45-2.37-2.05-11.2 1.9-15.8M160.4 186.87a66 66 0 0 0-3.63 6.5c-.64 1.37-3.7-.29-12.66-2.21-.19 0-.05-.78-.5-.23-1.07 1.34 2 1.09 7.77 3.06a24 24 0 0 0 3.09.83c1.46.27 2.69.42 3.44-1.27 2.31-5.19 4.56-7.11 4.08-7.49a.35.35 0 0 0-.45 0 9 9 0 0 0-1.14.81M155.38 68.22c.09.07.26.25.3.13.17-.52.87-.6 1-1.13.14-.81-3.64-3.39-7.8-2.3-1.54.4-1.62.5-1.77 2-.26 2.43 3.76-2.14 8.27 1.3M129.34 67.12a18.6 18.6 0 0 1 5.87-4.12l-1-.08a54.4 54.4 0 0 0 11.36-8.11c.17-.17.65-.31.34-.64s-.32 0-2.17 1.4c-8.69 6.71-14.35 8.51-15.21 9.46 1 .28 1.69-.33 2.53-.48-1.85 2.04-1.85 2.04-1.72 2.57M140 70.53c.23-.09.69.11.59-.38-.26-1.2-4.11.87-5.92 3.68-.82 1.26.68 2.5 5.5.11a.28.28 0 0 0 .15-.33.29.29 0 0 0-.3-.21c-1.34.12-2.62.76-4.12.89a.23.23 0 0 1-.22-.13.25.25 0 0 1 0-.25 10.46 10.46 0 0 1 4.32-3.38M162.7 58.92c-5.76-2.46-5.27-3.85-5.78-3.49-1.5 1.06 8.86 6.57 11.61 5.92-.12-.56-1.4-.54-5.83-2.43M133.22 70.33a7.76 7.76 0 0 0 .82-3.54c.06-.5.08-1.05-.52-1.21s-.85.35-1 .81c-1.92 4.77-.13 5.25.7 3.94M170 62c-.08-.86.35-1.3 1.26-1.38 1.24-.11 2.28 1.55-1.54 2.35-.22 0-.59-.1-.56.32.07 1.07 4.89 0 4-2.37S167.78 61 170 62M155.55 61.65a12.08 12.08 0 0 0-9.09-.9c-.23.06-.6.13-.49.47.2.61 5.63-1.77 10.45 1.7a1.44 1.44 0 0 0-.87-1.27M135.93 57.84c-.23-.36-.6 0-.86.09-1.46.72-5.33 2.81-5.8 4.4 3.91-2.82 7.09-3.82 6.66-4.49M142.4 187.36a48.3 48.3 0 0 1-10.34-2c1.36 1.31 8.67 2.56 10.34 2M142.53 185.19c-2.13-.17-4.14-.89-6.25-1.07a12.54 12.54 0 0 0 6.25 1.07M150.8 159.13a2.46 2.46 0 0 0 1.58 2.37c1.63.53 2-2.35 1.28-3.37-.96-1.46-3.09-1.42-2.86 1m2.23-1c1 1.18.31 2.61-.3 2.56s-.62-.5-.84-.86 0-.49.25-.61a2.45 2.45 0 0 0 .86-1.12ZM70.39 171.29c-.24-.16-.56-.39-.77-.07-.5.74 7.4 5.75 13.55 6.85.23 0 .51.1.59-.17.24-.82-6.14-1.82-13.37-6.61M19.47 45.7c-1.56-3.64 1.39-4.14.8-4.69-.95-.89-3.86 2.99-.8 4.69M108.89 73c-3.38-1.67-7.72-2.95-16.08-1.46-.29.06-.71 0-.69.39.08 1.4-.07 2.81.73 4.11 2.23 3.64 5.68 5 9.66 4.88 3.47-.08 5.66-2.45 7.31-5.26.89-1.53.66-1.89-.93-2.66m0 2.21a9.67 9.67 0 0 1-6.65 4.73c-3.71.69-8.62-2.68-9.26-6.33-.2-1.14-.06-1.4 1.05-1.43 5.42-.15 8.87-1 14.48 1.73.7.35.74.66.36 1.29ZM104.67 48.46C106 55 116.43 61.62 118.73 59.15a13.6 13.6 0 0 1-4.54-1.34c-9.86-5.54-8.35-10.78-9.49-10.42-.32.1-.1.74-.03 1.07M92.89 55.26c-1.5-.17-1.7 3.27-1.79 4.13s.11 1.94 1 2c1.74.26 2.72-5.91.79-6.13M100.22 62.69c.82.09.41-1.11-.65-.85-3.93.95-6.21 4.66-3.13 5 1.3.15 1.4-.57 2.55.54 1.63 1.57 3.76 0 3.37-.66-.17-.29-.4-.06-.59 0-2.67 1.26-1.86-1.27-4.27-.83-1 0-1.88.15-1.5-.79a5.52 5.52 0 0 1 4.22-2.41M112.67 60.9a1.17 1.17 0 0 0-2.14-.9c-2.69 4.42 1.06 5.61 2.14.9M93.43 50.39c2 1.61 5.84 1.49 8.45 1.44a1.23 1.23 0 0 0 1-.46c-.69-.14.08 0-2.22-.16-6.56-.3-7.07-2-7.38-1.32a.4.4 0 0 0 .15.5M121.25 58.86a1.13 1.13 0 0 0-.63-1c-5.19-3.14-5.25-3.12-5.46-2.85-.66.93 5 3.35 6.09 3.85M92.83 53.76c-.75-1-6-1.22-6.23-2.54-.13-.61-.79-.36-.66.25.36 1.67 5.29 2.08 6.89 2.29M103.63 66.69c.55-.65.66-1.92 0-1.92-.44 0-.3.36-.28.57.06.43-.13.9.28 1.35M64.27 112.86a.23.23 0 0 0 0 .29.22.22 0 0 0 .27.11c2.43-.8 7.86-8.47 10.54-19.36a4 4 0 0 0 .1-.49.33.33 0 0 0-.25-.37.34.34 0 0 0-.39.2c-1.32 3.31-4 14.46-10.27 19.62M37.3 13c2.28.43 4.56.83 6.84 1.22 1.91.34 3-.61 3-2.53 0-2.47-.55-2.17-8.83-3.75-2.65-.55-4.48 4.37-1.01 5.06m2.56-4.25c6.51 1.44 6.88 1.12 6.56 3.1-.38 2.36-1.57 1.69-7.76.75 2.02-.93 2.34-2.08 1.2-3.89Zm-1.23.58c.94 0 1.17.53 1.28 1.1a1.38 1.38 0 0 1-1.25 1.37 1.255 1.255 0 0 1-.03-2.51Zm.77-.71a2.34 2.34 0 0 0-2.22 1.66A1.92 1.92 0 0 0 38 12.3a1.74 1.74 0 0 1-2-1.2 2.62 2.62 0 0 1 1.45-2.52 4.1 4.1 0 0 1 1.95 0ZM138.21 161.41c-5.52-2.67-10.93-4.06-16.3-7a.26.26 0 0 0-.36 0c.21 1.56 13.76 6.27 16.28 7.58.54.33.99-.29.38-.58M124.85 162c-.24-.06-.68-.43-.82 0s.26.36 8.6 2.93c4 1.22 4.14 1.56 5.07 1.07a75 75 0 0 0-12.85-4M136 144.48c-4.11-2.47-4.68-3.36-8.36-7 .8 2.3 6.12 6.72 8.36 7M156.85 125.9c-.51-.45-.92-2.33-1.58-1.86-.48.34.3 3.86 3.41 2.25s3.68 1.52 4.92-.41c1.6-2.5 4.6.06 3.68-3.76-.8.29-.31 1.33-1.36 1.38-3 .16-2.9 2.38-3.61 2-2.78-1.28-4.41 1.33-5.46.4M141.87 162.42c.49 1.61 3.3 3.85 4.34 3.61-.21-.2-4.11-3.43-4.34-3.61"/><path d="M42.47 12.42a1.35 1.35 0 0 0 1.35-1.24 1.38 1.38 0 0 0-1.37-1.3c-2.24.01-1.8 2.56.02 2.54m.39-1.24a.38.38 0 0 1-.41.43c-1.77-.02.25-2.01.41-.43"/></g></svg>