<svg fill="none" viewBox="0 0 24 24" xmlns="http://www.w3.org/2000/svg"><path d="m10.5 15.188c.834.54 1.807.822 2.8.812h.5c3.215 0 4.305-2.463 4.262-3.248a3.313 3.313 0 0 0 2.441-3c0-1.334-1.478-2.48-2.879-2.98a2.852 2.852 0 0 0 -3.108-2.772l-.3-.25c-.005-1.795-1.777-3.25-3.966-3.25s-3.961 1.455-3.961 3.25l-.3.25a2.853 2.853 0 0 0 -3.1 2.77 3.3 3.3 0 0 0 -2.389 2.98 3.314 3.314 0 0 0 2.441 3c-.041.787 1.047 3.25 4.259 3.25h.5a5.064 5.064 0 0 0 2.8-.812z" fill="#108226"/><path d="m10.5 5.5c5.16 0 9.359 2.6 9.5 5.837a2.8 2.8 0 0 0 .5-1.587c0-1.334-1.478-2.481-2.879-2.981a2.853 2.853 0 0 0 -3.105-2.769l-.3-.25c-.005-1.795-1.777-3.25-3.966-3.25s-3.961 1.455-3.961 3.25l-.3.25a2.853 2.853 0 0 0 -3.1 2.769 3.3 3.3 0 0 0 -2.389 2.981 2.8 2.8 0 0 0 .5 1.587c.141-3.237 4.34-5.837 9.5-5.837z" fill="#258e33"/><path d="m18.336 4.091-3.5 3.109a1 1 0 0 0 -.336.747v4.553a1 1 0 0 0 1 1h7a1 1 0 0 0 1-1v-4.551a1 1 0 0 0 -.336-.747l-3.5-3.111a1 1 0 0 0 -1.328 0z" fill="#8a633d"/><path d="m23.164 7.2-3.5-3.111a1 1 0 0 0 -1.328 0l-3.5 3.111a1 1 0 0 0 -.336.747v2.5a1 1 0 0 1 .336-.747l3.5-3.111a1 1 0 0 1 1.328 0l3.5 3.111a1 1 0 0 1 .336.747v-2.5a1 1 0 0 0 -.336-.747z" fill="#966f49"/><g stroke="#444330" stroke-linecap="round" stroke-linejoin="round"><path d="m18.336 4.091-3.5 3.109a1 1 0 0 0 -.336.747v4.553a1 1 0 0 0 1 1h7a1 1 0 0 0 1-1v-4.551a1 1 0 0 0 -.336-.747l-3.5-3.111a1 1 0 0 0 -1.328 0z"/><path d="m17.5 13.5v10"/><path d="m20.5 13.5v10"/><path d="m17.5 16h3"/><path d="m17.5 19h3"/><path d="m17.5 22h3"/><path d="m21.5 13.5v-2.5a2.5 2.5 0 0 0 -5 0v2.5z" fill="#fab923"/><path d="m10.5 7v16.5"/><path d="m10.5 12.5c.57.001 1.133-.12 1.651-.356"/><path d="m10.5 10.5a3 3 0 0 1 -3-3"/><path d="m13.572 15.993c-.091 0-.183.007-.275.007a5.063 5.063 0 0 1 -2.8-.812 5.064 5.064 0 0 1 -2.797.812h-.5c-3.215 0-4.3-2.463-4.262-3.248a3.314 3.314 0 0 1 -2.438-3.002 3.3 3.3 0 0 1 2.379-2.98 2.853 2.853 0 0 1 3.105-2.77l.3-.25c.005-1.795 1.777-3.25 3.966-3.25s3.961 1.455 3.961 3.25l.3.25c.312 0 .622.039.924.117"/></g></svg>