<svg xmlns="http://www.w3.org/2000/svg" fill-rule="evenodd" stroke-linecap="round" stroke-linejoin="round" clip-rule="evenodd" viewBox="0 0 417 125" preserveAspectRatio="xMinYMin"><path fill="#108226" fill-rule="nonzero" d="M71.275 75.783a21.07 21.07 0 0 0 11.667 3.384h2.083c13.396 0 17.938-10.263 17.758-13.534a13.83 13.83 0 0 0 10.171-12.5c0-5.558-6.158-10.333-11.996-12.416-.153-6.41-5.468-11.599-11.879-11.599q-.537 0-1.071.049l-1.25-1.042c-.02-7.479-7.404-13.542-16.525-13.542s-16.504 6.063-16.504 13.542l-1.25 1.042q-.515-.045-1.033-.045c-6.407 0-11.721 5.181-11.883 11.586a13.78 13.78 0 0 0-9.955 12.417 13.84 13.84 0 0 0 10.171 12.5c-.171 3.279 4.363 13.542 17.746 13.542h2.083a21.1 21.1 0 0 0 11.667-3.384"/><path fill="#258e33" fill-rule="nonzero" d="M71.275 35.417c21.5 0 38.996 10.833 39.583 24.321a11.67 11.67 0 0 0 2.084-6.613c0-5.558-6.159-10.337-11.996-12.421-.163-6.405-5.477-11.584-11.884-11.584q-.527 0-1.054.047l-1.25-1.042c-.02-7.479-7.404-13.542-16.525-13.542s-16.504 6.063-16.504 13.542l-1.25 1.042q-.515-.045-1.033-.045c-6.406 0-11.719 5.178-11.883 11.582a13.78 13.78 0 0 0-9.955 12.421 11.68 11.68 0 0 0 2.084 6.613c.587-13.488 18.083-24.321 39.583-24.321"/><path fill="#8a633d" fill-rule="nonzero" d="M103.925 29.546 89.342 42.5a4.17 4.17 0 0 0-1.4 3.113v18.97c0 2.286 1.881 4.167 4.166 4.167h29.167c2.286 0 4.167-1.881 4.167-4.167V45.621a4.17 4.17 0 0 0-1.4-3.113l-14.584-12.962a4.18 4.18 0 0 0-5.533 0"/><path fill="#966f49" fill-rule="nonzero" d="m124.042 42.5-14.584-12.962a4.18 4.18 0 0 0-5.533 0L89.342 42.5a4.17 4.17 0 0 0-1.4 3.113v10.416a4.17 4.17 0 0 1 1.4-3.112l14.583-12.963a4.18 4.18 0 0 1 5.533 0l14.584 12.963a4.17 4.17 0 0 1 1.4 3.112V45.613a4.17 4.17 0 0 0-1.4-3.113"/><g stroke="#444330" stroke-width="4.17"><path fill="none" d="M103.925 29.546 89.342 42.5a4.17 4.17 0 0 0-1.4 3.113v18.97c0 2.286 1.881 4.167 4.166 4.167h29.167c2.286 0 4.167-1.881 4.167-4.167V45.621a4.17 4.17 0 0 0-1.4-3.113l-14.584-12.962a4.18 4.18 0 0 0-5.533 0M100.442 68.75v41.667M112.942 68.75v41.667M100.442 79.167h12.5M100.442 91.667h12.5M100.442 104.167h12.5"/><path fill="#fab923" fill-rule="nonzero" d="M117.108 68.75V58.333c0-5.714-4.702-10.416-10.416-10.416s-10.417 4.702-10.417 10.416V68.75z"/><path fill="none" d="M71.275 41.667v68.75M71.275 64.583c2.375.005 4.721-.5 6.879-1.483M71.275 56.25c-6.857 0-12.5-5.643-12.5-12.5"/><path fill="none" d="M84.075 79.138c-.379 0-.762.029-1.146.029a21.1 21.1 0 0 1-11.666-3.384 21.1 21.1 0 0 1-11.655 3.384h-2.083c-13.396 0-17.917-10.263-17.758-13.534a13.84 13.84 0 0 1-10.159-12.508 13.78 13.78 0 0 1 9.913-12.417c.161-6.406 5.475-11.588 11.884-11.588q.527 0 1.053.047l1.25-1.042c.021-7.479 7.405-13.542 16.525-13.542 9.121 0 16.505 6.063 16.505 13.542l1.25 1.042c1.3 0 2.591.162 3.85.487"/></g><g fill-rule="nonzero"><path fill="#8a633d" d="M168.475 50.318q0 4.415-.641 7.619-.64 3.204-1.694 5.455t-2.379 3.645q-1.325 1.396-2.691 2.165-1.368.769-2.649 1.04-1.282.27-2.25.27l-5.839-.484q.37-5.81.569-11.692c.199-5.882.2-7.876.2-11.863a350 350 0 0 0-.456-17.859 34 34 0 0 1 1.339-.086q.655-.028 1.281-.028 4.729 0 7.691 1.609c2.962 1.609 3.517 2.573 4.628 4.5q1.667 2.892 2.279 6.893c.612 4.001.612 5.607.612 8.816m-5.81-.769q0-1.396-.057-2.977c-.057-1.581-.119-2.103-.242-3.147a24 24 0 0 0-.556-3.048q-.37-1.48-.968-2.72c-.598-1.24-.888-1.533-1.467-2.122s-1.277-1.006-2.094-1.253a571 571 0 0 0-.299 6.109q-.128 2.977-.213 5.882c-.085 2.905-.1 3.86-.128 5.768a378 378 0 0 0-.043 5.739v3.803q0 1.923.057 3.916a4 4 0 0 0 2.279-.997q.968-.854 1.637-2.15.67-1.296 1.083-2.934t.641-3.361.299-3.404q.07-1.68.071-3.104M188.243 51.543q0 4.5-.043 9t-.185 9.371l-4.956-.285v-3.845q-.855 1.539-1.937 2.35t-2.051 1.211q-1.14.455-2.25.512a5.55 5.55 0 0 1-2.564-.612q-1.196-.612-2.079-1.638c-.883-1.026-1.049-1.467-1.381-2.35a7.7 7.7 0 0 1-.499-2.748q0-1.624.698-3.205c.698-1.581 1.258-2.008 2.378-2.862a118 118 0 0 1 3.903-2.906q1.651-1.167 2.748-2.122 1.096-.954 1.624-1.823.527-.868.527-2.008 0-1.88-.627-2.805c-.627-.925-.968-.926-1.652-.926q-.627 0-1.068.328a2.4 2.4 0 0 0-.712.854 4.5 4.5 0 0 0-.399 1.168q-.128.64-.128 1.268 0 .427.043.939.042.513.185 1.083l-6.551.114q-.057-.485-.086-.926c-.029-.441-.028-.584-.028-.869q0-1.766.598-3.489c.598-1.723.983-2.174 1.752-3.076s1.704-1.628 2.805-2.179q1.653-.826 3.788-.826 2.763 0 4.373 1.154 1.608 1.154 2.449 3.033c.841 1.879.921 2.673 1.082 4.258q.243 2.379.243 4.857m-6.409 8.06q.142-.712.256-1.623.114-.77.2-1.866c.086-1.096.104-1.552.142-2.464q-.456.627-.883 1.111c-.427.484-.551.608-.797.855q-.427.427-.798.769-.655.54-1.396 1.21a13.6 13.6 0 0 0-1.353 1.41q-.612.741-1.025 1.524c-.413.783-.413 1.03-.413 1.524q0 .797.541 1.467.541.669 1.339.669.599 0 1.239-.342c.64-.342.835-.55 1.225-.968a7.3 7.3 0 0 0 1.039-1.453q.456-.825.684-1.823M204.934 61.17q0 2.535-.841 4.23-.84 1.694-2.107 2.72a7.9 7.9 0 0 1-2.777 1.467q-1.51.441-2.849.441a10.8 10.8 0 0 1-3.688-.755 5.2 5.2 0 0 1-1.667-1.039l.228-6.494q1.026.825 2.08 1.281t1.936.684q1.026.256 1.994.313a3.04 3.04 0 0 0 1.239-1.21 3.5 3.5 0 0 0 .442-1.752q0-.826-.385-1.752-.384-.926-1.182-1.751-.798-.798-1.894-1.923c-1.096-1.125-1.434-1.6-2.108-2.549a15.3 15.3 0 0 1-1.709-3.162q-.698-1.737-.698-3.788 0-2.022.556-3.689c.556-1.667.892-2.065 1.566-2.862a7 7 0 0 1 2.422-1.852q1.41-.655 3.09-.655 1.367 0 2.962.413 1.595.414 3.39 1.296l-.456 6.637a7.3 7.3 0 0 0-1.567-1.068 11 11 0 0 0-1.538-.641 8.5 8.5 0 0 0-1.623-.342q-1.083.2-1.852 1.125-.768.926-.769 2.378 0 1.368.556 2.379.555 1.011 1.395 1.908a31 31 0 0 0 1.838 1.795q.996.897 1.865 2.036c.869 1.139 1.073 1.633 1.481 2.62q.613 1.482.67 3.561M235.154 40.064q0 1.765-.384 3.646a16.2 16.2 0 0 1-1.197 3.617 13.8 13.8 0 0 1-2.065 3.19 10.1 10.1 0 0 1-2.99 2.364q1.68.74 2.663 1.852.982 1.11 1.495 2.293c.513 1.183.56 1.538.655 2.25s.143 1.286.143 1.723q0 2.164-.641 3.717c-.641 1.553-.973 1.908-1.638 2.62a8.2 8.2 0 0 1-2.236 1.709q-1.239.641-2.449.983c-1.21.342-1.562.375-2.265.442q-1.054.099-1.68.099a16 16 0 0 1-1.624-.142 16 16 0 0 1-1.524-.328 5 5 0 0 1-1.467-.641q.171-5.411.171-10.795 0-7.32-.327-14.469-.329-7.149-.954-14.412 1.31-.399 2.606-.627c1.296-.228 1.647-.266 2.35-.342a35 35 0 0 1 2.335-.142q.883 0 2.037.213 1.154.215 2.378.741 1.225.527 2.407 1.367c1.182.84 1.495 1.263 2.122 2.108s1.13 1.842 1.51 2.991q.569 1.723.569 3.973m-5.526 1.282v-.499q0-.526-.128-1.339a13 13 0 0 0-.427-1.78 6.5 6.5 0 0 0-.897-1.823 5.9 5.9 0 0 0-1.552-1.495q-.955-.64-2.379-.783-.171 4.7-.327 9.371a604 604 0 0 0-.242 9.371 6 6 0 0 0 1.837-1.054q.812-.684 1.424-1.524c.612-.84.755-1.158 1.039-1.795q.428-.954.741-1.894.713-2.193.911-4.756m-1.595 18.884q-.057-1.397-.569-2.535a10 10 0 0 0-.541-.983 4.1 4.1 0 0 0-.784-.911 4.7 4.7 0 0 0-1.096-.712 5.6 5.6 0 0 0-1.424-.442q-.086 2.991-.143 5.939c-.057 2.948-.057 3.945-.057 5.939a7 7 0 0 0 2.649-1.695q.485-.498.812-1.04.327-.54.555-1.054a7.6 7.6 0 0 0 .598-2.506M254.352 51.543q0 4.5-.043 9t-.185 9.371l-4.956-.285v-3.845q-.854 1.539-1.937 2.35c-1.083.811-1.405.945-2.051 1.211a7 7 0 0 1-2.25.512 5.55 5.55 0 0 1-2.563-.612 6.8 6.8 0 0 1-2.08-1.638q-.883-1.026-1.381-2.35c-.498-1.324-.499-1.799-.499-2.748q0-1.624.698-3.205t2.379-2.862q2.25-1.738 3.902-2.906 1.651-1.167 2.748-2.122t1.624-1.823.527-2.008q0-1.88-.627-2.805-.626-.926-1.652-.926-.626 0-1.068.328-.442.327-.712.854c-.27.527-.313.741-.399 1.168q-.128.64-.128 1.268 0 .427.043.939.042.513.185 1.083l-6.551.114q-.057-.485-.086-.926c-.029-.441-.028-.584-.028-.869q0-1.766.598-3.489c.598-1.723.983-2.174 1.752-3.076s1.704-1.628 2.805-2.179q1.652-.826 3.789-.826 2.763 0 4.372 1.154c1.609 1.154 1.889 1.78 2.449 3.033q.84 1.88 1.083 4.258a48 48 0 0 1 .242 4.857m-6.409 8.06q.143-.712.256-1.623.114-.77.2-1.866c.086-1.096.104-1.552.142-2.464q-.456.627-.883 1.111c-.427.484-.55.608-.797.855q-.427.427-.798.769-.656.54-1.395 1.21-.741.669-1.353 1.41a9 9 0 0 0-1.026 1.524q-.413.783-.413 1.524 0 .797.541 1.467.541.669 1.339.669.598 0 1.239-.342c.641-.342.836-.55 1.225-.968s.736-.902 1.04-1.453q.455-.825.683-1.823M275.657 41.574a297 297 0 0 0-.313 9.071 473 473 0 0 0-.086 9.015q0 2.677.015 5.298t.099 5.298l-5.668.142v-3.56q-.854 1.396-1.908 2.136t-2.008 1.068-1.638.371a23 23 0 0 1-.798.042q-1.794-.37-2.976-1.58c-1.182-1.21-1.415-1.814-1.88-3.02q-.698-1.808-.983-4.087a39 39 0 0 1-.284-4.785q0-2.165.17-4.415.171-2.25.428-4.429t.569-4.216q.314-2.036.627-3.802l6.209.114a259 259 0 0 0-.527 3.646q-.27 1.965-.484 4.016a100 100 0 0 0-.342 4.116 64 64 0 0 0-.128 3.916q0 1.709.143 3.19.142 1.482.455 2.578c.313 1.096.48 1.301.812 1.709s.745.612 1.239.612q.969 0 1.595-1.168.627-1.167.983-3.062.356-1.893.484-4.258.129-2.364.128-4.756 0-1.795-.057-3.418a314 314 0 0 0-.114-2.906q-.086-1.48-.171-2.763zM296.535 51.6q-.114 3.417-.228 6.608-.057 1.367-.114 2.819-.056 1.454-.128 2.835-.07 1.38-.128 2.648a136 136 0 0 1-.114 2.236l-6.238.599q.228-3.76.371-6.594.142-2.834.213-4.871.072-2.036.1-3.404t.014-2.193c-.009-.551-.043-1.661-.043-1.737q0-1.596-.128-2.592-.128-.997-.356-1.567c-.228-.57-.337-.636-.555-.769a1.37 1.37 0 0 0-.726-.199q-.513 0-1.04.185t-.94.74-.669 1.581q-.257 1.025-.257 2.735 0 3.247.014 6.337t.072 5.569q.028 2.876.085 5.497l-6.779.626q.228-3.018.299-5.896.072-2.876.071-5.184 0-4.329-.185-8.587a159 159 0 0 0-.641-8.844 74 74 0 0 0 2.991-.143 21 21 0 0 0 1.852-.199q.797-.114 1.224-.256l.057 3.446q.599-.968 1.325-1.823a10 10 0 0 1 1.524-1.467q.797-.612 1.666-.968c.869-.356 1.172-.356 1.78-.356q1.026 0 1.809.157.783.156 1.367.598t.983 1.224q.398.784.683 2.009.513-.798 1.125-1.524.613-.727 1.339-1.282c.726-.555 1.002-.66 1.552-.869a5.1 5.1 0 0 1 1.823-.313q1.567 0 2.649.37t1.752 1.496q.67 1.125.968 3.19.3 2.064.299 5.454 0 4.87-.228 9.756-.227 4.884-.484 10.068l-6.238.599q.342-5.241.47-8.816.129-3.575.157-5.768c.028-2.193.019-2.521 0-3.176s-.028-1.02-.028-1.096q0-1.567-.157-2.564-.156-.997-.427-1.552t-.627-.755c-.356-.2-.498-.199-.783-.199q-.257 0-.57.042-.313.044-.655.285-.342.242-.669.755-.328.513-.613 1.424.086 1.282.1 2.279t.014 1.396M321.971 69.515q.199-1.424.341-2.933a162 162 0 0 0 .456-5.982q.086-1.452.143-2.763.113-3.047.17-6.01 0-2.45-.199-3.888t-.527-2.193q-.327-.754-.755-.982a1.8 1.8 0 0 0-.854-.228q-.57 0-1.083.185-.511.185-.954.755-.441.569-.797 1.609t-.613 2.749-.384 4.172a115 115 0 0 0-.128 5.882v2.621q0 1.366.014 2.577t.028 2.137.072 1.296l-6.438-.057q.143-5.213.2-10.326.057-5.112.057-10.325a981 981 0 0 0-.043-9.271 607 607 0 0 0-.157-9.271l7.178-.171a878 878 0 0 0-.313 3.575q-.143 1.665-.242 3.247-.1 1.58-.157 3.133c-.057 1.553-.066 2.103-.085 3.204q.882-1.452 1.951-2.25c1.069-.798 1.395-.931 2.051-1.196q.982-.4 1.723-.485.74-.085.968-.085 1.709 0 2.82 1.139t1.752 3.048q.64 1.908.897 4.415c.257 2.507.256 3.418.256 5.241q0 2.221-.128 4.529a210 210 0 0 1-.299 4.528q-.171 2.223-.342 4.273c-.171 2.05-.209 2.62-.285 3.76zM349.314 51.543q0 4.5-.042 9-.044 4.5-.185 9.371l-4.957-.285v-3.845q-.854 1.539-1.936 2.35-1.083.812-2.051 1.211-1.14.455-2.25.512a5.55 5.55 0 0 1-2.564-.612q-1.196-.612-2.079-1.638c-.883-1.026-1.049-1.467-1.382-2.35a7.8 7.8 0 0 1-.498-2.748q0-1.624.698-3.205c.698-1.581 1.258-2.008 2.378-2.862q2.25-1.738 3.902-2.906 1.653-1.167 2.749-2.122t1.624-1.823q.526-.868.526-2.008 0-1.88-.626-2.805c-.626-.925-.969-.926-1.652-.926q-.627 0-1.068.328a2.4 2.4 0 0 0-.712.854 4.4 4.4 0 0 0-.399 1.168 6.4 6.4 0 0 0-.128 1.268q0 .427.042.939.043.513.186 1.083l-6.552.114q-.057-.485-.085-.926c-.028-.441-.028-.584-.028-.869q0-1.766.598-3.489.597-1.723 1.751-3.076c1.154-1.353 1.705-1.628 2.806-2.179s2.364-.826 3.788-.826q2.763 0 4.372 1.154 1.61 1.154 2.45 3.033c.84 1.879.921 2.673 1.082 4.258q.243 2.379.242 4.857m-6.408 8.06q.142-.712.256-1.623.114-.77.199-1.866c.085-1.096.105-1.552.143-2.464q-.456.627-.883 1.111c-.427.484-.551.608-.798.855q-.427.427-.797.769-.655.54-1.396 1.21c-.741.67-.945.916-1.353 1.41s-.75 1.002-1.025 1.524q-.413.783-.413 1.524 0 .797.541 1.467.541.669 1.339.669.597 0 1.239-.342.64-.341 1.224-.968t1.04-1.453.684-1.823M370.62 41.574a297 297 0 0 0-.314 9.071 473 473 0 0 0-.085 9.015q0 2.677.014 5.298t.1 5.298l-5.668.142v-3.56q-.855 1.396-1.909 2.136-1.053.741-2.008 1.068-.954.328-1.637.371a23 23 0 0 1-.798.042q-1.794-.37-2.976-1.58c-1.182-1.21-1.415-1.814-1.88-3.02q-.699-1.808-.983-4.087c-.284-2.279-.285-3.114-.285-4.785q0-2.165.171-4.415c.171-2.25.256-2.977.427-4.429q.257-2.18.57-4.216t.627-3.802l6.209.114q-.257 1.68-.527 3.646t-.484 4.016a97 97 0 0 0-.342 4.116 64 64 0 0 0-.128 3.916q0 1.709.142 3.19.143 1.482.456 2.578c.313 1.096.479 1.301.812 1.709q.498.612 1.239.612.968 0 1.595-1.168t.982-3.062.485-4.258q.128-2.364.128-4.756 0-1.795-.057-3.418a314 314 0 0 0-.114-2.906q-.086-1.48-.171-2.763zM387.168 61.17q0 2.535-.84 4.23-.84 1.694-2.108 2.72a7.9 7.9 0 0 1-2.777 1.467q-1.51.441-2.848.441a10.8 10.8 0 0 1-3.689-.755 5.2 5.2 0 0 1-1.666-1.039l.228-6.494q1.026.825 2.079 1.281t1.937.684a11 11 0 0 0 1.994.313 3.04 3.04 0 0 0 1.239-1.21 3.5 3.5 0 0 0 .441-1.752q0-.826-.384-1.752c-.384-.926-.65-1.201-1.182-1.751q-.798-.798-1.894-1.923c-1.096-1.125-1.434-1.6-2.108-2.549q-1.011-1.425-1.709-3.162c-.698-1.737-.698-2.421-.698-3.788q0-2.022.556-3.689.555-1.666 1.566-2.862a7 7 0 0 1 2.421-1.852q1.41-.655 3.091-.655 1.367 0 2.962.413 1.595.414 3.389 1.296l-.455 6.637a7.3 7.3 0 0 0-1.567-1.068 11 11 0 0 0-1.538-.641 8.6 8.6 0 0 0-1.624-.342q-1.082.2-1.851 1.125c-.769.925-.769 1.41-.769 2.378q0 1.368.555 2.379.556 1.011 1.396 1.908c.84.897 1.173 1.196 1.837 1.795q.998.897 1.866 2.036c.868 1.139 1.073 1.633 1.481 2.62q.612 1.482.669 3.561"/><g fill="#444330"><path d="M187.75 94.142h7.8v1.4h-7.8zM204.525 85.242v6.325h4.975v1.525h-4.975v8.275H202.8v-17.7h7.075v1.575zM223.65 92.492q0 2.074-.4 3.787c-.4 1.713-.65 2.121-1.15 2.938q-.75 1.225-1.825 1.9c-1.075.675-1.533.675-2.45.675s-1.737-.225-2.462-.675-1.342-1.084-1.85-1.9q-.763-1.225-1.163-2.938c-.4-1.713-.4-2.404-.4-3.787q0-2.05.388-3.763.387-1.711 1.137-2.925.75-1.212 1.838-1.887c1.088-.675 1.562-.675 2.512-.675q1.375 0 2.45.675c1.075.675 1.325 1.079 1.825 1.887q.75 1.214 1.15 2.925.4 1.713.4 3.763m-1.825 0q0-1.6-.25-3t-.762-2.425q-.513-1.025-1.263-1.625c-.75-.6-1.075-.6-1.725-.6q-1.025 0-1.787.6-.763.6-1.263 1.625t-.75 2.425-.25 3q0 1.599.25 3 .25 1.4.75 2.45c.5 1.05.754 1.25 1.263 1.65q.762.6 1.787.6 1 0 1.75-.6c.75-.6.917-.95 1.25-1.65s.583-1.517.75-2.45q.25-1.401.25-3m-4.75-12.2q0 .5-.312.812a1 1 0 0 1-.738.313q-.475 0-.762-.313-.288-.312-.288-.812 0-.476.288-.8.287-.325.762-.325.424 0 .738.325.312.324.312.8m3.575 0q0 .5-.3.812a1 1 0 0 1-.75.313 1 1 0 0 1-.737-.313q-.313-.312-.313-.812 0-.476.313-.8a.99.99 0 0 1 .737-.325q.45 0 .75.325.3.324.3.8M234.15 101.367l-3.2-8.2h-2.275v8.2h-1.725v-17.7h4.25q.875 0 1.688.237a3.86 3.86 0 0 1 1.45.788q.637.55 1.025 1.45t.387 2.2q0 1.125-.287 1.937-.288.813-.75 1.363-.463.55-1.025.85c-.562.3-.746.325-1.113.375l3.45 8.5zm-.1-12.95q0-.95-.262-1.588c-.262-.638-.409-.762-.7-1.012q-.438-.375-1-.525c-.562-.15-.763-.15-1.163-.15h-2.25v6.65H231q1.425 0 2.238-.888.812-.887.812-2.487M249.075 92.542q0 2.175-.45 3.825c-.45 1.65-.733 2.02-1.3 2.762s-1.246 1.3-2.037 1.675q-1.188.563-2.638.563h-3.8v-17.7h3.825q1.45 0 2.638.562 1.186.563 2.025 1.688.837 1.125 1.287 2.787c.45 1.662.45 2.388.45 3.838m-1.725 0q0-1.875-.362-3.263-.363-1.387-1-2.287c-.637-.9-.925-1.05-1.5-1.35s-1.196-.45-1.863-.45h-2.05v14.65h2.05q1 0 1.863-.45c.863-.45 1.075-.75 1.5-1.35s.758-1.359 1-2.275q.362-1.376.362-3.225M252.375 101.367v-17.7h7.125v1.55h-5.425v6.225h5.075v1.475h-5.075v6.875h5.675v1.575zM270.025 101.367l-3.2-8.2h-2.275v8.2h-1.725v-17.7h4.25q.875 0 1.688.237a3.86 3.86 0 0 1 1.45.788q.637.55 1.025 1.45t.387 2.2q0 1.125-.287 1.937-.288.813-.75 1.363-.463.55-1.025.85c-.562.3-.746.325-1.113.375l3.45 8.5zm-.1-12.95q0-.95-.262-1.588c-.262-.638-.409-.762-.7-1.012q-.438-.375-1-.525c-.562-.15-.763-.15-1.163-.15h-2.25v6.65h2.325q1.425 0 2.238-.888.812-.887.812-2.487M279.5 101.367h-2.275l-4.375-17.7h1.9l3.65 15.725h.05l3.65-15.725h1.85zM286.125 101.367v-17.7h7.125v1.55h-5.425v6.225h5.075v1.475h-5.075v6.875h5.675v1.575zM303.775 101.367l-3.2-8.2H298.3v8.2h-1.725v-17.7h4.25q.875 0 1.688.237a3.86 3.86 0 0 1 1.45.788q.637.55 1.025 1.45t.387 2.2q0 1.125-.287 1.937-.288.813-.75 1.363-.463.55-1.025.85c-.562.3-.746.325-1.113.375l3.45 8.5zm-.1-12.95q0-.95-.262-1.588c-.262-.638-.409-.762-.7-1.012q-.438-.375-1-.525c-.562-.15-.763-.15-1.163-.15h-2.25v6.65h2.325q1.425 0 2.238-.888.812-.887.812-2.487M308.475 101.367v-17.7h7.125v1.55h-5.425v6.225h5.075v1.475h-5.075v6.875h5.675v1.575zM318.925 83.667h1.75v17.7h-1.75zM332.6 101.367l-6.175-14.725h-.075v14.725h-1.625v-17.7h2.175l6.125 14.725h.075V83.667h1.6v17.7zM341.95 94.142h7.8v1.4h-7.8z"/></g></g></svg>