<svg xmlns="http://www.w3.org/2000/svg" viewBox="0 0 16 16" preserveAspectRatio="xMinYMin"><path fill="#ffffff" d="M9.2 10.793a2.5 2.5 0 0 0 .08-.7 5 5 0 0 0-.087-.993l-.206-.74a7.3 7.3 0 0 0-.814-1.647A5.4 5.4 0 0 0 6.927 5.38a3.1 3.1 0 0 0-1.034-.447 2.45 2.45 0 0 0 1.634-2.266 2.367 2.367 0 0 0-2.5-2.494 3.3 3.3 0 0 0-2.36 1.04 2.57 2.57 0 0 0-.374 2.547 2 2 0 0 0 .82 1.027 2.5 2.5 0 0 0 .294.153 3.8 3.8 0 0 0-.894.46 6 6 0 0 0-1.506 1.507 5.5 5.5 0 0 0-.834 2A7.5 7.5 0 0 0 0 10a2.7 2.7 0 0 0 .08.8 1.05 1.05 0 0 0 .853.753 1.15 1.15 0 0 0 1.027-.32A12 12 0 0 0 2 12.42c.047.447.127.96.273 1.68a2.53 2.53 0 0 0 .62 1.287 1.39 1.39 0 0 0 1.007.44h1.513a.99.99 0 0 0 .767-.387 4.2 4.2 0 0 0 .607-1.293 9 9 0 0 0 .433-1.694c.053-.353.087-.74.113-1.246a1.13 1.13 0 0 0 1.034.333 1.02 1.02 0 0 0 .833-.747M2.833 3.587a1.94 1.94 0 0 1 .354-1.907A2.63 2.63 0 0 1 5.073.94a1.687 1.687 0 0 1 1.82 1.727c.04 1.873-2.266 2.54-3.5 1.686a1.4 1.4 0 0 1-.56-.766m5 7.233a3.6 3.6 0 0 1-.206-.547c-.2-.626-.374-1.333-.427-1.493a.34.34 0 0 0-.667.193s0 .087 0 .167c0 .373.094 1.26.074 1.56-.047.72-.087 1.207-.154 1.64a8.6 8.6 0 0 1-.42 1.56 6 6 0 0 1-.313.807c-.093.18-.167.36-.333.353H4.72c.04-.347.08-.667.1-1.047s0-.666 0-.993l-.08-1.913a.227.227 0 1 0-.447 0L4.14 13v1.013c0 .347.073.7.113 1.047h-.346a.67.67 0 0 1-.574-.32 2 2 0 0 1-.326-.793 17 17 0 0 1-.28-1.607 14 14 0 0 1-.06-1.627c0-.306.053-1.2.08-1.586v-.22a.35.35 0 0 0-.067-.187.33.33 0 0 0-.32-.133.33.33 0 0 0-.26.186c-.073.147-.227.867-.427 1.494a4 4 0 0 1-.213.546.43.43 0 0 1-.44.127.47.47 0 0 1-.353-.34A2 2 0 0 1 .6 10a7 7 0 0 1 .133-1.007A5 5 0 0 1 1.447 7.2 5.7 5.7 0 0 1 2.78 5.8a3.3 3.3 0 0 1 .907-.467 3.2 3.2 0 0 1 2.033 0 3 3 0 0 1 .947.38A5.1 5.1 0 0 1 7.773 6.98a6.5 6.5 0 0 1 .714 1.547l.166.666a4.3 4.3 0 0 1 .067.727 2.4 2.4 0 0 1-.08.667.44.44 0 0 1-.367.313c-.18.067-.38.033-.44-.08M15.887 9.193l-.214-.74a5.1 5.1 0 0 0-.786-1.46 5.8 5.8 0 0 0-1.194-1.14.2.2 0 1 0-.24.314 5.6 5.6 0 0 1 1.054 1.1 4.7 4.7 0 0 1 .666 1.333l.16.733a4.3 4.3 0 0 1 0 .7 3 3 0 0 1-.08.667.39.39 0 0 1-.246.253.57.57 0 0 1-.367 0 .2.2 0 0 1-.107-.066 4 4 0 0 1-.206-.54c-.234-.707-.36-1.334-.46-1.5s-.8-.154-.667.313c0 .06.047.18.093.34.12.467.334 1.293.5 2A10 10 0 0 1 14 12.567a.9.9 0 0 1-.233.06c-1.334.086-4.547-.127-5.334 0a.227.227 0 0 0-.2.253.233.233 0 0 0 .254.2 3 3 0 0 1 .393 0l.147 1.133a2.46 2.46 0 0 0 .56 1.287 1.33 1.33 0 0 0 .98.453h1.52a1.21 1.21 0 0 0 .966-.746 7.5 7.5 0 0 0 .44-1.874h.3a1.9 1.9 0 0 0 .667-.12.4.4 0 0 0 .2-.273 4.4 4.4 0 0 0-.107-1.213 1.2 1.2 0 0 0 .46 0 1.05 1.05 0 0 0 .867-.78 3 3 0 0 0 .12-.754 4.5 4.5 0 0 0-.113-1m-5.3 6a.71.71 0 0 1-.587-.306 1.96 1.96 0 0 1-.38-.794l-.233-1.006c.446 0 .993.06 1.56.093-.04.233-.08.493-.107.78a3.3 3.3 0 0 0 0 .78 4 4 0 0 0 .08.453Zm2.08-.58c-.14.3-.294.56-.554.56h-.593a3 3 0 0 0 .073-.46 2.5 2.5 0 0 0 0-.386 4 4 0 0 0 0-.394c0-.266-.073-.513-.106-.733.573.033 1.14.073 1.626.087a9 9 0 0 1-.446 1.326"/><path fill="#ffffff" d="M8.86 3.7a.187.187 0 0 0 .24-.14l.173-.86a3.24 3.24 0 0 1 .407-1.447 1.18 1.18 0 0 1 .733-.446 1.4 1.4 0 0 1 .234 0 2 2 0 0 1 .28 0l.313.06a.3.3 0 0 0 .153 0l.447-.074h.273a.8.8 0 0 1 .22.034 1.05 1.05 0 0 1 .78.666c.247.62.2 1.427.38 2.067a1.2 1.2 0 0 0 .34.513c.127.12.274.227.387.334a.2.2 0 0 1 .047.053h-.06a1.5 1.5 0 0 1-.36.06 2.7 2.7 0 0 1-.787-.053.5.5 0 0 0-.267 0 1.1 1.1 0 0 0-.32.166 2 2 0 0 1-1.226.327 1.7 1.7 0 0 1-1.2-.293.227.227 0 1 0-.34.3 2.22 2.22 0 0 0 1.533.58 2.83 2.83 0 0 0 1.713-.42 3.3 3.3 0 0 0 1.334.06.93.93 0 0 0 .666-.434.57.57 0 0 0-.066-.633 4 4 0 0 0-.46-.46c-.094-.087-.2-.167-.227-.267a21 21 0 0 0-.393-2.153 1.74 1.74 0 0 0-1.334-1.1 1.3 1.3 0 0 0-.326-.04 3 3 0 0 0-.42.033l-.474.1-.26-.06a3 3 0 0 0-.42 0 3 3 0 0 0-.306.054 1.71 1.71 0 0 0-1.04.733 3.8 3.8 0 0 0-.4 1.707l-.107.806a.193.193 0 0 0 .14.227"/></svg>
