<svg xmlns="http://www.w3.org/2000/svg" viewBox="0 0 200 200" preserveAspectRatio="xMinYMin"><desc>Currencies Streamline Illustration: https://streamlinehq.com</desc><g fill="#fdeaa9"><path d="M40.67 144.37a6.7 6.7 0 0 0 1.53.4c-.17-2.71-.29-3.37-.29-4.74a3 3 0 0 1-1.78-1 5.7 5.7 0 0 0 1.8.7c0-.8.08-1.6.16-2.41-.1-.09-.14-.1 0-.07 0-.33.2-1.84.25-2.28-2.31-.09-2.5-.59-3-.36s-.08 1-.3 1.45a1.5 1.5 0 0 0-.12.38c-.28 1.24-.81 2.49.16 3.7a1.32 1.32 0 0 1 .18.87c0 1.06.08 2.12 0 3.18a2 2 0 0 0 2 2.33c.35 0 .72 0 1.08.06 0-.5 0-1-.06-1.5a3.4 3.4 0 0 1-1.61-.71M45.2 113.56a6 6 0 0 1-3.77-.93c.19-.07.3-.15.36-.13a8.9 8.9 0 0 0 3.34.56c-.28-1.89-.49-2.29-.67-4.27a8.3 8.3 0 0 1-1.49-.37 10.5 10.5 0 0 0 1.47.15c0-.43-.06-.86-.08-1.29a6.35 6.35 0 0 1-3.2-.81 9.8 9.8 0 0 0 3.18.4v-3.75a5 5 0 0 1-2-.82 16 16 0 0 0 2 .38v-.37c0-.35.09-.72.52-.82-3.45-.61-4-1.68-4.22-.36-.12.68-.09 1.4-.22 2-.57 2.64.92 6.25-.33 10.73a1.29 1.29 0 0 0 1 1.79 14.2 14.2 0 0 0 4.24.6 16.6 16.6 0 0 0-.13-2.69M45.93 102.84a24.7 24.7 0 0 0 5-.33c-.09-.35-.18-.7-.28-1.06a27.2 27.2 0 0 1-5.34.1 2.45 2.45 0 0 1 .62 1.29M51 102.79a11.4 11.4 0 0 1-5 .57 20 20 0 0 1 .23 3.43h1.61a5.3 5.3 0 0 1-1.61.45v1.32c1.59-.13 3.17-.42 4.76-.46a19.8 19.8 0 0 1-4.76.86c0 1.37 0 2.73-.1 4.1 1.42-.1 2.83-.34 4.25-.36.25-1.74.51-1.38-.1-1.35-2.56.18-3.32.32-3.34-.32s1.31-.52 3.88-1.17l.27-.08a14 14 0 0 0-.09-6.99M42.17 152.88a3.66 3.66 0 0 1-2.38-.77 4.5 4.5 0 0 0 2.4.36c.06-1.09.09-2.18.1-3.28a1.6 1.6 0 0 1-.43-.37c.15.08.29.14.43.2v-1.81a3 3 0 0 1-1.69.08c-1.4-.36.57 1.09-1.43 5.26-.86 1.79.64 2.47.51 4-.06.76.35 1.07 1 1.26a6.8 6.8 0 0 0 1.41.29c.06-6.25.08-4.32.08-5.22M45.68 119.06a18.4 18.4 0 0 1 3.85-.13c-1.29.15-2.59.44-3.88.52 0 .59-.09 1.19-.12 1.78l.84-.07a2 2 0 0 1-.86.51c-.09 2-.1 4-.12 6 1.09-.16 2.17-.36 3.25-.48a18 18 0 0 1-3.26.9c0 1.18 0 2.36-.07 3.55a33 33 0 0 0 3.84-.9c0-1.9.13-5.91.4-7.83-.66.21-1.31.44-2 .59-.35.09-.93.42-1.07 0s.5-.49.84-.61a24 24 0 0 1 2.34-.74c.37-1.83.7-1.9.85-3.13.19-2.24-.33-2.2-.15-2.91a13.8 13.8 0 0 1 0-3c-.32 0-2.45.34-4.22.42-.2 4-.43 2.19.48 2.93l-.7.1c-.03.44-.2 2.1-.24 2.5M41.44 120.71a5 5 0 0 0 2.74.62c.28-.84.45-1.06.69-1.86a6.24 6.24 0 0 1-3.08-.8 7.3 7.3 0 0 0 3.18.44 12 12 0 0 0 .38-2.48c-4.61.39-5.51-2-5.56-.14-.12 5.51 0 6-.15 7.45.09 1.41.52 1.75 1.71 1.87h.7a7 7 0 0 0 1.29-.07 22 22 0 0 1 .69-3.87 3.07 3.07 0 0 1-2.59-1.16M49.15 131a10.5 10.5 0 0 1-3.85 1.07c0 .42-.1 1.81-.14 2.31 1.62-.13 1.51-.23 2.29 0a18 18 0 0 1-2.32.47c-.07.77-.15 1.53-.24 2.3 1.07-.17 2.15-.43 3.29-.53a8 8 0 0 1-3.34 1c-.09.69-.18 1.38-.28 2.08.71-.09 1.44-.24 2.18-.38a4.7 4.7 0 0 1-2.24.79c-.31 2.11-.74 4.55-.76 4.67 1.3-.06 2.61-.34 4-.48a7.5 7.5 0 0 1-4 .88 40 40 0 0 0-.35 4.08c2.17.34 4.16-1 6.26-1.27-1.19 1.34-4.31 2-6.27 1.56v2.71a20 20 0 0 1 3.36-.6 8.85 8.85 0 0 1-3.35 1.12c.05 1.58.13 2.52.15 3.07 1.9-.25 3.75-.91 5.69-.81-1.88.36-3.72 1.11-5.68.9 0 .73.09 1.46.13 2.19a27 27 0 0 0 3.46 0 1.6 1.6 0 0 1-1.23.55c-.73 0-1.46.07-2.19.09 0 .65.09 1.31.14 2a29 29 0 0 0 4.75-.16c1.84-.16-.09-1.17 1.12-2.3.55-.52.1 0 .39-6.85.08-1.78.06-3.56 0-5.33-.62.12-1.09.59-1.74.38 0-1 1.07-.92 1.68-1.63-.36-5.59-.93-8.88-.91-13.88M41.69 130.76a8.5 8.5 0 0 0 1.05.52l.36-3.14a6.5 6.5 0 0 1-1.26-.28 11 11 0 0 0 1.28 0l.18-1.75a5.4 5.4 0 0 1-2.89-.17c-.38-.15-.72-.28-.69.34.26 6.47-1.83 7.36 0 7.85a10.2 10.2 0 0 0 2.72.36c.1-.95.2-1.89.31-2.83a2.06 2.06 0 0 1-1.06-.9M42.05 158.74c-2.61-.29-1.78-2-1.92 6.18 0 .7.33 1 .92 1.2a3.1 3.1 0 0 0 1.14.21c-.58-4.28-.19-3.33-.14-7.59"/><path d="M44 163.64a28 28 0 0 0 4.57-.22 6.6 6.6 0 0 1-4.55.46c.26 3.4.3 3.85.2 4.4 1.13-.2 2.3-.14 3.44-.33a4.4 4.4 0 0 1-3.48.44.89.89 0 0 1-.78.79c-1 .07-1-1.29-1.16-2.3a12.5 12.5 0 0 1-1.75-.3c-.07.33-.12.65-.2 1a5.05 5.05 0 0 0 4.17 2.32c2.2-.15 4.46-1.38 5-3.72-1-4 1.08-5.52-.58-5.13a22.3 22.3 0 0 1-5.08.29c.13.99.2 1.37.2 2.3M50.36 100.49a4.4 4.4 0 0 0-1.17-1.63 11.5 11.5 0 0 0-7.5.1 3.7 3.7 0 0 0-.53.66 1 1 0 0 0 .23.12c2.67 1.35 6.05 1.33 8.97.75M59.68 112.87a5.3 5.3 0 0 0 2.68.39c0-.62.2-1.58.73-1.91-3.84 0-4.4-1.38-4.46.1a1.48 1.48 0 0 0 1.05 1.42M64.28 111.9v1.34A40 40 0 0 0 70 111.9a8 8 0 0 0-.08-1.47 41.6 41.6 0 0 1-5.91.89.59.59 0 0 1 .27.58M62 131.4h-.91c-.66 0-1.49-.66-1.9-.09s-.2 1.42-.33 2.13.23 1.1.89 1.28a13 13 0 0 0 2.3.41c-.19-2.13-.32-2.77-.05-3.73M59.36 109.41c1.81 1.26 6 1.2 8.15.44.59-.21 1.62-.15 1.57-.87s-1-.92-1.67-1a20.5 20.5 0 0 0-6.67.28 4.8 4.8 0 0 0-1.38 1.15M63.89 119.75c1.43-.14 2.87-.24 4.3-.35.21 0 .51-.11.59.2s-.2.33-.38.36a31 31 0 0 1-4.57.43c-.08.88-.13 1.76-.15 2.63 1.91-.17 3.78-.75 5.77-.93-.87.87-3.61 1.41-5.77 1.35a29 29 0 0 0 .34 4.17c4.7-.52 4.93-.5 5.44-.73a33 33 0 0 1 .11-3.43 1.3 1.3 0 0 1 .11-.89c.26-1.85.58-2.35.31-2.93a6.65 6.65 0 0 1-.54-3.16.68.68 0 0 0-.41.11 5 5 0 0 1-1.79.59c-.29 0-.75.22-.83-.24s.4-.42.66-.46a11 11 0 0 0 2.42-.75c.09-.87.25-1.74.35-2.61a12.25 12.25 0 0 1-5.55.86 43 43 0 0 1-.41 5.78M63.4 126.76c-.14-1.12-.3-2.23-.41-3.36a4.3 4.3 0 0 1-1.65-.42 9 9 0 0 0 1.62.09c-.1-1-.11-1.5-.21-2.74a9 9 0 0 1-2-.43s-.06-.1-.12-.23a10.2 10.2 0 0 1 2.08.19c-.26-3.46-.29-3.64-.38-6-4.32-.51-2.75-.94-3 3-.23 4.34 0 8.69-.11 13a.64.64 0 0 0 .66.77 17 17 0 0 0 2.33.16c.65-1.24 1.55-1.35 1.19-4.03M65.36 161.61c.07 0 1.54-.11 2.39-.17a2.71 2.71 0 0 1-2.36.74.44.44 0 0 0 .37 0 9 9 0 0 1 2.51.16 3.16 3.16 0 0 0 2.32-3.21c0-1.2-.1-2.39-.12-3.59 0-.62-.19-.73-.77-.53a16.4 16.4 0 0 1-4.77.82c.2 1 .38 2 .48 3.06 2.7-.26 3-.28 3 .08s-.37.34-.65.39c-.78.12-1.56.25-2.34.32a11 11 0 0 1-.06 1.93M63.29 151.62a6.6 6.6 0 0 1-2.48-.68c-.25-.13-.67-.27-.53-.6.26-.6.36.36 3 .66a36 36 0 0 0 0-4.9 3.9 3.9 0 0 1-2.71-1.21 6.2 6.2 0 0 0 2.68.76c-.28-3.55-.67-4.63-1.18-10-2.52-.3-3.42-1.18-3.22.23.6 4.58.07 6.3.52 9a20.2 20.2 0 0 1 .59 5.28c-.15 1.54.08 1.74 1.64 2.11.31.07.75.08.69.54s-.48.47-.8.4c-2.11-.43-.1 2.09-.92 4.28-.08.19-.06.13.13.87a7.4 7.4 0 0 0 2.46.63 25.6 25.6 0 0 1 .13-7.37m-2.58-10.38c.49.21 1.09.2 1.58.71a2.25 2.25 0 0 1-1.8-.22c-.41-.14-.19-.73.22-.49M64.3 138.1c1.44-.07 2.1-.33 4.94-.75 0 .43-.21.49-.43.56a15.4 15.4 0 0 1-4.57.82 39.3 39.3 0 0 0-.27 6.94c1.55 0 3.11-.35 4.72-.3-.93.69-2.91.95-4.68.81.19 2.35-.15 1.77.19 4.88 2.91.11 3.87-.42 3.93.12 0 .36-.25.31-3.12.56h-.73c.18 1.44.32 2.43.53 3.5a24.5 24.5 0 0 0 4.86-.69.83.83 0 0 0 .72-1.13c-.7-4-.53-5-1.47-6.25a.67.67 0 0 1 .15-1c1.06-.61 1-1.49.76-2.48-.22-.82.49-2.22-.92-1.63a7.5 7.5 0 0 1-2.44.42c-.39 0-1 .21-1.12-.27-.11-.72 1.25-.5 3.5-1.18a3 3 0 0 0 1.48-.77c-.17-3.36-.3 1.56-.86-12.73-.52-.07-.25.15-3.57.46a3 3 0 0 1-1.87-.24c.39 3.94-.84 2.64.91 3.21a6.3 6.3 0 0 1-1 .33 28 28 0 0 0 .46 3.89c.93-.05 3.5-.38 4.79-.54-.21.49-.61.52-.94.59a21 21 0 0 1-3.84.52c.03.73-.04 1.5-.11 2.35m4.8 10.5a3.76 3.76 0 0 1-3.75.66ZM62.82 162.17c.37.16.84.52 1.2.19s-.25-.57-.3-.91a12 12 0 0 1-.42-1.7c-1.25-.11-1.47-.41-1.71 0a1.65 1.65 0 0 0-.23.7 2.74 2.74 0 0 0 1.46 1.72M21 157.87c-.7-.16-.89.06-.84.73a31 31 0 0 0 .34 4.07 3.44 3.44 0 0 0 3.97 2.33c.16-.05.41-.09.36-.37-.42-.23-1 .06-1.39-.49a2.45 2.45 0 0 1 1.46-.2c.2 0 .59-.13.86-.09a.8.8 0 0 1-.2-.23 2.16 2.16 0 0 1-.38-1.53c-.67 0-1.35-.05-2-.1-.22 0-.54 0-.54-.29 0-.46.38-.34 2.3-.36h.24c-.07-1-.18-2.05-.3-3.09a16 16 0 0 1-3.88-.38M24 113.59a15 15 0 0 1 .36 2 5.5 5.5 0 0 0 2.56-.72c-.13-.62-.28-1.24-.46-1.85a9.3 9.3 0 0 1-2.46.57M24.62 122.11c.62-.08 1.2-.28 1.83-.34a3.7 3.7 0 0 1-1.86.83 12 12 0 0 0 .06 2.72l1.31-.09a8.5 8.5 0 0 1-1.28.38c.44 3.24.32.65 1.05 7.33a17 17 0 0 0 2.33-.32.89.89 0 0 0 .69-.43 68 68 0 0 1-.57-7.3c-.09-1.13-.69-7-1.15-9.39-.12 0-1.52.31-2.63.54a19.5 19.5 0 0 1 .22 6.07M23.51 125.81a13.3 13.3 0 0 1-5.32-.62c1.72-.34 3.09.2 5.35.17a17.6 17.6 0 0 0-.05-2.62 28.5 28.5 0 0 1-4.33.07c-.26 0-.7.06-.68-.37s.43-.23.67-.23c1.43 0 2.85-.06 4.27-.06-.29-2.31-1-4.89-1.15-5.72-4.93.71-5.68-.91-6.07-.14a1.76 1.76 0 0 0 .95 2.34c2.5.88 3.37.36 3.3 1 0 .31-.32.32-.55.31a5.6 5.6 0 0 1-1.94-.38c-.48-.19-.76-.13-.79.46s-.07 1.41-.12 2.13a20 20 0 0 1 .86 3.53 1.16 1.16 0 0 1 .09.61c.15 1.21.21 2.43.26 3.64.6.14-1.38-.09 4.36.1.23 0 .47-.08.73-.06 0-1.4.06-2.78.16-4.16M26.5 140a1.4 1.4 0 0 1-.42.43c.11 2.46.3 4.91.61 7.36a5.7 5.7 0 0 0 2.16-.89c-.19.54-1 1-2.12 1.28a26.7 26.7 0 0 1 .51 4.87c.86-.22 2-.44 2.43-1.22.3-4.85 0-2.89.08-12.13q0-1.36-.12-2.73c-.43-.26-1 .47-3.65.89 0 .77 0 1.52.08 2.29Zm1.66 3.35c.24-.06.55-.49.72 0s-.32.42-.56.55a1.45 1.45 0 0 1-1.29.16 2 2 0 0 1 1.13-.68ZM22.13 113.73c-5.19.19-6.18-.84-6.14.09 0 .4-.23 1 .52 1.07a36 36 0 0 0 5.62.74 6.4 6.4 0 0 1 0-1.9M19.1 110.58c-1.23.25-2.86 1.43-1.7 1.73a14.1 14.1 0 0 0 5 .51.78.78 0 0 1 1.08-.15 10.2 10.2 0 0 0 2.56-.86 4.3 4.3 0 0 0-.9-1.45c-3.7 0-4-.18-6.04.22M26 137.38c.37 0 .74-.11 1.11-.19 1.53-.3 2.22-.53 2.42-1.16a26 26 0 0 0-.56-2.95 1.1 1.1 0 0 0-.59.06 11.5 11.5 0 0 1-2.57.48c.19 1.68.19 2.32.19 3.76M27.05 163.5a.8.8 0 0 1-1.05.5c.24.43-.34.8.3.87a5.13 5.13 0 0 0 2.63-3.25l-.31.07a9.5 9.5 0 0 1-1.34.3 2 2 0 0 1-.23 1.51M29.46 155.16c-.43-.08-1.24.39-1.38-.29s.54-.47 1.46-.9c0-.43.05-.86.09-1.28a6.25 6.25 0 0 1-2.4 1.08c0 1.27-.09 6.36 0 7.45a8.5 8.5 0 0 0 1.92-.43c.25-1.42.07-1.47.31-5.63M24.58 154.12a7.3 7.3 0 0 1-2.53-.18c.29-.53.69-.41 1-.41s1 0 1.5-.07a11 11 0 0 1 0-1.68 4 4 0 0 1-3.72-.44l3.72.31c.07-1 .22-2.06.35-3.1a7 7 0 0 1-3.88-.42A27 27 0 0 1 25 148a19.6 19.6 0 0 0-.35-7c-1.72.32-4.09.09-5-.74 1.67-.07 3.3.32 4.93.22-.16-.79-.33-1.56-.48-2.35a26 26 0 0 1-3.2-.13 1.76 1.76 0 0 1-1.46-.58c1.79 0 2.29.2 4.53.11a56 56 0 0 1-.65-7.19c-2.2.44-4.57-.19-5 .1a45 45 0 0 0 .33 4.49c.27 1.81.07 3.63.34 5.45a22 22 0 0 1 .3 3c.77.44 3.11.57 4.15.73.25 0 .59.11.59.43s-.37.34-.61.35h-2.19c-1.52-.14-1.51-.16-1.49 1.31a4 4 0 0 1-.06 1 1.16 1.16 0 0 0 .67 1.4c.47.25.89.66.6 1.2a7.93 7.93 0 0 0-.69 4 13.2 13.2 0 0 1-.14 3.07.55.55 0 0 0 .5.34 20.6 20.6 0 0 0 4.21.35 30 30 0 0 1-.25-3.44M67 38.73c.84.44 1.24-.31 1.67-.85l14.48-20.29c.79-1.13.68-1.59-.5-2.32-3.15-1.94-2.85-.11 1.35-7.08.54-.92.08-1.89-.85-1.77-.18 0-6.8.51-8.67.85-1.12-.3-1.26.54-1.51 1.13-1 2.45-3.49 8.71-4.28 10.81-.9 2.41 1.08 2 3.69 1.6 1-.12 1-.09.63.81q-3.07 7.65-6.16 15.29c-.3.64-.77 1.36.15 1.82M88.82 25.38c4 1.92 4.89 1.7 3.83 2.76-1.39 1.39-10.38 10.53-10.52 10.74-.27.39-.47.8-.09 1.27a.93.93 0 0 0 1.31.22C85.79 39.19 98.92 33 103 31c1.28-.61 1.4-1.12.66-2.34-.92-1.49-1.78-3-2.75-4.49-.47-.71-.23-1 .42-1.2 1.45-.58 2.88-1.19 4.33-1.77a1.15 1.15 0 0 0 .77-1c0-.48-.31-.76-.73-1-3.8-1.94-5.1-2.67-5.67-2.93s-.52-.16-1 0c-2.79.9-5.08 2.77-10.42 7.21-.85.72-.81 1.41.21 1.9M58.39 171a8.58 8.58 0 0 0 6 1.25c1.09-.26 1.53-1.29.77-1.94-1.8-1.55-3.76-2.76-6.3-2.07-.64.18-1.59.06-1.7.88s.56 1.45 1.23 1.88M75.86 172.23a1.82 1.82 0 0 0 .48-1.23 4.6 4.6 0 0 1-1.61 1c-.71.17-1.07.5-1 1.24a5.5 5.5 0 0 0 2.13-1.01M73.83 171.21c1.54-.74 2.87-1.23 2.21-2.81a3.5 3.5 0 0 0-.47-.3c-.45-.25-.44-.25-.75-.21a18.6 18.6 0 0 0-5.43 1.7c1.5.46 2.89.68 4 1.61a.39.39 0 0 0 .44.01M58.54 175.59c.78.45 4.15.77 7.05-.27-.64-.15-.84-1.06-1.39-.87-1.75.62-3.33 0-4.87-.6-.91-.37-1.29.18-1.57.71s.39.8.78 1.03"/><path d="M64.52 176.47a14.75 14.75 0 0 1-7.43-.65c1.47 1.53 5.6 1.81 7.43.65M64.23 173.37c-2.79-.4-5.55-.84-7.55-3.16a4.3 4.3 0 0 0 3.13 3.29c2.65.9 3.53.89 4.42-.13M66.14 172.45c-.33.38-.16.63.18.76a7.2 7.2 0 0 0 6.13-.26c1.1-.59.91-1.43-.13-1.84a9.5 9.5 0 0 0-3.76-.64c-1.41 0-2.27-.3-2 1.2.01.24-.24.56-.42.78M69.74 174.73c-3.5.23-4-1.64-4.45-.91-.18.32.28.54.51.74.63.54 2.25.59 3.08.55ZM84.36 165.21a19.2 19.2 0 0 1 .82-4.2 13 13 0 0 1-1.66-.06c-.26 0-.71.09-.71-.34s.45-.28.69-.27h1.58a10 10 0 0 1-.32-2.62c-.61 0-2 0-1.92-.58 0-.23 0-.2 2-.2a10 10 0 0 1 .33-1.78 8 8 0 0 1-3.18-.68 2.48 2.48 0 0 1-.1 2.37 13 13 0 0 0-.32 1.76 2.64 2.64 0 0 1-.09 2.44v1.15c.2.95.13 1.88.38 2.8h-.06a2.7 2.7 0 0 0 .24.82c.1-.52.72-.42 2.32-.61M86.61 156.9c.34 0 .68 0 1-.08a2.9 2.9 0 0 1-1 .53c.14 1.53.26 2 .26 2.83 1.16-.13 2.33-.27 3.51-.31-.18.54-.61.42-.93.5-3.55.83-2.32 0-2.86 1.31a5.5 5.5 0 0 0-.27.78l4.22-.72c-.59.76-2.74 1.38-4.36 1.32a4.8 4.8 0 0 0 0 1.89c2.88-.46 3.4-.65 3.53-.09s-.29.59-.66.69a17.5 17.5 0 0 1-2.58.47c.17.92 0 1.37.2 1.55 6.41-.85 4.85-4.57 5-9.37-.09-.64-.08-.72-.66-.55-.87.28-1.77.49-2.65.75-.26.08-.49.13-.6-.14-.23-.6.58-.44 3.38-1.32a1.35 1.35 0 0 0 .64-.4 4.26 4.26 0 0 0-.11-1.91c-.11 0-.22.07-.32.08-1.61.18-3.22.38-4.84.43a17 17 0 0 0 .1 1.76M84.28 166.14c-1.06 0-1.54-.1-1.49.64a5 5 0 0 0 .75.5c.69.37.65-.07.74-1.14M89.21 152.34a40 40 0 0 0-5.25.43c-.53 0-.58.49-.75.93a44 44 0 0 0 7.78-.27 4.8 4.8 0 0 0-1.78-1.09M17.08 182.09a3.63 3.63 0 0 0 1.47-2.26v-.52c-1.14.14-2.22.67-3.34.41 0 1 .16 2.28-.81 2.24a1 1 0 0 1-1-1c0-1.08-.09-2.15-.17-3.22a2.45 2.45 0 0 1-1.1-.6 10 10 0 0 0 1.06.08c-.12-1.41-.22-2.83-.2-4.26a2.9 2.9 0 0 1-1.47-.6 9.4 9.4 0 0 0 1.48.08 2.63 2.63 0 0 1 .51-1.45 10.2 10.2 0 0 1-2.28-.35c-.14 2.95-.58 3.29-.37 3.77.77 2 .61 4.23 1 6.34.07.38.13.84-.26.84a3.4 3.4 0 0 0 .28.38c.24.03 1.34.92 5.2.12"/><path d="M14.82 172.37c1.14-.15 2.26-.38 3.45-.51a6 6 0 0 1-3.4 1.21l.27 4.16a30 30 0 0 1 3-.12 5.15 5.15 0 0 1-3 .89c.07 1.11.1 1 0 1 0 .42-.34.18 3-.32.42-.07.61-.12.44-.59a2.6 2.6 0 0 1-.07-.8c0-1.88 0-1.88-2-1.56-.49.09-1.25.29-1.33-.18s.72-.44 1.15-.58c.74-.24 1.52 0 2.27-.25.9-.27.11-.45 0-4.52a16.2 16.2 0 0 1-4.3.82c.52.3.48.98.52 1.35M11.08 169.91a13.36 13.36 0 0 0 7-.33 16.1 16.1 0 0 0-7 .33M137.66 102.62a5.74 5.74 0 0 0 6.13 3.94c-1.25-.5-2.93-1-2.69-2.83a6.8 6.8 0 0 1 .68-2.27c.88-1.73 1.87-.18 4 0a1.3 1.3 0 0 0 .06-.28 7.46 7.46 0 0 0-2.33-2.64c-1.44-1-2.63-1.08-3.87-.25a4.63 4.63 0 0 0-1.98 4.33"/><path d="M141.42 108.28c1.39.45 2.75.63 4-.68-3.43.66-6.07-.37-7.94-3.3.06 1.62 1.72 3.25 3.94 3.98M27.45 175.49a3.19 3.19 0 0 0 2.71 1 8.3 8.3 0 0 0 3.29-.61c.34-.12.75-.23.83-.64s-.33-.69-.62-.93c-1.8-1.47-7.66-.13-6.21 1.18M40.2 175.24c-1.07-.82-4.59-1.07-4.87-.31-.61 1.72-.62 1.72 1.3 2 .2 0 .38.09.58.12a4.7 4.7 0 0 0 2.72-.32 1.35 1.35 0 0 0 .55-.48 1.7 1.7 0 0 0-.28-1.01M64.28 76.25a3 3 0 0 1-.2.27 9.9 9.9 0 0 1-4.84 2.93c1.87.33 3.82-1.36 5.33-2.31a1.43 1.43 0 0 0-.29-.89M63.82 72a2.05 2.05 0 0 0-2 1.08c-.31.58-.84 1-1.14 1.61A2.37 2.37 0 0 1 57.36 76c-.6-.23-.67.11-.51.62a2.24 2.24 0 0 0 3.07 1.46 16.3 16.3 0 0 0 3.84-2.64 2.9 2.9 0 0 1 .06-3.44"/></g><g fill="#f8cdb0"><path d="M151.39 176.84a20 20 0 0 1 3.12-2.62 102 102 0 0 0 11.9-10.14 11.3 11.3 0 0 0 2-2.92c-.63-1.26-1.46-.13-4.55-.93-.41-.1-1-.1-1-.74a1.4 1.4 0 0 1 .69-1.24 5 5 0 0 1 1.93-.73c1.7-.43.79-1-.5-3.33A1.61 1.61 0 0 1 165 152a1.55 1.55 0 0 1 2.24 0c.78.62 1.57 1.22 2.35 1.83a.81.81 0 0 0 .92.18 3.56 3.56 0 0 0 2.08-1.88c0-1-.69-3.49-.9-4.91-.09-.56-.76-.23-.75-.73 0-2.09-.29-1.71-.5-4.08a12.5 12.5 0 0 1 .76-6.56c1.3-4.34 2.2-4 8.87-16.36a13.4 13.4 0 0 0 1.65-5.28c.55-6.76-4.13-8.58-15.38-21.76-.15 0-.32.16-.58.41a1.76 1.76 0 0 0-.29 2.61 4.7 4.7 0 0 1 .47 1 1.91 1.91 0 0 1-.34 2.38 1.86 1.86 0 0 1-2.4.09c-.91-.66-1.47-.46-2.15.33-.91 1.08-1.8 1.25-2.59.7-1.91-1.32 1.33-3.53-.77-4.39a8.2 8.2 0 0 1-1.39-.78 1.91 1.91 0 0 1 0-3.3c1.14-.7 1.9-.4 1.85-1.32V88.5c-3.64 3-9.21 6.19-13.94 5.94-3-.15-5.47-1.39-6.71-4.21-1.5-3.42-2.37-7-1.55-10.82a.71.71 0 0 0-.38-.9 14.93 14.93 0 0 1-6.27-6.6 1.29 1.29 0 0 0-.89-.74c-7.56-1.91-8.78-2.4-9.92-1.55-6.71 5-10.44 9.29-18.59 25.55-.33.65 1.5 5.21 2.47 11.59a20.8 20.8 0 0 1-1.5 10.39c-.4 1.09-.26 1.65.61 2.21 2.4 1.55 1.18 4.7-1.58 3.62-1.61-.63-1.59-.61-2.64.68a6.2 6.2 0 0 1-.9.79 1.35 1.35 0 0 1-2.38-.63c-.84-2.31-.31-3.26-2-3.68s-1.88-1.83-.61-2.9a1.36 1.36 0 0 0 .6-1c.13-1.52 1.32-2.31 2.67-1.56a2.93 2.93 0 0 0 3 0c1.2-.58 1.79-.2 2.17-1.45a12.14 12.14 0 0 0 0-6.36c-3-13-2.74-9.13-2.87-13a63 63 0 0 0-3.08-7.44c-1.26-3 .17-4.47.26-5.42a6 6 0 0 0-.36-1.41c-2.31 3.26-5 4.69-6.7 6.12a12.28 12.28 0 0 1-8.28 3.39h-.07c.22 1.74.14 5 2.81 20a3.43 3.43 0 0 0 2.38.8c.93 0 1.3 1.71.36 2.38a4.7 4.7 0 0 1-2 .91c-.2.07 2.56 11.75 2.92 13.41a13.6 13.6 0 0 0 4.39 7.59c2.56 2.23 4.16.59 7.52-.67a26 26 0 0 0 3.68-1.71c7.67-5.86 7.57-5.86 7.91-5.87.29-.18.35-.46.3-.9-1.2-11.24-1.81-15.59.93-24.64.1-.34.21-.76.7-.68.65.11.5.77.37 1.43a53.2 53.2 0 0 0-1.41 13c.16 4.73.27 10.16.78 15.21a1.62 1.62 0 0 1 2.69-.32 2.5 2.5 0 0 1 .56.82c.56 1.8 1.95 1.17 2.61 1.25a1.82 1.82 0 0 1 1.47 2.9c-.66 1.16-1.73 1.2-1.24 2.33a12.5 12.5 0 0 1 1 3.32 2 2 0 0 1-.83 2.1c-1.34.83-2.5-.32-4-1.31.62 3 .22 5.9 3.1 10.35.79 1.22 1.35.34 13.9 3.49a2 2 0 0 0 0-.38c-.16-.9-.14-1.85-.26-2.76a36.6 36.6 0 0 1 .05-7.55c.18-2.26.81-4.49.41-6.79 0-.12.06-.25.08-.38.28-2.19.53-4.33-.61-6.41a20 20 0 0 1-.87-2.64c-2-5.39 4.28-7.06 4-10.85-.06-.94.65-1.59 1.67-1.83 3.47-.82 4.61 1.41 5.71-.2.55-.79 1.09-1.59 1.65-2.36 2-2.71-2.74-2.82-4.86-5.9-2.52-3.64-.91-8 2.5-10a3.87 3.87 0 0 1 2.95-.49c2.45.54 3.85 2.21 4.85 4.33.2.4.22.91.86.94a16 16 0 0 1 1.68.19c2.28.31 4 1.31 4.66 3.69a16.5 16.5 0 0 0 2.16 5 14.36 14.36 0 0 1 2.56 6.71 8.05 8.05 0 0 1-.73 4.93 41.6 41.6 0 0 1-5.51 7.41c-1.83 1.95-6.51 6.6-6.84 7.3a2 2 0 0 0 .12.73 3 3 0 0 0 .26.22c3.62 2.63 5.09 3.53 5.46 5.4.63 3.25-.55 2.57-.48 8.68 0 1.83 1.21 1 2.39 3.63.92 2 3.11 2.31 4.84 4.9a1.51 1.51 0 0 1 0 2.09c-1.11 1.09-2.39-.33-3-.77-.29-.2-.52-.79-.83-.54s-.38.81-.48 1.25c0 .14.18.33.24.52a1.25 1.25 0 0 1-.81 1.66c-.65.14-1.23-.36-1.33-1.16-.46-3.75-.39-5.78-1.74-7.23a7.4 7.4 0 0 1-2.1-3.1c-3.3 2.52-3.5 2.62-3.49 2.84a3.9 3.9 0 0 1-.73 2.24c-.41.69.35 1 1.47 3.45.94 2.08-.77 3.78-2.77 2.58a19 19 0 0 1-2.13-1.46c-.47-.38-.8-.37-1.19.05-.24.26-.6.44-.81.72a1.42 1.42 0 0 1-1.91.55 1.69 1.69 0 0 1-.92-1.82c0-.2.11-.39.12-.59.06-.89.24-1.81-1-2.19a1.14 1.14 0 0 1-.76-.88c-.08-.75-.59-.89-1.15-1.06.09.53.79 5.62 1.43 9.68.2 1.35.44 2.7-.7 3.65a3.25 3.25 0 0 0 .65 1.5c3.12 2.11 6.35 6.13 12.42 7.75a7 7 0 0 0 4.6-2.71m16-65.37a1.64 1.64 0 0 1 1.74-1.2c.68 0 1-.25 1-.92a1.85 1.85 0 0 1 3.34-1.17c1.65 2.55 4-.63 5.28 1.95a1.76 1.76 0 0 1-.6 2.21c-.75.71-1.12 1.39-.41 2.44a11 11 0 0 1 1.27 2.9c.45 1.37-.44 2.56-2.11 2.54s-2.4-2.53-3.15-1a3 3 0 0 1-1.06 1.3 1.62 1.62 0 0 1-1.76.31 1.84 1.84 0 0 1-1-1.61c-.34-3.18.84-4.32-1.3-5.43a2 2 0 0 1-1.22-2.32Zm-78.32-15.1c0 .15 0 .32-.1.48-.37 1.26-1.24 1.58-2.77 1-1-.37-1.25-1.18-.74-2.27.13-.27.29-.53.4-.81.54-1.34-.16-1.64-1.14-2.14s-1.85-.92-1.7-2.18 1.06-1.43 2-1.69a1.73 1.73 0 0 0 1.19-.93 1.52 1.52 0 0 1 2.1-.8c1.53.68 2.62-.41 4.25-.31a1.85 1.85 0 0 1 1.86 1.92 3.1 3.1 0 0 1-1 2.21c-1.3 1.5 1.31 2.24 1.2 4.43A1.8 1.8 0 0 1 92.34 97c-1.82-.5-2.7-2.32-3.27-.63m28.75-11.94a2 2 0 0 1-1.93 1.3c-1.06-.06-1.71-.74-1.55-2.06.32-2.4.32-2.4-1.94-3.17-1.07-.38-1.94-.68-1.83-1.87.08-.84.74-1.25 2-1.3.77 0 1.44-.09 1.4-1.18a1.44 1.44 0 0 1 2.72-.61c.88 1.43 2 .19 3.61.19 1.43 0 2.42 1.45 1.53 2.52-1.25 1.51-.9 2.62.15 3.93a1.57 1.57 0 0 1-.98 2.74c-1.71.08-2.42-1.92-3.18-.49m12.36 25.75c-1 .48-.61.89-.71 2.54a1.75 1.75 0 0 1-1.16 1.6 1.62 1.62 0 0 1-1.83-.38 2.1 2.1 0 0 1-.49-.5c-1.06-2.23-2.8-.15-4.33-.39-.88 0-1.58-.08-1.93-.88a1.61 1.61 0 0 1 .59-2 8.3 8.3 0 0 0 1.34-2.07.78.78 0 0 0-.24-1 2 2 0 0 1-.49-2.62 2 2 0 0 1 2.48-.72c1.68.48 1.58-.85 2.93-2.2a1.73 1.73 0 0 1 3 .75c.55 1.59-.43 3.18.83 3.62a2.2 2.2 0 0 1 1.69 2 2.44 2.44 0 0 1-1.68 2.25m27.08 31.69a18 18 0 0 1-1.85-1.94.81.81 0 0 0-1.24-.26c-2.32 1.3-3.37.53-3.25-.81a4.6 4.6 0 0 1 .49-2 .87.87 0 0 0-.28-1.28c-.29-.23-.53-.52-.79-.76a1.54 1.54 0 0 1-.48-1.88c.44-1 1.4-.94 2.34-.94.84.25 1.29-.25 1.52-1.12a3 3 0 0 1 .45-.89c1.32-1.88 3.4-.9 3.81 1.26s2.87.44 3.5 2.74a1.73 1.73 0 0 1-.84 2 1.44 1.44 0 0 0-.69 1.9 15.5 15.5 0 0 1 .44 2.54 1.8 1.8 0 0 1-3.13 1.49Z"/><path d="M86.55 66.4a9.7 9.7 0 0 1-.47 3.6c-.51 1.1-1.92 1.16-2.46-.52a12.7 12.7 0 0 1-5.71 3.81c-.26.08-.41.06-.37.49.21 2.28.31 4.57.49 6.85.19 2.59.57 6.51.57 6.72 7.55-.28 9.34-6.51 14-9.77.32-.22.67-.48.63-.9a80 80 0 0 0-5.08-12.44c-.42-.82-.78-.25-1.09 0s-.08.26-.91 1.69c.23.07.43.07.4.47M135 155.67c1.63.41 1.29-1 1.61-2.58a1.84 1.84 0 0 1 2.76-1.3c1.35.67 1.58 2.31 2.56 2.13a5.14 5.14 0 0 0 2.56-1 23.3 23.3 0 0 1 3.73-3 1.1 1.1 0 0 0 .49-.72c2.17-8.89-.66-7-3.73-10.16-.87.61-7.62 9.16-12.74 4.85-.44.31-.18 1.16-.24 2.24a28 28 0 0 1 .25 4.07c.15 1.24.29 2.47.44 3.71.38.97 1.01 1.42 2.31 1.76M14.28 48.71a52.6 52.6 0 0 0 7.57 3.72 1.16 1.16 0 0 0 1.7-1.23c0-1.47-.63-2.52.57-2.4 2.27.25 4.54.43 6.8.72.69.09 1.25.06 1.51-.58s-.23-1-.75-1.33C21.28 41.82 21.26 39 20 43.33c-.33 1.12-.7.38-3-.94-1-.57-1.93-.38-2.22.58-.45 1.44-.73 2.93-1.09 4.41.07.53.06 1.05.59 1.33M27.8 67.25c-.24-.2-.49-.38-.81-.16a.89.89 0 0 0-.38 1c.14.67.43.83 2.8 2.9 1.25 1.09 2.53 2.14 3.74 3.27 1 1 .86 1.83-.35 2.41-.94.45-2.16.92-1.7 1.82s1.5.17 2.52 0c.33-.07.81-.63 1 .17.14.58.66 1.24-.4 1.56a7.6 7.6 0 0 0-1.4.75.87.87 0 0 0 .69 1.59 11 11 0 0 0 1.39-.54c1-.44.72.64 1.37 1.93.19.37.49.75 1 .53a.88.88 0 0 0 .55-1.13c-.33-1.39-1.09-2.09.16-2.51a5 5 0 0 0 2.52-1.32c.32-.39.54-.78.26-1.26s-.75-.46-1.23-.27l-2.38 1c-.5.2-.72.14-.91-.46-.53-1.67 1.42-1.11 2.87-2.46.34-.32.69-.68.44-1.21s-.68-.46-1.12-.45c-1.55 0-2.77 1.91-3.07.51a4.2 4.2 0 0 1 .09-2.71c.63-1.45 1.45-3.78 2.44-6.58 0-.67 0-1.07-.52-1.17a.86.86 0 0 0-1.08.48c-.49 1.12-2.15 5.69-2.51 6.71-.18.49-.33.59-.74.21-1.14-1.22-2.97-2.69-5.24-4.61M43.32 44.81a11 11 0 0 0 1.37.18c.54 0 .87.09.85.76s-.33.65-.81.71-1.44 0-1.38.89.86.61 1.42.66 1-.21 1.39.48c1.56 2.57 5.28 3.72 8.27 2.93.56-.15 1.19-.32 1-1.07-.39-1.76-2.88.94-6.83-1.77-.2-.14-.52-.29-.4-.6s.42-.14.64-.14h2.79c.58 0 1.13-.19 1.16-.83s-.56-.9-1.09-.92h-3.48c-.32 0-.8.36-.87-.23-.18-1.58 2.12-.47 4.17-.65h1.4c.6 0 1.11-.16 1.11-.85s-.49-.9-1.07-1c-.83-.07-1.65-.1-2.48-.19s-1.9.29-2-.2c-.13-.67.86-1.2 1.49-1.67 3.54-2.59 5.34-.82 5.49-2.17.06-.55-.35-.74-.77-.89a2.7 2.7 0 0 0-1.46-.19 8.67 8.67 0 0 0-5.74 3.08c-1.11 1.49-2.22 2.49-4.19 2.08-.89-.13-1.22 1.4.02 1.6M61.08 90.71c-1.85.64-1.06 1.89-.28 1.75a5.1 5.1 0 0 0 1.2-.36c1.12-.51.94.46 2.17 2.75a1 1 0 0 0 1.33.57c.63-.29.58-.83.34-1.36-.32-.73-.65-1.46-1-2.16-.26-.5-.19-.77.34-1s.57.22.7.52A9.27 9.27 0 0 0 69 95.35a2.83 2.83 0 0 0 3.07.49c2.52-1.29.88-6.36-.4-8.9-.47-.92-1.07-1.09-1.94-.5a52 52 0 0 1-5 2.75c-.61.3-1.09.47-1.46-.3a.66.66 0 0 0-1.22.39c.2.86-.28 1.2-.97 1.43m8.71-2.25c.42-.25.63-.09.75.29a11.1 11.1 0 0 1 .92 4c-.1.41.29 1.17-.36 1.42s-1.09-.31-1.55-.7a8.9 8.9 0 0 1-2.14-3.06c-.41-.8.2-.65 2.38-1.95M156.29 62.37c-6.23 0-5.17 7.77-.28 7.77 2.09 0 4.2-1.79 4.19-3.56-.02-2.72-1.41-4.22-3.91-4.21M134.19 61.55a2.92 2.92 0 0 0 2.87-2.85c.07-3.13-4-4.08-5.63-2-.19.57-.38 1.14-.56 1.71a3.34 3.34 0 0 0 3.32 3.14M159.21 87.62c2.13.18 2.14 1.16 2.74 1.89a1.74 1.74 0 0 0 1.9.19c-2-2.09-2.08-2.65-2.52-3.81-.05.03-2.08 1.7-2.12 1.73"/></g><g fill="#bfe6c8"><path d="M150.27 33h.5c.29-.42.78-.28 1.24-.18a15.14 15.14 0 0 1 8 4.68c6.76 6.79 4.5 11.43 8.53 11.54.19 0 .38.07.58.09 8.71 1.1 8.89 1 9.68 1.8.46.48.53.92-.23 1.19-4 1.43-7 1.2-11.07.42-.66-.13-.79.06-.77.66.44.77 0 7 1.62 13.34 1.42 5.5 4.39 5.75 4.12 6.42 0 .1-.12.12-.22.13h.05c2 .68.95 2.34.83 5.29a12.5 12.5 0 0 0 1.47-5.79c0-.16 0-.33.17-.5a2.78 2.78 0 0 1 .87 2.55 9.3 9.3 0 0 1-1.83 5.59c1.81 2 7.66 1.21 9.65-2a11.76 11.76 0 0 0 .75-11.35c-1.65-3.79.19-5.31 1.59-12.84.32-1.66-1.19-.19-3-1.44a1.34 1.34 0 0 1-.52-1.59 1.22 1.22 0 0 1 1.2-.88c.69 0 1.39-.14 2.08-.16s.87-.19.87-.81c0-9.23-6.31-10.46-13.53-15.56-6.92-4.89-10.14-6.33-16.53-6.4a8.86 8.86 0 0 0-5.79 3.3c-.15.17-.21.45-.48.48-1.67.21.07 1.87.17 2.02m26.12 38.54c-.29.33-.59-.07-.84-.22a4.9 4.9 0 0 1-1.35-1.3 32.4 32.4 0 0 1-4.53-9.22c-.14-.34-.16-.89.27-1 .88-.25.56 1.36 6.22 11 .14.2.46.53.23.77Zm4.21 4.26a.38.38 0 0 1 .28.46 8.23 8.23 0 0 1-2.68 4.64 1.3 1.3 0 0 1-.34.16c-.32-.1-.25-.29-.18-.54a12.5 12.5 0 0 1 1.23-2.48c1.01-1.76 1.16-2.41 1.69-2.21ZM107.67 176.24c-2.93-.34-1.32-.36-1.84.3a5.1 5.1 0 0 1-1.65 1.06c-.26 0-.38-.1-.29-.38.58-1.78 2.1-1.18-.14-1.55a52.8 52.8 0 0 1-11-2.64 21 21 0 0 0-2.16 1.58c-4 3.78-11.39 7.46-17 8.53 4.35 2.05 10.2 3.53 14.89 4.87a.75.75 0 0 0 .74-.14 10 10 0 0 1 2.38-1.21 75 75 0 0 0 16.55-10.18.7.7 0 0 0-.48-.24m-26.41 6.45c-.66.23-1.19.79-2.05.83a2.49 2.49 0 0 1 1.72-1.6.48.48 0 0 1 .65.29c.11.27-.06.39-.32.48m8.45 3.12c-.27 0-.49-.12-.44-.21.25-.4.41-.93 1-.94a.51.51 0 0 1 .59.52c-.05.82-.86.25-1.15.63m9.05-5.2c-2.62 2-7.58 3.33-10.22 3.44-.91-.19-2 0-2.84-.76a1.31 1.31 0 0 1-.31-2c2.1-3.09 5.24-3.68 7.06-4.94 1.67-1.15 3.3-.9 5-.68a2.3 2.3 0 0 1 .38.09c1.17.33 2.22.87 2.48 2.17s-.67 2.07-1.55 2.68"/><path d="M90.06 191.06c-.23-.37.4-.61.71-.81q6-3.84 12.38-7.2c2.3-1.23 3.09-.85 5.19-2.22-.06-1 0-2 0-3a15 15 0 0 0-1.39 1.27c-1.58 1.63-3.65 2.64-5.54 3.87a49.4 49.4 0 0 1-12.86 5.94 6.74 6.74 0 0 1-3.34-.15 45.5 45.5 0 0 1-12-4.42 2 2 0 0 0-.34-.11v3.31a144 144 0 0 1 16.43 5.13 1.3 1.3 0 0 0 1.28-.23c15.7-9.93 18.25-8.45 18-10.08-.05-.3-.09-.59-.12-.89-5.52 3.58-11.56 6.14-17.26 9.34-.39.19-.83.74-1.14.25m-5.54-.88c-5.28-1.27-4.93-1.17-6.06-1.68-.28-.12-.57-.35-.38-.69s.46 0 .67.07c2.4 1.06 6.29 1.21 7.06 2.24a2.14 2.14 0 0 1-1.29.06"/><path d="M98.41 177.76a4.2 4.2 0 0 0-3.38-.88 25.3 25.3 0 0 0-7.86 3.92c-.56.39-1.52.81-1.26 1.57.89 2.63 14.91-2.97 12.5-4.61M134.08 36c-5.49 5.6-7.83 8.38-11.39 9.73 1.53.43 3 .08 4.52.08a1.69 1.69 0 0 1-1.38 1 9.73 9.73 0 0 1-5.2-.18 6.7 6.7 0 0 0-.14 3.61c.62-.1 4.71 1.29 8.53-1.67.29-.22.63-.54.95-.23s.05.75-.22 1a8.37 8.37 0 0 1-9 2 8.37 8.37 0 0 0 2.54 3.78 29 29 0 0 0 4-1.5c.24-.14.5-.45.78-.09s0 .65-.24.85a5.65 5.65 0 0 1-3 1.37c1.79.35 4.23 0 5.18-1.48 3.35-5.32 3.61-8.74 7.22-13.84l.95-1.69c-.12-.28-.77-.46-4.1-2.74M28.08 28.56c-.44.3-.69.7-.41 1.19s.74.38 1.14.18c2.06-1.06 2.36-1.54 2.68-1s-.16.47-1.88 1.8c-.58.46-.09 1.2.57 1a1.6 1.6 0 0 0 .64-.26c1.45-1.1 2.66-1.15 3.61.65a1.06 1.06 0 0 0 1.88-.75 13.5 13.5 0 0 0-.13-2.37c-.07-.3-.16-.63.13-.83a10 10 0 0 1 1.88-1.11c.59-.22.86.52 1.32.75s1.08.93 1.8.45a1.37 1.37 0 0 0 .42-1.78c-.34-1-.41-1.83.81-2.23.09 0 .16-.11.23-.18.41-.35.73-.76.43-1.29-.47-.83-1.49-.13-1.78-.05s-.47.45-.67.12c-.47-.82 3.07-1.57 2.28-2.9a.8.8 0 0 0-1.14-.25c-.38.19-.78.36-1.15.58-.59.34-1 .3-1.18-.43-.36-1.13-.81-2.24-1.22-3.37-.23-.64-.48-1.39-1.33-1.12-1.35.44-.32 1.86.89 5.43.13.39.57.93-.08 1.2s-1.13 1.31-2.08.52a2.1 2.1 0 0 0-1.46-.66c-.92 0-1.38.58-1 1.62s0 1.68-.94 2.19a.81.81 0 0 1-1.25-.24c-.85-1.11-1.77-2.15-2.65-3.23-.31-.38-.69-.73-1.18-.38s-.28.86 0 1.25c2.74 4.41 3.56 3.67.82 5.5m10.6-4.82c.5-.22.61.74-.14.83a.33.33 0 0 1-.38-.35c-.01-.33.3-.39.52-.48m-3 2.08a.62.62 0 0 1 .66-.49c.21 0 .31.19.41.33-.37.79-1.26.76-1.11.16Zm-2 1.17c.34-.16.38.18.42.38.09.45-.35.47-.55.65-.33 0-.5-.15-.52-.39-.09-.42.29-.52.58-.63ZM136.31 33.87c.23.15 2 1.12 3.82 2.21a1.26 1.26 0 0 0 1.6-.08 12.57 12.57 0 0 1 6.77-2.81c1.31-.06 1-1.1.12-2.1a3.9 3.9 0 0 0-2.74-1 14 14 0 0 0-1.69 0c-.47.32-3.93.51-7.88 3.78"/></g><g fill="#444330"><path d="M167.34 167.41c-1.07-.54-1.06-.53-.23-1.4 1-1.08 2.23-2.11 2.46-3.67a13.8 13.8 0 0 1 2-5.16c2.86-4.8 2.49-5.79 1.58-10.37-.08-.43-.75-1.13-.74-1.37.09-3.19-1.36-6.76 3-14a70.7 70.7 0 0 0 6.41-12.7 12.33 12.33 0 0 0-2.52-13.24c-5.4-6-14.12-16.69-16.13-19.49a1.7 1.7 0 0 1 0-2.32c.35-.44.92-.56 1.26-1 .57-.62 1-.43 1.69-.08a5.16 5.16 0 0 0 6.68-1.13 9.68 9.68 0 0 0 2.84-6.81c0-2-1-3.34-1-2.06-.17 2.88-.77 5.51-2.83 7.55-1.65 1.64-3.06 1.94-5.12.88-.91-.47-1.71-1.09-2.54.08-.08.11-.31.11-.45.18a19 19 0 0 1-11.22 1.79c-8.42-1.18-12.64-4.08-18.91-9.68a15.7 15.7 0 0 1-3.33-5.66c-1.16-3.83-.15-7.29 1.19-11.08 3.05-8.91 6.38-12.5 8.08-17.67.13-.4.39-.9-.13-1.14s-.65.08-2 2.57a75 75 0 0 0-4 7.86c-.43 1-.83 2.07-1.21 3.14-2.19 6.16-4.19 10.3-2.78 16.63.1.46.11.69-.34.59-.6-.13-1.77-.6-3.79-1-5.53-1.23-8.13.2-11.78 3.15-6.34 5.13-11.76 15.89-13.38 19.35-.48 1-1 2-1.52 3.26A39 39 0 0 0 95.62 87c-.37-.66-.62-1.39-.93-2.09-1-2.13 1.35-2.31.39-6.26a64.7 64.7 0 0 0-6.73-16.32c-.22-.39-.54-.7-.94-.28C86.5 63 86.46 61 84 60c-5.55-2.28-11.43-2.06-17.23-2.34-1.1 0-3.51.06-3.22 1.11.13.48.41 0 .63 0a5.3 5.3 0 0 0 .8 0c3.22-.17 6.43.48 9.65.19 2.6-.23 4.56.79 9.54 2.44 1 .34 1.27 1.48 2 2.14.25.25-2.74 4.94-6.68 7.71-.26.17-.63.7-1 .15-.26-.39-.73-.89.07-1.28a.35.35 0 0 0 .23-.4c-.07-.2-.26-.16-.42-.17a10.3 10.3 0 0 0-2.48.1c-.75.15-1.54.54-2.24.28a1.41 1.41 0 0 0-1.67.47c-1.48 1.43-3 2.86-4.4 4.34-1.25 1.31-1.2 1.31-2.58.14s.15-2.09 4.11-6.73a.6.6 0 0 0 .08-.81c-.22-.29-.45 0-.7 0a4.8 4.8 0 0 1-3.08.17c-1.14-.44-1.36.2-1.75.72-4.93 6.77-4.52 7.12-5.81 6.77a6 6 0 0 1-2.63-1.33c-.22-.18-.39-.46-.72-.09s-.1.54.12.75a6 6 0 0 0 .9.77 1 1 0 0 1 .5 1.14c-.22 1.87 1.87 4.08 3.75 4.1s3.11-1 4.48-1.93c.65-.44 1.09-1.41 2.17-.93.23.1.4-.21.55-.37 1.72-1.81 3.64-3.41 5.44-5.13s1.93-.52 3.77-1.13c.63-.2.86 0 1.07.58s.27.75-.37.77a.23.23 0 0 0-.18.3 8 8 0 0 1-.07 2.54c.05 4.76.6 13.8 1.5 21.85.55 5 1.66 9.88 2.42 14.82.65 4.25-.42.14 4.76 17.5a15.3 15.3 0 0 0 3.85 6.19 4.06 4.06 0 0 0 5.26.93 66.4 66.4 0 0 0 8.94-5.19 70 70 0 0 1 5.47-3.71c1 6.47 2.77 13.06 2.85 17.81a13.1 13.1 0 0 0 1.85 5.44c-10-1.57-24.72-4.11-42.51-4.14-1.68 0 .66-1-.07-4.51-.33-1.63.66-2.55.51-4.17-.18-2-.26-4-.41-6a24 24 0 0 1-.25-5.16c.25-1.71-.48-3.33.06-5.15a8.6 8.6 0 0 0-.17-5.3.46.46 0 0 1 .13-.6 1.94 1.94 0 0 0 .4-2.47c-1-1.83.78-3.9-.64-5.39a4.6 4.6 0 0 0-2.9-1.41 14.1 14.1 0 0 0-5.13.47c-.75.2-1.45.61-2.27.17-.31-.16-.71 0-1.06.16a3.28 3.28 0 0 0-1.52 4.35 25 25 0 0 1 1 5.93c.21 1.29-.07 3.84.08 5.45.57 6.16-1.88 10.68-.44 15.9.66 2.35.17 4.83.46 7.23.07.61-.4.57-.8.59l-6 .37c-1.09 0-1.47-.46-1.07-1.51a1.8 1.8 0 0 0 .14-1.15c-.52-2.07.67-4.8-.19-12.71-.56-5.35 0-4.43-.25-7.71 0-.52-.39-1.11.14-1.72a4 4 0 0 0 .56-4.73c-.89-1.75.43-3.3.3-5.64a1.43 1.43 0 0 1 .48-1.3 1.6 1.6 0 0 0 .39-2.08c-.59-1.12.07-4.68.1-7.4 0-1.53-.07-1.89-1.42-2.62s-3-.82-4.56-1.2a8.68 8.68 0 0 0-5.89.94c-.39.19-.93.51-.79.93.32 1-.39 1.69-.52 2.53-.19 1.19.64 2.39 0 3.58 0 .06.11.24.19.33.75.77.24 1.47.06 1.9-.95 2-.21 4.37-.41 8.29-.58 11.15.79 14.46-1.26 17.06a2 2 0 0 0-.1 2.1 3.6 3.6 0 0 1 .16 2.23c-.61 3.12.71 2.68.4 4.25a18 18 0 0 0 0 3.19 1.73 1.73 0 0 0 .48 1.56c.72.55 0 1.09 0 1.62s-.15.26-6.14 1c-1.74.21-1.74.23-1.81-1.55 0-.87-.71-5.23 0-8.84.35-2-2-7.59-2.21-13.52-.11-2.36-.34-4.74-.48-7.12-.13-2.09.77-4 .33-6.17-.38-1.78-1.66-2.79-3.37-2.11-.86.34-3-1-7-.12a4.3 4.3 0 0 0-2.88 2c-.22.35-.46.75-.29 1.12.4.9.25 1.9.56 2.8a1.08 1.08 0 0 1-.07.84 2.24 2.24 0 0 0 .46 2.73.73.73 0 0 1 .23.71c-.58 4.83 1.1 6.42.95 7-.39 1.53 0 3 .11 4.55.11 2.25.07 4.51.19 6.77.1 1.74-.19 3.54.6 5.2 1 2.1-.45 3.15 1.29 6 .65 1.08.35 1.53-.85 1.74-4.83.8-11 2.45-12.9 2.91-.74.18-.58.75-.52 1.2.11.87.13 0 13.1-2.44.38-.07 1.05-.36 1 .47-.08 1.26.13 2.52.1 3.78-.22 8.49.78 9.54 3.48 9.62a16.1 16.1 0 0 0 7.52-2 1.35 1.35 0 0 0 .6-1.89c-.19-.5-.4-1 0-1.5a1.12 1.12 0 0 0 0-1.47 2 2 0 0 1-.38-1.48 33 33 0 0 0 .43-6.36c-.08-1.52.59-.9 6.84-1.76.84-.11 1.07.15 1.11 1a4.9 4.9 0 0 1-.2 1.95c-.36.89-.1 1.63.33 4 .5 2.82.18 3.74.27 7.31 0 1.13.37 2.4.32 3.61a3.06 3.06 0 0 0 3 3.4 18.6 18.6 0 0 0 5.89-.8 2.58 2.58 0 0 0 2.06-2.3 8.9 8.9 0 0 0 0-2.47 4.76 4.76 0 0 1 .35-3.29 2 2 0 0 0 .1-2 3.4 3.4 0 0 1-.29-2.55c1-8.44-.14-8.87.91-8.91 7.74-.36 7.39-.56 7.5.09a28.5 28.5 0 0 0 .61 4.27c.26.8.13 1.77.43 2.62a2 2 0 0 1-.15 1.89 1 1 0 0 0 0 1.28c1.24 1.25-1.16 2.71 1.51 3.65s5.69 1.71 8.26.82c.83-.28 1.65-.71 1.75-1.71.28-3.06.26-3.2-.65-12.49 0-.58 0-.85.7-.84 19 .11 41 3.41 59.61 8 1.19.3.46.37 2.39 10.87.2 1.1.36 2-.78 2.72s-1 1.31.06 2.08c3.1 2.25 3.51 3.5 8.19 6.67 2.44 1.65 5.21 1.83 8 1.69 1.49-.07 2.56-1.2 3.7-2 9.41-6.87 11-9.46 12.11-9.85.41-.14.76 0 1.4.32A181.5 181.5 0 0 1 192.11 185a3.21 3.21 0 0 0 2.89.36c-.74-.82-12.86-10.53-27.66-17.95M63.27 71.21c.9-2.41 1.3-2.69 4.3-3-.88 1-1.66 2-2.56 2.83-.44.42-1.12 0-1.75.17Zm-6.42 5.41c-.15-.51-.09-.85.51-.62a2.37 2.37 0 0 0 3.33-1.34c.3-.58.83-1 1.15-1.61.54-1 1.38-1.12 2.5-1.07a3.35 3.35 0 0 0-.48 2.94.5.5 0 0 1-.18.6 15.7 15.7 0 0 1-3.76 2.56 2.25 2.25 0 0 1-3.07-1.46m7.76.49c-1 .55-3.31 2.7-5.37 2.34a10 10 0 0 0 4.84-2.93c.18-.18.29-.61.68-.39a.75.75 0 0 1 .4.42c.09.45-.33.45-.55.56M19.1 110.58a13.1 13.1 0 0 1 3.75-.22h3c.46 0 .91.16 1 .62s-.36.59-.66.75a11.93 11.93 0 0 1-8.79.57c-1.15-.3.44-1.47 1.7-1.72m-3.1 3.24c0-.93 1 .1 6.14-.09a12 12 0 0 0 4.69-.91c.63-.29.84 0 .87.56.07 1.51-1.84 2.06-3.36 2.17-4.61.31-5.46-.4-7.82-.66-.76-.08-.52-.67-.52-1.07m13.7 46.72a11.1 11.1 0 0 1-4.77.8c-1.9 0-2.31-.1-2.31.35s.32.29.54.3a14.7 14.7 0 0 0 5.43-.3c.63-.21.81 0 .94.55.41 1.73.53 2.15-3 2.63-.22 0-.64 0-.59-.22.33-1.26-.68-.65-1.07-.71a2.45 2.45 0 0 0-1.46.2c.38.55 1 .26 1.4.49 0 .28-.2.32-.36.37a3.44 3.44 0 0 1-3.95-2.33 31 31 0 0 1-.34-4.07c-.05-.68.14-.89.84-.73a17 17 0 0 0 3.83.38 2.9 2.9 0 0 0 2-.49c.16-.13.33-.31.22-.51s-.33-.06-.52 0c-2 .61-4.06.24-6 0-.53-.07-.63-.49-.51-1 .4-2.15-.26-4.33.84-6.37.29-.54-.12-1-.6-1.2a1.18 1.18 0 0 1-.67-1.4 4 4 0 0 0 .06-1c0-1.47 0-1.45 1.49-1.31.73.06 1.46 0 2.19 0 .25 0 .6 0 .61-.35s-.62-.43-2.27-.63c-3.11-.4-3-.56-2.92-2.5.1-2.57-.33-5.1-.48-7.65-.15-2.83-.44-3.11 0-3.36s2.85.34 5-.1a5 5 0 0 0 .57-.19c-.46-.41-.89-.14-1.26-.16-1.37 0-2.72-.08-4.08-.07a.72.72 0 0 1-.8-.58 3.46 3.46 0 0 1 .08-2.53c.77-1.8-1-1-.85-3.55 0 0 .17-2.57.2-3.28s.31-.65.78-.46a5.6 5.6 0 0 0 1.95.38c.22 0 .52 0 .54-.31.07-.62-.8-.1-3.3-1a1.77 1.77 0 0 1-.95-2.34c.44-.88 1.12 1.28 8.21-.25 1-.2 2.51-.55 2.63-.54.37 0 .22.35.41 2.52s.62 5.08.76 7.18c.5 6.3.8 6.52.56 7-.45.87-3.58.55-5.2 1.09v.26a11.2 11.2 0 0 0 4.77-.4c.82-.25.84.08 1 .73.54 2.53.37 2.8-2.24 3.32a31 31 0 0 1-7.65.25 1.76 1.76 0 0 0 1.46.58A17.4 17.4 0 0 0 29 137c.54-.23.85 0 .81.55-.19 4.12.71 8.21.24 12.33v.1c-.07 2-.5 2.44-2.43 3a19.6 19.6 0 0 1-4.54.54c-.36 0-.75-.12-1.05.41a8.8 8.8 0 0 0 3.23.11 8.1 8.1 0 0 0 4.35-1.36s.32-.26.41-.07c.35.62.1 1.07-.54 1.39-.86.42-1.58.32-1.46.9s.9.22 1.38.29c1.08.18-.13 2.21.82 4.41.29.52-.09.73-.52.94m11.68-61.49c3.3-1 6.42-1.25 9.37.57.22.14.49.24.57.66a18.2 18.2 0 0 1-5.94.52 11.1 11.1 0 0 1-4.22-1.19.29.29 0 0 1-.14-.29c-.02-.18.21-.23.36-.27M50 144.87c-.64.7-1.63.67-1.69 1.63.69.23 1.18-.33 1.89-.41a82 82 0 0 1-.12 11.44c-.07.86-1.13 1-.79 2 .24.75 0 1-.74 1a19.9 19.9 0 0 1-6.3-.08 2.25 2.25 0 0 0 1.6.78 22 22 0 0 0 5.08-.29c1.7-.4-.49 1.1.65 5.43.36 1.25-1 3-2.41 3.43-1.67.45-3.29 0-4.93-.18-.34 0-.66-.13-1-.19-1.14-.25-1.36-.68-1-1.75.06-.22.22-1.07.24-1.17 1 .14 2 .68 3.06-.16-1.19-.19-3.48.16-3.45-1.5.11-6.45-.37-6.76.67-6.44a15.8 15.8 0 0 0 5 .23 1.62 1.62 0 0 0 1.23-.55c-1.55.15-3.26 0-4.67 0a6.3 6.3 0 0 1-1.76-.32c-.61-.18-1-.49-1-1.25.12-1.53-1.37-2.25-.51-4 2-4.15 0-5.61 1.43-5.25a3 3 0 0 0 1.69-.08c.25-.08.59-.16.57-.43s-.37-.16-1.67-.28a2 2 0 0 1-2-2.33c.12-1.06 0-2.12 0-3.18a1.46 1.46 0 0 0-.18-.87c-1-1.21-.45-2.46-.17-3.7a1.6 1.6 0 0 1 .13-.38c.22-.48-.17-1.23.3-1.45s1 .15 1.52.23a16.3 16.3 0 0 0 6.58-.45c-1.35-.44-4.71.66-7.76-.22-1.79-.49.3-1.39 0-7.85 0-.63.31-.49.69-.35 1.57.61 3.05.14 4.71-.2-1-.3-2 .13-3.07 0h-.7c-2-.2-1.87-.84-1.61-7.54.17-5.18-.19-.6 6.89-1.81a1.08 1.08 0 0 0-.68-.22h-.58a14.2 14.2 0 0 1-4.24-.6 1.3 1.3 0 0 1-1-1.8c1.22-4.34-.22-8.18.33-10.72.13-.63.1-1.35.22-2 .25-1.3.75-.27 4.22.36a24.3 24.3 0 0 0 5.84 0c1-.09 1.21-.13 1.21.56a49 49 0 0 0 .1 6.74c.25 1.68-5.05 1.2-5 2.24 0 .52.59.46 1 .46 2.62 0 3.17-.52 3 .22-.06.34.3 1-.47 1-2.71 0-5.79 1-8.72-.16-.06 0-.17.06-.36.14 1.24 1 3.14 1 4.72.91 5.49-.24 5.27-1.54 4.41 2-.38 1.48-.16.37 0 2.22.05 1-.16 2-.08 3 .15 1.53-.83 1.31-3.14 2.16-.34.12-1 .14-.84.61s.71.09 1.07 0c.67-.16 2.09-.63 2.19-.67.1 1.45.29 2.83.27 4.21-.06 4.12.15 8.23 0 12.36.13 2.24 1.22 4.25.13 5.47M59.19 109a.87.87 0 0 1 .7-.65c2.56-.35 5-.83 7.52-.39.68.12 1.63.39 1.67 1s-1 .67-1.57.87c-2 .71-5.72.84-7.69-.22-.26-.11-.72-.2-.63-.61m-.52 2.77a1.55 1.55 0 0 1 0-.8c.3-.56 1.22.4 4.41.4a37 37 0 0 0 6.53-.87c.31 0 .76-.29.73.28 0 .37.4.95-.37 1.13-.44 0-3.48 1.17-5.7 1.35-1.15.09-1 0-1.93 0-1.34.12-3.44-.2-3.67-1.51Zm8.62 50.75a29 29 0 0 1-3.75 0c-.26 0-.53 0-.79-.1a1.66 1.66 0 0 1-1.16-2.65c.15-.28.37-.24.6-.19a14.5 14.5 0 0 0 5.62-.17c.28 0 .73 0 .65-.39s-.49-.28-.78-.26c-3 .19-3.15.38-4.5.24a7.4 7.4 0 0 1-2.46-.63.69.69 0 0 1-.13-.87c.82-2.18-1.19-4.71.92-4.28.32.07.74 0 .8-.4s-.38-.47-.69-.54c-1.56-.37-1.79-.57-1.64-2.11a20.2 20.2 0 0 0-.59-5.28c-.45-2.74.09-4.34-.52-9-.3-2.15 1.74 1 9.4-.67.33-.07.73-.1.94-.59-3.56.44-6.29 1-9.46.1-.66-.18-1-.52-.89-1.28s0-1.61.33-2.13 1.24.08 1.9.09a7.9 7.9 0 0 0 3.84-.46 6.7 6.7 0 0 0-2.68-.17 20 20 0 0 1-2.32-.16.64.64 0 0 1-.67-.77c.16-4.35-.12-8.7.11-13 .21-4-1.35-3.46 3-3a14.3 14.3 0 0 0 7.46-.68c.39-.13.61-.14.66.37.18 1.69.34 1.72-1.2 2.32a9.7 9.7 0 0 1-2.19.66c-.26 0-.72.06-.66.45s.54.29.83.25a5.4 5.4 0 0 0 1.79-.59c.45-.25.66-.09.73.39.57 3.79.87 4.47.23 5.15-1 1.1 0 1.86.17 2.83.28 1.26-.2 2-1.45 2.13-5.16.66-5.08.46-4.69.63a3 3 0 0 0 1.87.24c3.63-.34 4-1 4 .38 0 .24.07 9.74.32 10.35.6 1.4.17 1.83-1.4 2.31-2.23.68-3.61.46-3.5 1.18.08.48.73.3 1.12.27a7.5 7.5 0 0 0 2.44-.42c1.41-.59.71.82.92 1.63.24 1 .3 1.87-.76 2.48a.67.67 0 0 0-.15 1c.92 1.27.77 2.2 1.47 6.25a.83.83 0 0 1-.72 1.13c-1 .24-4.83 1-5.69.51-.19-.11-.42-.33-.56 0s.15.41.35.53a3.06 3.06 0 0 0 1.94.27c4.25-.37 4.75-1.6 4.76-.26s.15 2.39.12 3.58a3.11 3.11 0 0 1-3.29 3.31ZM138.9 80c1.38.45 2.54 1 2.84 2.65a33 33 0 0 0 .93 3.65c.18.6.4 1.27 1.24 1.46a40 40 0 0 0-1-5.81c6.09 1.64 12.09 2.75 18.38 1.59a1.09 1.09 0 0 1-.41.92c-5.06 4-8.27 7.39-14.63 7.54-2.79.08-5-.78-6.26-3.91A24.3 24.3 0 0 1 138.9 80m-60.31 7.3c-.18-2.22-.84-11.22-1-13.5 0-.43.11-.41.37-.49 6.39-2 8.76-8.78 9.11-9s.67-.82 1.09 0A81 81 0 0 1 93.58 78a1.27 1.27 0 0 1-.31 1.12 24.66 24.66 0 0 1-14 8.77c-.43.11-.68-.03-.68-.59m54.25 67.55c-.72-6.43-.67-4.91-1.29-11.54l1 .83a4.84 4.84 0 0 0 4.8.69c4.33-1.47 6.73-5.05 7.7-5.74.6-.43 1-.14 2.3.68a4.33 4.33 0 0 1 2.32 4.82c-.83 4.91-.71 6.11-1.11 6.43-2.67 2.1-5.23 4.39-8.63 5.33a10.27 10.27 0 0 1-6.66-.79c-.4-.16-.4-.41-.43-.71m10.95-48.29a5.74 5.74 0 0 1-6.13-3.94 4.62 4.62 0 0 1 2-4.3c1.23-.82 2.42-.75 3.87.25a7.8 7.8 0 0 1 2.51 3c-2.07 0-3.29-1.92-4.23-.07a6.8 6.8 0 0 0-.68 2.27c-.27 1.84 1.5 2.33 2.66 2.79m1.59 1c-1.21 1.31-2.57 1.13-4 .67-2.22-.72-3.88-2.35-4-4 1.93 3 4.62 4.02 8 3.37Zm1.76 1a2.37 2.37 0 0 1 2 2.19 24 24 0 0 0 1 3.41 28.5 28.5 0 0 0-5.22-3 1.77 1.77 0 0 1-1-1c-.63-1.22.77-.6 1.54-1.4.54-.47 1.04-.3 1.68-.13Zm-.36-1.24c.08-.25.32-.17.5-.13a2.4 2.4 0 0 1 .48.1c.36.17 1 .2.8.75s-.58-.14-.9-.17a1.6 1.6 0 0 1-.46-.16c-.2-.01-.53.03-.42-.32Zm-2.41 5.3c3.82 1.81 5.39 3.31 7.75 4.67a.45.45 0 0 0 .55-.7c-1.66-1-1.54-2.64-1.83-4.2a44 44 0 0 0-1.34-4.58c-.57-1.84-2.71-1.78-5.71-2.66a2.08 2.08 0 0 1-1.09-3.48c.24-.34.36-.22 1.91.3a19.4 19.4 0 0 0 4 1.08 5.5 5.5 0 0 0 1.39.11c1.13-.19 1.68.34 2 1.34s.94 2.2 1.36 3.31a42 42 0 0 0 3.51 7.59c2.92 4.65-6.24 10.81-12 19.49a8.9 8.9 0 0 0-1.53 3.21 1.33 1.33 0 0 1-.37.69c-2.2 1.88-4.88 4.42-7.73 4.64s-2-3.32-1.95-6.09c0-3.26 1.08-6.33 1.82-9.45 0-.23.07-.47.14-.69.13-.45.14-.93-.28-1.17s-.47.51-.85.57c-.32-.23-.1-1-.7-.81s-.28.71-.15 1c.84 1.51-.24 2.78-.39 4.18-.73-1-.84-3.2-1.58-4.35a1.32 1.32 0 0 1-.13-1.23c2.48-6.43 3.83-5.49 3.88-7.72 0-.65.32-.89.94-.82.86.09 1.72.13 2.58.23a2.55 2.55 0 0 0 2.63-1.22 14.8 14.8 0 0 0 1.66-2.71c.4-.78.8-.79 1.51-.46Zm20.48 53a166 166 0 0 1-14.5 12.48c-.76.6-1.72.8-2.45 1.44-.17.15-.3 0-1-.17-6.9-1.86-9.6-6.39-14-8.7 2-.89 1.89-2.3 1.61-4.2-.5-3.15-1.42-9.61-1.43-9.69a1 1 0 0 1 0-.53c6.37 3.24 11-.7 15.54-4.51.77 2.75 4.57 3.47 4.18 7.31-.1 1-.05 2.12-.05 3.19 0 .41.08.9.57.92s.66-.5.67-.92v-4.06c.47.59 2.7 3.46 3.28 3 .26-.22.07-.62-.08-.92a6.52 6.52 0 0 0-2.58-3.08c-1-.45-1-1.09-1.31-1.75a9.4 9.4 0 0 0-2.11-2.5c-1.63-1.57-.58-2.2 0-8.71a5.16 5.16 0 0 0-2.39-5.18c-1.42-.94-3.18-1.28-3.1-3a2.34 2.34 0 0 1 .46-1.23c2.65-3.57 6.87-8 10.58-13.24 1.86-2.61 2.32-5.34.56-8.27s-1.6-4.19-4.66-10.46a1.49 1.49 0 0 0-1.78-.88 9.8 9.8 0 0 1-3.37-.09c-.49-.09-.58-.28-.7-.73-1.64-6.19-9.45-6.64-10.45 1.66-.34 3.5 2.26 5.45 5.53 6.37a1.14 1.14 0 0 1 .68 1.92c-.38.5-.94 2-1.45 2.94-1 1.82-1.21 1.91-3.22 1.56a10.4 10.4 0 0 0-2.78-.16 1.25 1.25 0 0 0-1.29 1.44 3.1 3.1 0 0 1-.8 2.16 53 53 0 0 0-3.44 5.69 1.16 1.16 0 0 0 0 1.06c1.14 2.93 1.33 5.62 2.16 6.36.38.33.29.8.25 1.22a57 57 0 0 0-.57 7c0 1.15-1.12 0-1 2.23.39 7 .76 9.29 1 11.12.12 1-.33.73-1.77.37-12.6-3.16-13.12-2.28-13.9-3.49-2.88-4.45-2.48-7.34-3.1-10.35-1.63-7.89-2.33-3.55-3.1-26.3a55.8 55.8 0 0 1 1.51-13.43c0-.4.08-.85-.47-.94s-.6.33-.7.68c-2.65 8.75-2.22 12.58-.93 24.64 0 .43 0 .7-.3.89a.8.8 0 0 1-.21.11c-1.48.56-2.74 3-7.7 5.77-2.06 1.15-2.15 1-7 3.1a3.66 3.66 0 0 1-4.22-.73 13.6 13.6 0 0 1-4.39-7.59c-.62-2.82-2.62-11.07-2.94-13.4a240 240 0 0 1-3.52-23.91c0-.45-.14-.68.42-.75 5.8-.75 11.89-5.12 14.61-8.93a2.39 2.39 0 0 1 0 2.45c-1.62 3.64 1.47 6 3.14 11.87l3.12 10.59c1.61 5.6.64 9.53-1.8 14.85a2.13 2.13 0 0 0 1.23-1c5.31-7.37 1.81-14.21-.28-22.08a3.78 3.78 0 0 1 .69-3c2.82-5.73 6.41-11 9.68-16.49 1.93-3.23 4.89-5 7.88-6.86 3.32-2.06 7.4-.45 12.2.7a.91.91 0 0 1 .76.56c1.21 3.3 4.08 5.17 6.47 7.44a1.87 1.87 0 0 1 .67 1.6 23.4 23.4 0 0 0 .75 8c1.27 3.94 4.41 5.76 8.7 5.29 9.15-1 13.81-8.5 14.28-7.56a8.67 8.67 0 0 0 2.52 3.8c3 3.2 2.32 3.12 14.51 15.86 3.95 4.09 4.37 9.06 1.71 14-2 3.75-4.07 7.47-6.37 11-4.89 7.6-2.71 12.34-2.76 16 0 .49.66.17.75.72.24 1.6.76 3.17.9 4.77.28 2.22-3.4 6.55-3.89 8.18-.56 2.39-2.03 3.86-3.71 5.55Z"/><path d="M110.71 176c-.14-.07-.32-.12-.22-.35.3-.82-.39-1-.87-1.18-3.11-1.34-10.68-.71-15.86-3a.75.75 0 0 0-.91.16 9 9 0 0 1-1.55 1.17 84 84 0 0 1-15.8 8.88c-2.84 1.28-3.14.16-3.46 1.38a14 14 0 0 0 0 4c0 1.35.89 1.56 1.83 1.84a82 82 0 0 1 8.39 2.67c1.53.63 3.17.92 4.71 1.54a.59.59 0 0 0 .9-.46c.07-.33 0-.5-.4-.51a17.3 17.3 0 0 1-5.69-1.6c-2.69-1-5.47-1.74-8.23-2.55-.94-.28-.69 0-.69-3.87a51.9 51.9 0 0 0 12.34 4.53 6.7 6.7 0 0 0 3.35.15 49.9 49.9 0 0 0 12.85-5.8c1.89-1.23 3.95-2.24 5.54-3.88 1-1 2-1.72 3.14-2.89-.2 1.29-.63 2.32-.38 3.42.06.26-.21.4-.39.53-3.13 2.29-3.45 1.46-6.16 2.9q-6.33 3.38-12.38 7.2c-.31.2-.94.44-.71.81s.75-.07 1.08-.25c5.55-3.13 12.82-6.3 17.88-9.75a2.69 2.69 0 0 1-1.83 3.37c-5.55 2.35-11.13 4.63-16.09 8.15-.4.29-.94.59-.59.95.16.16.27 0 .4-.13 11.74-7.56 20.88-8 19-9.54-.42-.34-.31-.51-.07-.83.53-.68-.37-1.69.62-3 .67-.91.51-2 .71-3a.86.86 0 0 0-.46-1.06m-19 10.64a10 10 0 0 0-2.38 1.21.75.75 0 0 1-.74.14c-4.66-1.34-10.54-2.82-14.89-4.87a39 39 0 0 0 17-8.53 29 29 0 0 1 2.4-1.76.74.74 0 0 1 1 .13c1.28 1.14 2.9 1.24 4.43 1.48a77.4 77.4 0 0 0 10.85.88c-3.04 3.54-12.93 9.3-17.72 11.34ZM162.15 28.18c8.55 2 18.56 9 22.54 14.18a10.8 10.8 0 0 1 2.12 6c.48 7.15-3.52 14.82-2.68 18.26a57.5 57.5 0 0 1 1.43 7.17c.5 4.84-5.14 6-4.21 7.42.24.37.72.08 1.08-.06a6.83 6.83 0 0 0 4.46-7.15 27.4 27.4 0 0 0-1.26-6c-2.3-6.49 6.35-17.57.83-25.28a27.5 27.5 0 0 0-5.32-5.91c-7.88-6.07-15.78-11-25.8-11-2.18-.15-7.7.81-6.94 2.2.24.43.57.11.86 0 2.18-.77 6.48-1.36 12.89.17M73 174.22c.2-.35.53-.3.86-.34 2-.28 4-1.29 3.21-4.23a1.4 1.4 0 0 1 0-.29c-.23-1.94-1.12-2.56-3-2.15a15.7 15.7 0 0 0-5.52 2.1 4.5 4.5 0 0 1-2.16.28 3.65 3.65 0 0 1-2.24-1 9.4 9.4 0 0 0-1.53-.91 5.29 5.29 0 0 0-5.9.25 2.14 2.14 0 0 0-.53 3.46c.54.63 1.28 1.22 1.7 1.64-1.46.46-.94 2-1.53 2.8-.13.18.09.43.21.63a2.62 2.62 0 0 0 1.44 1c1.7.67 3.61.4 5.39.24a5.2 5.2 0 0 0 3.39-1.47c1-1 2.31-.72 3.55-.78 1.01-.04 2.07-.14 2.66-1.23m.68-1c0-.74.32-1.07 1-1.24a4.6 4.6 0 0 0 1.61-1c0 1.44-1.18 1.92-2.59 2.24Zm1.12-5.33a1.07 1.07 0 0 1 1.21.51 1.36 1.36 0 0 1-.31 1.75 7.2 7.2 0 0 1-1.9 1 .38.38 0 0 1-.46 0c-1.09-.93-2.48-1.14-4-1.6a19.7 19.7 0 0 1 5.48-1.66Zm-17.7 1.25c.11-.82 1.06-.7 1.7-.88 2.54-.69 4.5.52 6.3 2.07.76.65.32 1.68-.77 1.94a8.6 8.6 0 0 1-6-1.25c-.61-.46-1.33-1.02-1.21-1.88Zm-.44 1.07c2 2.32 4.76 2.76 7.55 3.16-.89 1-1.77 1-4.42.13a4.3 4.3 0 0 1-3.11-3.29Zm.41 5.61a14.75 14.75 0 0 0 7.43.65c-1.81 1.16-5.94.88-7.41-.65Zm1.45-.23c-.39-.23-1.12-.38-.78-1s.66-1.08 1.57-.71c1.54.63 3.12 1.22 4.87.6.55-.19.75.72 1.39.87-2.88 1.01-6.25.65-7.03.24Zm11.71-.59c-1.1.12-3.58.28-4.43-.45-.23-.2-.69-.42-.51-.74.49-.87 1.27 2 6.7.52a2 2 0 0 1-1.76.67m-3.91-1.8c-.34-.13-.52-.38-.18-.76.18-.22.43-.54.39-.78-.24-1.49.62-1.2 2-1.2a9.5 9.5 0 0 1 3.76.64c1 .42 1.23 1.25.13 1.84a7.2 7.2 0 0 1-6.1.27ZM81.37 161.18a2.73 2.73 0 0 0 .09-2.72c-.4-.7.05-1 .39-1.61a2.48 2.48 0 0 0 .1-2.38c2.47 1.14 5.78.65 9.49.25.1 0 .21-.07.32-.08.35 0 .8 1.16.11 1.9-.43.46-.74.44-3.6 1.21-.26.08-.55.17-.42.52s.34.21.6.14c.88-.27 1.78-.48 2.65-.75.33-.1.56-.21.62.27a7.8 7.8 0 0 1 .22 2.57 7.8 7.8 0 0 0 .19 3.43 2.46 2.46 0 0 1-1.67 2.87 21.7 21.7 0 0 1-7 .91c-.75 0-.65-.38-.7-.85s0-.71.7-.7a20.8 20.8 0 0 0 5.62-.61c.37-.1.77-.19.66-.68-.17-.75-1.2-.14-5.42.35-2.51.28-2.52-.09-2.38 1.92a1 1 0 0 0 1 1.08 18 18 0 0 1 2 .52 11.47 11.47 0 0 0 6.75-1.07 1.43 1.43 0 0 0 .88-1.15 10.4 10.4 0 0 0 .24-2.66c-.49-2.41 1.42-4.32-.19-6.45-.14-.18-.26-.3 0-.48.66-.54.39-1.29.44-2 0-.26-.09-.51.08-.77.71-1.1.66-1.3-.44-1.93-2.24-1.3-7.43-.69-10-.22-1.58.28-2.18 1.33-1.67 2.9.32 1 .7 1.92-.23 2.78-.46.39.27.13.57 3.49m2.63-8.41c2.29-.22 6.72-1.09 8.42.5a48 48 0 0 1-9.17.43c.13-.44.18-.88.75-.93M125.83 46.78c.84-.18 2.23-1.06.31-.92a10 10 0 0 1-3.45-.13c3.58-1.36 5.83-4 12.22-10.58a17.5 17.5 0 0 1 8.09-4.72c.59-.16 1.56-.23 1.39-.86s-1.16-.31-1.79-.2a15.94 15.94 0 0 0-8.31 4.41c-6.94 6.72-8.53 8.91-11.18 10.13-2.07 1-3.66 1.1-4.95-.76-.49-.71-1.43-.27-1.07.69.66 1.89 4.26 3.91 8.74 2.94"/><path d="M156.6 34.74c-3.06-1.64-8.61-2.45-8.38-.84.11.83.59-.1 3.53.59 3.49.83 6.61 2.21 8.4 5.62 4.17 7.91 2.13 13.59 3.45 24.31a17.3 17.3 0 0 0 .7 4.1 3 3 0 0 1 .29 0c0-2.45-.42-9.35-.46-17.51 0-4.16-1.41-10.19-4.08-13.42a11.5 11.5 0 0 0-3.45-2.85M19.31 175.35c.85-1.44.31-2.92.24-4.37s-.4-1.87-1.54-2.18a17 17 0 0 0-5.25-.26 3.74 3.74 0 0 0-1.89.56c-1.72 1.15.39 3-.46 5a1.08 1.08 0 0 0 .14.86c.55 1.1-.3 3.88.52 6 .09.24.18.68.5.66s.33-.46.26-.84c-.35-2.11-.19-4.29-1-6.34-.24-.54.22-.57.37-3.77a13 13 0 0 0 7.49-.48c.1 4.07.89 4.26 0 4.52-.75.23-1.53 0-2.27.25-.43.14-1.25 0-1.15.58s.84.27 1.33.19c1.92-.33 1.92-.32 2 1.56a2.6 2.6 0 0 0 .07.79c.17.48 0 .52-.44.59-1.32.2-2.71.5-3.81.69 1.39.87 2.75.1 4.13-.07.05 1.39.09 2.46-1.12 2.71-5.05 1.18-5.54-.54-5.78.16-.14.37.27.51.53.59 4.41 1.19 4.55-.55 6.68-.3.47.06.78-.37.78-.86a3.9 3.9 0 0 0-.13-1.28 2.41 2.41 0 0 1 .09-2.34c.63-.92-.6-2.21-.29-2.62m-8.23-5.44a16.1 16.1 0 0 1 7-.33 13.36 13.36 0 0 1-7 .33M40.16 174.42a6.44 6.44 0 0 0-3.94-.61c-.47.09-1 .49-1.42.16a7.5 7.5 0 0 0-3.17-1.23 4.68 4.68 0 0 0-3.77.51 2.29 2.29 0 0 0-1.29 2.62 2.55 2.55 0 0 0 1.84 2.22 7.7 7.7 0 0 0 4.95.12c1.17-.39.08.79 3.57.87 1.49-.24 3.39 0 4.07-2.25.36-1.18.28-1.89-.84-2.41m-12.53 2.26c1.62 1.11 3.39.87 5.15.66-1.78 1-3.9.95-5.15-.66m6.65-1.45c-.08.41-.48.52-.83.64a8.3 8.3 0 0 1-3.29.61 3.19 3.19 0 0 1-2.71-1c-1.42-1.31 4.41-2.65 6.21-1.19.34.25.71.48.62.94m.23 2.17a9.2 9.2 0 0 0 4.82.43 4.54 4.54 0 0 1-4.82-.43m6-1.18a1.35 1.35 0 0 1-.55.48 4.53 4.53 0 0 1-2.72.31c-.2 0-.38-.09-.58-.11-1.92-.25-1.91-.25-1.3-2 .33-.9 6.05-.32 5.12 1.32ZM53.34 70.23c.38.53.68 1.51 1.39 1.24.38-.15-.22-1.1-.48-1.64C53.2 67.6 53 67.06 56 65.45a14.2 14.2 0 0 0 .38 3.16c.31 1.07-.34 1.2-1.42 3.23-.2.38-.77.86-.26 1.21s.73-.37 1-.69a13 13 0 0 0 .87-1.21c2.37-3.55 5.18-6.83 6.79-10.86.1-.27.44-.52.18-.88-.84-.15 0 1.36-2.94 1.62-1.62.15-4.31.6-4.36 2.23s-1.41 1.79-2.62 2.58c-1.62 1.03-1.31 2.94-.28 4.39m4-6.6c.17-1 1.89-1.19 4.08-1.6-.31.59.32-.34-4.1 6.06a15.1 15.1 0 0 1 .04-4.46ZM172.51 73c.29-.68-2.7-.9-4.12-6.42-1.31-5-1.18-8.72-1.49-12.82 0-.44-.16-.81-.61-.75s-.43.63-.43 4.39a33.2 33.2 0 0 0 .56 7.91c.45 2.58 1.27 5.1 3.22 6.89a3.12 3.12 0 0 0 2.65.93.2.2 0 0 0 .22-.13M137.92 52.93a.76.76 0 0 0 1.13-.27 17.9 17.9 0 0 0 2.28-5.58 1.05 1.05 0 0 0-.56-1.19 1.13 1.13 0 0 0-1.4.46 13.85 13.85 0 0 0-2.41 5.1c-.21.79.5 1.12.96 1.48M170.55 60.18c-.42-.81-1.24-.26-.88.65a32.4 32.4 0 0 0 4.53 9.22 4.9 4.9 0 0 0 1.35 1.3c.25.15.55.55.84.22s-.09-.54-.23-.78a111 111 0 0 1-5.61-10.61M137 65.11a15.6 15.6 0 0 0 4.55-1.11c1-.4 1.32-.61 0-.74a22.3 22.3 0 0 0-4.62.55c4.36-4.68 6.31-3.41 5.91-4.71-.15-.49-.63-.38-1-.21A14.94 14.94 0 0 0 136 63c-.79 1-.36 2.24 1 2.11"/><path d="M157.68 60.05a1.6 1.6 0 0 0 .5-.15 7.44 7.44 0 0 0 3-4.63c.19-1-.7-1.51-1.64-1.14-1.41.58-4.69 5.77-1.86 5.92M145.51 71c-1 .39-2.06.91-3.13 1.23-2.6.79-4.25-.34-4.54-3 0-.35-.11-.69-.5-.73s-.49.29-.57.59c-.57 2.37 1.27 4.89 4.4 5a6.58 6.58 0 0 0 4.77-2.44c.41-.59.55-1.02-.43-.65M129.75 49.36c.27-.3.57-.7.22-1s-.66 0-.95.23c-3.84 3-8 1.56-8.53 1.67a.4.4 0 0 0-.33.29c-.16.45.2.67.54.82a7.1 7.1 0 0 0 2.75.56 8 8 0 0 0 6.3-2.57M167.12 75.14c.45-.4.86-.36 5.18-.81.17-.16.57.43.64-.14.05-.35-.22-.52-.51-.64a2.8 2.8 0 0 0-.66-.2 11.7 11.7 0 0 0-4.13.26c-1.51.4-1.74 1.28-1.25 1.79s.5-.05.73-.26M177.69 80.55c-.18.58.2.64.51.38a8.23 8.23 0 0 0 2.68-4.64.38.38 0 0 0-.28-.46c-.54-.21-.72.52-1.69 2.24a12 12 0 0 0-1.22 2.48M84.54 189.44c-1.89-.64-3.94-.74-5.79-1.56-.21-.09-.47-.43-.67-.07s.1.57.38.7c1 .46.83.43 6.06 1.67a2.14 2.14 0 0 0 1.29-.06 2.16 2.16 0 0 0-1.27-.68M128.13 53.57c-.27-.36-.53 0-.77.09a14.8 14.8 0 0 1-3.59 1.34c-.18 0-.45.08-.42.32 0 .49.6.47 1.07.54a5.77 5.77 0 0 0 3.48-1.43c.22-.21.51-.5.23-.86M83.52 161a18 18 0 0 0 6-.58c.32-.08.74 0 .93-.5-2.42.08-4.44.57-6.91.48-.25 0-.7-.2-.7.27s.42.25.68.33M18.27 171.86c-2.28.25-4.32.87-6.74.55 1.24 1.17 5.37.79 6.74-.55M84.8 162.73c1.3.79 5 .06 5.77-1ZM18.14 177.1c-2-.07-4 .38-6 .09 1.06 1.14 4.71 1.04 6-.09M87.63 156.81c-1.32.16-3 .11-4.4.13-.15 0-.35-.05-.39.19-.14.96 3.75.67 4.79-.32M81.28 161.64c-.72 1.3-.74 2.55.52 3.35-.3-1.12-.13-2.12-.52-3.35M51.62 102.41a22.1 22.1 0 0 1-9.33-.11c1.71 1.43 8.04 1.46 9.33.11M41.86 148.82c1.13 1.55 6.14 1 7.73-.78-2.54.34-5.03 2.25-7.73.78M43 108.42c2.67 1 5.46.37 8.07-.36-2.6.06-5.51.85-8.07.36M41.69 130.76c1 2 5.26 1.35 7.46.22.92-.5.68-.38 0-.22-2.89.69-4.55 1.7-7.46 0M49.53 118.93c-2.62-.34-5.18.78-7.74-.26 2.52 1.43 5.05.55 7.74.26M47.71 144.35c-2.47.23-4.71 1-7.05 0 1.18 1.13 5.13 1.23 7.05 0M48.64 127.22c-2.13.22-4.61.88-6.8.64 2.29.76 4.53.19 6.8-.64M46.67 151.71c-2.48.09-4.59 1.45-6.88.4 1.47 1.39 4.89.75 6.88-.4M48.17 136.62c-2 .17-4.33 1-6.17.61.47.77 4.32.65 6.17-.61M47.88 106.75c-2.55 0-4.64.4-6.72-.28 1.2.93 5.03 1.13 6.72.28M46.73 139.37c-2.33.46-4.53.91-6.6-.35 1.04 1.45 4.87 1.61 6.6.35M43.48 155.9c-.51.07-.48 0 0 .09 2 .21 3.8-.54 5.69-.9-1.94-.09-3.78.58-5.69.81M46.37 121.16c-3.07.26-3.06.34-4.92-.45.72 1.34 3.91 1.56 4.92.45M48.6 163.42a31.3 31.3 0 0 1-5.22.21 6.28 6.28 0 0 0 5.22-.21M44 168.32a4.4 4.4 0 0 0 3.73-.37c-1.17.19-2.73.15-3.73.37M153.35 120.63c-1.72.19-3 .4-4.07 1.42a24.5 24.5 0 0 0-2.47 2.63c-.19.26-.36.64-.95.43-1.83-.61-3.57.28-4.45 2.28a.15.15 0 0 0 .16.21c.78-.13 1.13-.74 1.54-1.18a1.9 1.9 0 0 1 2.17-.61c1.22.53 1.84-.1 2.42-.84 2.81-3.57 4.48-2.57 5.78-4.1a.15.15 0 0 0-.13-.24M19.15 122.81a27 27 0 0 0 5.44-.21 4 4 0 0 0 1.86-.83c-.68.06-1.58.37-2.24.37-.27 0-3.64 0-5.06.07-.25 0-.65-.09-.67.23s.41.36.67.37M26.5 140c-2.21.89-4.56.1-6.88.19 1.38 1.26 6.15 1.19 6.88-.19M26 125.23c-4.6.43-5.64-.45-7.77 0a11.83 11.83 0 0 0 7.77 0M28.86 146.93c-2.47 1.67-5.13.76-7.79 1.2 1.69 1.06 7.25.3 7.79-1.2M24.59 151.78c.37-.17.87-.05-3.72-.44a4 4 0 0 0 3.72.44M28.32 143.9c.23-.13.7-.18.56-.55s-.48 0-.72 0a2 2 0 0 0-1.13.68 1.48 1.48 0 0 0 1.29-.13M68.4 120c.18 0 .44-.11.38-.36s-.38-.21-.59-.2c-5.84.43-4.94.46-5.47.46a10.3 10.3 0 0 0-2.08-.19c.06.13.08.22.12.24 2.47.79 5 .36 7.64.05M65 151.74c3-.27 3.16-.22 3.12-.56s-.71-.22-1.07-.2c-2.14.12-4.11.26-6.06-.57-.22-.09-.53-.49-.72-.06s.28.47.53.6a9.74 9.74 0 0 0 4.2.79M69.45 122.09c-2.68.25-5.47 1.31-8.12.89 1.67.91 6.82.41 8.12-.89M63.35 138.65a2.1 2.1 0 0 0 .89.08 15.5 15.5 0 0 0 4.57-.82c.22-.07.47-.13.43-.56-2.86.42-4.24.85-5.85.75-.32 0-.78-.55-.91 0s.52.39.87.55M60.59 144.89c.93 1.61 6.47 1.71 8.1.48-2.8-.09-5.42.99-8.1-.48M69.1 148.6l-3.75.66a3.76 3.76 0 0 0 3.75-.66M65.36 161.61a.29.29 0 0 0 0 .57 2.7 2.7 0 0 0 2.36-.74c-.79.06-2.14.13-2.36.17M60.49 141.73a2.25 2.25 0 0 0 1.8.22c-.49-.51-1.09-.49-1.58-.71s-.63.35-.22.49M97.85 175.78a1.6 1.6 0 0 0-.38-.09c-1.72-.22-3.35-.47-5 .68s-5 1.88-7.06 4.94a1.31 1.31 0 0 0 .31 2c.86.73 1.93.57 2.84.76 2.61-.11 7.54-1.43 10.22-3.44.88-.65 1.83-1.39 1.57-2.66a3 3 0 0 0-2.5-2.19m.49 3.14c-2 1.91-7 3.76-10 4.17-1.11-.07-2.13.08-2.4-.72s.7-1.18 1.26-1.57a25.3 25.3 0 0 1 7.8-3.92 4.2 4.2 0 0 1 3.38.88c.62.37.34.8-.04 1.16M103.89 177.22c-.09.28 0 .35.29.38a5.3 5.3 0 0 0 1.65-1.06c.33-.42-.24-1-.69-.77a.6.6 0 0 0-.17.1 2.22 2.22 0 0 0-1.08 1.35M80.93 181.92a2.49 2.49 0 0 0-1.72 1.6c.86 0 1.39-.6 2.05-.83.26-.09.43-.21.32-.48a.48.48 0 0 0-.65-.29M90.28 184.66c-.6 0-.76.54-1 .94 0 .09.17.25.44.21.24-.38 1.1.21 1.16-.63a.51.51 0 0 0-.6-.52"/></g></svg>