<svg xmlns="http://www.w3.org/2000/svg" xml:space="preserve" preserveAspectRatio="xMinYMin" style="fill-rule:evenodd;clip-rule:evenodd;stroke-linejoin:round;stroke-miterlimit:2" viewBox="0 0 450 250"><path d="M169.394 175.982a72.6 72.6 0 0 1-11.316 8.243 4359 4359 0 0 1 11.316 4.97z" style="fill:#fff;fill-rule:nonzero" transform="rotate(36.072 362.385 145.46)scale(1.18007)"/><path d="M170.28 250.92h6.48l1.38 24.5-7.86 4z" style="fill:#fff;fill-rule:nonzero" transform="matrix(1.18007 0 0 -1.18007 -10.77 514.582)"/><path d="M157.18 250.84h6.4v28.58l-7.78-4z" style="fill:#fff;fill-rule:nonzero" transform="matrix(1.18007 0 0 -1.18007 -10.77 514.487)"/><path d="M193.4 248.26h-14.28a21.6 21.6 0 0 0-3.12-4.74c-1.3-1.34-4.16-2.42-5.08 0a3.07 3.07 0 0 0 0 2.14c-1.56-1.5-3.24-2.44-4.52-1.54a3.7 3.7 0 0 0-.911 1.402 3.7 3.7 0 0 0-.209 1.658 14 14 0 0 1-1.34.64h-.12q.747-1.83 0-3.66a3.12 3.12 0 0 0-2.415-1.905 3.1 3.1 0 0 0-1.067.017 3.1 3.1 0 0 0-1.298.568c-1.12.82-1.72 2-3.74 5.54h-14.74a25.7 25.7 0 0 1 1.42-10.78 18.24 18.24 0 0 1 5.148-6.762 18.2 18.2 0 0 1 7.652-3.698c4.48-.96 15.52-.4 21.64-.4a17.21 17.21 0 0 1 15.66 10 27.7 27.7 0 0 1 1.32 11.52" style="fill:#fff;fill-rule:nonzero" transform="matrix(1.18007 0 0 -1.18007 -10.77 448.757)"/><path d="m90.2 290.01-1.5 2.7c-1.86-.16-1.44 0-7.62 0l-1.52-2.34c-.32-.52-.86-1.1-1.54-.86l-10.88 4v-60.92c4.94-.48 9.5-.84 14.86-1.02v52.78c0 .9.74 2 1.62 2h3.2c.4 0 .58-.46.58-.78v-54.2q7.458-.075 14.86.84v60.86l-11.38-3.26q-.416-.157-.68.2" style="fill:#1a6062;fill-rule:nonzero" transform="matrix(1.18007 0 0 -1.18007 -10.77 508.08)"/><path d="M254.56 257.53a10.5 10.5 0 0 1-2.22 3.14 20 20 0 0 1-3.68 0c-8.68-.116-17.36.25-26 1.1-1.5.22-2.98.5-4.3.78a106.5 106.5 0 0 1-8.142-23.167 106.5 106.5 0 0 1-2.638-24.413 359 359 0 0 1 36.76-3.52c6.552-.33 13.12.236 19.52 1.68-.56 12.1-3.16 33.88-9.3 44.4" style="fill:#b65773;fill-rule:nonzero" transform="matrix(1.18007 0 0 -1.18007 -10.77 447.706)"/><path d="M161.72 156.816a9.66 9.66 0 0 1-5.72.98c-10 0-11.34.34-13.22-.88s-2.26-4-2.26-6.46a11.3 11.3 0 0 1 .92-6c1.52-2.56 4.12-2.98 6.92-2.98h10.9a5.2 5.2 0 0 1 3.474 1.22q.727.613 1.189 1.446.462.832.597 1.774.105 1.58 0 3.16c.12 2.96.1 5.88-2.8 7.74" style="fill:#fff;fill-rule:nonzero" transform="matrix(1.18007 0 0 -1.18007 -10.77 242.288)"/><path d="M194.9 149.26c0 3.26 0 6-2.92 7.82a9.6 9.6 0 0 1-5.66.98h-6.88a18 18 0 0 1-4.96-.26c-3.46-1.04-3.64-4-3.64-7.08 0-2.52-.22-5.04 1.66-7.04a7.7 7.7 0 0 1 2.872-1.674 7.7 7.7 0 0 1 3.308-.326h10.92a5.87 5.87 0 0 1 3.44 1.2c2.22 1.7 1.86 4.02 1.86 6.38" style="fill:#fff;fill-rule:nonzero" transform="matrix(1.18007 0 0 -1.18007 -10.77 242.599)"/><path d="M315.78 242.82c-3.88 0-7.76-.2-11.64-.58a28.6 28.6 0 0 1-4.88-.62c-1.82-.54-3-2.3-4.22-3.66a438 438 0 0 1-14.44-17c-2-2.46-7.24-7.22-6-10.54 2.52-6.34 9.9-14.5 19.04-25.52a38.8 38.8 0 0 1 8.42 6.56 27 27 0 0 1-3.18 4.64c-3.28 5.02-6.34 10-9.6 16a1.96 1.96 0 0 0-.026 1.201q.175.604.666.999l12.12 11.5c.6.58 1.3.36 1.38-.44a259 259 0 0 0 1.08-35.2 8.2 8.2 0 0 0 2.103-1.469 8.2 8.2 0 0 0 1.55-2.044q.615-1.144.846-2.422a8.2 8.2 0 0 0 .061-2.565c-.46-3.74-3.28-7.44-5.32-10.34v-1.18q4.96.07 9.78 1.24a500 500 0 0 0 8.22 64.26 20.2 20.2 0 0 0-5.96 7.18" style="fill:#1a6062;fill-rule:nonzero" transform="matrix(1.18007 0 0 -1.18007 -10.77 376.065)"/><path d="M386.34 241.046h-18.52c1.16-8.58 2.18-26.38-6.36-25.22-1.34.18-.12 2.92 1.04 2.76a2.28 2.28 0 0 1 1.9.5c.44 1.74.88 3.48 1.34 5.24.54 2.14.42 2.9-1.56 4a43.4 43.4 0 0 1-11.82 4.66q-3.771-4.191-9.18-5.78a412 412 0 0 1-3.18-39.66c-.12-3.46-.36-18-.32-18.54q.035-.883.16-1.76c.1-.76 0-1.36.8-1.82.914-.24 1.854-.368 2.8-.38a69.5 69.5 0 0 1 12-.3c-2 8.84.32 18 4.82 37.3h-.34c-1.34.4 0 3.04 1 2.78.18 0-.3 0 .94-.24a34.85 34.85 0 0 1 18 0c3.22.96 4.24 4.66 4.96 7.6 2 8.22 2.06 20.74 1.52 28.86" style="fill:#1a6062;fill-rule:nonzero" transform="matrix(1.18007 0 0 -1.18007 -10.77 367.317)"/><path d="M329.42 138.98c-17.64-3.02-38.8-24.34-37.8-28 .6-2.28 7.34-6.92 12.46-10.18q.723.675 1.604 1.124a7.02 7.02 0 0 0 5.716.296l-.36 7.34q.192 1.332 1.36 2c8.96 2 14.4 9.88 22.82 15.7.18.16 2.86 1.86 3.3 2.14 1.52.94 1.02-2 0-2.5l-1.58-1c1.38-2.98 5.32-5.1 8-6.58 7.02-4 7.26-2.98 7.38-4.22l.8-8.94a15 15 0 0 0 3.32 2 39.1 39.1 0 0 1 5.62 11.8c1.7 6.86-14.98 22.06-32.64 19.02" style="fill:#b65773;fill-rule:nonzero" transform="matrix(1.18007 0 0 -1.18007 -10.77 175.288)"/><path d="M84.6 207.04c-2.78 7.14-4.26 8-8.36 20.12a44 44 0 0 0-9.4 2.68 10.64 10.64 0 0 0-3.88 2.76 2.2 2.2 0 0 1-1.5-.72c-.3-.42 0-2 0-2.48 0-1.66 0-37.68.1-39.34 0-.74-.22-2.28-.22-3.5s.1-1.68 1.04-2.24c.22-.12 16.56-6 16.34-5.84a85 85 0 0 1 5.54 9.28 23.9 23.9 0 0 0-1.851 9.676q.044 2.489.597 4.915a24 24 0 0 0 1.594 4.689" style="fill:#b65773;fill-rule:nonzero" transform="matrix(1.18007 0 0 -1.18007 -10.77 373.658)"/><path d="M111.58 231a3.5 3.5 0 0 1-2 1.38c-3.24-4.54-8-5.82-13.54-6-4.8-11.28-7.42-13.6-9.84-19.64-3.8-9.42-.7-16.18 4.36-25.3a12 12 0 0 1 .82-1.64c.66-.9 2-.18 2.76 0l14.64 4.2c.18 2.62.22 3.2 3.06 44.1a4.36 4.36 0 0 1-.26 2.9" style="fill:#b65773;fill-rule:nonzero" transform="matrix(1.18007 0 0 -1.18007 -10.77 374.083)"/><path d="M131.22 234.38c-1.3.96-5.48 2.82-6.48 5.8a35.3 35.3 0 0 0-9.58-2.54 21 21 0 0 1 2.42-5.48 12.64 12.64 0 0 1 4.58-4.86q-.46 1.247-1.12 2.4c-.42.78.64 3.2 1.7 2.46s2.14-1.58 3.26-2.26c.66-.4 2.32-1.78 1.76-.26-.49.842-1.04 1.652-1.64 2.42q-.702 1.234-1.26 2.54c-.38.86 1.12 3.06 2 2a11.8 11.8 0 0 1 4.24-3.38c1.94-.82.9.56.12 1.16" style="fill:#fee5a2;fill-rule:nonzero" transform="matrix(1.18007 0 0 -1.18007 -10.77 440.403)"/><path d="M32.6 142.82c-.94.16-2.66-2.54-3.06-3.22s-1.74-1.48-1.88-.14a33.8 33.8 0 0 1-2.44 11.1c0 .2-1.34 4-1.26-1.52q.065-3.29.58-6.54c.14-.96-1.44-3.36-2-1.8a44 44 0 0 1-2.86 5.54c-.3.46-1.74 3.12-2.4 3.06-1.62-.14 1.02-8.34 1.56-9.14s-1.02-3.38-1.88-2.3c-.44.56-3.5 4.58-4 4.24-.96-.6.72-3.56 1.04-4.34a43.6 43.6 0 0 1 5.4-8.82c2.38.7 4.78 1.3 7.2 1.78.84.16 2.2.62 3.48.8a28.8 28.8 0 0 0 2.34 7.5c.16.48 1.26 3.6.18 3.8" style="fill:#fee5a2;fill-rule:nonzero" transform="matrix(1.18007 0 0 -1.18007 -10.77 223.293)"/><path d="M208.62 198.656c-2.2-3.2-.12-8 3.18-9.6a16.5 16.5 0 0 1 6.48-1.26 17.9 17.9 0 0 0 .28 9.5c-1.62.24-1.56.26-9.94 1.36" style="fill:#fee5a2;fill-rule:nonzero" transform="matrix(1.18007 0 0 -1.18007 -10.77 344.765)"/><path d="M274.94 148.3a5.7 5.7 0 0 1-3.04 0c-.8-.26-1.22-.92-2-1.2-2.82-1.1-1.5 5.7-1.36 6.8.24 1.86.54 3.7.88 5.54-9.74 2-33.08 6.92-35.02 7.34-3.52-9.5-8.18-28-2-36 3.04-4.2 9.06-6.16 14.3-6.26 3.52 4 8.82 7.26 13.84 5.76a25.8 25.8 0 0 1 5.18 7.86c.22.52.8 1.4 1.48 1.3 12.54-2.02 13.7 7.48 7.74 8.86" style="fill:#fee5a2;fill-rule:nonzero" transform="matrix(1.18007 0 0 -1.18007 -10.77 232.498)"/><path d="M236.16 195.88c-4.32 1.62-9.4 3.4-13.74.82a12.5 12.5 0 0 1-4.72-5.24l17.18-2.54q.435-.054.54-.48.3-1.68.72-3.36c.28-1.14.64-3.78 1.7-4.5 2-1.32 1.06 2.82.26 5.02-.38 1.08 1.54 3.28 2 1.82.38-1.06 4.24-9.24 5.38-7.32.6 1-1.64 4-2.18 4.78s-1.26 1.76-2 2.58.92 3.3 1.86 2.3a14.6 14.6 0 0 1 3.88-3.06c.74-.38 2-1 2.2.16 0 .64-.56 1.44-.92 2-2.64 3.38-7.88 5.42-12.16 7.02" style="fill:#fee5a2;fill-rule:nonzero" transform="matrix(1.18007 0 0 -1.18007 -10.77 334.173)"/><path d="M101.3 179.92a59.4 59.4 0 0 1-12.38 2.3c-8.34.5-17.44-1.78-22.56-8.84-4.48-6.18-2.36-14.52-3.16-16.42-.32-.72-.96-1.44-1.66-1.12-2.8 1.28-7.08 2.58-9.84 1.18-3.06-1.56-1.8-6.2.14-8.16a10.1 10.1 0 0 1 4.317-2.327 10.1 10.1 0 0 1 4.903-.053c.72.14.86-.52.8-1.1-.52-4.3-.3-10.7 2.34-14 2-2.62 5.32-3.66 8.62-4.54a77.2 77.2 0 0 1 18.1-2.28c7.72-.18 14.98-.62 18.5 6.4 2 4 5.38 18.76 4.8 34.38-.22 7.7-1.66 11.32-12.92 14.58" style="fill:#fee5a2;fill-rule:nonzero" transform="matrix(1.18007 0 0 -1.18007 -10.77 250.624)"/><path d="M206.22 120.64c2.4.12 7.4.6 6 4.14-1.1 2.72-3.88 2.92-6.3 3.66-3.56 1.06-4.72 4.56-4.42 8 .48 5.42 4.24 10.28.48 15.42a9.1 9.1 0 0 1-8.14 3.7c.36-1.04.68-2 .94-3.14s-1.74-3.26-2-1.82a32.6 32.6 0 0 1-2.644 7.359 32.5 32.5 0 0 1-4.316 6.52q-2.551 3-5.742 5.309a32.6 32.6 0 0 1-6.838 3.792c-15.36 5.76-32.4-4.76-32.42-17.2 0-5.84 4.36-9.26 10-9.3a19.3 19.3 0 0 1 6.48 1.06 8.2 8.2 0 0 0-.846 3.66q0 1.928.846 3.66c1.06 2 4 4.68 6.24 2.74s1.84-7.04-2.38-10.38q3.123-2.262 6.98-2.28a5.3 5.3 0 0 0-.001 3.701 5.3 5.3 0 0 0 2.421 2.799c3.78 1.6 6.14-4.14 2.26-7.54a13.6 13.6 0 0 1 5-1.3c1.332.076 2.668.076 4 0a20 20 0 0 1 9.82 4c1.58 1.2 1.64-1.3.6-2l-1.02-.76c.14-.54.3-1.06.44-1.6a7.7 7.7 0 0 0 2.216-1.128 7.7 7.7 0 0 0 2.837-4.007 7.7 7.7 0 0 0 .327-2.465c.16-4.56.6-8.84-3.28-12-.6-4.22-1.88-11.54-4.48-14.88q2.855-1.208 4.2-4c6.74-1.46 13.28 2.2 14.92 6a5.996 5.996 0 0 1-3.48 7.64c-1.16.5.44 2.6 1.3 2.64" style="fill:#b65773;fill-rule:nonzero" transform="matrix(1.18007 0 0 -1.18007 -10.77 221.806)"/><path d="M141.48 151.94a8.6 8.6 0 0 0-2.465 3.37 8.6 8.6 0 0 0-.615 4.13c0 2.8-.32 5.74 1.04 8.28q1.291 2.537 3.88 3.72.321 1.701.72 3.36a9.1 9.1 0 0 0-2.825 2.006 9.1 9.1 0 0 0-1.875 2.914 9.8 9.8 0 0 1-2.795-1.481 9.8 9.8 0 0 1-2.181-2.291 9.8 9.8 0 0 1-1.341-2.865 9.8 9.8 0 0 1-.363-3.143c.18-4.64 4.28-8.3 3.08-13.1q-.563-2.553-2.74-4c-2.14-1.3-4.84-.78-6.32-3.22-3.1-5.12 3.26-9.7 8-7.8.94.38.84-1.04.7-1.46-1.12-3.76 2-7.7 5.64-8.64a10.8 10.8 0 0 0 1.921 3.292 10.8 10.8 0 0 0 2.939 2.428c-3.58 3.5-4.32 9.42-4.4 14.5" style="fill:#b65773;fill-rule:nonzero" transform="matrix(1.18007 0 0 -1.18007 -10.77 256.264)"/><path d="M162.54 129.92c-1.06 2.96-4 .86-4-1.5a6 6 0 0 1 1.14-3.66c1.9 1.2 3.62 3.04 2.86 5.16" style="fill:#b65773;fill-rule:nonzero" transform="matrix(1.18007 0 0 -1.18007 -10.77 192.777)"/><path d="M171.772 133.146a2.08 2.08 0 0 0-1.698-.089c-1.185.864.345 2.577 1.698 3.203 1.085-1.127 1.302-2.266 0-3.114" style="fill:#b65773;fill-rule:nonzero" transform="rotate(25.084 446.749 78.895)scale(1.18007)"/><path d="M82.44 175.013a6.8 6.8 0 0 1 1.591-1.565 6.85 6.85 0 0 1 6.409-.795 9.3 9.3 0 0 1-3.726 2.109 9.35 9.35 0 0 1-4.274.251" style="fill:#b65773;fill-rule:nonzero" transform="matrix(1.18007 0 0 -1.18007 -10.77 298.739)"/><path d="M376.3 141.36c-2.24 1.14-1.46 3.58-.3 5.2q2.43 3.824 6.64 5.5c.32 2 1.34 7.86-.34 8.8s-2.54-6.3-2.66-7.6-2-3.12-2.18-1.22-.94 9.88-2.54 8.7c-.88-.64-.5-3.7-.46-4.78s.16-4.96.18-5.42a1.93 1.93 0 0 0-.64-1.36c.4-1.508.676-3.046.82-4.6.18-.98-1.38-2.74-2-2.2a31 31 0 0 0-.82 4c0 .2 0 .42-.16.62-.44 1.48-2.2 2.94-2.74.62q-.462-4.407 1.54-8.36h8.42c-.026.68.074 1.36.3 2q-1.553-.636-3.06.1" style="fill:#fee5a2;fill-rule:nonzero" transform="matrix(1.18007 0 0 -1.18007 -10.77 244.157)"/><path d="M359.02 159.028c-2.24 1.12-4.98-1.08-6.58-2.38-.62-.5-1.32-.42-1.4.44-.7 7.82-.76 9.52-.86 9.84-4.42 1.84-13.5 6.44-15.34 10.88a157 157 0 0 0-8-6.84c-4-3.1-8.48-6.66-13.44-8.2l.42-8.46c0-.78-.88-2.4-1.84-2-3 1.52-6.92 2-7.5-1.34-.84-4.78 4.64-6.76 8.5-6.28.54 0 .82-.22.84-.76a42 42 0 0 1 2.32-11.48c2-5.74 5.64-11.2 11.46-12.88a26.95 26.95 0 0 1 12.96.38c3.78.82 8.48 2.56 10.8 5.62 1.28 1.74 1.14 3.46 1.14 6.24 0 4.9-.1 9.78-.24 14.66q-.015.724.438 1.289.453.566 1.162.711c3.84 0 7.26 2.6 7.08 6.6.052.77-.099 1.54-.438 2.233a4.4 4.4 0 0 1-1.482 1.727" style="fill:#fee5a2;fill-rule:nonzero" transform="matrix(1.18007 0 0 -1.18007 -10.77 238.573)"/><path d="M290.46 105.74c.5 2.22-1.18 4.68-2.58 6.22a29.7 29.7 0 0 1-10.22 6.42c-2.36 1.04-5.52 2.36-7.52 0q-2.343-3.603-2.26-7.9a2.4 2.4 0 0 0-.76-1.38 22.5 22.5 0 0 0 5.337-5.42 22.5 22.5 0 0 0 3.243-6.88 27.8 27.8 0 0 1 9.28 3.62c1.84 1.12 5.02 3.12 5.48 5.32" style="fill:#b65773;fill-rule:nonzero" transform="matrix(1.18007 0 0 -1.18007 -10.77 145.456)"/><path d="M261 123.9c-10.2 5.74-25.36-2.2-32.58-11.48 0-.8.4-1.12 1.22-1.02 1.3-.42 2.64-.702 4-.84l39.72-8.3c3.16 8.76-4.28 17.06-12.36 21.64" style="fill:#b65773;fill-rule:nonzero" transform="matrix(1.18007 0 0 -1.18007 -10.77 162.402)"/><path d="M387.76 158.12c-1.02 1.86-2.18 3.32-4.36 3.2a6.24 6.24 0 0 1-3.7-1.7c-.98-.82-4-3.54-1.22-4 1.86-.38 4.54 2.6 5.26 3.06 1.26.82 1.2-1.5.34-2.3-.48-.46-.98-.92-1.4-1.4s-1.78-2.46-1.18-2.98 1.56.18 2 .48q.457.286.88.62c1.16.8 3.62 3.58 3.38 5.02" style="fill:#fee5a2;fill-rule:nonzero" transform="matrix(1.18007 0 0 -1.18007 -10.77 258.011)"/><path d="M302.38 244.64c-.52.14-.86.12-1 .62l-6.4-5.26c2.14-3-2-7.3-4-9.3-.4-.38-3.18-2.66-2.38-3.3.36-.28 2 1.14 2.22 1.38a44.5 44.5 0 0 1 5.64 6.18c1.28 1.62 2-.34 1.12-1.56s-1.48-2.7-2.32-4c-.34-.54-1.72-2-1.64-2.58.36-2.28 5.16 4.64 6.38 6.6.98 1.56 2.48.7 1.58-.92a22 22 0 0 1-2.9-5.12c-.3-1.82.98-.92 1.66-.36a21.4 21.4 0 0 1 3.64 4.6c1.2 1.612 2.144 3.4 2.8 5.3.197.795.239 1.621.124 2.432a6.4 6.4 0 0 1-.785 2.305 6.5 6.5 0 0 1-1.583 1.85 6.4 6.4 0 0 1-2.156 1.133" style="fill:#fee5a2;fill-rule:nonzero" transform="matrix(1.18007 0 0 -1.18007 -10.77 443.14)"/><path d="M188.54 152.09h-8c-2.76 0-6-.42-8.36 1.12a8.4 8.4 0 0 0-1.66 1.513 8.4 8.4 0 0 0-1.866 4.042 8.4 8.4 0 0 0-.074 2.245 16.8 16.8 0 0 0 1.06 8.28 8.3 8.3 0 0 0 2.48 2.92 8.1 8.1 0 0 0-2.48 1.56 12.5 12.5 0 0 0-3.002-.215 12.6 12.6 0 0 0-8.138 3.495 18.6 18.6 0 0 0-6.195-1.761 18.6 18.6 0 0 0-6.425.441c-.14-.66-.26-1.32-.4-2 5.32.54 10.68.54 16 0a7.8 7.8 0 0 0 2.182-1.15 7.8 7.8 0 0 0 1.717-1.771 7.8 7.8 0 0 0 1.081-2.216 7.8 7.8 0 0 0 .34-2.443c.294-2.676.12-5.384-.52-8a8.7 8.7 0 0 0-1.207-2.359 8.7 8.7 0 0 0-1.855-1.891 8.7 8.7 0 0 0-2.336-1.252 8.8 8.8 0 0 0-2.602-.498h-8.42a20.7 20.7 0 0 0-6.28.42c.62-9.14 4.2-12.9 10.84-14.7a67.4 67.4 0 0 1 21.58-1.06 39.4 39.4 0 0 1 10.96 2.68 4.1 4.1 0 0 1 1.56 1.56 37.5 37.5 0 0 1 3.08 11.68 8.8 8.8 0 0 0-3.06-.64" style="fill:#fee5a2;fill-rule:nonzero" transform="matrix(1.18007 0 0 -1.18007 -10.77 258.164)"/><path d="M159.36 212.32c0 .94 1.24 2.62 2 2 .88 2.7 2 4 4.88 9.74l-2.96 5.8-10-10.46c2.38-4.9 3.72-6.96 4.44-8.38s2.46-5.02 4-4.8c.68 0-.42 1.84-.66 2.38-1.8 3.8-1.7 3.5-1.7 3.72" style="fill:#fee5a2;fill-rule:nonzero" transform="matrix(1.18007 0 0 -1.18007 -10.77 403.089)"/><path d="M163 213.92c.36-1.46.84-2 1.48-.68.68.42 1.32 1.7 1.78 2.26 2.56 3.3 2.46 3.22 2.8 3.44.88.56 1.5-.62.88-1.66a22 22 0 0 1-2-4.2c-.54-1.6-1.12-4.32.56-4.26s3.72 3.1 4.6 4.38q.381.754.9 1.42c.82.7 2 .36 1.38-1s-3.3-5.74-1.68-6.74c1.04-.64 3.42 3.7 4 4.8 1.58 2.84 2.56 4.64 4 7.54l-10.66 11.16c-8.34-16.68-7.72-15.36-8.04-16.46" style="fill:#fee5a2;fill-rule:nonzero" transform="matrix(1.18007 0 0 -1.18007 -10.77 403.986)"/><path d="M338 231.606c-5.02-.8-10-1.22-14.42 1.12a497 497 0 0 1-7.26-53.58c7.072-.554 14.17-.726 21.26-.52a420 420 0 0 0 3.46 53.52c-1.04-.16-2.04-.38-3.04-.54" style="fill:#fff;fill-rule:nonzero" transform="matrix(1.18007 0 0 -1.18007 -10.77 373.924)"/><path d="M238.66 165.12a90 90 0 0 0 6 9.68 20.6 20.6 0 0 0-6.356 1.301 20.7 20.7 0 0 0-5.644 3.199 43 43 0 0 1-9.08-12.56c4.82 2.06 10.12.26 15.08-1.62" style="fill:#fff;fill-rule:nonzero" transform="matrix(1.18007 0 0 -1.18007 -10.77 295.183)"/><path d="M236.78 208.76c-5.82.32-11.62.92-17.38 1.74h-1.24l1.02-6.86c10-2.32 22.44-1.8 32.94-2l.96 8.38c-4.78-2.3-11.26-1.54-16.3-1.26" style="fill:#fff;fill-rule:nonzero" transform="matrix(1.18007 0 0 -1.18007 -10.77 374.72)"/><path d="M221.08 168.78q3.284 8.867 10.34 15.16c-.566.61-1.062 1.28-1.48 2-3.82-.16-7.36-4.42-9.62-7.2a89.5 89.5 0 0 1-10-16l5.56-.74a17.2 17.2 0 0 0 5.2 6.78" style="fill:#fff;fill-rule:nonzero" transform="matrix(1.18007 0 0 -1.18007 -10.77 299.337)"/><path d="M260.3 201.6a7.4 7.4 0 0 1-2.52.58c-5.72.4-10.12-4.58-13.2-9.46-1.44-2.26-2.88-4.58-4.2-6.92a33 33 0 0 0 8-4.68c2.6-2.14 4.6-5.8 1.54-8.58q-1.123-1.081-2.66-.82c.374-.795.516-1.68.409-2.552a4.67 4.67 0 0 0-.989-2.388c-2.28-2.66-4.36-1.12-6 1.3a3.76 3.76 0 0 0-1.16-1.5c-4.24-3.38-5.56 4.44-6 6.92q-.135.462-.2.94c-.38 0-.76.14-1.12.2-12.5 1.84-11.04 1.66-11.82 1.62q-1.085-4.32.22-8.58c.16-.28.14-.42 0-.46.992-.3 2.024-.448 3.06-.44l4.92-.56c7.08-.72 14.66-1.64 21.74-.54 4.58.72 6.34 4 7.72 8.46a141 141 0 0 1 4.12 17.02c.88 3.96 1.84 8.78-1.86 10.44" style="fill:#fff;fill-rule:nonzero" transform="matrix(1.18007 0 0 -1.18007 -10.77 320.389)"/><path d="M86.068 225.632c-1.222.89-2.623 1.781-3.89 2.538l3.89 1.925c-.033-1.511-.066-2.978 0-4.463" style="fill:#fff;fill-rule:nonzero" transform="rotate(-26.335 -142.842 235.67)scale(1.18007)"/><path d="M32.32 166.56c-.32.74-.76 3.2-3.4 2.46a85 85 0 0 1-10.2-2.34 46.7 46.7 0 0 1 2.76-12.44l14 6.5a45 45 0 0 0-3.16 5.82" style="fill:#fff;fill-rule:nonzero" transform="matrix(1.18007 0 0 -1.18007 -10.77 271.086)"/><path d="M59.28 183.78a.6.6 0 0 0-.28 0 43.4 43.4 0 0 0-12.558 6.406 43.4 43.4 0 0 0-9.862 10.074c-.38-.54.72 0-14.24-6.9a47.76 47.76 0 0 1 37-28.34c0 .26-.04 18.14-.06 18.76" style="fill:#fff;fill-rule:nonzero" transform="matrix(1.18007 0 0 -1.18007 -10.77 319.799)"/><path d="M114.36 216.881c0-1.76-.44-3.68-.54-5.14-.18-2.66-.68-9.66-.74-10.5a5.8 5.8 0 0 0 5.76-3.76c1.54-4-1.22-7.16-3.56-10a15.4 15.4 0 0 1-3.18-6.58 36.9 36.9 0 0 1 11.44 1.56c1.52 5.08 6.12 8.5 7.12 13.78 2.02 10.66-6.88 18.24-16.3 20.64" style="fill:#fff;fill-rule:nonzero" transform="matrix(1.18007 0 0 -1.18007 -10.77 358.059)"/><path d="M111.74 225.76a16 16 0 0 1 .68-5.4c.56-1.82 1.24-2.36 3.08-2.16a31.2 31.2 0 0 1 9.72 2.56 9.9 9.9 0 0 0-1.661 3.108 9.9 9.9 0 0 0-.479 3.492 38.5 38.5 0 0 0-11.34-1.6" style="fill:#fff;fill-rule:nonzero" transform="matrix(1.18007 0 0 -1.18007 -10.77 414.299)"/><path d="M87.48 155.58c-3.7.64-7.1-10.34-3.26-11.66 2.38-.82 4 2.88 4.64 4.58s1.46 6.58-1.38 7.08m.52-6.26c-.52-1.54-1.72-2.54-2.7-2.2s-1.34 1.84-.82 3.38 1.74 2.54 2.72 2.2 1.4-1.78.8-3.38" style="fill:#fff;fill-rule:nonzero" transform="matrix(1.18007 0 0 -1.18007 -10.77 241.962)"/><path d="M99.06 152.74c-3.56.6-6.1-7.52-2.84-9.36 2.22-1.26 4 1.68 4.62 3.36s.84 5.56-1.78 6m.12-6.22c-.52-1.54-1.72-2.52-2.7-2.2s-1.34 1.86-.82 3.4 1.74 2.52 2.72 2.2 1.32-1.84.8-3.4" style="fill:#fff;fill-rule:nonzero" transform="matrix(1.18007 0 0 -1.18007 -10.77 237.407)"/><path d="M151.28 210.62a22.5 22.5 0 0 0-2-2.14c-.48-.38-1.02-.48-1.28.18-2 4.78-3.88 9.78-5.4 14.88l-1.84-17.84h13.04c-.74 1.36-1.38 2.58-2.52 4.92" style="fill:#1a6062;fill-rule:nonzero" transform="matrix(1.18007 0 0 -1.18007 -10.77 395.277)"/><path d="M187.06 213.96c-.18-1-1.34-2.2-2-1.44l-2 2c-1.32-2.68-1.86-3.6-2.46-4.76h12.48c-.8 4.6-1.58 9.22-2.38 13.82-1.14-3.24-2.38-6.46-3.64-9.62" style="fill:#1a6062;fill-rule:nonzero" transform="matrix(1.18007 0 0 -1.18007 -10.77 400.115)"/><path d="M182.74 208.88a44 44 0 0 0-6.42-1.22l-10-13.84c-.26-.36-1.14-.96-1.5-.36l-8.42 14.44a32 32 0 0 0-3.54.84 71 71 0 0 0 7-13.54 208 208 0 0 0 4.6-11.1c.12-.12 1.06-2 3.26-6.5 2.88 5.76 2.82 5.68 2.96 5.88 1.72 4.54 3.6 9.02 5.64 13.4a62.3 62.3 0 0 0 6.42 12" style="fill:#1a6062;fill-rule:nonzero" transform="matrix(1.18007 0 0 -1.18007 -10.77 344.817)"/><path d="M149.3 215.62c-.98 1.1-2 2-3.36 1.52a6.2 6.2 0 0 1-2.8-2.86c-1.78-3.36-1.58-7.78-1.16-11.56a101 101 0 0 1 7.58-26.72l12.78 13.38a201 201 0 0 1-4.62 11.22c-2.26 5.02-4.7 10.78-8.42 15.02" style="fill:#1a6062;fill-rule:nonzero" transform="matrix(1.18007 0 0 -1.18007 -10.77 353.243)"/><path d="M191.76 213.56c-.82 1.7-2.74 4-4.38 4q-1.43-.158-2.22-1.36c-4-4.66-6.72-11.38-8.98-16.56-1.3-3.04-2.56-6.1-3.72-9.2l13.38-14a150 150 0 0 1 4.94 14.24c1.74 6.36 3.76 17.04.98 22.88" style="fill:#1a6062;fill-rule:nonzero" transform="matrix(1.18007 0 0 -1.18007 -10.77 353.691)"/><path d="M245.965 155.258c3.451 1.15 1.413 5.213-1.332 5.715-1.296.252.159 2.876 1.332 2.656 5.985-1.134 4.79-9.185-.205-10.851-1.716-.571-.895 2.097.205 2.48" style="fill:#173f5d;fill-rule:nonzero" transform="rotate(65.885 372.285 123.609)scale(1.18007)"/><path d="M260.66 140.36c-.84-2-2.52-4.14-4.98-3.3s-2 4-1.62 6c.14.64-.16 1.2-.84 1.14s-1.26-1.1-1.38-1.7a12.5 12.5 0 0 1-.18-5.14 17.4 17.4 0 0 1-3.14-2.94c-.4-.48-.84-1.44-.4-2s1.24 0 1.56.36a12.4 12.4 0 0 0 2.9 2.6 3.54 3.54 0 0 1 2-1.24l-.54-2.4c-.12-.54.14-1.24.82-1.08q1.107.446 1.32 1.62c.12.58.24 1.16.38 1.74.58.096 1.14.284 1.66.56.14-.2-.46.48 2.1-2.4.9-1.02 2.62 1.44 1.88 2.28l-1.74 2a14.4 14.4 0 0 1 2.22 3.76c.8 1.92-1.4 1.64-2.02.14" style="fill:#173f5d;fill-rule:nonzero" transform="matrix(1.18007 0 0 -1.18007 -10.77 212.979)"/><path d="M289.26 296.957a26.9 26.9 0 0 1-7.26 4.78c-2.66 1.36-5.7 3.04-8.78 2.86-5.34-.3-7.16-7.74-7.52-12.34-5.56 4-10.46 5.2-18.2 3.06a39.2 39.2 0 0 1-10.061-4.445 39.2 39.2 0 0 1-8.439-7.055c-1.24-1.38-4.82-4.82-2.62-6.72 1.36-1.18 4.46-1.2 6.16-1.58-3.68-9.66-7.56-26-3.78-35.46-8-2.74-17.34-18.76-20.92-26a9.7 9.7 0 0 1-1.757-3.063 9.7 9.7 0 0 1-.327-5.25 9.65 9.65 0 0 1 2.464-4.647q3.306-2.612 7.52-2.68l1.26-8.44a109.8 109.8 0 0 1-8.807-24.629 109.8 109.8 0 0 1-2.753-26.011c0-.36 0-.82.4-.88s4.94-.76 5.22-.8c-.48-8.8-.82-17.66-1.68-26.44a8.2 8.2 0 0 0-.714-3.538 8.2 8.2 0 0 0-2.146-2.902c-3.14-2.36-9.04-3.02-12.14-7.36-.28-.38-1.08-2.16 0-2.16a46.3 46.3 0 0 1 16.76 2.5c5.52 2.12 5.8 5.34 7.88 8 .352-2.162.886-4.29 1.6-6.36q.185-.869.99-1.246a1.72 1.72 0 0 1 1.59.026c3.5 1.6 2.16 7.82 1.86 10.62a114.2 114.2 0 0 0-.12 27.2c5.42-.5 13.72-1.16 19.26-1.3-.42-7.86-.78-15.74-1.54-23.58a8.2 8.2 0 0 0-.714-3.538 8.2 8.2 0 0 0-2.146-2.902c-3.14-2.36-9.04-3.02-12.14-7.36-.28-.38-1.08-2.16 0-2.16a46.3 46.3 0 0 1 16.76 2.5c5.52 2.12 5.8 5.34 7.88 8 .352-2.162.886-4.29 1.6-6.36q.184-.869.99-1.246a1.72 1.72 0 0 1 1.59.026c3.5 1.6 2.16 7.82 1.86 10.62a114.8 114.8 0 0 0-.2 26.62q3.359.469 6.62 1.4c.402.156.746.432.986.788q.366.55.354 1.212a168.7 168.7 0 0 1-3.86 30.26c-1.4 6.26-3.18 12.94-6.86 18.28a7 7 0 0 1-1.34 1.64c.38 3.44.76 6.88 1.16 10.32 4 3.26 5.36 10.18 6.66 15.1a77.5 77.5 0 0 1 3.46 17.42 6.5 6.5 0 0 1-.629 3.389 6.5 6.5 0 0 1-2.251 2.611 31 31 0 0 1 4.66 7.14c6.24-.58 14.76 2.54 13.42 10.26-.74 4.28-6.46 5.86-10 3.34.12.96-.48.62.96 8.96l2-.42c.96-.2 2 1.68 1.52 2.46l.12.26c.849 2.16 1.178 4.49.96 6.8 9.74 2.56 22.8 10.78 13.18 20.42m-22.22-9.56a90.3 90.3 0 0 1-8-14.42l-6.56 1.36q3.825 9.148 11.52 15.4a36 36 0 0 0 3.04-2.34m-8.26 5.32a18.2 18.2 0 0 0 3.58-1.82q-7.717-6.74-11.7-16.18l-8.24 1.74a29.2 29.2 0 0 0 4.14 6.912 29.2 29.2 0 0 0 5.86 5.528c1.42 1.1 3.82 3.56 5.66 3.56q.4-.004.7.26m-8.56.56q.185.06.32.2 2.36.286 4.72 0-3.69-2.595-7.02-5.64a31.05 31.05 0 0 1-7.64-11.02l-7.54 1.6a29.77 29.77 0 0 0 11.855 12.486 30 30 0 0 0 5.305 2.374m-19.02-14.52a7 7 0 0 0-1.56.44c-.82-.12-1.22.22-1.22 1.02a35.6 35.6 0 0 0 11.3 9.52 34.3 34.3 0 0 1-8.52-10.98m-10.88-48.16c2.34 2.86 5.6 6.84 9.58 7.2.426-.714.922-1.384 1.48-2q-7.077-6.338-10.34-15.26a17.1 17.1 0 0 1-5.24-6.58l-5.56.74a89.5 89.5 0 0 0 10.08 15.9m21.14-20.86c.68-.82 1.34-1.7 2-2.58s2.78-3.78 2.18-4.78c-1.14-2-5 6.26-5.38 7.32-.56 1.46-2.48-.74-2-1.82a.2.2 0 0 0 0-.12c.46-1.28 2-6.36-.3-4.9-1.06.72-1.42 3.36-1.7 4.5s-.52 2.24-.72 3.36a.6.6 0 0 1-.54.48l-17.3 2.54a12.55 12.55 0 0 0 4.72 5.32c4.34 2.6 9.42.8 13.74-.82s9.52-3.62 12.32-7.2c.36-.46 1.02-1.26.92-2-.16-1.16-1.46-.52-2.2-.16a14.6 14.6 0 0 0-3.88 3.06c-.94 1.02-2.62-1.38-1.86-2.2m-22-11.24c5.76-.82 11.56-1.42 17.38-1.74 5.04-.28 11.52-1.04 16.3 1.24l-.96-8.38h-8.44c-8 .12-16.56 0-24.5 2l-1.02 6.86zm19.26 22c-5 2-10.3 3.68-15.08 1.62a42.6 42.6 0 0 0 9.08 12.56 20.7 20.7 0 0 1 5.644-3.199 20.7 20.7 0 0 1 6.356-1.301 90 90 0 0 1-6.06-9.74zm-26.86-18c-3.3 1.58-5.38 6.4-3.18 9.6l10-1.36a17.9 17.9 0 0 1-.28-9.5 16.4 16.4 0 0 0-6.6 1.12zm42.76-18.76c6.14-10.5 8.74-32.34 9.38-44.38a71.8 71.8 0 0 0-19.52-1.68 361 361 0 0 0-36.76 3.52q-.097 12.36 2.634 24.415a106.3 106.3 0 0 0 8.146 23.165 107 107 0 0 1 20.42-1.78h10a12 12 0 0 0 3.58 0 10.7 10.7 0 0 0 2.06-3.4zm7.76 41.52a141 141 0 0 0-4.12-17.02 11.9 11.9 0 0 0-1.691-4.203 11.9 11.9 0 0 0-3.129-3.277c-4.82-2.74-19.12-1-24.64-.44l-4.92.56a10.6 10.6 0 0 0-3.06.44v.46a15.5 15.5 0 0 0-.22 8.58h.56c16.96-2.48 11.1-1.68 12.38-1.84q.066-.478.2-.94c.52-2.48 1.84-10.3 6-6.92q.772.602 1.16 1.5c1.6-2.42 3.68-4 6-1.3q.833 1.055.989 2.388a4.64 4.64 0 0 1-.409 2.552q1.536-.257 2.66.82c3.06 2.78 1.06 6.44-1.54 8.58a32.9 32.9 0 0 1-8 4.68 104 104 0 0 0 6.58 10.32c3.14 4 7.36 7.04 12.26 5.84s3.74-6.16 2.88-10.92zm9.62 31.44a5.7 5.7 0 0 0 3.04 0c6-1.38 4.84-10.88-7.64-9-.68 0-1.26-.78-1.48-1.3a25.8 25.8 0 0 0-5.18-7.86c-4.52 1.36-9.3-1.22-12.68-4.54-.7-.68-.98-1.02-1.16-1.22-1.35-.035-2.7.079-4.025.341a18.3 18.3 0 0 0-7.348 3.238 18.3 18.3 0 0 0-2.967 2.741c-6 8.64-1.6 26.3 2 36l10-2.14c-.62-1.72-1.22-3.42-1.82-5.14-.38 0-.84-.2-1.18-.84a4.1 4.1 0 0 0-4.46-2c-2.6.72-1.16 3.6-.24 5.04s-.6 2.46-1.58.92c-1.18-1.88-2.78-5.46-1.24-7.5-.31-.42-.68-.79-1.1-1.1a1.95 1.95 0 0 1-.661-.892 1.96 1.96 0 0 1-.079-1.108c.2-.7.92-.5 1.34-.16.752.636 1.424 1.36 2 2.16a4.5 4.5 0 0 1 1.82-.3c0-.2 0-.12-.54-2.56-.12-.54.12-1.24.8-1.08q.52.203.873.636.354.433.447.984c.222.84.39 1.696.5 2.56.737.324 1.413.77 2 1.32a410 410 0 0 1-4.88-15.28c-.16-.46-.3-1.38.42-1.46a17.1 17.1 0 0 1 6.78.58c1.08.32 2 3.16.52 2.74a14.8 14.8 0 0 0-5.38-.62 434 434 0 0 0 7.58 22.7q11.52-2.36 23-4.82c-.34-1.84-.64-3.68-.88-5.54-.14-1.1-1.46-8 1.36-6.8.72.34 1.14 1.04 2.04 1.3m1.36 13.36-12.36 2.54a83 83 0 0 0 7.46 13.54c4.38-4.52 7-10.14 4.8-16.08zm11.72 12.52a27.8 27.8 0 0 0-9.28-3.62 22.5 22.5 0 0 1-3.241 6.882 22.4 22.4 0 0 1-5.339 5.418c.402.36.67.848.76 1.38q-.083 4.297 2.26 7.9c2 2.4 5.16 1.08 7.52 0a29.7 29.7 0 0 0 10.22-6.42c1.4-1.54 3.08-4 2.58-6.22s-3.74-4.16-5.58-5.32z" style="fill:#173f5d;fill-rule:nonzero" transform="matrix(1.18007 0 0 -1.18007 -10.77 360.461)"/><path d="M151.1 148.222q.462-.014.893.154.431.167.763.489.331.322.511.748.181.426.181.888t-.181.888a2.26 2.26 0 0 1-1.274 1.237 2.3 2.3 0 0 1-.826.155 2.29 2.29 0 0 1-2.28-2.28 2.29 2.29 0 0 1 2.213-2.279" style="fill:#173f5d;fill-rule:nonzero" transform="matrix(1.18007 0 0 -1.18007 -10.77 243.946)"/><path d="M182.88 152.798a2.27 2.27 0 0 1-2.123-1.398 2.27 2.27 0 0 1 .491-2.494 2.2 2.2 0 0 1 .743-.495q.42-.174.876-.173.455.001.875.178a2.27 2.27 0 0 1 1.398 2.122q0 .45-.172.865a2.2 2.2 0 0 1-.49.733 2.2 2.2 0 0 1-.733.49 2.2 2.2 0 0 1-.865.172" style="fill:#173f5d;fill-rule:nonzero" transform="matrix(1.18007 0 0 -1.18007 -10.77 243.99)"/><path d="M214.62 251.58a6.82 6.82 0 0 1-4.92 5.04c-1.76.54-3.64.52-4.92 2q-1.533 2.136-1.16 4.74c.3 3.46 2.22 6.56 2.3 10a10.4 10.4 0 0 1-.474 3.625c-.245.78-.581 1.528-1.001 2.229a10.4 10.4 0 0 1-3.389 3.476 10.5 10.5 0 0 1-8.236 1.29c-5.04 11.66-16.3 20.74-29.5 19.88-15.88-1.02-26.6-14.44-24.64-25.14a14.004 14.004 0 0 1-8-15.16c.6-3.16 3.86-6.72 3-10-.58-2.24-3.12-2-4.84-2.78a9.4 9.4 0 0 1-4.758-5.785 9.4 9.4 0 0 1-.362-2.535 7.5 7.5 0 0 1 3.026-5.701 7.5 7.5 0 0 1 6.334-1.239 9.14 9.14 0 0 1 .811-4.84 9.1 9.1 0 0 1 6.229-5.02c-.88-5.84-.574-11.8.9-17.52-2.74-26.42-2.64-25.26-2.64-25.46 0-4.54-.28-9.08 1.5-13.36a19.36 19.36 0 0 1 9.147-9.784 19.3 19.3 0 0 1 4.273-1.556c.58-10.4 2-36 2.12-38.26a386 386 0 0 1-6.44-7.72c-.84-1.04-5.86-6-3.68-7.6s7.22 3 8.6 4c2.18 1.5 4.34 3.08 6.44 4.7v-5.58c0-.32.18-.78.58-.78h3.24c.94 0 1.62 1.16 1.62 2v48.8h2.32v-50c0-.32.18-.78.58-.78H172c.94 0 1.6 1.16 1.6 2v3.74a91 91 0 0 1 10.4-7.16 5.34 5.34 0 0 1 3.38-1.02c3.3.84 1.04 4 0 5.52-4.46 5.68-8.66 10.56-8.82 10.76s0 .16 0 .26-.14-2.6 2 37.46a20.2 20.2 0 0 1 7.203 3.627A20.2 20.2 0 0 1 193 168.08c2.78 5.04 2.62 10.34 2.62 15.88 0 .2 0 0-3.32 19.5 2 6.82 4.18 17.18 2.42 24q5.028-.322 9.4 2.18c7.66 4.38 8.44 11.02 5.08 15 3.24.88 6.12 2.96 5.42 6.94m-73.64-23c-3.54.94-6.76 4.88-5.64 8.64.14.42.24 1.84-.7 1.46-4.7-2-11.06 2.68-8 7.8 1.48 2.44 4.18 2 6.32 3.22q2.177 1.447 2.74 4c1.2 4.8-2.9 8.46-3.08 13.1a9.8 9.8 0 0 0 .363 3.143 9.8 9.8 0 0 0 1.341 2.865 9.8 9.8 0 0 0 2.181 2.291 9.8 9.8 0 0 0 2.795 1.481 9.1 9.1 0 0 1 1.869-2.936A9.1 9.1 0 0 1 144 271.62a107 107 0 0 1-.72-3.36q-2.589-1.183-3.88-3.72c-1.4-2.54-1-5.48-1-8.24a8.6 8.6 0 0 1 .625-4.108 8.6 8.6 0 0 1 2.455-3.352c.1-5.08.82-11 4.4-14.58a10.8 10.8 0 0 1-2.954-2.405 10.8 10.8 0 0 1-1.946-3.275m28.74 40.44a8.1 8.1 0 0 1 2.48-1.56 8.3 8.3 0 0 1-2.48-2.92 15.76 15.76 0 0 1-1.06-8c-.4.18-1 0-1.46-.74-.16-.26-.32-.5-.46-.76q.27 3.12 0 6.24a7.8 7.8 0 0 1-.34 2.443 7.8 7.8 0 0 1-1.081 2.216 7.8 7.8 0 0 1-1.717 1.771 7.8 7.8 0 0 1-2.182 1.15c-5.32.54-10.68.54-16 0 .14.64.26 1.3.4 2a18.7 18.7 0 0 1 6.466-.389q3.267.372 6.214 1.829a12.6 12.6 0 0 1 8.198-3.51 12.6 12.6 0 0 1 3.022.23m-11.18 10c0 2.36 2.94 4.46 4 1.5.76-2.12-.96-4-2.86-5.16a6.1 6.1 0 0 0-1.14 3.72zm16.84-93.76c.6 1.36-.56 1.7-1.38 1a8.6 8.6 0 0 1-.98-1.44c-5.34-7.88-7.46-4-4 2.34l1 1.74c.62 1.04 0 2.22-.88 1.66-.3-.2-.2 0-2.8-3.44-.48-.6-1.1-1.86-1.78-2.26-.62-1.36-1.12-.78-1.48.68.34 1.16-.3-.24 8 16.48l10.66-11.16c-1.02-2-2-4.14-3.22-6.16-.62-1.12-3.58-6.94-4.78-6.18-1.62 1.04 1.08 5.48 1.64 6.8zm-16-.82c.16-.38 1.38-3.2 1.54-3.54s1.34-2.28.66-2.38c-1.44-.22-3.22 3.46-4 4.8-.96 1.88-2 3.3-4.44 8.38l10 10.46 3.04-5.86a98 98 0 0 1-4.88-9.74c-.78.88-2.24-1.26-1.9-2.06zm-9.84 6.12a127.5 127.5 0 0 0-6.3 19.14c-1.02 4.44-2 11.3-1.26 15.76a8.8 8.8 0 0 0 1.15 3.358 8.8 8.8 0 0 0 2.37 2.642c1.48.84 2.46.14 3.6-1.12 3.84-4.22 6.3-10 8.6-15.22a201 201 0 0 0 4.62-11.22zm21.08 14.68c-.14-.22.42.88-2.96-5.88-2.2 4.46-3.14 6.38-3.26 6.5a187 187 0 0 1-4.6 11.1 71 71 0 0 1-7 13.54q1.748-.51 3.54-.84l8.42-14.44c.36-.6 1.24 0 1.5.36l10 13.84q3.255.37 6.42 1.22a62.2 62.2 0 0 1-6.46-12c-1.98-4.34-3.86-8.8-5.58-13.34zm-10.76 24a72.6 72.6 0 0 1 14 0l-7.78-10.7q-3.075 5.345-6.2 10.66zm-7.34 4.44a11.4 11.4 0 0 0-4.466 2.545 11.4 11.4 0 0 0-2.914 4.235 22.8 22.8 0 0 0-1.58 7.32c2.06-.46 4.178-.602 6.28-.42h8.42a8.75 8.75 0 0 1 4.66 1.54l-2.8-4.82c-.34-.62-.56-2 .54-1.82a18.7 18.7 0 0 1 7.34 2.54 18.6 18.6 0 0 0-1.08-5.8c-.14-.44-.28-1.46.44-1.48a11.1 11.1 0 0 1 5.184 1.087q2.46 1.17 4.116 3.333c.96 1.22.16 3.16-1.1 1.58a8.4 8.4 0 0 0-2.807-2.302 8.4 8.4 0 0 0-3.513-.918c.664 2.292.96 4.676.88 7.06 0 .6-.56 1.04-1.12.64a17.6 17.6 0 0 0-6-2.7 412 412 0 0 0 5.78 9.58 7.7 7.7 0 0 1 .971-3.651 7.7 7.7 0 0 1 2.569-2.769c2.44-1.54 5.6-1.12 8.36-1.12h8a8.8 8.8 0 0 1 3 .64 38.4 38.4 0 0 0-3.22-11.68c-1.04-1.86-3.32-2.38-5.54-2.94-10.44-2.72-24.2-1.96-30.38.28zm37.08 16.42h-10.92a7.7 7.7 0 0 0-3.308.326 7.7 7.7 0 0 0-2.872 1.674c-1.88 2-1.66 4.52-1.66 7.04 0 3 .18 6 3.64 7.08q2.462.478 4.96.26c9.08 0 9.24 0 10.38-.16a5.8 5.8 0 0 0 2.16-.82c2.82-1.8 2.92-4.56 2.92-7.82a9.15 9.15 0 0 0-.66-5.02 5.4 5.4 0 0 0-1.991-1.876 5.4 5.4 0 0 0-2.649-.684m-18.62 21.88c-.98 1.16-1.6 3.34-.18 3.62a2.08 2.08 0 0 0 1.5-.8c.84-1.32.14-2.26-1.32-2.82m-21.8-5.48H156a9.7 9.7 0 0 0 5.66-.98c2.9-1.86 2.92-4.78 2.92-7.82q.105-1.58 0-3.16a5.11 5.11 0 0 0-3.404-4.163 5.1 5.1 0 0 0-1.856-.277c-12.28-.3-13.72-.26-15.84 1a6 6 0 0 0-1.24 1.02c-1.86 2-1.66 4.48-1.66 7.04 0 3.22.3 6 3.42 7.02q2.564.585 5.18.32m-6.68-63.9c1.5-5.1 3.5-10.1 5.5-14.88.26-.66.8-.56 1.28-.18s.22.18 2 2.14c1.2-2.46 1.84-3.68 2.52-4.92h-13.14zm21.08-73.72h-6.4l-1.38 24.54 7.78 4zm13.18 0h-6.48v28.58l7.86-4zM192 170.42a17.1 17.1 0 0 0-2.661-4.102 17.2 17.2 0 0 0-3.706-3.19 17.1 17.1 0 0 0-4.452-2.02 17 17 0 0 0-4.841-.688c-6.2 0-13.54-.38-19.22 0q-2.457.195-4.773 1.035a18.2 18.2 0 0 0-4.326 2.266 18 18 0 0 0-3.568 3.336 18 18 0 0 0-2.553 4.163 25.7 25.7 0 0 0-1.42 10.78h14.78c1.84-3.2 2.6-4.7 3.74-5.54q1.231-.92 2.712-.51 1.483.408 2.068 1.83.747 1.83 0 3.66h.12a14 14 0 0 0 1.34-.64 3.7 3.7 0 0 1 .209-1.658q.294-.805.911-1.402c1.28-.9 2.96 0 4.52 1.54a3.07 3.07 0 0 1 0-2.14c.92-2.36 3.78-1.28 5.08 0a21.6 21.6 0 0 1 3.22 4.74h14.22a27.7 27.7 0 0 0-1.4-11.46m1.06 14.34h-12.48c.78 1.48 1.14 2 2.46 4.76l2-2c.72-.76 1.88.44 2 1.44 1.26 3.16 2.5 6.38 3.62 9.66.82-4.64 1.6-9.26 2.4-13.86m-.08 33.64c-.46-9.42-3.78-18.8-7.24-27.56l-13.38 14c1.16 3.1 2.42 6.16 3.72 9.2 2.26 5.22 5.08 12 8.98 16.56q.796 1.192 2.22 1.36c1.14 0 2.44-1.28 3.18-2.16 2.58-3.12 2.82-7.5 2.62-11.5zm13.14 28.3c-.86 0-2.46-2.14-1.26-2.7a6 6 0 0 0 2.003-1.216 6 6 0 0 0 1.577-6.484c-1.64-3.74-8.2-7.38-14.92-6q-1.345 2.792-4.2 4c2.6 3.34 3.88 10.66 4.48 14.88a8.77 8.77 0 0 1 2.78 4c.632 2.618.8 5.324.5 8a7.7 7.7 0 0 1-.327 2.465 7.7 7.7 0 0 1-2.837 4.007 7.7 7.7 0 0 1-2.216 1.128c-.14.54-.3 1.06-.44 1.6l1.02.76c1.06.8.96 3.3-.6 2a19.8 19.8 0 0 0-9.82-4 35 35 0 0 1-4 0q-2.625.17-5 1.3c3.86 3.4 1.52 9.14-2.26 7.54a5.3 5.3 0 0 1-2.421-2.799 5.32 5.32 0 0 1 .001-3.701q-3.857.018-6.98 2.28c4.16 3.46 4.54 8.54 2.3 10.54s-5.18-.68-6.24-2.74a8.3 8.3 0 0 1-.839-3.66 8.3 8.3 0 0 1 .839-3.66c-7.88-2.86-16.5-.14-16.5 8.24 0 12.34 16.92 23.02 32.42 17.2a32.6 32.6 0 0 0 6.837-3.794 32.6 32.6 0 0 0 5.741-5.308q2.55-3 4.317-6.52a32.6 32.6 0 0 0 2.645-7.358c.36-1.44 2.36.7 2 1.82s-.58 2-.94 3.14a9 9 0 0 0 2.354-.089A9.07 9.07 0 0 0 202 277.92c3.76-5.14 0-10-.48-15.42-.3-3.44.86-6.94 4.42-8 2.42-.74 5.2-.94 6.3-3.66 1.38-3.54-3.62-4.02-6.02-4.14z" style="fill:#173f5d;fill-rule:nonzero" transform="matrix(1.18007 0 0 -1.18007 -10.77 370.566)"/><path d="M88.28 214.578a2.23 2.23 0 0 1-1.275-.374 2.23 2.23 0 0 1-.847-1.024 2.3 2.3 0 0 1-.177-.882 2.29 2.29 0 0 1 2.28-2.28c1.25 0 2.28 1.029 2.28 2.28a2.29 2.29 0 0 1-2.261 2.28" style="fill:#173f5d;fill-rule:nonzero" transform="matrix(1.18007 0 0 -1.18007 -10.77 389.776)"/><path d="m127.2 177.98.22.12c.78.4 1.54 1.86.74 2.56a8 8 0 0 0-2.619 4.045 8 8 0 0 0 .179 4.815 34.8 34.8 0 0 0 4 6.5c8.42 12.82.32 27.7-16.1 30.48a5.16 5.16 0 0 1-2.42 1.3c2.88 6 4.56 17.74 5.06 24.84a6.23 6.23 0 0 1 4.96 4.48q.387.086.761.219a6.165 6.165 0 0 1 4.05 6.176 6.1 6.1 0 0 1-.604 2.284c-.231.476-.522.92-.867 1.321 5.68 3.48 4.86 9.72 1.08 11.82 3.32 4.98-1.78 9.7-7.54 11.78 1.1 3.88-2.12 7.68-6.2 8.6a17.5 17.5 0 0 1-8.62-.42c-1.34 6.66-10.48 6-16.62 2.56-3.44 4.84-12.58 2-16.2-2.88q-.607.65-1.396 1.063a5.2 5.2 0 0 1-1.669.541A5.2 5.2 0 0 1 64 299.52a10.6 10.6 0 0 1-2.994-2.419 10.6 10.6 0 0 1-1.946-3.321 10 10 0 0 1-1.787.299 9.94 9.94 0 0 1-5.272-1.051 10 10 0 0 1-4.781-5.248 10.7 10.7 0 0 1-.831-3.988 10.7 10.7 0 0 1 .711-4.012 12.3 12.3 0 0 1-2.125-2.333 12.3 12.3 0 0 1-2.171-5.872 12.3 12.3 0 0 1 .096-3.155c.74-5.48 4.42-8.96 8.94-11.38-4.34-2-5.38-8.54-2.44-12.32a11 11 0 0 1 2.105-1.88 10.9 10.9 0 0 1 5.276-1.873 11 11 0 0 1 2.819.133 23.4 23.4 0 0 1-.002-6.727 23.4 23.4 0 0 1 1.902-6.453q-1.533-.672-2-2.28a42.4 42.4 0 0 0-7.386 3.365 42.5 42.5 0 0 0-6.615 4.702A42.6 42.6 0 0 0 35.5 246.4c-.94 1.8-1.36 5.2-3.3 5.74.66 6 3.34 7.86 3.18 11.64-.18 4.46-3.54 2-5.72-.52a52 52 0 0 1-1.66 7.48c-.5 1.74-1.18 4.94-3.66 4.56s-2.66-3.84-2.68-6.28C20 271.8 18 274.14 16 272.14a6.2 6.2 0 0 1-1.459-2.823 6.2 6.2 0 0 1 .099-3.177c0-.32.12-.66.2-.98a3.16 3.16 0 0 1-1.74.54 3.584 3.584 0 0 1-3.1-3.08c-.26-2.28 1.48-5.18 2.44-7.18a43 43 0 0 1 4.32-7.14 1.96 1.96 0 0 1-.36-1.16c.216-4.278.992-8.51 2.308-12.587a48.9 48.9 0 0 1 20.612-26.445 49 49 0 0 1 20-7.088v-24.94c0-.2.1-.62.34-.7l5.22-1.88v-61.88c-1.5-.28-2.98-.8-4.38-1.2a85 85 0 0 1-9.84-3.34 10 10 0 0 1-3.266-1.673 10 10 0 0 1-2.454-2.727c-.24-.5-.24-.84-.12-1.04.94-3.8 19.52-1.38 21.82-1.16q4.324.45 8.34 2.12c1.38.52 1.72.18 3.06-.22a5.8 5.8 0 0 1 1.6-.42 5.9 5.9 0 0 1 2.76.56c2.6 1.24 1.7 4.98 1.7 7.42v52.94h1.02v-58.74c0-1.24.54-1.64 2-2a5.18 5.18 0 0 1 3.42.3q1.52.673 3.04 0c.78-.26 1.5-.74 2.28-1a33 33 0 0 1 8-1.26 105 105 0 0 1 15.24-.58c2 .14 6.24.66 5.46 3.8a1 1 0 0 1-.16.32c-.9 1.78-3.52 2.74-5.22 3.44a83 83 0 0 1-8.86 3 29 29 0 0 1-5.54 1.44l-.24.1v61.2l5.14 1.48q1.062.402 1.26 1.52.337-.87.76-1.7c.24-.34.52-.24 1.04-.2 1.14-5.04 4.94-14 11.14-13.22.88 0 1.5 1.48 1.3 2.26l-.12.46a3.4 3.4 0 0 1 1.174-.611 3.4 3.4 0 0 1 1.319-.12q.67.07 1.265.39t1.022.841q.52.609.689 1.39a3.1 3.1 0 0 1-.049 1.55q.46-.223.969-.283a3.04 3.04 0 0 1 3.311 2.283c1.58 4.56-5.44 5.96-7.56 9.04M14 258.4c-.34.78-2 3.76-1.18 4.34.52.34 3.58-3.66 4-4.24.86-1.08 2.5 1.34 1.88 2.3s-3.18 9-1.56 9.14c.66 0 2.1-2.6 2.4-3.06a44 44 0 0 0 2.86-5.54c.66-1.56 2.24.84 2 1.8a47.5 47.5 0 0 0-.4 6.54c0 4.52.98 2.56 1.26 1.52a33.8 33.8 0 0 0 2.4-11.06c.14-1.34 1.42-.6 1.88.14s2.12 3.38 3.06 3.22 0-3.38-.18-3.8a28.2 28.2 0 0 1-2.42-7.56c-1.28-.18-2.64-.64-3.48-.8-2.42-.48-4.82-1.08-7.2-1.78A43.6 43.6 0 0 0 14 258.4m4.7-11.58a85 85 0 0 0 10.2 2.34c3.3.94 2.56-2 6.5-8.28l-14-6.5a46.6 46.6 0 0 0-2.68 12.44zm3.62-14.56c14.9 6.96 13.86 6.36 14.24 6.9a43.5 43.5 0 0 1 9.874-10.073A43.5 43.5 0 0 1 59 222.68a.7.7 0 0 1 .28 0v-18.72a47.8 47.8 0 0 0-11.674 3.255A47.76 47.76 0 0 0 22.34 232.26zm91.48-14c.1 1.46.5 3.38.54 5.14 9.42-2.4 18.32-10 16.3-20.66-1-5.28-5.64-8.76-7.12-13.78a36.9 36.9 0 0 0-11.44-1.56 15.54 15.54 0 0 0 3.18 6.58c2.34 2.86 5.1 6 3.56 10a5.8 5.8 0 0 1-5.76 3.76zm-.94-13.34a4.24 4.24 0 0 0 2.232-.628 4.24 4.24 0 0 0 1.586-1.693 4.2 4.2 0 0 0 .482-2.268 4.24 4.24 0 0 0-.76-2.191c-1.32-2.18-3.08-3.88-4.38-6 .28 4.3.58 8.5.86 12.7zm-51.8 39.04a10.1 10.1 0 0 0-4.903.053 10.1 10.1 0 0 0-4.317 2.327c-2 2-3.2 6.6-.14 8.16 2.68 1.36 6.74.18 9.5-1.02 1.48-.64 2.18 1 2.18 1.76 0 5.66-.42 10.94 2.98 15.62 5.12 7.06 14.22 9.34 22.56 8.84a59.4 59.4 0 0 0 12.38-2.3c11.24-3.26 12.7-6.86 12.92-14.68.335-9.002-.492-18.01-2.46-26.8-2-9.1-4.2-13.62-14.54-14-7.7-.3-19.28.46-27.46 3.28a9.9 9.9 0 0 0-4.292 2.283 9.84 9.84 0 0 0-2.708 4.037 25.7 25.7 0 0 0-.9 11.38c.14.54-.08 1.24-.8 1.06m1.34-66.42c-.94.56-1.04 1.08-1.04 2.24s.22 2.76.22 3.5c0 1.66-.1 37.68-.1 39.34 0 .5-.32 2 0 2.48q.609.654 1.5.72a10.8 10.8 0 0 1 3.88-2.76 44.6 44.6 0 0 1 9.4-2.68c3.76-11.2 4.46-10.72 8.36-20.12a24 24 0 0 1-1.589-4.69 23.95 23.95 0 0 1 1.269-14.59 82 82 0 0 0-5.54-9.28c-.22.06-16.16 5.74-16.36 5.84m22.8 1.26c.6-1.34 1.28-2.7 2-4h-4.34c.78 1.22 1.64 2.66 2.34 4m17.06-67.3c-4.929-.609-9.894-.89-14.86-.84v54.2c0 .32-.18.78-.58.78a19 19 0 0 1-3.44 0 1.95 1.95 0 0 1-1.029-.766A1.95 1.95 0 0 1 82 163.64v-52.88c-5.28.18-9.88.52-14.86 1.02v60.94l10.88-4c.68-.24 1.22.34 1.54.86l1.52 2.34c5.78 0 5.84-.12 7.62 0l1.5-2.7q.263-.364.68-.2l11.38 3.26zm6.58 65.34-14.64-4.2c-.74-.22-2-.94-2.76 0a11.3 11.3 0 0 0-.82 1.64c-4.98 9.04-8.2 15.76-4.36 25.3 2.48 6.14 5 8.26 9.84 19.64 5.56.24 10.32 1.54 13.54 6a3.5 3.5 0 0 0 2-1.38c.64-1.02.6 1.74-2.8-47m3.58 2.3a16 16 0 0 0-.68 5.4c3.84-.024 7.664.53 11.34 1.64a10 10 0 0 1 2.14-6.64 31.2 31.2 0 0 0-9.72-2.56c-1.84-.2-2.52.34-3.08 2.16m18.66-9.22a11.84 11.84 0 0 0-4.24 3.38c-.86 1.02-2.36-1.18-2-2q.558-1.306 1.26-2.54a24 24 0 0 0 1.64-2.42c.56-1.52-1.1-.14-1.76.26-1.12.68-2.18 1.52-3.26 2.26s-2.12-1.68-1.7-2.46a16 16 0 0 0 1.12-2.4 12.64 12.64 0 0 0-4.58 4.86 20.8 20.8 0 0 0-2.42 5.48 35.3 35.3 0 0 1 9.58 2.54c1.44-3.24 4.82-4.52 6.46-5.72.82-.72 1.86-2.1-.1-1.24" style="fill:#173f5d;fill-rule:nonzero" transform="matrix(1.18007 0 0 -1.18007 -10.77 365.657)"/><path d="M80.18 137.455a11.9 11.9 0 0 1 4.7-.54c2.12 0 4.26 0 6.38.24 1.16 0 2.28 2.86 1.04 2.76-1.84-.14-3.68-.24-5.54-.24a13.4 13.4 0 0 0-5.08.4c-1.14.6-2.6-2.04-1.5-2.62" style="fill:#173f5d;fill-rule:nonzero" transform="matrix(1.18007 0 0 -1.18007 -10.77 216.159)"/><path d="m98.14 134.48 5.12-1.46c1.1-.3 2.4 2.4 1.04 2.78l-3.7 1.06c-1.108.171-2.189.48-3.22.92-.62 1.44-2.54-.76-2-1.8s1.7-1.2 2.76-1.5" style="fill:#173f5d;fill-rule:nonzero" transform="matrix(1.18007 0 0 -1.18007 -10.77 209.652)"/><path d="M100.16 145.94c.82-.52 2-1.5 1.34-2.18s-2.74-.46-3.64-.38q-2.11.153-4 1.1c-1.14.54-2.62-2.1-1.52-2.62 3.22-1.52 10.36-2.62 11.52 2.18.7 2.82-1.86 4.46-4.46 5.72a12.46 12.46 0 0 1 3.38 5.38c.72 2.82 1.1 7.72-2.56 8.48s-6.16-3.38-7.12-6.14a12 12 0 0 1-.62-3.22c-2.12-5.1 4.1-5.98 7.68-8.32m-1.1 14.96c2.62-.44 2.32-4.2 1.78-6s-2.4-4.62-4.62-3.36c-3.24 1.84-.74 9.96 2.84 9.36" style="fill:#173f5d;fill-rule:nonzero" transform="matrix(1.18007 0 0 -1.18007 -10.77 247.036)"/><path d="m59.24 156.1-3.74.26c-1.18 0-2.36-2.7-1.04-2.78l3.74-.24c1.18-.08 2.38 2.68 1.04 2.76" style="fill:#173f5d;fill-rule:nonzero" transform="matrix(1.18007 0 0 -1.18007 -10.77 254.117)"/><path d="M98.56 178.34c0 .32-.18.8-.56.78-10.86-.12-13.66 3.36-15.76 2.74-3.48-1.04-3.32-7.36-2.82-10 2.94-10.3 18.68-5.82 19.14 6.48m-8.22-9.08a6.8 6.8 0 0 0-2.185-.45 6.82 6.82 0 0 0-4.224 1.246c-.613.43-1.15.959-1.591 1.564 3.14.12 5.92-.14 8-2.36" style="fill:#173f5d;fill-rule:nonzero" transform="matrix(1.18007 0 0 -1.18007 -10.77 294.735)"/><path d="M88.74 157.96c-6.4 1.32-11.88-15.38-5.68-17.16 3.82-1.1 6.7 4.42 7.72 7.18 1.22 3.64 1.7 9.2-2.04 9.98m.12-9.8c-.62-1.7-2.26-5.4-4.64-4.58-3.82 1.32-.46 12.3 3.26 11.66 2.84-.5 1.92-5.34 1.38-7.08" style="fill:#173f5d;fill-rule:nonzero" transform="matrix(1.18007 0 0 -1.18007 -10.77 241.561)"/><path d="M86.328 146.37c-1.037-.006-1.857 1.308-1.866 2.959-.008 1.651.835 2.948 1.866 2.936s1.851-1.328 1.79-2.871-.778-3.031-1.79-3.024" style="fill:#173f5d;fill-rule:nonzero" transform="rotate(18.804 432.326 88.082)scale(1.18007)"/><path d="M96.48 145.52c.98-.32 2.18.66 2.7 2.2s.16 3.06-.8 3.4-2.18-.66-2.72-2.2-.16-3.06.82-3.4" style="fill:#173f5d;fill-rule:nonzero" transform="matrix(1.18007 0 0 -1.18007 -10.77 238.823)"/><path d="M342.56 144.48c-2.56 1.28-4-1.46-4-3.64a5.36 5.36 0 0 1 .566-2.767A5.36 5.36 0 0 1 341 135.96c2.54-1.24 4 1.44 4 3.66a5.34 5.34 0 0 1-.568 2.757 5.34 5.34 0 0 1-1.872 2.103m-1.06-7.2c-1.28-.18-2 1.16-2 2.26-.038.749.168 1.49.587 2.112a3.47 3.47 0 0 0 1.713 1.368c1.5.28 2.26-1.54 2-2.64s-.86-3-2.3-3.18z" style="fill:#fff;fill-rule:nonzero" transform="matrix(1.18007 0 0 -1.18007 -10.77 219.729)"/><path d="M322.74 145.64c-2.56 1.28-4-1.46-4-3.66a5.34 5.34 0 0 1 .568-2.757 5.34 5.34 0 0 1 1.872-2.103c2.54-1.24 4 1.44 4 3.66a5.37 5.37 0 0 1-.571 2.756 5.4 5.4 0 0 1-1.869 2.104m1.48-4.54c-.16-1.34-.96-2.92-2.4-3.1s-2 1.18-2 2.26a3.51 3.51 0 0 0 2.32 3.48c1.5.28 2.32-1.48 2.08-2.64" style="fill:#fff;fill-rule:nonzero" transform="matrix(1.18007 0 0 -1.18007 -10.77 222.467)"/><path d="M296 119.1a224 224 0 0 1 15.22 11.52c1 .84.94 3.38-.6 2.12q-7.08-6-14.66-11.16c-1-.62-1.48-3.42.04-2.48" style="fill:#173f5d;fill-rule:nonzero" transform="matrix(1.18007 0 0 -1.18007 -10.77 186.31)"/><path d="M305.824 121.546a134 134 0 0 1-1.898 16.669c-.226 1.285 1.567 3.029 1.898 1.081.993-5.496 1.64-11.05 1.94-16.627.028-1.315-1.919-3.131-1.94-1.123" style="fill:#173f5d;fill-rule:nonzero" transform="rotate(-135.594 332.645 100.416)scale(1.18007)"/><path d="M354.12 123.86a11.5 11.5 0 0 0 2.66-4.74c.14-1.78 2.28 0 2.18 1.22-.18 2-1 2.92-5.88 10.12-.74 1.1-2.54-1.3-1.88-2.28z" style="fill:#173f5d;fill-rule:nonzero" transform="matrix(1.18007 0 0 -1.18007 -10.77 182.463)"/><path d="M345.2 175.08a8 8 0 0 1-.6-2.92c-1.74-10.5-17.24-15.04-14.54-6.34.6 2-1.46 1.68-2 .18-.74-2.36-1.48-5.7 1.28-7.08s6.14.12 8.38 1.36a17.4 17.4 0 0 1 6.34 6 19.4 19.4 0 0 1 2.5 6.98c.52-.22 1.16-.62 1.32-.7 1.08-.6 2.6 2 1.5 2.62-1.38.78-3.1 1.66-4.18-.1" style="fill:#173f5d;fill-rule:nonzero" transform="matrix(1.18007 0 0 -1.18007 -10.77 282.84)"/><path d="M388.48 255.64c0 .32-.16.78-.56.78h-2.52c.36.34.7.7 1.02 1.04a12 12 0 0 1 3.58 6.28 6 6 0 0 1-1.618 3.75 6 6 0 0 1-3.642 1.85c.36 2.22 1.82 13.8-2.2 12a7.1 7.1 0 0 1-2.233-1.805A7.1 7.1 0 0 1 378.96 277c-.58 2.46-1.72 4.36-4 3.36-3.52-1.52-2.98-7.8-2.6-11.88a3.02 3.02 0 0 1-1.946.157 3.02 3.02 0 0 1-1.654-1.037c-2.74-2.72-2-7.54-.68-11.24h-1.06c-1.06 0-1.72-1.36-1.58-2.28.584-3.63.972-7.288 1.16-10.96a49 49 0 0 1-12.6 5.04q.555 1.284.64 2.68c.246 5.564.214 11.14-.1 16.7 1.183.19 2.325.586 3.372 1.169a10.17 10.17 0 0 1 3.813 3.709 10.2 10.2 0 0 1 1.435 5.122 6.17 6.17 0 0 1-.536 3.199 6.16 6.16 0 0 1-2.064 2.501c-2.4 1.28-5.24-.28-7.42-1.9-.1 1.2-.22 2.42-.32 3.62.82-.16 2 1.7 1.5 2.56a74 74 0 0 0-6.44 11.06c-.62 1.44-2.56-.76-2-1.82s1.16-2.48 1.82-3.68c-.9.46-1.78.92-2.64 1.42-2.58 1.48-6.52 3.6-8 6.58l1.58 1c.98.6 1.48 3.44 0 2.5-10.98-6.82-16.42-15.5-25.86-17.8a425 425 0 0 0 8 6.56c1.04.8.98 3.32-.58 2.1a250 250 0 0 1-12.78-10.76c-.94-.86-.86-3.44.6-2l3.38 3a1.6 1.6 0 0 1-.26-.86l.36-7.34c-4 1.2-7.66-.18-8.88-4.16-2-6.28 3.44-10 9.08-9.66.3-4.432 1.285-8.79 2.92-12.92-3.3 0-6.58-.26-9.86-.6-3.62-.36-6.26-.54-8.78-3.26-6.14-6.64-12-13.6-17.62-20.66-2-2.6-5.74-5.8-6.22-9.28-.4-3.1 2.24-6.76 3.84-9.18a242 242 0 0 1 16.36-20.42.64.64 0 0 1 .54-.22.94.94 0 0 1 .16-.84c1.72-2-3.52-5.9-4.84-7.38-1.02-1.14-2.94-4-1.4-5.5 1.1-1.1 2.94-.14 4.8 1.48a2.5 2.5 0 0 1-.236-1.273 2.53 2.53 0 0 1 .416-1.227c1.16-1.36 2.88-.4 4.6 1.3a1.65 1.65 0 0 1 .237-1.02 1.65 1.65 0 0 1 .793-.684c.218-.094.452-.14.69-.136q1.05.043 1.984.525t1.576 1.315a2 2 0 0 1 0-.34c0-.32.18-.78.56-.78q2.558.004 5.1.28c1.695.184-.62-47.46-.64-49.52-5.58-.62-22.42-2.64-20.26-8.18.96-2.5 7.6-1.84 9.56-1.86 8.24 0 21.16.84 28.76 1.54.82 0 1.3 1.3 1.34 2 1.06 16.88 3.42 54.1 3.52 55.84h1.8c1.06-16.62 3.46-54.58 3.6-56.96 0-.36.16-.74.58-.78 8.22-.76 26-2.14 34.1-1.26a7.46 7.46 0 0 1 4 1.16c6 5.04-11.46 7.76-19.26 8.72l-.66 51.02q1.479 0 2.94.18.381.079.704.296.324.216.542.538a2 2 0 0 1 .314 1.466c-2.28 7.36-.8 14.94.76 22.3q1.56 7.44 3.28 14.86c4.9-1 9.946-1.04 14.86-.12q1.437.174 2.772.739a10.3 10.3 0 0 1 5.728 6.121c3.5 8.18 3.36 18.18 3.24 26.92-.16 2.64-.24 5.22-.42 7.78m-3.76 10.78q2.139-.915 3.04-3.06c.3-1.3-1.68-3.5-2.44-4.3a8.3 8.3 0 0 0-1.76-1.44c-.48-.3-1.5-.98-2-.48s.88 2.64 1.18 2.98 1.6 1.58 1.4 1.4c.92.86.92 3.4-.6 2-1.1-.92-3.36-3.2-5-2.86-2.7.56.24 3.28 1.22 4a5.5 5.5 0 0 0 2.259 1.502c.865.31 1.793.399 2.701.258m-15.48-1.64c.54 2.32 2.3.86 2.74-.62q.511-2.149.8-4.34c.24-1.42 2.3.68 2.1 1.82a28 28 0 0 1-.88 4.52q.53.531.58 1.28c0 .46-.14 4-.18 5.42s-.42 4.14.46 4.78c1.6 1.18 2.4-6.72 2.54-8.7s2.1.18 2.18 1.22.94 8.56 2.66 7.6.66-6.9.34-8.8q-4.173-1.638-6.58-5.42c-1.16-1.62-2-4 .3-5.2q1.6-.757 3.2 0a5.4 5.4 0 0 1-.3-2h-8.42q-2.025 3.991-1.54 8.44M358 243.86c-7.08-13.68-12.46-28-18-42.42a421 421 0 0 0 3.16 38.4q5.412 1.584 9.18 5.78a44 44 0 0 0 5.66-1.76m-44.28 21.86c0 .54-.3.82-.84.76-3.86-.48-9.34 1.5-8.5 6.28.58 3.34 4.5 2.86 7.5 1.34.96-.48 1.88 1.14 1.84 2l-.42 8.46c4.96 1.54 9.46 5.1 13.44 8.2 2.78 2.16 5.5 4.44 8 6.84 1.78-4.32 11.42-9.44 15.34-10.88 0-.18.24-2.94.86-9.84 0-.86.78-.94 1.4-.44 1.6 1.3 4.34 3.5 6.58 2.38a4.4 4.4 0 0 0 1.537-1.732q.535-1.071.463-2.268c.18-4-3.24-6.52-7.08-6.6a1.94 1.94 0 0 1-1.162-.71 1.94 1.94 0 0 1-.438-1.29c.14-4.88.26-9.76.24-14.66 0-2.54.18-4.46-1.14-6.24-2.3-3.06-7.04-4.8-10.8-5.62a26.95 26.95 0 0 0-12.96-.38c-5.82 1.68-9.44 7.14-11.46 12.88a41.8 41.8 0 0 0-2.4 11.52m-12-88.96c-1.4-1.68-3.38-3.2-3.02-1.02a22.7 22.7 0 0 0 2.9 5.12c.9 1.62-.6 2.48-1.58.92-1.22-2-6-8.88-6.38-6.6 0 .62 1.3 2 1.64 2.58.84 1.3 1.42 2.74 2.32 4s.16 3.18-1.12 1.56a44.5 44.5 0 0 0-5.64-6.18c-.28-.24-1.86-1.66-2.22-1.38-.8.64 2 2.92 2.38 3.3 2.5 2.52 6 6.5 4 9.36l.78.54 5.66 4.66c.2-.7.72-.34 2-1.02a6.476 6.476 0 0 0 3.34-7.32 19.7 19.7 0 0 0-2.98-5.56 34 34 0 0 0-2.1-2.96zm-9.88 41.8 9.66 9.2a247 247 0 0 0 1.06-26.62c-3.74 5.74-7.4 11.46-10.74 17.42zm21.72-42a45 45 0 0 0-9.78-1.24v1.18c2 2.92 4.58 6.24 5.24 9.84q.258 1.338.074 2.688a8.2 8.2 0 0 1-.791 2.57 8.2 8.2 0 0 1-1.574 2.181 8.2 8.2 0 0 1-2.189 1.561 259 259 0 0 1-1.08 35.2c0 .8-.78 1.02-1.38.44L290 219.52a1.94 1.94 0 0 1-.668-.999 1.96 1.96 0 0 1 .028-1.201c3.02-5.48 6.12-10.7 9.6-16a27 27 0 0 0 3.18-4.64 38.8 38.8 0 0 0-8.42-6.56c-8.68 10.46-16.52 19.18-19.04 25.52-1.32 3.32 4 8 6 10.54a424 424 0 0 0 14.44 16.98c1.22 1.36 2.4 3.12 4.22 3.66q2.413.52 4.88.62c1.08.12 2.16.2 3.24.28a.8.8 0 0 1 0-.22 247.8 247.8 0 0 1 7-52.9c0-.4.32-.52.6-.46-.58-4.74-1.06-10.2-1.52-17.54zm-4 71.24c2 .12 4.14.16 6.22.18a20 20 0 0 1 6-7.16 462 462 0 0 1-6.18-40.68 245 245 0 0 0-6.04 47.7zm28-62.12a198 198 0 0 0-21.26.52 497 497 0 0 0 7.24 53.5c4.48-2.36 9.42-2 14.42-1.12 1.02.16 2 .38 3.06.62a420 420 0 0 1-3.44-53.48zm47.3 39.3c-.72-2.94-1.74-6.64-4.96-7.6a34.8 34.8 0 0 0-9.471-1.225 34.8 34.8 0 0 0-9.449 1.385c-1.24.18-2.32-2.4-1.04-2.78h.34c-4.48-19.26-6.78-28.46-4.82-37.3a69.3 69.3 0 0 0-12 .3 11.6 11.6 0 0 0-2.8.38c-.84.46-.7 1.06-.8 1.82a71 71 0 0 0 0 10c0 2.16 0 4.34.12 6.5 1.3 1.46 9.58 26.9 19.78 46.6v.24a48 48 0 0 0 4.42-2.22c2-1.12 2.12-1.88 1.56-4-.46-1.76-.9-3.5-1.34-5.24a2.27 2.27 0 0 0-1.9-.5c-1.16.16-2.38-2.58-1.04-2.76 8.54-1.16 7.52 16.62 6.36 25.22h18.52c.54-8.24.48-20.78-1.46-28.78z" style="fill:#173f5d;fill-rule:nonzero" transform="matrix(1.18007 0 0 -1.18007 -10.77 382.202)"/><path d="M342 132.86c3.44.56 5.14 4.5 5.28 8 .14 2.96-2 7.36-5.72 6.68-3.4-.64-5.16-4.8-5.14-8s1.8-7.26 5.58-6.68m.66 11.56a5.34 5.34 0 0 0 1.872-2.103 5.34 5.34 0 0 0 .568-2.757c-.1-2.22-1.52-4.9-4-3.66a5.4 5.4 0 0 0-1.872 2.114 5.4 5.4 0 0 0-.568 2.766c-.14 2.18 1.34 4.92 3.9 3.72z" style="fill:#173f5d;fill-rule:nonzero" transform="matrix(1.18007 0 0 -1.18007 -10.77 219.753)"/><path d="M341.5 137.44c1.44.18 2.22 1.76 2.4 3.1s-.56 2.92-2 2.64a3.47 3.47 0 0 1-1.713-1.368 3.47 3.47 0 0 1-.587-2.112c-.02-1.1.62-2.44 1.9-2.26" style="fill:#173f5d;fill-rule:nonzero" transform="matrix(1.18007 0 0 -1.18007 -10.77 220.013)"/><path d="M322 139.02a4.87 4.87 0 0 1 2.9 1.56c-.4-2-.78-4.18-1.14-6.26a47 47 0 0 1-.94-6c0-.84 0-1.62.74-2.12 1.2-.82 3.78-.42 5.1-.4 2 0 4 .14 6 .32 1.12.12 2 2.88.52 2.72a72 72 0 0 0-8.24-.24 1.8 1.8 0 0 0-1.42.28c-.64 0-.74.5-.34 1.18q.155 2.428.78 4.78c1.46 8.58 3.28 16.96 5.52 25.52.5 2-1.8.68-2.12-.54-.88-3.4-1.72-6.8-2.48-10.22-2.44 7.52-10.44 3.68-10.38-4 .02-2.92 1.9-7.16 5.5-6.58m.66 11.56a5.4 5.4 0 0 0 1.909-2.082q.675-1.297.611-2.758c-.1-2.22-1.52-4.9-4-3.66a5.34 5.34 0 0 0-1.872 2.103 5.34 5.34 0 0 0-.568 2.757c-.04 2.18 1.44 4.92 4 3.64z" style="fill:#173f5d;fill-rule:nonzero" transform="matrix(1.18007 0 0 -1.18007 -10.77 228.297)"/><path d="M321.82 138.94c1.44.18 2.24 1.76 2.4 3.1s-.52 2.92-2 2.64a3.5 3.5 0 0 1-2.32-3.48c.1-1.08.64-2.42 1.92-2.26" style="fill:#173f5d;fill-rule:nonzero" transform="matrix(1.18007 0 0 -1.18007 -10.77 223.577)"/></svg>