<svg xmlns="http://www.w3.org/2000/svg" viewBox="0 0 200 200" preserveAspectRatio="xMinYMin"><desc>Being Silly Crazy Streamline Illustration: https://streamlinehq.com</desc><g fill="#fdeaa9"><path d="M82.75 131.69c.25 1.6 3 5.47 4.12 6.72 1.71 1.87 2.77 2 8.11 4.44 1.3.59 1 .86 2.17 1.74a7.1 7.1 0 0 1 4.12 1.44c3.55.18 8.87-1.25 13.36-4.79a39 39 0 0 0 5-5.22 1.66 1.66 0 0 0 .19-1.94 37 37 0 0 1-3-10.46c-.12-1.64-.45-1.46 3.75-2.41 2.64-.6 2.37 2.87 3.76 7.71a20 20 0 0 1 1.44-3.31c4.12-6 0-13.46 1.08-14-.45-1.78-1.63-5.36-3.1-6.46-4.77-3.62-5.8-5.22-8.34-6.91a7 7 0 0 1-3.41-4.42c-.57-.71-1.14-1.44-1.68-2.2a3.8 3.8 0 0 0-1.26-.33c-.44 13.75 2.88 13.89 1.24 14.66-.73.35-3.25 1.15-3.37.51 0-.11 0 0-5.43.94.33 1.34-3.18-.28-6.5 1.12-.91.38-1.48-.39-2-1.18-3.27-2.55-3.27-9.92-3.13-14.06-2.54 2-8.08 15.81-7.52 21.49 0 .34.09.8-.32.9.23 1.31.47 2.27-.72 3 1.31.91.13 4.63 1.44 13.02m34.44-12.1a2.7 2.7 0 1 1 0-5.4 2.72 2.72 0 1 1 0 5.4m-5.33-18.92a2.2 2.2 0 0 1 1.57-.17 13.13 13.13 0 0 1 6.47 2.5 1.6 1.6 0 0 1 .89 1.66c-2.14-1.8-6.53-3.94-8.75-3.37a.32.32 0 0 1-.41-.2c-.08-.25.1-.33.23-.42m7.66 9.16c.91.61.84 2.64-.38 2-5.14-2.63-7.84.6-8.6-1.37-.54-1.28 4.77-3.46 8.98-.63m-21 7.84a5.05 5.05 0 0 1 7.13-1.45c1.62 1.09 1 3.42.29 2.19-2.5-4.23-7.24-1.29-7.11 1.07 0 .22.12.52-.26.52-.86 0-.57-1.56-.07-2.33Zm-3.16 7.26c9.93 2.06 7.73 2.7 16.28-2.84a6 6 0 0 1 .62-.33c.35-.15.78-.47 1.05 0s0 .6-4.24 3.38c-.39.24-.47.39-.32.92.69 2.44 1.37 4.93.55 7.48-1.39 4.29-6.49 4.7-8.33.34-2.06-4.86-.69-7.11-3-7.43a22 22 0 0 0-2.8-.68c-.88 0-.7-1.02.17-.84Zm-9.45-10.16c2.49-4.72 11.47-3.13 6.58-.5a.72.72 0 0 1-.77 0c-.36-.28.33-.39.16-.76-4.74 2.09-4.57 4.33-5.48 3.87a1.88 1.88 0 0 1-.51-2.61ZM88.2 120c2-.62 3.75 1.9 3.3 3.8-.9 3.74-6.4 4.12-6.35.22A4.22 4.22 0 0 1 88.2 120M146.5 159c-10.44-18.08-7.41-14.42-8.15-14.9-.62 1.18-1.17 2.26-2.81 2.39 3.79 6 8.7 11.41 13.29 17.06.83.36.52.36-2.33-4.55M69.43 151.76c.39-.78.68-.4-5.57-2.78-3.75 28.02-4.34 22.48 5.57 2.78"/><path d="M148.5 176.47c1.11-.36 2.46-4.32 2.82-5.4.41-1.25.52-2.32-.42-3.33-3.27-3.53-15.34-18.69-14.73-18.87a25 25 0 0 0-1.44-2.12c-.25-.17-.72-.11-.63-.61.11-.68 1.74-.64 2.41-1.26.1-1.25.92-2.27 1.42-3.35 1.92-4.22 3.78-1.8 10-4.18.7-.26.86.3 0-2.93-.22-.78-6.18.24-7-.86-2.25-1 3.95-3.17 8.79-5.76.35-.19.52-.38.3-.79-1.64-3-1.49-3.9-2.76-3-2.15 1.5-4.4 2.84-6.45 4.48-3 2.41-4.08.88-3.29-.17 7.92-10.5 9.19-8.87 7.54-11-.28-.37-.83-.21-1.22 0a31.3 31.3 0 0 0-10.18 10.81c-.61 1.05-1.18 1.22-2.42.7a1.3 1.3 0 0 1-.6-.47c-.38-.28-.54-.69-.24-1.37s.52-1.44.81-2.15c.48-1.13 4.15-8.75 3.78-9.43a5.43 5.43 0 0 0-3.31 1.27 92 92 0 0 0-5.92 11.38c-.67 1.46-.63 1.48.66 2.45a7.23 7.23 0 0 1 2.65 3.09c.31.8-.17 1-.48.72-.64-.68.21-.8-3.93-3.88-1.74-1.29-1.36-2.3-2.53-6.89-.37-1.45-.62-1.55-2-1.2-2.37.6-2.42.61-1.9 3 1.71 7.8 5.3 14.68 9.88 21.22.49.7 0 1.21-.66.59 0 0-.77-.79-.83-.82a21.9 21.9 0 0 0 .29 5.74c.62 3 4.32 16 6.35 18.32a15 15 0 0 0 1.64 1.77c.97.83 3.65 7.5 13.6 4.3M66.17 116.85c-1.17-1.7-2.1-1.89-3.91-.79a1.3 1.3 0 0 0-.39.36c.51 2.9 4.4 8.74 5.25 11.33a1.37 1.37 0 0 1-.73 1.84 3.08 3.08 0 0 1-3.68-.64c-11.81-10.21-10.78-9.89-11.8-8.54-2.08 2.78-2 2.23.16 4.78 3 3.54 5 4.44 9.23 9.69a.72.72 0 0 1-.27 1.23c-4.65 2.44-2.83 2.23-12.16-.84a2 2 0 0 0-1-.13c.66 1.62 1.28 3.22 2 4.79.87 2 14.1.94 10.94 3.62-.95.81-3.24 2.15-4.28 3-.39.32-1.2.5-.73 1.36.66 1.19 1 1.4 2.11 1.15 3.34-.76 4.52-2.24 7.53-1.14 6.32 2.31 9 4.06 10.82 1.92.94-1.1 2.37-3.45 3.2-2.44.35.43-.22.43-.36.62-1.88 2.61-3.33 4.67-6.38 3.64-2.17-.74-.31-.17-10.27 19.64-2.61 5.2 3.77 5.39 6.77 10.78a6.72 6.72 0 0 0 4.53 3.46c.84.24 1.83.46 3.49-1 2.14-1.87 3.87-2.47 4.33-5.61 1.32-8.94 1.9-28.55.34-38.75-.93 1.07-1.07 1.35-1.41 1.11s0-.61.17-.86c5.43-7.5 1.79-.19 1.46-18.77 0-2.78-.58-2.48-1.76-2-1.82.68-3.62 1.53-3.33 3.36s.44 3.52.65 5.28a1 1 0 0 1-.42 1c-2 1.43-3.42 4.75-4.1 4.36-.38-.22-.14-.56 0-.79 3.16-5.12 3.1-3.6 3.49-4.47a.83.83 0 0 1-1.15-.37 134 134 0 0 1-8.34-11.18M102.22 151.51a7.54 7.54 0 0 0 8-.42c3.34-2 3.3-7 4.25-8.2a1.5 1.5 0 0 0 0-.22c-4.32 3.41-12.93 6.09-17.53 3a11 11 0 0 1-1-.6 13.75 13.75 0 0 0 6.28 6.44M53.13 18.61a20.7 20.7 0 0 0-4.22.69c-8.91 1.77-9.81 6.75-18.2 10.18a6 6 0 0 0-1.16 3.26c-.23 3.21-.56 6.41-.67 9.63-.24 7.16-3.26 17.58 2.26 17.21 1.29-.09.76-.75.41-2.36-.16-.73.48-.89.9-.51 3.23 2.95 2.76 1.65 3.54.95 1.88-1.72-.66-2 .61-6.57-2.74-2.91-3-8.94-2.83-12.9 0-.44-.05-1.17.44-1.19.66 0 .37.73.39 1.12.22 4 .42 8.05 2 12 .22.56 0 .71.38-.29 1.41-4 4.25-5.8 8.29-6.24-3.12-2.78-5.51-12.45-3.94-12.26 1 .12-.85 4.19 4.35 11.3a1.12 1.12 0 0 0 1.29.48c2.18-.4 1.87.29 4.66-.66 0-.58-1.65-2-4.57-10.19-.15-.4-.48-1.34-.07-1.45.64-.18 1.1 3.51 5.53 11.29 1.39-.58 1.21-.5 1.14-.6a41.8 41.8 0 0 1-5.06-10.08c-.08-.28-.18-.54.17-.65.79-.28.51 2.24 5.66 10.47.93-.45 1.85-.92 2.8-1.33s.08-1.47 1.22-3.58c-5.31-10.69-6.55-10.11-6.07-10.6s2 1.68 2.61 2.61c5.74 8.49 2.67 7.95 5.38 5.77a18 18 0 0 1 6.69-3.45c2.32-.93 2.46-.7 2.78-1.07-2.51-3.13-7.26-6.58-6.71-7.1a.42.42 0 0 1 .62.08c1.05 1.11 7.85 6.66 7.94 8 0 .69.09.34.85 1.09a4 4 0 0 1 1 .19c-2.72-3.56-5.19-7.3-8.52-10.45a.76.76 0 0 1 1 .2 31.3 31.3 0 0 1 7 8.47c.23.42 1 .52 1.17 1.09a3.3 3.3 0 0 0 .53 1.06c7.79-1.43 3 .43-.25-4.38-.73-1.09-1.53-2.14-2.15-3.28a18.2 18.2 0 0 0-6.12-5.42c-4.1-1.79-3.72-1.19-4.94-1.78a1 1 0 0 0-.16.14c-.54.59-1.06.45-1.34-.33-.6-1.62-.22-1.82-1.69-2.46-1.39 1.95-1.12 2.16-3.48 1A5 5 0 0 0 56.27 17c.16.1.43.14.36.38-.14.58-1.32-.05-1.94-.52a1.45 1.45 0 0 1-.74 1.4l.1.09c-.24.42-.61.26-.92.26M42.52 42.9c.06.23.2.48-.11.6-.76.28-2-5.57-2.2-6.41a5.25 5.25 0 0 1-.35-2.85c.54.36.38.07 2.66 8.66M194.5 150.18c-12.13-15.68-11.67-16.43-13-14.34-2.06 3.28-1.93 4.56-3.08 3.64-12.64-10.12-12.24-10-12.92-9.4-.94.8.26 1.78 4.05 7.45 10.41 15.59 10 16 11.35 14.55 2-2.06 2.13-3.19 2.73-2.18 6.79 11.39 4.45 9.72 10.83 2.58a1.54 1.54 0 0 0 .04-2.3m-1.87 1.68c-3.41 4.09-3.07 4.43-3.87 3.1-4.95-8.24-4.9-9.21-6.54-7.23-1.81 2.2-2 2.85-2.53 2-6.69-10-9.71-14.16-9.53-14.58s3.11 2.41 8.44 6.65c1.41 1.12 1.83 0 3.86-3.83.62-1.18.08-1.62 10.19 12.65a.88.88 0 0 1-.02 1.24M41.31 147.51c-1.71-.66-4.38-1.63-5.46-.13 0 0-5.1 6.94-9.37 12.92-1.44 2-.28 2 4.31 4.26 1.74.84 1.88.79 2.8-.87 8.41-15.12 9.21-15.61 7.72-16.18m-3.14 4.38c-6.42 11.53-6 11.61-7.17 10.91-2.22-1.31-3.46-1.09-2.71-2.12 8.94-12.37 8.2-13 9.48-12.43 2.1.97 2.52-.16.4 3.64M76.86 57.78c1.4 0 1.53 0 1.85-1.33 1.15-5 1.62-7.11 1.66-9.06-.4.37-4.05 5.8-7 6.08a16.3 16.3 0 0 1-5.22-.08c-1.16-.26-1.73.78-2.69.8a10.7 10.7 0 0 0-.26 2.1 74.4 74.4 0 0 0 11.66 1.49M56.27 71.61a.92.92 0 0 0 1.16-.48c1.51-2.31 3.81-10.75 4.75-13.37.14-.41.73-.72-.27-.82-1.28-.12-.65 1.13-2 1.33s-.4 1.28-2.49 6.95c-.81 2.18-2.5 1.46-6 1.65-.11 0-5.34.26-5.14.65 2.59 2.64 6.33 2.92 9.99 4.09M17 153.47c-.85 1.58 1.63-1.29-6.24 5.84-5.42 4.9-6.55 5.34-5.42 6.52 4.35 4.58 5 5.87 6.15 4.22 9-12.57 8.77-12.08 8.77-12.79a12.5 12.5 0 0 0-1.9-4c-.36-.6-.95-.46-1.36.21m.89 4.5c-7.62 10.75-7.33 11-8.19 10-4-4.4-4.53-.88 6.88-12.44.56-.56.83-.51 1.09.21.45 1.15.95 1.26.26 2.26ZM82.8 22.84a8.4 8.4 0 0 0 2.6-.07c1.59-.41 1.21.72 4 3.94.67.77 1.68.53 1.73-.62.22-5.29-1-3.05 2.9-5.82 1.15-.82.62-1.81-.34-2.06-5.59-1.41-3.88-.91-7.54-4.86a1.09 1.09 0 0 0-1.2-.28c-.51.15-.46.61-.45 1 .08 2.44 1.58 4.1.55 4.79-3.55 2.38-3.66 2.57-3.47 3.19a1.16 1.16 0 0 0 1.22.79m4-5.83c1.34 1.71 3.26 2 5.18 2.49-.75.69-1.71.85-2.15 1.66s-.24 1.7-.35 2.84c-1.22-1.56-1.92-3.7-4.54-2.9 1.76-.99 2.91-2.1 1.89-4.1ZM27.71 73.84a.86.86 0 0 0 1.62-.45c0-1.88-.23-1.47-.21-3.8 0-1.39 1.13-.89 2.85-2.68a.94.94 0 0 0-.59-1.67 15 15 0 0 0-2.79-.13c-3.47.58-5.08-3.27-4.88-1.17.39 4.19 1.08 2.69-2.24 4.85a.79.79 0 0 0 .5 1.46c4.1-.05 3.08-.94 5.74 3.59m-2.85-5.21c1.16-1.09.32-2.16.35-3.31 1 1.43 2.53 1.31 4.27 1.59-1.92.62-1.87 2-2 3.53-.64-.99-1.27-1.81-2.62-1.81"/></g><g fill="#f8cdb0"><path d="M164.6 70.84a8.2 8.2 0 0 0-1.95-2.39c-.39-.41-.59-.43-1.1 0-3.31 2.55-6.94 3.47-11 1.75a.76.76 0 0 0-1 .21 21 21 0 0 0-2.52 2.73c-1.22 1.79-1.35 1.5.74 2.08 1.38.38 7.88 2 8.36.64.7-2 1.07-1.61 3.67-1.21-.59-1.39-.69-2.75.41-3.78 1.37-1.25 2.86-.61 4.39-.03M123.85 58.94c-4.58 6.41-3.44 7.61-4.57 8.25-3.7 2.08-5.77 5.66-8.22 8.89-.87 1.13.69-.93 9.37 3 1 .47.95-.1 2.41-5 .22-.74 0-1.54.33-2.22.67-1.54 2.34-4.75 3.49-3.43A33 33 0 0 0 128.8 71c1.28.9 2.17-1.1 2.09-2.4 0-.67.84-.78 1.14-.3.51.43 1.07 2.81 2.38.46a5 5 0 0 1 .59-.89 5.3 5.3 0 0 0-.19-2.27c-.39-1.42-.44-1.39 1-1.89 2.46-.84 4.14-2.18 2.48-4.17-3.05-3.66-6.56-2.15-7.24-3-.46-.28-.53-1 .61-1.08.92-.05 2.07-.46 2.08 0a40 40 0 0 1 7.15.2c.61.06 1.56.46 1.73-.16s-.76-1.06-1.39-1.35c-5.94-2.63-14.23.43-17.38 4.79"/><path d="M141.37 80.43c5 1.14 6.67-.85 9.19-2.91.75-.62.36-.58.11-.63-6.67-1.33-3.83-2.66-6.71.72-.76.89-1.62 1.52-2.88 1.1-2.68-.9-2.9-3.07-2.24-5.81.37-1.53.37-1.53-1.19-2.25-.56 3.92-.12 8.92 3.72 9.78M161.54 65.87c.72 2.1 3.3 2.4 4.41 5.85.09.29.4.62 0 .9s-.69 0-1-.21c-1.46-1.23-3.75-2.18-4.53-.18-.59 1.55 1.13 2.67.73 3.25-.79 1.15-3.86-1.53-4.09.9a3.84 3.84 0 0 0 1.33 3.32c2 1.85-1.32 1.64-.36 4.28.61 1.66 2.53-.26 2.64 2.24.24 5.69 3.15 8 3.45 9.09 3.63 13.39 6.9 18.94 15.37 18.49 2.63-.14 3.42-2.91 4.36-6.34 1.19-4.35-.88-7.29-3.87-10.7-.57-.65-.86-1-1.19-1-2.25 1.74-2 1.1-.31 3.3a50 50 0 0 1 4.57 7.08c.12.24.43.56 0 .77-.22.1-.36 0-.48-.22a.76.76 0 0 1-.35-.32c-5.87-9.35-11-13.72-11.8-18.41-1.47-8.53 1.25-7.11-.71-15.38-1.79-7.83-9.18-9.58-8.17-6.71"/><path d="M173.83 66.23c-.16 0-2 .49-2.54-1.21-1.6-2.9 3.82-6.36 3.16-6.92-4.24-.89-2.66-4.75.72-7.87 1.21-1.11-1.72-1.07-1.78-4.93 0-.95-.33-1.49-1-1.73-2.44 1.64-5.52-.1-5.85-2.12-.07-.22-1.95 2.36-3.82 3.95-2.74 2.34-4.56 1.57-5-.32a7.3 7.3 0 0 1 .21-3.21c-1.16.37-4.24 2.25-4.74.13a1.68 1.68 0 0 1 .14-2.22c3.17-4.38 2.46-3.48 4.26-5.16-2 .17-3 .76-6.76 1.11 1 .89 2.45 1.18 2.2 2.9a7.49 7.49 0 0 0-6.82-2.63 2.5 2.5 0 0 0-1.35.75c-8.57 8.29-5.2 11.48-8.39 12.75a3.37 3.37 0 0 0-1.66 2.55c-.05.33-.27.24.5.21 2.34-.08 6.61.52 7.93 2.42 1.17 1.68-.89 1.69 0 2.4 9.45 7.49 12.83 2.95 17.6 4 1.52.34 3 .74 3.06 2.72 0 .73 4.8 1.22 6.9 8.37.49-.47 1.17-.93 1.13-1.78-.07-1.66 1.78-3.39 1.9-4.16m-33-13.5c-3.11 0-3-4.42-.2-4.44s3.37 4.45.19 4.44Zm1.17-4.88c-1.1.32-1.27-.93-.3-1.12 1.31-.27.27-1.34 2.67-1.27 1.59 0 4 2.17 4 3.64-.72 1.96-2.37-2.42-6.37-1.25m8.51 11a5 5 0 0 0-3-2.08c-2.47-.6-1.06-4.08 2.45-4.46a1.12 1.12 0 0 1 1.35.8 3.81 3.81 0 0 0-3.73 1.26c-.69.75-.47 1.39.48 1.75h.1c3.31 0 2 3.63 5.15 2.39.27-.1.59-.38.79 0 .38.74-2.1 2.34-3.63.35Zm16.87-14.78c2.66.6 5.08 1.63 6 4.5.53 1.63.74 2.7-.19 3.27-.46-5.21-3.33-6.62-7-7.3.11-.76.81-.54 1.15-.46Zm-4.05 12.84c0-1.35 2.18-4.56 3.44-5.08.66-.27 1.34.18 1.14.85-1.62 5.32-4.6 6.17-4.62 4.24Zm3.23 7.68c-3 0-2.86-4.7.07-4.77a2.45 2.45 0 0 1 2.34 2.29 2.6 2.6 0 0 1-2.45 2.49ZM136.2 64.77c-.16.09-.52.09-.43.3.35.89.08 2 .73 2.74.81.94 1.73 1.77 2.59 2.66s.45-1.56 2.7-4.18c-.75-.39-1.68-.45-2.09-1.07-1.05-1.57-2.22-1.14-3.5-.45M126.32 175.42c.9 0 2.27.28 2.54-.38.48-1.15-1-2.95-1.84-3.79-2.35-2.05-3.53 2.46-4.69 1.09-1-.52-2.53-6.28-5.19-4a9.4 9.4 0 0 0-2.56 3.31c-.89 2.07-1.62-.77-2.81.37-2.2 2.12.45 3.33-1.43 4.76 4.46.4 6.87-1.21 15.98-1.36M62.81 93.57c0-.6.18-1 .4-1.11a1.6 1.6 0 0 0-1.69.35c1.21.52-2.05 2.86-3.12 3.6.07.36.28.47 1.63 3.18.18.36.37.34.7.21 1.05-.43 2.13-.79 3.17-1.23a.77.77 0 0 1 1.1.37c.21.46-.35.54-.61.69-2.78 1.6-3.32 1.4-3.17 2 .77 3.1 1.82-1.12 6.71-2l.31-.14c-6.73-2.23-5.83-1.75-5.43-5.92M72.66 87.05c-.19-.28-.56-.06-1.53.46-.75.41-.81.79-.56 1.55 2.69 8 1 8.72 2.53 9.56-.36-10.2.05 1.14-.44-11.57"/><path d="M72.09 99.69a48 48 0 0 0-8.28-6c-.26 2.42-.52 2.89.23 3.24 2.47 1.18 5.2 1.6 7.8 2.79ZM63.3 85c2.15-1 8.56-2.45 8.64-3a1 1 0 0 0-.16-.37c-3.33-3.71-2.68-4.42-3.65-4-8.1 3.88-8.1 3.63-7.52 4.45 1.91 2.77 1.73 3.42 2.69 2.92M89.28 67.49 81.89 71c-.33.15 2.52 6.24 2.84 6 .73-.44 1.75-.07 2.31-1.09 1.06-1.93 2.16-3.82 3.13-5.79.25-.47-.17-2.44-.89-2.63M79.75 74.44C78.62 78.19 76.17 80 70.57 78c-.68-.16-1-.89 1.88 3.61.24.38.55.25.88.13 1.31-.49 8.18-2.86 10.73-4.34a44 44 0 0 1-3.16-5.15c-.09-.19-.16-.82-.76-.39a5.7 5.7 0 0 1-.39 2.58M87.8 58.34a1.2 1.2 0 0 0-1.27.75c.08.24 2.89 5.4 3 5.63.47.85-.38.29 4.4-1.4.52-.18.83-1.64 1.68-1.54a.5.5 0 0 0-.05-.23c-1.77.39-2.3-3.44-7.76-3.21M51.33 100.16c-.55.88-1.4.94-2.37 1a10.7 10.7 0 0 0 3.22 2.8c5.4-3.14 7.22-2.81 6.62-3.93-1-1.93-1.19-2.71-1.45-2.87-4.35 2.78-5.8 2.65-6.02 3M50 77.53a1.19 1.19 0 0 0-1.3.1 1 1 0 0 0 .16.39c3.47 5.79 3.27 6.12 4.17 5.65 4.77-2.48 5-2.37 5-2.66a7.8 7.8 0 0 0-1.4-2.34A15 15 0 0 1 50 77.53M80.2 68.9c.48.76.37 1 1 .69 7.64-3.92 7.51-3.62 7.16-4.3-.78-1.53-1.55-3.09-2.38-4.79-1.63 3.94-4.88 5.86-5.78 8.4M135.87 90.75c1.37-1.27 2.56-2.73 4.06-3.88a4.9 4.9 0 0 0 .78-1c-.28-.9-2.3-1.18-3.18-.18-1.53 1.75-4.5 5.86-4.72 6.25a1.13 1.13 0 0 0 .06 1.17c.26.18.43.02 3-2.36M58.39 82.41c-4.9 2.52-5.68 2.44-5 3.36s.59.55 6.06.9c1 .26 1.14-.43 1.56-.7s-.11-.58-.24-.82c-.47-.84-1-1.63-1.52-2.47-.25-.43-.45-.49-.86-.27M58 107.19a14.8 14.8 0 0 1 2.35-2.94c.63-.69-.19-1.21-.37-1.8s-.52-.37-6.62 2.17c5.35 3.19 4.05 2.05 4.64 2.57M46.36 83.36c.48.94 2.55 2.1 3.24 2a2.35 2.35 0 0 0 1.6-.91c-.29-.71-2.85-6-3-6.18a9.74 9.74 0 0 0-1.84 5.09M131.48 88.16c.09-.56 1.43-8.58 1.12-9.06a7 7 0 0 0-1.95.48c-1.31.43.67 4.66.54 8.91.23.12.26-.17.29-.33M66.76 76.42c-8.55 2.78-8.92 1.57-8.05 2.73.66.88.66 1.38 1.38 1 8.19-4.19 7.67-3.6 7.29-3.94a1.5 1.5 0 0 0-.62.21M100.06 180.06a22 22 0 0 0-.81-3c-.39-.11-1.21.6-1.86-.33a3.8 3.8 0 0 1-.62-1.08c-.22-.06-.48.08-.69.07s-.54.16-.43.51c.21.62.25 1.29.49 1.9 1.52-1.63 1.57.42 3.92 1.93M91.06 68.46c.36-.8 1-1.33 1.07-2.19-1.81.58-1.81.58-1.07 2.19"/></g><g fill="#bfe6c8"><path d="M187.09 62.9c-.31-.33-.75-.63-.42-1.18s.79-.17 1.16-.06a7.4 7.4 0 0 0 2.62.53c.59 0 1.33.14 1.54-.6.41-1.43-1.85-2.47-3.23-4.32-1.83-2-2.32-4.77-2.26-7.47.1-4.42-.33-12.57-3.2-16.87-4.7-7-10.4-7.64-10.45-7.74a13.3 13.3 0 0 0-1.66-1.76c-6-4.29-13.16-4.77-20.19.06a4.41 4.41 0 0 1-4.05.66 11.32 11.32 0 0 0-10 1.54c-3.56 2.4-5.4 7.37-13 7.72-3 .14-5.94 1.44-3.85 2.51a6.7 6.7 0 0 0 3.5.67c1-.05 1.42.94.26 1.16-3 .59-5.5 4.47-4.11 6.17 2 1.82 4.39-.52 5.06.85.28.59-.33.83-1 1.58-5.77 6.37-3.54 8.81-.56 7.46.43-.19.92-.16 1.17.6.66 1.14.16 1.71.93 1.16 4.77-3.36 8-2.82 8.15-3.65.65-3.35 4-3.78 3.78-4.69-.41-1.52 1.25-6.12 5.86-10.33.61-.56 1.09-1.31 2-1.54-12.73-2 1.65-6.77 3.78-4.42.32.2 1.14.73-1.15.43-3.32-.45-6.53 1.41-6.54 1.81 4.66 2.1 13.79 1.66 18.41-.38.51-.23 1.7.32 1.6.82s-.39.2-.64.25c-1.11.26-5.44 4.35-6.33 6.94-.09.26-.3.56-.23.84.88.71 4.16-1.38 5.08-2 .73-.52.89 0 1 0a.55.55 0 0 1 .21.17c.36.42-.12.65-.35.89-1.72 1.74-1.51 4.21-1 4.89 2 1.08 7.1-5.41 8.24-7.38a.57.57 0 0 1 1-.14c.4.19.23.55.12.85-1.88 5.16 3 5.64 4.81 2 .31-.64.79-.5.94-.2.57.27.39 3.84.88 5.77s1 2.7 2.8 1.94c.82-.34 1.67-.65 2 .23.19.54-.36.66-.71.79-3 1.1-5.3 4.06-5.57 5.91-.46 3.12 4.1-.12 4.82 1.26.51 1-5.2 3.41-5.9 7.24-.15.83 0 1.09 1 1 1.75-.12 3.13-1.29 3.7-.12.23.48-.21.7-.53.94-1.16.85-3.33 2.94-3.09 4.34.88 5.17 6.77 5.48 6.16 2.23-.21-1.12.82-1.17 1.11-.64.45.33.15.86.77 1.52a5.3 5.3 0 0 0 3.36 1c2-.1 2.31-2.73 0-4.26-.33-.21-.76-.48-.41-1s.67-.23 1.05 0c1.76 1.19 5.64 2.09 5.29-.74-.36-2.25-3.14-4.63-3.73-5.24M115.25 96.12c4.18 2.95 5.88 3.63 7.31 5.54.91.46 3.34 1.85 5.44 2.76.26.12.69.18.58.55-.25.89-4.28-1.26-5.11-1.7.7 1.69.49 3.09 1.71 4.72 1.77 2.4 2.85.43 4 1.53a4.5 4.5 0 0 0 .55.45c1.81-3.39.4-4.92 1.29-5s.43 3.64-.51 5.35c2.52.8 6.8-4 4.1-9.32-1.12-2.22-2.41-4.33-3.36-6.64C126.83 83.65 119.5 83 119 87.31c-.16 1.54-1.27-.46-6.09-1.42a2.47 2.47 0 0 0-3.11 3.1 10.5 10.5 0 0 0 .39 1.31 56 56 0 0 0 5.06 5.82m6.71 2c.15-.24-.73-.82 7.7 3.89 2 1.13.57 2.07-7.27-3.13-.25-.2-.69-.38-.39-.79ZM92.71 105.15c1.25 1.33 3.1 1.44 6.92 1.68.74 0 1.48.08 2.21.08-2.1-4.6-3.54-16.11-2.48-18.09-4.08-3.29-6.71 1-7.22 1a1.4 1.4 0 0 0-.71.15 24.26 24.26 0 0 0 1.28 15.18"/><path d="M102.08 105.23c.12.41.12.88.62 1.18s-.65.66 2 .31a9.4 9.4 0 0 1-1-2.17c-3.06-10.16-1.18-11.08-1.07-9.65a39.8 39.8 0 0 0 2.91 11.67c1.8-.34 3.32-.8 3.77-2.39A24.2 24.2 0 0 1 108 96c-.71-4-.25-5.86-.62-7.43-.64-2.76-3.39-3.26-6.25.16-.47.56-.83.68-1.36.38a53.3 53.3 0 0 0 2.31 16.12M72.34 104.37c-1.93 4.41-.87 8.85 1.6 11.32 2.93 1.65 6.06 1.68 7.14-1.61.18-.54 1.1-11.82 7.76-20.42.06-.23.12-.46.16-.71a1.94 1.94 0 0 0-2.39-2.25c-1.8.43-3.09 2.13-4.38 3.3-.73-6.1-6.84.37-7.61 4.17a31.4 31.4 0 0 1-2.28 6.2M149.2 104.21c.24-3.9-5.95-7.8-9.66-9.33-2.25-.94-5.32 1.45-4.73 2.88 1.09 2.6.69 2.4 1.66 3.4a5.69 5.69 0 0 1 1.33 6.84c-.11.25-.25.47.14.63.66.27.68 1 .86 1.49a2.43 2.43 0 0 0 2.84-.54c.25-.87.17-1.46.76-1.56a.56.56 0 0 1 .38.06c.59-.66 1.2 1.13 3.12.83.21-2.08-.53-2.9.25-3.14.61-.18.58.36 1.53 2.15a5.23 5.23 0 0 0 1.52-3.71M150.92 101.93c1.34-.14 2.81 1 2.73-.24-.06-.79.44-8.59.64-10.17.5-4 1.72-7.83 2.07-11.86.08-1-.09-1.79-1.73-2.32h-.4c-.72-.15-1.1.15-1.33.83a125 125 0 0 0-4.65 15.63 5.3 5.3 0 0 0 .17 3.62c.44.51.46.78 1 .26a2.06 2.06 0 0 1 3.2.37 1.86 1.86 0 0 1-1.53 3.07c-.61 0-.68-.12-.51.79a.7.7 0 0 0 .34.02M71 103.68a1.92 1.92 0 0 0-1.73-2.8c-3.48-.32-10.94 5.3-10.6 9.73a1.85 1.85 0 0 0 1.79.31c2.74-3.15 2.71-3.39 3.2-3.06s.2.88-.23 2.22c1.52.12.14 1.22 2.37-1.06.28-.29.52-.7 1-.48 1 .45-.54 1.17.17 4.7a1.68 1.68 0 0 0 1.22.4c.32-.82.69-1.79 1.36-1.23.45-.84-1.25-3.93 1.45-8.73M32.2 132.17c-3-1.87-7.6-1.92-11.15-1.42-5.6.8-7.23 4.09-4.28 5.22 1.14.44 3.93 0 4.74-.09-1.11 1.09-2.16 2-2.54 3.31a2.47 2.47 0 0 0 .56 2.52c1.32 1.39 4.66-.81 6.12-2 1.76-1.48 3.3-3.24 5.4-4.3 2.41-1.25 2.31-2.52 1.15-3.24m-11.11 8.65c-.83.26-1.06-.06-1-.79.09-2.47 4.61-3.79 4.33-4.88-.43-1.65-7.28.64-7.49-.91s7.49-4.48 13.77-.86c-2.89 2.13-5.93 6.27-9.61 7.44M187.25 123.05c-.22-1.11-1.59-1.58-2.94-1.63-3.33-.14-6.27 1.26-9.27 2.38-1.73.65-2.07 2.41-.66 2.44 3.79.1 6.15 5 9.54 6 2.93.8 5.23-2.38 1.18-6.31 1.25-.87 2.43-1.47 2.15-2.88m-1.93.86a5 5 0 0 1-2.06.76c-.54 0-1.12.16-1.2.84-.21 1.62 2.19.41 3.35 3.48a1.09 1.09 0 0 1-.25 1.3c-.92.8-3.4-1.92-7.67-5.21 2.77-.81 4.86-2.69 7.68-2.15.24 0 .57.13.63.42s-.25.44-.48.56M164.11 154.44c-.47.38.13.69.21 1a67 67 0 0 1 .22 6.81c.07 3.68 3.7 6.86 5.65 3.73a6.7 6.7 0 0 0 1-3.09 12.5 12.5 0 0 0 2.14 1.43c2 .81 4-.88 2.68-3-1.64-2.67-10.38-8.08-11.9-6.88m10.08 8c-.59.71-2.93-1.53-3.57-2.17-.33-.33-.68-.75-1.2-.45-.89.52 1 3-.42 5.28-.63 1-1.19 1.13-2.1.33-2.23-2-.59-5.12-.9-8.75 0-.46.27-.37.54-.26 2.53 1.09 5 2.25 6.93 4.35.43.43 1.14 1.12.72 1.63ZM53.45 57.7c3.87-5.09 1.17-12.49-7.16-12.46-3.82 0-8.56 3-8.87 8.16-.48 8.09 10.87 11.09 16.03 4.3m-13.4-8.37c6.43-7.94 18.65 0 13.37 8a8.56 8.56 0 0 1-13 1.33 6.91 6.91 0 0 1-.37-9.33M125.28 82.05c2.13 1.45.17-1.45 2.85-9.31.12-.34.25-.69-.07-.92a15 15 0 0 1-2-2.27 8.23 8.23 0 0 0-2.06 4.81c-.08 2.65-1.67 5.44-1.48 5.78ZM145 94.54c1.57.83 1.58.81 1.95-.88.25-1.18.34-1.61-.12-1.81-7.88-1.13-8.95-1.7-10.29.12a26.4 26.4 0 0 1 8.46 2.57M103.9 163.92c1.78 0 2.5-1.74 1.47-2.77-4.92-4.91-8.13 1.04-1.47 2.77M131 176.74c-1.48.49-3.59 2.34-3 3.25 1.33 2.23 5.13.6 5.16-1.5a1.67 1.67 0 0 0-2.16-1.75M89.13 160c1.42 1.66 4.28 3.16 5.17 1.15.78-1.76-2.43-2.89-4.16-3a1.13 1.13 0 0 0-1.01 1.85M119.28 161.22a6.76 6.76 0 0 0 3.33-2.46 1.34 1.34 0 0 0-1.3-2.08 5 5 0 0 0-3.33 3.43c-.05.94.42 1.35 1.3 1.11M89.11 147.77c-.27-.7-1-.59-1.59-.54s-.56.57-.58 1a8.8 8.8 0 0 0 1.33 3.54c.46.9 1.19 1.2 1.88.85 1.79-.9-.29-2.96-1.04-4.85M87 166.77c-2.29-2.32-2.73-3-3.55-2.53-1.08.63.81 3.42 1.6 4.61 1.14 1.67 3.76-.27 1.95-2.08M110.18 165.93c1.85.35 1.81-1.65 2.13-3.55.13-1.36-.64-1.73-1.61-1.21-1.97 1.05-2.44 4.39-.52 4.76M105.49 177.64c-.51-.08-.53.17-.43.58a7.58 7.58 0 0 0 2.81 3.92 1.3 1.3 0 0 0 2-1.14c-.14-.79-2.56-3.09-4.38-3.36M120.43 151.55c2.61 0 1.47-5.94-.47-4.19-.96.91-1.13 4.19.47 4.19M87.57 178.63c-.39 0-1.14.75-.55 1.36 1.2 1.24 2.12 2.54 3.11 1.61 1.23-1.17-.71-2.73-2.56-2.97"/><path d="M150.59 99.85a1 1 0 0 0 1.13-1.39 1.33 1.33 0 0 0-1.51-.11c-1.21.9-.42 1.71.38 1.5M47.52 59.79c6.08-1.32 7.63-8.07 3.66-11.11-4.37-3.33-11.76-.25-11.63 5.42A5.36 5.36 0 0 0 41 57.87a7.22 7.22 0 0 0 6.52 1.92M42 54.69c-.67-1.82 0-4 1-4.55a.53.53 0 0 1 .71.2.54.54 0 0 1-.16.72 1.7 1.7 0 0 0-.56 1c-1.29 4.55 4.09 5.59 6.06 3.15a3.5 3.5 0 0 0 .25-4.35c-.66-.53-2-.94-2.67 0s-1.28 2.39-.83 3.19c.91.69 1.76-.31 1.33-.61-.82-.57-.5-1.37.4-1 2.88 1-.33 4.69-2.36 2.6-1.48-1-.55-3.43.36-5 .76-1.31 3.38-1.31 4.7.21 1.83 1.83.88 5.47-1.12 6.71-2.27 1.37-6 .66-7.11-2.27M60.86 41.32a9.25 9.17 0 1 0 18.5 0 9.25 9.17 0 1 0-18.5 0"/></g><g fill="#444330"><path d="M47.94 101.45a26.6 26.6 0 0 0 9 6.11c.35.17.89.6 1.12.1s-.36-.62-.78-.85c-1.79-1-7.49-3.94-8.51-5.69 1.09 0 2-.06 2.59-1 .18-.3 2.73-.71 7-3.73.65-.45 4-2.74 3.27-3.5-.33-.33-.53.1-.73.26a58 58 0 0 1-6.23 4.42c-1.43.89-3.14 1.3-4.37 2.58a.53.53 0 0 1-.38.06c-1.33-.28-2.69 0-4-.24-1.92-.29-.55 1.44-3.36 2.8-1.23.59-1.51.5-2.22-.63a8.84 8.84 0 0 0-3.13-2.3c-2.35-1.28-2.46-1.75-.67-3.81a1.11 1.11 0 0 0 0-1.73 17 17 0 0 1-2.17-3c-1.07-1.86-.54-3.4 1.49-4.13s4.07-.85 6.94-2.24a.3.3 0 0 0 .17-.28.31.31 0 0 0-.19-.27c-.6-.24-.88.66-1.33-.4a59 59 0 0 1-3-9.63 5.4 5.4 0 0 1 1.22-4.86c.85-1 1.44-.94 1.94.28.89 2.24.68 7.83 4.26 14a3.84 3.84 0 0 0 1.48 1.43c3.9 2.18 8.15 2.45 12.45 2.56.29 0 .69 0 .69-.38 0-1.33-6.84.24-13-2.76a1.85 1.85 0 0 1-1.13-1.75 10.8 10.8 0 0 1 1.82-4.69c.54-.69 1-1 1.86-.69 5.39 2.3 11 .73 16.74-1.11.2-.07.39-.22.61-.19a12 12 0 0 0 5.75 2.43c3.59.62 5.58-.72 6.63-4.22a5.25 5.25 0 0 0 .36-2.77c-.54-2.4.38-3.85 2.06-5.7s3.55-4.09 4.27-6.63a1.24 1.24 0 0 1 1.36-1 7.74 7.74 0 0 1 6 2.31c1.23 1.22 2.26 1.21 1.64.37a7.8 7.8 0 0 0-7.9-3.49c-.53.08-.67-.12-.51-.61a7 7 0 0 0 .24-1 12 12 0 0 0 .36-4.87c-.63-2.78-1.55-5.42-3.84-7.34-.56-.47.09-1 .15-1.44s.49-.19.72-.12a33.8 33.8 0 0 1 10.42 5.57 2.5 2.5 0 0 1 .9 1.47c1.56 6.55-1 12.64.24 12.83.46.07.49-.39.54-.7a30 30 0 0 0 .36-9.9c-.31-1.73-.56-3.48-2.14-4.72a33.9 33.9 0 0 0-10-5.27A9 9 0 0 1 82 40c-.43-.35-.72-.81-.15-1.25a4.87 4.87 0 0 1 4.61-1 45 45 0 0 1 10 5.08c.29.19.46.37.23.72s-.36.71 0 .89.45-.35.63-.59c1.34-1.78 2-3.93 3.08-5.85s2.8-2.32 4.53-.78a19 19 0 0 1 2.5 2.63 1 1 0 0 0 1.63.31 5.1 5.1 0 0 1 1.35-.66c1.18-.38 1.46-.23 1.92.91.84 2.08 1 4.1 2.73 5 .37.19.26.56.11.89a4.07 4.07 0 0 1-2.77 2.57 1.24 1.24 0 0 0-1.14 1.33c-.21 2.14-.51 4.15-2.15 6a74 74 0 0 1-7.11 7.21c-.22.18-.75.35-.45.74s.64.24 1 0a26.5 26.5 0 0 0 4.76-4.47c1.13-1.29 1.83-3 3.06-4.09 1.48-1.3 1.45-2.89 1.77-4.48a3 3 0 0 0 .11-.59c0-.51.21-.73.7-.9a5 5 0 0 0 3-2.91 1.57 1.57 0 0 0-.65-2.3c-1-.72-1.16-2-2-4.11s-1.19-2.23-3.25-1.78c-.47.1-.52 0-.63-.41-.78-2.88-2.8-5-5.28-3.1-.23.18-.4.42-.77.37-2-.3-3.16.79-4 2.39a70 70 0 0 0-1.89 4c-.53 1.17-.4-.29-8.14-3.71-1.62-.71-3.3-1.63-5.09-1.1-1.43.42-2 .05-2.62-1.19a2.43 2.43 0 0 0-3.38-1.21c-.89.61-1.07.14-1.41-.51 2.65-.51 3.89-.61 4-1.78.31-2.13-3.12-.92-6.15-5.78-.56-.91-1.22-1.77-1.74-2.71-2.59-4.64-6.92-5.5-10.56-6.86-.84-.31-1.4-.43-1.82.49-.41-1.66-.63-3.56-1.95-3.74-.84-.11-1.26.48-1.63 1.1-.1.18-.23.34-.31.52-.37.9-.8.09-2.62-.93a.8.8 0 0 0-1 0c-.85.72 1.71 3.18 2.88 3.29.22 0 .45 0 .5-.21s-.2-.28-.36-.38c-.54-.34-2.38-1.3-2-1.78s2 1.26 2.42 1.18.72-.51 1.3-1.4c.18-.28.33-.59.64-.56.65.06.63 1 1.24 2.72.28.78.79.91 1.34.33.3-.31.48-.28.83-.13 3.94 1.68 7.63 2.63 10.11 6.74 3.88 6.42 4.46 5.92 7 7.35a3.5 3.5 0 0 1 .77.59 6.7 6.7 0 0 1-2 .67c-1.8.55-3.06.25-3.63-1.56-.18-.57-.94-.67-1.17-1.09a32.2 32.2 0 0 0-7-8.47.74.74 0 0 0-1-.2c3.32 3.15 5.8 6.89 8.52 10.45-.67-.34-1.8.18-1.9-1.28 0-.67-.89-1.29-1.4-1.92-1.91-2.32-4.47-3.94-6.54-6.09a.43.43 0 0 0-.62-.08c-.26.25 0 .43.17.57 4.33 4.19 5.24 4.91 6.54 6.53-.6.69-1.88-.18-10 5.07-.24.16-.42.31-.26.55.3.45.39-.16 5.29-2.47-5.28 4.11-5.51 10.58-2 14.86-1.23-.17-3-1.16-4.81-1.18-1 0-1.36.38-1.45 1.37a30 30 0 0 0-.24 3.31c-1-.56-.52-1.73-2.28-3.7-4.63-5.16-13.53-3.82-16.62 2.47a8.91 8.91 0 0 0 .29 8.3c-.61 0-1.12-.19-1.58.1-1.34.83-2.4-.48-3.64-1.58a.6.6 0 0 0-.74-.12c-.25.13-.21.41-.16.63a9.3 9.3 0 0 0 .5 1.7c.43.89 0 .93-.7.88a3.17 3.17 0 0 1-3.21-2.76c-1-4.47.52-7 .77-14.7.1-3.22.44-6.42.67-9.62a5.74 5.74 0 0 1 3.47-5.1c3.27-1.54 6.3-5 12-7.89 2.71-1.37 5.62-1.07 8.08-1.15.31 0 .68.15.91-.23-.52-.43-.52-.46-1-.53-9.84-1.34-13.72 5.48-21.7 9.78a4.92 4.92 0 0 0-2.43 3.65 110 110 0 0 0-1.17 13.08c-.47 7.07-3 16.54 4.06 16.23 1.32-.06 1.56-.42 1.13-1.63-.06-.18-.31-.37 0-.63A3.53 3.53 0 0 1 34.8 61c.44 3.46 4 6.72 7.47 6.72.56 0 .66.08.76.63.64 3.48 1.75 6.66 5.3 8.36v.16c-1.72 1.11-2 3-2.6 5a30.2 30.2 0 0 1-2.38-7.36c-.38-1.76-.36-3.61-1.12-5.28s-2-1.79-3.18-.38a7.1 7.1 0 0 0-1.26 6.53c2.35 9.58 3.5 9.31 2.67 9.5-1.6.36-3.14 1.24-4.86.57a14.6 14.6 0 0 0-2.52-.64 2 2 0 0 0-2.55 1.6A2.29 2.29 0 0 0 32.42 89c.22 0 .51 0 .48.32-.14 1.82.94 3.13 2 4.38.82 1 1 1.65.15 2.81-3 3.89 3.94 3.92 4.81 6.88a1.09 1.09 0 0 0 1.21.71 5 5 0 0 0 4.16-2.42 2.11 2.11 0 0 1 2.71-.23m57.46-66.26a1.5 1.5 0 0 1 1.84.6c.71 1 1.37 2 2.05 2.93-.58.59-1.07.6-1.61-.1-1.84-2.37-3.81-2.9-2.28-3.43m-27.66 41c-1.85 2.81-6.52 1.18-9.55-.19C72 74.11 75.76 72.49 79 69.65a9.83 9.83 0 0 1-1.26 6.58Zm1.5-41.05a3.4 3.4 0 0 1 2.45 2.38c0 .21-.13.3-.26.39-1.21.86-1 2.26.59 3.1.68.37 1.21.72.78 1.59-.08.17-.08.36-.39.36a2.52 2.52 0 0 1-2.7-2.55 10 10 0 0 0-1.18-4.11c-.36-.65-.07-1.09.71-1.12ZM77.48 45.6A8.69 8.69 0 0 1 66.13 49a8.84 8.84 0 0 1 2.58-16.6c6.73-1.03 12.56 6.1 8.77 13.2m-6.36-14.24a10 10 0 0 0-3.33.34 12 12 0 0 1 2.37-1.22s.84.52.96.88M60.38 48.21a17.6 17.6 0 0 1 5.3 2.56c.39.29 1.08.8.81 1.1s-.38 1.31-1.28 1.29c-.67 0-.85.46-.87 1.09-.06 2-.07 2-2 1.69-1-.14-1.76-.18-2.26.91-.22.51-1.15.21-1.55-.53a12.9 12.9 0 0 1-1.2-4.43c-.07-.49-.05-1-.07-1.31.1-3.22.22-3.29 3.12-2.37M71 60.51c.06.07.06.18.11.32a4 4 0 0 1-.39.29c-3.68 2.2-3.22 2.37-3.84 1.39-.86-1.38-.87-1.36.43-2.29 1.71-1.2 2-1.53 2.19-1.43a8 8 0 0 1 1.5 1.72m-.33-1.8 2.9.32c-1.17 1.54-1.57 1.5-2.92-.32Zm-4.3 5.09a15.6 15.6 0 0 1-2.72 2 1.4 1.4 0 0 1-.17.08c-.36-.18-.48-.55-.69-.85-.93-1.36-.91-1.36.49-2.15.59-.33 1.14-.71 1.71-1.06a1.4 1.4 0 0 1 .42-.25c.27-.06.36.18.38.36.06.71 1.06 1.32.56 1.87Zm-4.14-1.39A36 36 0 0 1 63.6 58c.14-.38.38-.47.77-.47a14.8 14.8 0 0 1 3.85.66c-2.07 1.47-3.86 2.96-6.01 4.22Zm.28-4.54a76 76 0 0 0-2.34 7.25 54 54 0 0 1-2.25 5.8 1.26 1.26 0 0 1-1.81.82c-4.39-1.41-7-1.36-9.93-4.28 2.89-.71 7.51-.6 9-.64a2.2 2.2 0 0 0 2.19-1.59c2.08-5.62 1.13-6.74 2.49-6.95a1.51 1.51 0 0 0 1.14-.92c.19-.43.5-.45.9-.42.71.06.86.27.59.93Zm-1 6.81h.16c1.26 1.72 1.17 2-1.16 3.1.36-1.06.69-2.08 1.01-3.1ZM63 67.42c.17-.11.34-.2.5 0 .39.6.81 1.18 1.28 1.88a7.06 7.06 0 0 1-3.87-.49A11.2 11.2 0 0 1 63 67.42m1.18-.59c0-.6 1.07-.87 1.65-1.3 1.31-1 1.32-1 2.29.34 1.48 2 1.58 1.91-2.16 3.27-.45 0-.48-.31-.63-.51-.46-.63-1.22-1.22-1.19-1.8ZM69 65.54c-1.21-1.44-1.2-1.44.34-2.42l2.24-1.42c.31 0 .38.18.49.32 1.34 1.7 1.33 2.06-.18 3.62s-1.48 1.55-2.89-.1m3.76-4.36c0-.52.91-.74 1.39-1.13s.81-1.14 1.75-.77c-.88 1.11-1.11 2.52-2 3.66-.09-.06-.13-.07-.15-.1-.3-.55-.95-1.1-.96-1.66Zm-1.4-3.62c-6.35-1.11-6.22-1-6.16-1.4a8.8 8.8 0 0 1 .26-2c1-.05 1.54-1.06 2.7-.8a16.9 16.9 0 0 0 5.21.08c2.91-.27 6.62-5.77 7-6.08a.9.9 0 0 1 .37-.22 72 72 0 0 1-2 10.21.83.83 0 0 1-1 .73c-2.14-.22-4.26-.15-6.35-.52Zm-17.17-.47a9.49 9.49 0 0 1-13.36 3 7.31 7.31 0 0 1-3.43-6.72 8.36 8.36 0 0 1 4.87-7.12 8.1 8.1 0 0 1 4-1 9.5 9.5 0 0 1 7 2.57c2.55 2.35 2.52 6.59.95 9.27Zm-11.5 9.55c-.33.43-1 0-1.49-.12-2.66-.86-4.68-2.4-5.34-5.31a1.83 1.83 0 0 1 .47-1.85c.51-.48 1.08 0 1.59.12a8.9 8.9 0 0 1 2.73 1.83c.32.25.22 1 .35 1.71-1-.52-1.86-1-2.73-1.41-.23-.12-.55-.45-.76 0s-.09.36 2.89 2.11a6 6 0 0 0-.63.38c-.24.18-.77.25-.49.69s.54 0 .79-.11c1.3-.73 1.32-.73 2.08.59.28.41.94.9.57 1.37Zm4.08 8c-1.71-1.31-2.73-5.5-2.91-7.63-.18-2-1.56-2.42-2.39-5.18 8.18 3.11 14.73-2.55 14.91-8.71.41 1.7.58 3.37 1.79 4.62.17.18.09.37 0 .56-1.73 6.44-1.77 7.22-3.28 7.36-2.7.26-5.44 0-8.12.58-.66.14-1.53 0-1.8.81s.47 1.26 1 1.73c2.57 2.39 4.9 2.62 10.4 4.21a1.64 1.64 0 0 0 2.17-.91c.34-.73.71-1.44 1-2.18.17-.38.32-.49.74-.27a8.58 8.58 0 0 0 7.84-.16 14.75 14.75 0 0 0 8.41-9.67c.21-.73.63-.56 1.05-.57 1.45 0 1.77-.16 2.1-1.49a59.7 59.7 0 0 0 2.22-11.96c0-.39.16-.87-.34-1s-.71.26-1 .56c-4.22 4.77-5.07 8-11.39 7.05-1.4-.2-1.39-.21-1.78-1.61 6.62.68 10.9-2.06 12.17-7.81 1.6 1.4 3.65.23 5.7 4.62a13.05 13.05 0 0 1 1 7.43c-.61 4.73-3.18 8.28-6.17 11.71-4 4.6-9.36 7-14.91 9-6.73 2.32-12.67 3.27-18.38-1.11ZM33.14 88.48c-.31.84-2-.76-1.78-1.92.16-.78.82-1.15 1.81-.93a9.4 9.4 0 0 1 2.35.63 4.23 4.23 0 0 0-2.38 2.22M131.48 105.78c0-.35-.11-.78-.47-.77s-.29.49-.29.79a8.84 8.84 0 0 1-2.45 6.19c-.23.26-.63.94-.89 0-.09-.31-.28-.47-.57-.32s-.18.36-.16.55c.53 4 2.36 8.72-.93 13.46a19.7 19.7 0 0 0-1.44 3.3c-.19-.68-.34-1.15-.46-1.64-.82-3.26-.81-6.64-3.3-6.07l-2.44.58c-1.42.36-1.44.38-1.31 1.83a34.2 34.2 0 0 0 3 10.47 1.65 1.65 0 0 1-.19 1.93 39.3 39.3 0 0 1-5 5.23 22.14 22.14 0 0 1-11.25 4.7c-2.78.33-5.32-.1-7.17-2.25-.49-.57-.87-.74-6-3-3-1.31-4.44-3.44-6.31-6.52a7 7 0 0 1-1.16-2.53c-1.27-8.12-.19-12.16-1.49-13-1-.66-3.75.76-4.72 1.44a2.94 2.94 0 0 0-1.35 3.19c.26 1.48.33 3 .47 4.49a.92.92 0 0 1-.38.95c-1.48 1-2.25 2.63-3.18 4.1-.14.22-.37.57 0 .79.69.4 2-2.92 4.1-4.36a1 1 0 0 0 .41-1c-.2-1.76-.37-3.53-.65-5.28a2 2 0 0 1 .78-2 9.2 9.2 0 0 1 2.56-1.34c1.33-.5 1.46-.42 1.68.94.28 1.7-.23 8.21 1.38 14a3 3 0 0 1-.65 3.1c-.76.88-1.42 1.86-2.11 2.81-.18.25-.56.59-.17.86s.48 0 1.41-1.11a69 69 0 0 1 .84 10.21c0 9.53.19 19.06-1.18 28.54-.46 3.13-2.22 3.78-4.34 5.61a4.45 4.45 0 0 1-5.45.57c-1.19-.63-2.31-1.29-2.68-2.67-.68-2.53-2.07-1.66-5.7-5.78-1.53-1.73-2-3.29-.94-5.38A205 205 0 0 0 70 152.62c.36-.93.72-1.25 1.71-.92a4.08 4.08 0 0 0 4.87-1.7c.49-.65 1-1.27 1.46-1.92.7-1-.13-.93-.56-.72-.64.3-.88.91-2.28 2.53a2.74 2.74 0 0 1-3 .88 67 67 0 0 1-7.82-2.77c-3-1.1-4.22.39-7.52 1.13-1.11.25-1.46 0-2.11-1.14-.48-.86.33-1 .72-1.36 1-.85 3.32-2.18 4.28-3 2.49-2.11-5.91-1.95-9.51-2.8-1.6-.38-1.12-.05-3.39-5.61.57-.09.12-.18 8.06 2.47 1.64.54 2.25 0 5.12-1.5a.73.73 0 0 0 .27-1.24c-4-5-6.24-6.13-9.24-9.68-2.15-2.56-2.22-2-.15-4.78a5.5 5.5 0 0 1 .48-.59c.5-.49-.13-.77 11.31 9.12a3.07 3.07 0 0 0 3.68.64 1.37 1.37 0 0 0 .73-1.84 18.5 18.5 0 0 0-1.87-3.88 66 66 0 0 1-3.32-6.75.7.7 0 0 1 .33-1c2.06-1.23 2.93-.8 4.19 1.21a103 103 0 0 0 7.9 10.54c.2.25.45.66.8.38s-.07-.52-.21-.76c-1.61-2.74-2.64-2.77-8.39-11.79a2.21 2.21 0 0 0-2.5-1.25 8.2 8.2 0 0 0-2.16.8c-1.11.62-1.27 1.11-.74 2.28 4.26 9.4 6.4 10.83 4.34 11.37a2 2 0 0 1-1.92-.6c-1.91-1.8-4-3.38-6-5.07-5.8-4.93-5.66-5.6-6.93-4-.5.63-1 1.27-1.43 1.94-1.06 1.62-1 2.09.19 3.56 4.42 5.33 6.67 6.41 9.8 10.49-1.79 1.36-3.46 1.8-5.49.91a52 52 0 0 0-6.37-2.2c-.47-.14-1-.5-1.51 0s-.08 1 .1 1.51c.54 1.42 1.11 2.57 1.63 4.11a3.13 3.13 0 0 0 2.55 2.14c4.27.91 6.34.47 8.44 1.31-1.35.91-5 2.95-5.12 4.21s1.66 3.08 2.93 3c2.45-.22 6.79-2.62 6.71-1.21 0 .06-.31 2.24-.35 2.45-.89 4.91-1.45 9.86-2.16 14.79-.33 2.28-.31 4.62-1.07 6.83a1.72 1.72 0 0 0 .22 1.25c1.06 2.79 3.18 4.69 5.51 6.36 2.83 2 1.05 2.16 2.94 4a9 9 0 0 0 3.8 2 4.18 4.18 0 0 0 3.48-.37c2.48-1.39 5.83-4.61 6.29-7.29 1.49-8.63 1.88-30.62 0-38.7-.44-1.91 1.43-2.06 2.12-4.29.14-.44 1.58 3.27 4.86 5.05.38.21.39.59.49.94a31.6 31.6 0 0 0 1.94 5.31c2.83 5.62 7.43 9.24 13.19 11.45 3.88 1.49 7.37.53 10.2-2.56a17.7 17.7 0 0 0 3.9-8.33c1.45-6.32-.89-8.77 1.92-11 .2-.15.47-1 .91.05 1.86 4.24 4.1 6.48 4 8.09-.3 7.7 2.56 14.15 4.39 20.39 1.47 5 5 8.37 8.61 11.69 1.85 1.69 7.1 1.27 9.58.86 2.78-.46 3.13-2.24 4.21-4.59a8.82 8.82 0 0 0-.58-8.7c-1.65-2.73-3.22-5.5-4.86-8.22-2.58-4.28-5.13-8.57-7.3-13.08a1.59 1.59 0 0 1 0-1.38 3.09 3.09 0 0 1 3.1-2.19 23.7 23.7 0 0 0 6.73-1.56c.73-.28 1-.61.71-1.43a18 18 0 0 1-.63-2.32c-.44-1.88-1-1.44-5.72-1.54-.3 0-.65.11-1-.32 9.13-4.57 9.42-4.06 8.45-6.12-.49-1-1-2-1.56-3-.77-1.39-1.21-1.54-2.53-.68-2.26 1.45-4.53 2.88-6.64 4.54-.18.15-.33.44-.69.28a56 56 0 0 1 6.18-7.17c1.52-1.63 1.38-2.84-.36-4.23a1.38 1.38 0 0 0-1.81-.14 32.06 32.06 0 0 0-10.85 11.39.73.73 0 0 1-1 .42c-.55-.22-.18-.62-.1-.92.19-.74 2.24-5.06 3.85-8.83a7.9 7.9 0 0 0 .72-2.91c0-.72-.28-1.1-1-1-.93.14-1.85.31-2.77.46a2 2 0 0 0-1.5 1c-.64 1.11-1.35 2.19-2.13 3.45-.1-5.52-2-6.62-.22-6.67.24 0 .51-.32.71-.52a8.2 8.2 0 0 0 2.24-6.28M63.87 149l5.44 2.07c.48.18.26.43.13.7-2.23 4.48-1.34 3.19-7.88 16.51l-.25-.06c.84-6.39 1.69-12.76 2.56-19.22m26.07-7.27c5.57 2.4 3.9 1.45 4.87 3.27.11.21-.27.32-.59.41-2.99.91-2.7.9-4.28-3.69Zm2.4 5.86c-.46-.69-.18-.87.51-1s1.55-.36 2.33-.55c.29-.09.37.16.51.34 1.74 2.22 1.73 2.18-.76 3.48-1.41.74-1.31-.38-2.59-2.28Zm5.45 6.53a30 30 0 0 1-3.24-3.12 8.6 8.6 0 0 0 1.4-.61 2.29 2.29 0 0 1 3.47.44c.82.91.37.69-.9 3.19-.21.38-.39.41-.73.09Zm5.76 1.43a12 12 0 0 0 0 2.1 14.8 14.8 0 0 1-4.24-2.3c-.66-.53-.21-.18 1.08-3 .48-1 1 0 1.47.12 1.73.37 1.94 1.53 1.69 3.07Zm-.89-3.64a15.15 15.15 0 0 1-7-7.25c3.2 3.08 7 2.75 11.25 1.63a20.1 20.1 0 0 0 7.53-3.61 18.3 18.3 0 0 1-1.15 4.56c-1.08 3.44-3.52 5.15-7.07 5.41a6.9 6.9 0 0 1-3.56-.75Zm6.25 6.53a7.6 7.6 0 0 1-3.93-.27c-.73-.27-.6-.77-.47-2.41a4.8 4.8 0 0 1 .06-2c.34-.68 1.17-.07 1.79-.19 2-.38 1.23-.18 3 4.2.11.47-.08.6-.45.66Zm1.87-.7c-.44.22-.64.19-.76-.31-.89-3.68-2-4.07-.93-4.37a6.6 6.6 0 0 0 1.21-.48c1.75-.89 1.13-.64 3.83 2.31a9.74 9.74 0 0 1-3.35 2.84Zm5.94-7.63a13.6 13.6 0 0 1-2 4c-4-4.35-2.3-1.68-.9-5.49.26-.69.5-.14 2.68 1a.36.36 0 0 1 .22.48Zm1-4.6a17 17 0 0 1-.47 2.74c-.15.55-.37.55-.82.34-2.19-1-2.16-1-1.46-3.29.26-.87.61-1.37 1.43-1.1 1.47.01 1.5.01 1.37 1.3Zm-.27-2.25c-.2 0-.39.08-.59.08-.43 0-1.1.33-1.26-.14a1.53 1.53 0 0 1 .4-1.73 19 19 0 0 0 1.66-1.8 12 12 0 0 1 .25 3.08.44.44 0 0 1-.41.5Zm32.56 21.81c-5.56-7-10.26-11.84-14.52-18.58 1.68-.13 2.16-1.22 2.91-2.58 3.41 7.42 7.73 14.17 11.66 21.15Zm-18.5-48.38a5.44 5.44 0 0 1 3.3-1.27c.45.15.2.49.14.75-.81 3.39-3.19 7.06-4.42 10.74-.29.86-.42 1.53.52 1.93 1.24.52 1.81.36 2.42-.7a31.4 31.4 0 0 1 10.18-10.81c.58-.37 1-.38 1.46.17 1.71 2.14.2.65-7.41 10.85-.25.34-.7.81-.29 1.22s.83.22 1.24.08a6.5 6.5 0 0 0 2-1.17c2.05-1.64 4.3-3 6.45-4.48 1.46-1 1.35.49 2.82 2.84.45.72.15 1-.47 1.38-4.85 2.6-9.18 3.92-8.8 5.13.31 1 4.3.8 6.09.77 1 0 1.5.33 1.5 1.37.09.64.7 1.34.3 1.84s-1.14.46-1.74.67c-5.19 1.84-6.85-.47-8.88 4.17-.35.8-.75 1.57-1.15 2.34s-1.18.79-1.78 1c-.35.13-.84.11-.93.62s.38.44.64.61a165 165 0 0 0 15.85 20.49 3.62 3.62 0 0 1 .9 4.26c-1.31 3.19-1.41 5-4.12 5.63a15.2 15.2 0 0 1-6.37.15c-2.93-.57-5-3.77-7.88-6.89-1.15-1.25-1.69-3.29-2.2-4.71a96 96 0 0 1-4.15-13.61 21.8 21.8 0 0 1-.29-5.74c0-.32-.06-.09.84.82.18.19.45.42.7.21.42-.35-.09-.85-.4-1.29a57.05 57.05 0 0 1-9.52-20.74c-.52-2.37-.48-2.38 1.89-3 1.43-.36 1.67-.25 2 1.19s.69 3 1 4.5c.59 2.83 3.38 2.84 5.27 6 .16.27.34.51.61.35s.18-.51.07-.81a7 7 0 0 0-2.66-3.08c-1.29-1-1.33-1-.65-2.45a89.5 89.5 0 0 1 5.97-11.34Z"/><path d="M100.6 177.56c-.41-1.43-.42-1.43-2-1.33-.32 0-.53-.09-.6-.39-.11-.45.27-.36.51-.39 2.93-.32 5.85-.73 8.8-.82 1.13 0 1.42-.45 1-1.55a6.89 6.89 0 0 0-4.23-4.28c-2.48-1-2.85 1.56-3.48-.13a11.7 11.7 0 0 0-2.15-4.16c-.94-1-1.59-1-2.48.07a13.5 13.5 0 0 0-1.69 3c-.27-.23-.5-.43-.74-.61a2.14 2.14 0 0 0-3.43.59 4.25 4.25 0 0 0-.73 3.24c.12.55 0 .59-.49.62a3.15 3.15 0 0 0-2.8 2.47c-.33 1.59.22 2.37 1.65 2.14 2.17-.34 4.36 0 6.53-.16.52-.05.65.15.72.66.12 1 .36 2 .55 3 0 .25.1.47.38.53a.58.58 0 0 0 .6-.28c.93-1.24.06-1.71 3.49 2.13.24.26.45.68.88.52s.39-.62.37-1a17 17 0 0 0-.66-3.87M93 175c-1.6-.73-3.45 0-5.31 0-.76 0-.85-.29-.68-.92a2.15 2.15 0 0 1 2.79-1.7c.29.06.6.23.84-.06.57-.67-1.27-1.33 0-4 .63-1.38 1.58-1.54 2.71-.55 1.32 1.15 1.31 1.15 2-.5a8.5 8.5 0 0 1 1.19-2.09c.67-.88.91-.86 1.6 0 2 2.47 1.89 6.34 3.39 4.88a2.3 2.3 0 0 1 3-.28 6.13 6.13 0 0 1 2.86 3.12c.22.59.07.69-.48.7-4.68.16-7.91.93-13.91 1.4m3.24 3.38a16 16 0 0 1-.61-2.21c-.11-.35.11-.53.42-.51s.8-.34 1 .3c.3 1 .86 1.44 1.86 1.07a.46.46 0 0 1 .65.39 19 19 0 0 1 .68 3.2c-3.01-3.19-2.67-3.49-3.97-2.22ZM130.38 175.6a7.38 7.38 0 0 0-3-5.26c-2-1.47-3.25.07-4.49 1.24a15 15 0 0 0-2.63-3.81c-1.41-1.21-2.42-1.22-3.79 0-2.85 2.55-2.24 3.89-3.33 3.22a1.56 1.56 0 0 0-2.08.41 3.71 3.71 0 0 0-1.09 3.41 1.09 1.09 0 0 1-.36 1.21 1.12 1.12 0 0 0-.44 1.33c.55 1.15 2.73.53 3.46.48 1.89-.11 1.1.21.84 1.82a.35.35 0 0 0 .66.23 1.9 1.9 0 0 0 .3-.63c.14-1.58 1.23-1.82 2.5-1.85a7 7 0 0 0 .83-.1c-.12.87-1.11 1.63-.18 2.61.45-1 .67-2.07 1.33-2.64s1.86-.26 2.88-.44c-.21.72-1.29 3.07-.55 3.21.25 0 .33-.14.41-.34.29-.81.61-1.62.9-2.44.08-.22.1-.46.42-.46a22 22 0 0 1 2.81-.12c-.2 1-1.07 1.86-.35 3.14 1.37-3.19.8-3.21 3.11-3.22.94.02 1.99.19 1.84-1m-7.19.19c-3.15.16-6.24.74-9.35 1.16a18.3 18.3 0 0 1-3.69 0c2.21-1.54-.67-2.72 1.6-4.89 1.22-1.16 1.91 1.71 2.82-.38a9.2 9.2 0 0 1 2.56-3.3c1-.85 1.5-.77 2.45 0 1.39 1.16 2 3.09 2.73 4 .44.52.77.33 1.59-.5 1.29-1.32 2-1.52 3.1-.59a7.1 7.1 0 0 1 2.15 3.5c.32 1.07-.05.7-5.96 1M94.61 125.28c-.08.39.24.51.56.52a22 22 0 0 1 2.8.68c2.28.32.92 2.59 3 7.44 1.85 4.36 6.94 3.93 8.33-.35.82-2.55.14-5-.55-7.48-.25-.88-.23-.45 4.08-3.43.29-.2.72-.44.48-.87s-.7-.17-1.05 0c-.6.26-5.19 3.26-5.52 3.48-3.17 2.11-6.43.66-11.38-.32-.36-.09-.67-.04-.75.33m7.87 2.11c1.13-.12 1.27.56 1.4 1.4.16 1 .39 2 .63 2.94.08.35.27.8.7.71s.36-.6.28-.94c-.27-1.14-.54-2.27-.88-3.39-.15-.49-.13-.7.41-.88 3.35-1.11 2.53-2.44 3.29 1.38.48 2.4.55 4.71-1.2 6.43a2.66 2.66 0 0 1-3.64.27c-1.74-1.14-1.91-2.77-3.37-7.54-.42-1.36 1.03-.23 2.38-.38M81.94 109.26a18.4 18.4 0 0 0-.57 5.67c0 .33.07.86.57.78.41-.1.36-.55.32-.9a18.4 18.4 0 0 1 1-7.17 5 5 0 0 1 .11-.79 45 45 0 0 1 5.74-12.62c.37-.55.38-.8 1-1.12-.61 4.67.26 11.05 3 14.55.45.57 1 1.24 1.83.88 3.22-1.35 6.8.12 6.53-1-.05-.24-.21-.51-.46-.47-1.71.26-3.47-.17-5.17.34s-1.75.48-2.62-1.08c-2.65-4.77-3-11.62-1.82-16.34.54-2.16 1.17-2.16.8-2.47s-.53 0-.64.23a8.5 8.5 0 0 0-.68 1.77c-.88 4.82-5.78 5.79-8.94 19.74M109.48 104.51c.23.54.36.8-.2 1-2.26.76-2.36.58-2.36 1s.37.25.58.23a8.5 8.5 0 0 0 2.8-.73c.51-.25.52-.64.33-1.1-2-4.74-1.69-9.75-1.54-15 .32.42 1.44 2.13 2.91 3.92a37 37 0 0 0 12.5 10 17.6 17.6 0 0 0 3.24 1.34c.32.09.72.29.84-.17s-.32-.43-.58-.55c-1.84-.8-3.59-1.79-5.37-2.72-5.64-2.94-10-8.07-13.74-13.2-.2-.28-.08-1-.66-.8-.4.12-.29.69-.3 1.08 0 2.52-.17 4.61 0 7.18.24 3.16.32 5.65 1.55 8.52M46.8 44.06c1.88-.23 5 0 6.23-1.06a84 84 0 0 1-5.52-11.47c-.11-.28-.08-.82-.51-.7s-.14.58-.12.89a2.5 2.5 0 0 0 .18.57c3.72 10.4 5.69 10.19 3.91 10.56-1.32.28-2.64 0-4 .28a1.12 1.12 0 0 1-1.29-.48 18.77 18.77 0 0 1-4-10.79c0-.25 0-.47-.32-.51s-.33.26-.42.46a3.43 3.43 0 0 0 .06 1.88 18.85 18.85 0 0 0 3.9 9.53 1.89 1.89 0 0 0 1.9.84"/><path d="M92.46 114.27c.65-.35 1.47-.64 1.33-1.65-.06-.51-.51-.57-.88-.68a6.5 6.5 0 0 0-7 2.83 2.13 2.13 0 0 0-.35 1.23 1.76 1.76 0 0 0 .83 1.43c.55.27.73-.41 1-.72 3.77-3.97 4.02-1.88 5.07-2.44M110.54 110.47a.94.94 0 0 0 1.23.67 10.28 10.28 0 0 1 7.37.7c.44.22.87.14.94-.36a1.46 1.46 0 0 0-.56-1.65c-2.11-1.38-5.9-2-8.44-.36-.35.22-.77.41-.54 1M56 41.2c-.24.24-.62.45-.37 1 1.43-1 2.74-2.13 4-3.23.48-.4.56-.65.33-1.2-1.44-3.41-4.48-9.47-6.95-11.9-.19-.19-.43-.43-.68-.16s0 .4.18.58A63 63 0 0 1 59 37.44a.89.89 0 0 1-.25 1.22c-.94.82-1.83 1.68-2.75 2.54M166.74 51.84c-1.27.52-3.45 3.73-3.44 5.08 0 .88.63 1.22 1.44.72 1.84-1.12 2.57-3 3.14-5 .19-.64-.49-1.07-1.14-.8M102.06 107.34c.37.51 1.23-.57.64-.92s-.5-.77-.62-1.19c-1.52-5.56-2.63-11.1-2.34-16.94a2.88 2.88 0 0 0-.69 2.11c-.21 5.22 1.51 14.83 3.01 16.94M147.46 49.5c.58.33.76 0 .9-.4 0-1.47-2.43-3.6-4-3.64-2.38-.07-1.38 1-2.67 1.27-.36.07-.72.33-.61.78s.56.45.91.34c1.89-.57 3.47.17 4.95 1.22.16.14.32.31.52.43M36 48.15a42.4 42.4 0 0 1-1.35-10c0-.39.26-1.13-.39-1.11-.49 0-.43.74-.45 1.18-.11 3.34 0 8.18 1.71 11.33.56 1.09 1.06.66.48-1.4M147.5 56.78a5 5 0 0 1 3 2.08 2.21 2.21 0 0 0 3.28.42c.22-.2.52-.42.35-.74s-.52-.1-.79 0c-1.12.44-1.86.37-2.45-.63a3 3 0 0 0-2.8-1.78c-1-.36-1.18-1-.49-1.75a3.78 3.78 0 0 1 3.74-1.26 1.13 1.13 0 0 0-1.35-.81c-3.57.4-4.94 3.87-2.49 4.47M53.73 41.6c.3.39.62.81 1.27.56-5.7-8.95-5.41-11.65-6.22-11.37-.35.12-.25.37-.17.66 1.24 3.97 4.19 9.23 5.12 10.15M105.92 118.42c.1.17.19.4.43.35.66-.14.73-3.38-4-3.41-2.46 0-4.51 2.38-4.29 4.13 0 .31.18.53.51.52s.27-.31.26-.52c-.11-2.34 4.56-5.36 7.09-1.07M102.67 94.9c0-.23 0-.48-.29-.53a.37.37 0 0 0-.32.35c-.19 4 1.56 10.38 2.66 12a.51.51 0 0 0 .77.18c.33-.19 0-.4-.08-.57a40.3 40.3 0 0 1-2.74-11.43M173.16 51.85c.93-.58.72-1.64.19-3.28-.93-2.87-3.34-3.9-6-4.5-.39-.08-1-.29-1.21.48 3.68.68 6.55 2.09 7.02 7.3M79.8 115.63c-1.58-3.31-1.81-9.91.08-13.92-2.31 3.13-2.22 6.73-1.78 10.37.22 1.78 1.04 3.4 1.7 3.55M122.39 98.85a40.6 40.6 0 0 0 6.74 3.72c.41.17.82.47 1.33.23 0-.5.33-.23-7.73-4.61-.23-.12-.52-.49-.77-.1s.18.59.43.76M112 101.24a6.6 6.6 0 0 1 3.68.55 14.4 14.4 0 0 1 5.08 2.82 1.61 1.61 0 0 0-.9-1.66 12.87 12.87 0 0 0-6.47-2.45 2.18 2.18 0 0 0-1.56.17c-.13.09-.31.17-.23.38a.32.32 0 0 0 .4.19M39.85 34.23a5.34 5.34 0 0 0 .35 2.85 30.8 30.8 0 0 0 1.76 6c.09.2.14.51.45.39s.16-.36.1-.6q-1-3.66-2-7.31c-.11-.42-.12-.97-.66-1.33M84.08 107.65a15.5 15.5 0 0 1 4.27-3.08c.24-.13.62-.16.57-.58-1.67-.09-4.16 1.51-5.61 3.61.21.62.5.34.77.05M122.76 180.09a3.4 3.4 0 0 0-.64 2.69 11 11 0 0 0 1.25-2.44c.16-.26-.37-.67-.61-.25M118.94 180.55c-.54-.43-1 1.69-.68 2.51a6.1 6.1 0 0 0 .84-2 .41.41 0 0 0-.16-.51M116 180.76a2 2 0 0 0-.85 1.51.56.56 0 0 0 .13.56.28.28 0 0 0 .27 0 6 6 0 0 0 .79-1.8c.02-.13-.2-.36-.34-.27M71.83 33.32c-4.43-1.1-8.62 2.2-9.43 6.31-1.25 6.44 5.23 12.16 11.61 9a6.35 6.35 0 0 0 3.25-3.27 8.38 8.38 0 0 0-5.43-12.04m-1.57 15.17a7.18 7.18 0 0 1-7.07-7.44c.12-7.22 8.53-8.94 12.33-4.28a7.6 7.6 0 0 1 1.71 4.77 6.9 6.9 0 0 1-6.97 6.95M45.08 46.47c-4.68.92-8.46 6.74-5.32 11.35s10.52 4.3 13.65-.45C57 51.89 52.27 45 45.08 46.47m4.33 13c-3.93 1.8-8.51 0-9.69-3.92a14 14 0 0 1-.17-1.42c-.13-5.59 7.07-8.75 11.63-5.42 3.58 2.59 3.27 8.43-1.77 10.73Z"/><path d="M68 37a4.08 4.08 0 0 0-2.07 2.48c-2.21 7 7.88 7.65 8 .45a2.44 2.44 0 0 0-.78-2.13c-1.48-1.15-4.93-.36-6 2.06-1.16 2.7 2.93 3.47 3.59 1.26a1 1 0 0 0-.61-1.4c-.77-.21-.46.5-.52.85a.79.79 0 0 1-1.31.47c-.27-.27-.13-.56 0-.84.93-2 4.61-2.41 4.48-.45-.38 5.5-5.75 4.72-6.14 2.23a4.64 4.64 0 0 1 1.69-4.47c.17-.15.62-.16.35-.55s-.45-.12-.68.04M43.39 56.58a5.25 5.25 0 0 0 5.71.34c2.67-1.66 3.2-6.94-.73-7.62a2.38 2.38 0 0 0-2.6.87c-1.41 2-1.86 5 .55 5.37s3.22-2.81 1.26-3c-.26 0-.56-.1-.71.22s.08.53.35.76c.54.44.09.71-.32.9a.91.91 0 0 1-1.24-1 4.6 4.6 0 0 1 1-2.59 1.33 1.33 0 0 1 1.43-.51c1.6.33 2.15 1.37 2 2.95a3.25 3.25 0 0 1-2.09 3c-1.82.69-3.25.33-4.06-.48a3.46 3.46 0 0 1-.94-3.72c.23-.81.53-1.45 1.61-1-1.5-3.07-4.39 2.93-1.22 5.51M191.14 63.39c1.8-.18 2.5-1.5 1.64-3.07s-4.26-3.45-4.78-6.9c-.71-4.73.24-2.36-.93-12.62-.85-7.42-5.27-12.25-11.62-15.55a20.3 20.3 0 0 1-3.69-2.36 16.72 16.72 0 0 0-13.57-3.51 18 18 0 0 0-7.66 3.33c-2.95 2.09-3.53-1.06-9.93.31-3.22.7-5.6 2.68-7.71 5a12.78 12.78 0 0 1-8.89 4.37c-6 .47-6.4 3.06-4.42 4.37a17 17 0 0 0 2 .86 7.62 7.62 0 0 0-3.08 4.28 2.93 2.93 0 0 0 2.21 3.77c.62.18 1.28.11 2 .25a15.6 15.6 0 0 0-3.35 5.35c-.86 2.93.82 4.72 3.77 4 .25-.06.59-.28.64.13s1 .88.4 1.46a25.4 25.4 0 0 0-3.73 5.81c-.13.25-.13.57-.62.32-6.74-3.36-12.07 3.53-15.78 10.06-.74 1.31-1.37 2.69-2 4-.4-8.59.17-12.56-.64-12.56-.32 0-.32.28-.34.51-.16 2.91-.18.58-.22 11.88 0 .25.18.61-.16.72-1.43.43-2.71 1.43-4.24 1.45a16.84 16.84 0 0 0-10.68 3.73c-1 .83-2.12 1.61-3.17 2.41.41-.67.92-1.26 1.36-1.89 4.53-6.55 7.61-13.93 11.77-20.69.12-.19.27-.46 0-.62s-.43.1-.56.3c-3.14 4.58-1.28 2-7.19 12.54-.54 1-.85 2.25-2.39 2.16a.73.73 0 0 0-.37.15c-8 4.34-17.82 6.18-23.89 9-.29.13-.89.2-.7.66s.64.09 1 0c7.82-3 15.76-4.48 24.35-8.87 0 0 .1.05.16.09a49 49 0 0 1-4.36 6.52c-.29.34-.65.85-.41 1.16.48.62 0 .79-.33 1a24.9 24.9 0 0 0-6.91 9.3c-.14-1.15-.1-6.66-.46-8.91-.3-1.87-1.2-1.4-2.89-.4-3 1.76-.53.41.79 11-3.26-2-3.54-2.39-7.18-4.88-1.94-1.33-1.43 1-1.75 2.57s0 2 1.41 2.67a42 42 0 0 0 4.17 1.51c-3.74 1.4-8.28 4.46-9.95 8.29a4.94 4.94 0 0 0-.17 4.26c1.08 2.33 2.3.32 4-1.62a3 3 0 0 1 0 .62c-.15.59-.18 1.17.41 1.53s1.18-.16 3.17-2c.07.54 0 1.28 0 1.7.57 3.55 2.27 3.77 3.29 2 0 0 .09 0 .15-.07 1 1.62 1.12 1.85 2.84 1.24.41-.14.45.19.59.36a8.16 8.16 0 0 0 3.46 2.42 1.89 1.89 0 0 0 1.89.09c-1.57-.91-3.45-1.87-4.47-3.26a10.2 10.2 0 0 1-1.09-10.74c2.42-5.54 2-5.21 2.49-7.11 1.59-5.94 6.49-9.88 11.32-13.65a14.55 14.55 0 0 1 10.49-3.49c2.31.19 13-6.65 25.88 1.1a24.6 24.6 0 0 1 6.12 5.18c3.84 4.48 2.83 12.07 7.53 16.27a1.8 1.8 0 0 1 .28.42 4.29 4.29 0 0 1-.36 5.3 13.4 13.4 0 0 1-2.38 2.31c-.28.21-.95.3-.71.78s.84.16 1.25 0a4 4 0 0 0 1.41-.94 4.6 4.6 0 0 1 1.16-.75c1.12-.64.69.71 1.59 2.69.76 1.66 2 1.73 3 .25a15 15 0 0 0 1.19-2.54 21 21 0 0 0 1.25 2.15c.72 1 1.63.94 2.21-.14.24-.43.34-.94.54-1.39s.06-1.24.45-1.82c.37.49.66.94 1 1.33.91 1 1.83.81 2.27-.45a17.8 17.8 0 0 0 .47-6.75c3.14.69 4.16 1.23 4.24-1 .07-1.94.17-3.89.23-5.83 0-.67.18-.85.79-.41 5.2 3.65 5.46 3.42 6 4.46a2.71 2.71 0 0 0 2.36 1.65c1.3.06.32.58 3.49 6.56 2.4 4.53 6 6.84 11.28 6.49 2.36-.15 4-1.07 4.93-3.28.17-.44.4-.85.54-1.3a13.26 13.26 0 0 0-2-12.46c-.7-.94-1.46-1.84-2.17-2.78-.16-.21-.5-.42-.25-.78.65-.9.26-1.66-.37-2.33a.93.93 0 0 1-.2-1.09c1.45-3.93.5-10-4.3-14.12-2-1.7-3.1-.54-3.6-1.14s-.39-8.13-7.48-11.52c-.17-.08-.3-.17-.31-.35-.07-2-1.54-2.39-3-2.72-4.88-1.09-8.08 3.54-17.6-4-.26-.2-.41-.37 0-.69.6-.51.42-1.14 0-1.71a4.9 4.9 0 0 0-2.4-1.57 14.6 14.6 0 0 0-6.1-.82.4.4 0 0 1-.17-.12c-.2-.3.11-.57.25-.82a4 4 0 0 1 1.66-1.84c3.14-1.25-.14-4.51 8.38-12.75a2.54 2.54 0 0 1 1.36-.75 7.53 7.53 0 0 1 6.86 2.61c.26-1.81-1.42-2-2.39-3.09 2.47.3 4.91-.86 7.44-1-1.8 1.79-4 3.77-4.77 6.18a1.73 1.73 0 0 0 .22 1.89c1.06 1.05 3.27-.5 4.46-.8a4 4 0 0 0-.14.44c-1 3.27.8 6.53 4.81 3.12 1.6-1.37 3-3.29 4.23-4.48.2 1.71 1 2.92 2.64 3.25a4.15 4.15 0 0 0 3.93-1.62c.43 2.64 0 5.48 2.61 7.29-1.5 1.28-2.88 2.4-3.59 4.66s.52 3.52 2.39 3.66c0 0 0 .1.08.15-2.3 2.07-3.28 3.43-3.72 5.12s.37 3 2.18 2.81c.22 0 .41-.12.55.15-.92 1-2.22 3-1.69 4.16a15.8 15.8 0 0 0 2 3.55 4 4 0 0 0 6.21.26c.33-.38.46-.18.7 0a6.4 6.4 0 0 0 3.1 1.07 2.88 2.88 0 0 0 3.31-3.54c-.22-1 0-.88.77-.73a3 3 0 0 0 3.12-.91c1.73-2.11-.83-5-2.58-7.06a12.7 12.7 0 0 0 2.07.14M64 96.94a.81.81 0 0 1-.49-1c.12-.72.17-1.45.26-2.27 1.7.9 7.89 5.14 8.42 6.2-2.71-1.28-5.62-1.73-8.19-2.93m6.22 11.42a11.84 11.84 0 0 0 1.2 5.69c.12.26.56.56.14.84s-.74-.06-1-.39c-.85-1.07-.62-2.14-1.37-2.23-.53-.06-.62.47-.79.77s-.3 1.18-.81 1.13-.63-.8-.75-1.3a6.85 6.85 0 0 1 .11-3.18c.1-.39.38-.88-.19-1.14s-.73.19-1 .47a35 35 0 0 1-2.71 2.64c.18-1.94 1.32-3.29.57-3.79-.54-.37-.5 0-3.79 3.74-.6.68-.84.62-1.07-.26-.64-2.41 1.22-5.16 3.07-6.81a23.3 23.3 0 0 1 6.63-4.1c2.34-1 2.37.75 4.29.41-1.26 2.95-2.33 4.81-2.49 7.51Zm2-11.7c-.82-7.53-3-8.18-1.18-9.14 1.62-.87 1.59-.93 1.77.91.33 3.37.06 6.78.2 10.19-.88-.52-.64-1.36-.7-1.96Zm36.85-20.09c-2 .11-4 .27-6.16.43a28.4 28.4 0 0 1 2.84-5.19c3.29-4.22 5.71-8.65 11.08-8.62a4 4 0 0 1 .7.06c2.52.44 2.56.52 1.58 2.87-.25.59-3.41 1.24-6.91 6.64-.7 1.1-1.5 2.13-2.16 3.25a1.06 1.06 0 0 1-.88.56Zm17.26 6.31c-1.26-.87-2.5-1.72-3.74-2.55-.44-.29-.15-.59-.05-.86a16.9 16.9 0 0 0 1.46-5.11 8.4 8.4 0 0 1 1.47-4 3.1 3.1 0 0 1 .7-.82 15.8 15.8 0 0 0 2.08 2.46.63.63 0 0 1 .21.79c-1.46 3.67-1.6 7.66-2.04 10.09Zm4.77 5.61c0-2.69-.73-5.27-1-7.91 0-.43 0-.85.45-1a6.6 6.6 0 0 1 2.13-.49s.11.24.11.35a75 75 0 0 1-1.39 9.68c-.1-.39-.22-.45-.21-.63Zm1.21.12a65 65 0 0 0 1.34-9.31c.07-1.16-.23-1.39-1.34-1.17-3.92.78-3.49 1.21-2.23 8-.66-.56-1.56-1.33-2.48-2.09a.86.86 0 0 1-.22-.83 51 51 0 0 1 1.61-10.07c.07-.23.11-.51.4-.51 1.62 0 2-1.22 2.51-2.4 1.95 1.38 2.07 1.33 4-1.55 2.19 1.77-.44 2.63 1 8.15a6.4 6.4 0 0 0 6.3 5.17c5.44.36 7.88-3.56 8.87-3.87-2.3 6.41-3.32 8.94-4.06 12.3-.13.61-.31.79-1 .71-2.53-.25-5-1-7.56-.91a4.5 4.5 0 0 1-.8-.13 14.3 14.3 0 0 1 2.07-2.22c1.9-1.87 1.76-2.61-.7-3.58s-2.68 0-7.75 6.73a3.6 3.6 0 0 1 .13-2.42ZM144 70.43a15.1 15.1 0 0 1 4.07-4.54c.88-.62 1.7-.28 2.33.6a1.62 1.62 0 0 1-.14 2.41c-4 3-5.92 6.89-6.85 8s-1.56 1.14-2.61.61a2 2 0 0 1-1.25-2 14 14 0 0 1 4.59-10.35c1.11-1 2.34-.61 3.74-.11a11.5 11.5 0 0 0-4.62 5.55.29.29 0 0 0 .14.34.27.27 0 0 0 .35-.11c.09-.13.16-.27.25-.4m15.88 4.17c-2.55-.38-2.95-.78-3.67 1.21-.2.54-.57.47-1 .48a24.5 24.5 0 0 1-7.4-1.12c-2.09-.57-2-.29-.74-2.08a20.3 20.3 0 0 1 2.52-2.72.76.76 0 0 1 1-.21c4 1.72 7.63.78 11-1.76.51-.39.72-.36 1.1 0a8.2 8.2 0 0 1 1.95 2.39c-1.53-.59-3-1.23-4.31 0-1.14 1.06-1.03 2.43-.45 3.81m-18.8 4.11c1.26.42 2.12-.21 2.88-1.1a8.3 8.3 0 0 0 1-1.35c.42-.78.8-1 1.67-.53 2.07 1 4.36 1 4.65 1.41-2.68 3.43-6.44 4.67-10.19 3.38s-4-6.07-3.47-9.87c1.55.72 1.54.71 1.18 2.25-.61 2.73-.4 4.91 2.28 5.81m-1.47-8.38c-.14.38-.25.4-.52.13-.86-.89-1.79-1.72-2.59-2.65-.65-.76-.39-1.85-.73-2.74-.08-.22.27-.21.44-.31 1.26-.71 2.45-1.12 3.49.45.42.62 1.35.68 2.09 1.07a13 13 0 0 0-2.18 4.05m7.81 22.42c-.56 2.14-.23 3.22-1 2.74a23.6 23.6 0 0 0-10-3.39c1.37-2.41 3.47-.87 10.24-.27.63.08.94.23.76.92m-14.37.57a1.2 1.2 0 0 1-.24-1.39c.22-.37 3.2-4.51 4.73-6.25a2.33 2.33 0 0 1 3.28.09 2 2 0 0 1 .17.28 6.6 6.6 0 0 1-.63.77c-2.13 2-4.14 4.2-6.43 6.06-.27.22-.61.75-.88.44m16.58 15.46a1.82 1.82 0 0 1-.5 1.12 8.5 8.5 0 0 1-1.87-2.81c-.4-.73-.47-1.52-1.1-1.33-.87.26.15 1.36-.36 3.94a4.2 4.2 0 0 1-.88 2.24 11.4 11.4 0 0 1-1.6-2.91c-.2-.44-.24-1.11-.91-1s-.54.69-.64 1.13c-.41 1.8-1.64 4.61-2.34 2.88s-.66-3.06-1.48-3.4c-.39-.16-.25-.38-.13-.63a5.7 5.7 0 0 0-1.33-6.81 11.56 11.56 0 0 1-3-5.7 1.29 1.29 0 0 1 .41-1.36c1.29-1.43 2.7-1.41 4.42-1 6.38 1.68 10.37 3.54 11.48 9.84a16.1 16.1 0 0 1-.17 5.8m4.23-7.1c0 1.6-1.23.23-2.73.49-.74.13-.56-.42-.65-.7-.17-.52.29-.39.56-.38a1.77 1.77 0 0 0 1.89-1.33 1.56 1.56 0 0 0-.44-1.82 2.07 2.07 0 0 0-2.32-.46c-1.15.45-.75 1.47.05.87a1.33 1.33 0 0 1 1.51.11.91.91 0 0 1-.22 1.55c-.76.3-1.33.29-1.71-.42-1-2.19-1.25-1.47-1.63-2.82a6.3 6.3 0 0 1 .09-3 125 125 0 0 1 4.64-15.64c.24-.68.61-1 1.33-.83h.41c.54.17 1.52-.45 1.63.71.06.62.43 1.08.31 1.84-1.07 7.29-2.8 14.45-2.72 21.83m7.59-3.53c-6.39-4.36-6-3.13-6-4.54a59 59 0 0 1 1.1-7.85 3.65 3.65 0 0 1 .39-1.54c1.47 2.82 2.66 1 2.69 2.32a13.45 13.45 0 0 0 2.07 7c.3.46.21.4-.25 4.61m1.29-3.05c.39.28.78.47.86 1a47 47 0 0 0 1.16 4.87c-2.18-.16-2.64-2.66-2.02-5.87m8.73-12.64c.05-1.64.27-3.28.29-4.92 0-.87.27-.91 1-.71a7.7 7.7 0 0 1 4.38 3.81c1.92 3.14 2.7 6.54 1.41 10.17-.7 2 1.56 2 .37 3.29a19.5 19.5 0 0 0-2.31 2.39c-5.1-7.2-4.85-7.31-5.61-12.68-.09-.55.45-.81.47-1.35m-6.27-16.9a11.57 11.57 0 0 1 4.54 7c1.32 5.55.85 5.41.55 10.41-.4 6.66 1.75 9.1 6.25 15 5.89 7.76 5.94 9.18 6.54 8.88.41-.2.11-.53 0-.76a54 54 0 0 0-5.08-7.77c-.27-.4-.93-.92-.75-1.19a8.8 8.8 0 0 1 1.66-1.43c.22-.17.37 0 .49.17 1.48 2 5.95 5.76 4.95 10.79a25.6 25.6 0 0 1-1.67 5.24c-.8 1.8-2.21 2.19-4 2.19a10 10 0 0 1-6.68-2.29c-4-3.35-6.47-11.43-7.85-16.5-.27-1-3.21-3.48-3.45-9.1-.11-2.38-1.89-.19-2.64-2.23-.95-2.63 2.33-2.45.36-4.28a3.85 3.85 0 0 1-1.33-3.33c.08-.86.44-1.2 1.31-1 .65.15 1.31.27 2 .37a.74.74 0 0 0 .81-.26c.22-.33 0-.56-.18-.81a2.66 2.66 0 0 1-.55-2.44 1.57 1.57 0 0 1 2-1.12c2.4.48 2.77 2.1 3.54 1.51.37-.28.06-.61 0-.91-1.07-3.32-3.72-3.83-4.42-5.85-.3-.9-.06-1.24.88-1.27a4.53 4.53 0 0 1 2.72.98M143.14 58c9.45 8.17 14.62 2.16 19.05 4.56.41.22.77.52.71 1s-.55.21-.83.28c-1.23.28-1.65 1.11-1.16 2.35s.54 1.36-.73 2.1a11 11 0 0 1-9 1.34 1.8 1.8 0 0 1-.33-.21 2.49 2.49 0 0 0 .58-2.43c-.68-1.91-3.13-2.81-5.15-3.15a3.39 3.39 0 0 0-3.38 1.33.88.88 0 0 1-1.36.24 12 12 0 0 1-2.24-1.51c-.27-.35-.12-.69.32-1.49a3.49 3.49 0 0 0-.92-4 11.6 11.6 0 0 0-3.46-2 31.6 31.6 0 0 1 6.21.39c.62.05 1.15.73 1.69 1.2m-1.9-3.73c.64.3 1.58.67 1.39 1.35s-1.11.22-1.72.16a34.8 34.8 0 0 0-9.12 0c-.36.06-1 0-.83.59.1.42.65.52 1.09.5a7.44 7.44 0 0 1 6.26 2.68c1.67 2 0 3.32-2.48 4.17-1.45.51-1.4.47-1 1.89a4.34 4.34 0 0 1-.42 3.8c-.49.71-.85.79-1.41.23-.74-.75-.72-1.57-1.4-1.42-.87.2-.09.94-1 2.61-.43.82-1 .91-1.69.3-1.85-1.58-2.16-4-3.48-2.48-1.08 1.23-2.15 3.19-2.11 4.32a38.4 38.4 0 0 1-1.81 6.2c-.24.62-.61.21-.88.08a25.3 25.3 0 0 0-6.49-2.25 15 15 0 0 0-2.69-.32c-.55 0-.73-.16-.39-.6 2.45-3.23 4.52-6.81 8.22-8.89 1.12-.63.11-2 4.57-8.25 2.23-3.11 5.67-4.51 9.35-5.41a12 12 0 0 1 8.04.74m45.89 8.57c1.7 1.91 3.11 2.9 3.79 5a1.67 1.67 0 0 1-2 2.35 6.86 6.86 0 0 1-3.2-1.08c-.37-.27-.81-.57-1.14-.08s.22.74.55 1c2 1.48 1.74 3.4.74 4s-4.57-.15-4.83-1.69c-.09-.51-.29-.91-.79-.84s-.45.63-.42 1.06a2 2 0 0 1-2.92 1.89 5.8 5.8 0 0 1-3.5-4.46 1.74 1.74 0 0 1 .23-1.15 9.1 9.1 0 0 1 2.86-3.2c.32-.23.76-.45.53-.94-.34-.71-.75-.14-3.38.35-1 .19-1.47-.14-1.27-1.24.48-2.63 3.43-4.74 5.37-6.29.31-.25.78-.47.53-.95s-.69-.3-1.16-.14c-1.09.36-2.79 1-3.45 0-.52-.74-.07-2.09.42-2.86 3.14-4.93 6.06-3.78 5.65-5-.18-.51-.65-.4-1.13-.27h-.08c-2.33.84-2.95.5-3.58-1.94-.4-1.58-.28-3.2-.56-4.79-.06-.39.08-.86-.42-1s-.6.41-.79.73a4.2 4.2 0 0 1-1.53 1.7c-1.73 1-4 0-3.73-2.22s.94-2.38.28-2.82c-.4-.18-.62.14-.79.44a33 33 0 0 1-5 6 5.6 5.6 0 0 1-1.73 1.21c-1.2.53-1.84.21-2-1.13a4.54 4.54 0 0 1 1.32-3.84c.24-.24.71-.47.36-.89-.64-.77-1 .77-4.94 2.18a1.17 1.17 0 0 1-1.16 0c-.4-.32-.07-.75.05-1.11.74-2.15 3.27-4.6 5-6.1a3.2 3.2 0 0 1 1.35-.84c.24-.06.56.11.64-.25s-.32-.44-.57-.58a1 1 0 0 0-.87 0c-9.33 3.45-18.64 1-18.59.19 0-.15.24-.32.4-.41a9.7 9.7 0 0 1 6.15-1.41c.65.07 1 .27.71 1 .53-.25.85-.5.78-1s-.43-.59-.8-.68a9.37 9.37 0 0 0-7.7 1.61c-.71.49-.76 1.06-.28 1.54.9.89 3.9 1.32 5 1.51-3.25 2-8.24 7.84-8 12.12 0 .42-.34.44-.57.6-1.57 1.08-2.92 2.15-3.23 4-.06.41-.37.31-.6.36-6.8 1.6-7.79 4.18-8.2 3.26a4 4 0 0 1-.12-.41c-.49-1.5-.53-1.49-2.09-1.08-2.71.72-4.2-2.09 1.11-8 .66-.74 1.29-1 1-1.58-.4-.81-2.06.5-3.84-.08-3.55-1.16-.53-6.25 2.89-6.93.34-.07.72-.17.68-.59-.09-1-1.56.31-4.2-1-.46-.23-.89-.48-.9-1s.48-.76.9-1a8.9 8.9 0 0 1 3.64-.67 13.37 13.37 0 0 0 9.75-4.73 17.5 17.5 0 0 1 3.26-3 11.35 11.35 0 0 1 10-1.54c4 1.19 4.63-2.59 10.95-3.78a16.72 16.72 0 0 1 13.3 3.06 11.7 11.7 0 0 1 1.49 1.5c.24.25.31 1 .84.21.13-.21.42.07.62.16a24.1 24.1 0 0 1 7.92 6c2 2.26 3.3 4.27 4 9.28 1.38 9.32-.47 12.5 2.66 16.68 1.32 1.76 2.63 2.2 3.32 3.56 1.06 2.09-2 1.81-4.2 1-.32-.12-.69-.36-1 .05s0 .74.22.99"/></g></svg>